<svg width="25" height="25" viewBox="0 0 25 25" fill="none" xmlns="http://www.w3.org/2000/svg">
<g clip-path="url(#clip0_686_25000)">
<path d="M0.217773 20.645C0.217773 16.0357 0.217773 11.4263 0.217773 6.81692C0.232773 6.7663 0.255273 6.7163 0.262148 6.66442C0.534648 4.54317 2.3459 2.82567 4.4734 2.68942C4.88965 2.66255 5.30902 2.68567 5.74777 2.68567C5.74777 2.42255 5.76152 2.21255 5.74527 2.00505C5.6984 1.4163 5.93277 1.01317 6.49902 0.817546H6.87402C7.45215 1.0213 7.67215 1.44192 7.62465 2.03505C7.6084 2.23442 7.62215 2.43692 7.62215 2.6488H16.8134C16.8134 2.4363 16.8271 2.23442 16.8109 2.03442C16.7621 1.44067 16.9853 1.02192 17.5615 0.817546H17.9365C18.5015 1.01442 18.7371 1.41567 18.6903 2.00567C18.6734 2.2188 18.6878 2.43505 18.6878 2.66192C18.9815 2.66192 19.239 2.6588 19.4953 2.66192C21.7034 2.69005 23.4953 4.03692 24.0565 6.09442C24.1215 6.33255 24.1646 6.5763 24.2178 6.81755V20.6457C24.2034 20.6888 24.1821 20.7313 24.1759 20.7757C23.9209 22.6975 22.5259 24.2413 20.6353 24.6863C20.4246 24.7357 20.2109 24.7738 19.999 24.8175H4.43652C4.39277 24.8038 4.35027 24.7825 4.3059 24.7769C2.33652 24.5282 0.774023 23.12 0.329648 21.1913C0.287773 21.01 0.254648 20.8269 0.217773 20.645ZM2.09215 10.0744C2.09215 10.175 2.09215 10.2525 2.09215 10.33C2.09215 13.5794 2.09152 16.8288 2.09215 20.0788C2.09215 21.7325 3.2859 22.9382 4.9384 22.9394C9.78902 22.9432 14.6403 22.9432 19.4909 22.9394C21.1459 22.9382 22.3415 21.735 22.3421 20.0838C22.3434 16.8344 22.3421 13.585 22.3421 10.335V10.0744H2.09215ZM2.10902 8.17317H22.3265C22.639 5.24567 20.5634 4.26442 18.6871 4.58067C18.6871 5.17192 18.6915 5.76505 18.6859 6.35817C18.6809 6.86817 18.3109 7.26442 17.824 7.29505C17.2665 7.33005 16.8234 6.92817 16.8153 6.36317C16.8065 5.76317 16.8134 5.1638 16.8134 4.55005H7.62215C7.62215 4.6488 7.62215 4.73317 7.62215 4.81817C7.62215 5.3338 7.6284 5.84942 7.61965 6.36505C7.61027 6.90192 7.20215 7.30005 6.67902 7.29817C6.1559 7.2963 5.75652 6.89505 5.7484 6.35692C5.7434 6.04442 5.74715 5.73192 5.74715 5.41942C5.74715 5.13317 5.74715 4.84692 5.74715 4.56442C3.51715 4.27817 1.81715 5.52442 2.1084 8.17317H2.10902Z" fill="#253E96"/>
<path d="M6.6936 18.3476C6.99798 18.3476 7.30235 18.3426 7.6061 18.3488C8.13673 18.3595 8.54548 18.7726 8.54235 19.287C8.53985 19.7926 8.13923 20.2088 7.6211 20.2182C6.99735 20.2295 6.37298 20.2295 5.74923 20.2182C5.2236 20.2088 4.81173 19.7745 4.82298 19.267C4.83485 18.7595 5.23798 18.3595 5.75735 18.3488C6.06923 18.3426 6.3811 18.3476 6.69298 18.3476H6.6936Z" fill="#253E96"/>
<path d="M17.7498 20.2213C17.4536 20.2213 17.1567 20.2251 16.8604 20.2207C16.3111 20.2126 15.8961 19.8088 15.8936 19.2863C15.8911 18.7632 16.3067 18.3532 16.8536 18.3482C17.4542 18.3432 18.0548 18.3426 18.6554 18.3482C19.2004 18.3532 19.6192 18.7713 19.6123 19.2907C19.6061 19.8038 19.1948 20.2088 18.6617 20.2195C18.3579 20.2257 18.0536 20.2207 17.7492 20.2207L17.7498 20.2213Z" fill="#253E96"/>
<path d="M17.7436 14.6913C17.4392 14.6913 17.1348 14.697 16.8311 14.6901C16.2998 14.6776 15.8917 14.2651 15.8936 13.7513C15.8961 13.2357 16.3048 12.8251 16.8361 12.8195C17.4442 12.8132 18.0529 12.8132 18.6611 12.8195C19.1936 12.8245 19.6054 13.2313 19.6117 13.7457C19.6186 14.2651 19.2004 14.682 18.6554 14.6913C18.3511 14.697 18.0473 14.6926 17.7429 14.692L17.7436 14.6913Z" fill="#253E96"/>
<path d="M6.68531 12.8176C6.98969 12.8176 7.29406 12.8132 7.59781 12.8188C8.12969 12.8282 8.53906 13.2351 8.54156 13.7507C8.54469 14.2645 8.13656 14.6826 7.60531 14.6901C6.98906 14.6988 6.37281 14.6988 5.75719 14.6901C5.22969 14.682 4.81719 14.257 4.82281 13.747C4.82906 13.2345 5.24156 12.8276 5.77281 12.8195C6.07719 12.8145 6.38094 12.8188 6.68531 12.8188V12.8176Z" fill="#253E96"/>
<path d="M12.2122 14.6913C11.9078 14.6913 11.6035 14.6963 11.2997 14.6901C10.7666 14.6795 10.356 14.2732 10.3516 13.7601C10.3472 13.2388 10.7653 12.8232 11.3103 12.8182C11.911 12.8132 12.5116 12.8132 13.1122 12.8182C13.6603 12.8226 14.0722 13.2326 14.0685 13.7588C14.0653 14.2763 13.661 14.6795 13.1253 14.6901C12.8216 14.6963 12.5172 14.6913 12.2128 14.6913H12.2122Z" fill="#253E96"/>
<path d="M12.2022 20.2213C11.9059 20.2213 11.6091 20.2257 11.3128 20.2207C10.7684 20.2113 10.3491 19.7976 10.3516 19.2795C10.3541 18.7563 10.7697 18.3532 11.3203 18.3488C11.9209 18.3438 12.5216 18.3432 13.1222 18.3488C13.6584 18.3545 14.0634 18.7563 14.0684 19.2751C14.0734 19.7907 13.6697 20.2057 13.1378 20.2195C12.8259 20.2276 12.5141 20.2207 12.2022 20.2213Z" fill="#253E96"/>
</g>
<defs>
<clipPath id="clip0_686_25000">
<rect width="24" height="24" fill="white" transform="translate(0.217773 0.816956)"/>
</clipPath>
</defs>
</svg>
