<svg width="25" height="25" viewBox="0 0 25 25" fill="none" xmlns="http://www.w3.org/2000/svg">
<rect x="1.28711" y="1.91504" width="22" height="22" rx="11" fill="white"/>
<rect x="1.28711" y="1.91504" width="22" height="22" rx="11" stroke="#253E96" stroke-width="2"/>
<path d="M11.2871 16.915L10.4459 17.4558C10.6349 17.7498 10.9638 17.9238 11.3132 17.9147C11.6626 17.9056 11.9819 17.7147 12.1554 17.4112L11.2871 16.915ZM10.1283 13.2632C9.82964 12.7986 9.21092 12.6641 8.74635 12.9627C8.28178 13.2614 8.14728 13.8801 8.44593 14.3447L10.1283 13.2632ZM16.1554 10.4112C16.4294 9.93166 16.2628 9.32081 15.7832 9.0468C15.3037 8.77279 14.6929 8.93938 14.4189 9.4189L16.1554 10.4112ZM12.1283 16.3743L10.1283 13.2632L8.44593 14.3447L10.4459 17.4558L12.1283 16.3743ZM14.4189 9.4189L10.4189 16.4189L12.1554 17.4112L16.1554 10.4112L14.4189 9.4189Z" fill="#253E96"/>
</svg>
