<svg width="20" height="21" viewBox="0 0 20 21" fill="none" xmlns="http://www.w3.org/2000/svg">
<path fill-rule="evenodd" clip-rule="evenodd" d="M7.39808 6.10892C7.39808 7.66448 6.11568 8.9253 4.53235 8.9253C2.94995 8.9253 1.66663 7.66448 1.66663 6.10892C1.66663 4.55428 2.94995 3.29346 4.53235 3.29346C6.11568 3.29346 7.39808 4.55428 7.39808 6.10892ZM17.0777 4.87539C17.7703 4.87539 18.3333 5.42848 18.3333 6.10892C18.3333 6.79028 17.7703 7.34336 17.0777 7.34336H11.5981C10.9046 7.34336 10.3417 6.79028 10.3417 6.10892C10.3417 5.42848 10.9046 4.87539 11.5981 4.87539H17.0777ZM2.9231 14.0918H8.4027C9.09621 14.0918 9.65917 14.6448 9.65917 15.3262C9.65917 16.0066 9.09621 16.5606 8.4027 16.5606H2.9231C2.22959 16.5606 1.66663 16.0066 1.66663 15.3262C1.66663 14.6448 2.22959 14.0918 2.9231 14.0918ZM15.4676 18.1083C17.0509 18.1083 18.3333 16.8475 18.3333 15.2928C18.3333 13.7372 17.0509 12.4764 15.4676 12.4764C13.8852 12.4764 12.6018 13.7372 12.6018 15.2928C12.6018 16.8475 13.8852 18.1083 15.4676 18.1083Z" fill="white"/>
</svg>
