<svg width="27" height="41" viewBox="0 0 27 41" fill="none" xmlns="http://www.w3.org/2000/svg">
<g clip-path="url(#clip0_138_2914)">
<path d="M11.9716 40.091C11.1972 40.0127 10.4206 39.9512 9.64927 39.853C7.27785 39.5504 4.94296 39.0838 2.83978 37.8824C2.17491 37.5025 1.54448 36.9931 1.03617 36.4212C0.0654705 35.3304 0.0957396 33.9641 1.00903 32.8202C1.78767 31.8443 2.845 31.2639 3.96809 30.7869C5.49615 30.1388 7.1025 29.7755 8.80904 29.4989C8.68692 29.333 8.59299 29.2036 8.49696 29.0762C6.76119 26.7841 4.98262 24.5233 3.30426 22.1895C1.91814 20.2627 0.948491 18.1324 0.517418 15.7662C-0.771625 8.6989 3.96078 1.72137 11.0051 0.342565C18.2196 -1.06964 25.2357 3.60223 26.6385 10.7812C27.2982 14.1588 26.7095 17.3496 25.0489 20.3535C23.8987 22.4348 22.4531 24.3104 20.9991 26.1798C20.1537 27.2674 19.3051 28.3529 18.4242 29.4822C19.0755 29.6117 19.6819 29.7192 20.2831 29.8549C21.76 30.1868 23.2088 30.6199 24.5051 31.4205C25.0844 31.7785 25.647 32.2096 26.1041 32.7106C27.1823 33.89 27.1531 35.343 26.1041 36.5558C25.4163 37.3511 24.5375 37.8762 23.5939 38.3031C21.6786 39.1715 19.6474 39.5973 17.5745 39.853C16.8022 39.948 16.0256 40.0127 15.2522 40.091H11.9706H11.9716ZM13.6281 33.2325C13.6928 33.1542 13.7502 33.0874 13.8034 33.0175C15.6446 30.6085 17.5056 28.2141 19.3187 25.7842C20.6943 23.9399 22.0857 22.0987 23.3257 20.1636C24.9383 17.646 25.6292 14.855 25.2326 11.8542C24.3621 5.27433 18.2498 0.747544 11.694 1.81113C5.39595 2.83298 1.0226 8.89304 2.00999 15.1869C2.34191 17.3026 3.1383 19.2273 4.35845 20.9516C5.91366 23.1487 7.56697 25.2769 9.1921 27.424C10.6513 29.3539 12.1292 31.2702 13.6281 33.2314V33.2325ZM13.5926 38.5494C14.3211 38.5076 15.5444 38.4711 16.7614 38.3615C18.6715 38.1893 20.5461 37.8198 22.3445 37.1299C23.2348 36.7886 24.097 36.3867 24.7848 35.6999C25.5113 34.9756 25.528 34.2564 24.7807 33.5717C24.3736 33.198 23.906 32.8682 23.4165 32.6104C21.5836 31.6439 19.5827 31.242 17.5516 30.9696C17.4169 30.9519 17.2103 31.074 17.1205 31.194C16.2041 32.41 15.3023 33.6375 14.4015 34.8649C13.8723 35.5862 13.3515 35.5882 12.8286 34.8722C11.9299 33.6427 11.0218 32.4215 10.1273 31.1888C9.98641 30.9957 9.84341 30.9164 9.60648 30.9665C8.39989 31.2253 7.17869 31.4268 5.98881 31.7451C4.74151 32.0781 3.54223 32.5666 2.5611 33.4496C1.66242 34.2585 1.63528 35.0601 2.58302 35.8106C3.21554 36.3116 3.94513 36.7301 4.69246 37.037C7.38014 38.1381 10.2233 38.4387 13.5926 38.5504V38.5494Z" fill="#253E96"/>
<path d="M13.6181 18.8399C10.611 18.8441 8.14774 16.3902 8.14356 13.3863C8.13938 10.3562 10.5954 7.89922 13.6254 7.90235C16.6304 7.90548 19.0832 10.3656 19.0811 13.3748C19.079 16.3829 16.6272 18.8357 13.6181 18.8399ZM17.5176 13.3623C17.5113 11.2173 15.7567 9.4659 13.6129 9.4659C11.4533 9.4659 9.69354 11.2372 9.70711 13.3998C9.72068 15.5416 11.4867 17.2868 13.6306 17.2774C15.7724 17.268 17.5238 15.504 17.5176 13.3623Z" fill="#253E96"/>
<path d="M23.7686 13.02C23.7686 13.1567 23.7706 13.2611 23.7686 13.3644C23.7571 13.8644 23.4408 14.2161 22.9972 14.2214C22.5588 14.2266 22.2624 13.8696 22.1998 13.3832C22.0839 12.4845 22.0349 11.5556 21.7593 10.7028C20.9222 8.11119 19.176 6.32949 16.6397 5.32957C16.1731 5.14587 15.9456 4.85362 15.9842 4.47577C16.0385 3.9445 16.5405 3.64077 17.0801 3.83282C18.7345 4.42046 20.1352 5.38698 21.2802 6.7136C22.8511 8.53182 23.661 10.6559 23.7696 13.02H23.7686Z" fill="#253E96"/>
<path d="M14.4635 3.98183C14.4719 4.39307 14.1285 4.75525 13.7162 4.77404C13.283 4.79283 12.9156 4.44526 12.9083 4.01001C12.901 3.57267 13.2538 3.21466 13.688 3.21779C14.1013 3.22093 14.4552 3.56954 14.4635 3.98183Z" fill="#253E96"/>
</g>
<defs>
<clipPath id="clip0_138_2914">
<rect width="26.5992" height="40" fill="white" transform="translate(0.304688 0.0908203)"/>
</clipPath>
</defs>
</svg>
