<svg width="15" height="21" viewBox="0 0 15 21" fill="none" xmlns="http://www.w3.org/2000/svg">
<g clip-path="url(#clip0_271_5374)">
<path d="M7.61297 20.8158C7.44527 20.6778 7.25361 20.5604 7.11427 20.3984C5.44559 18.4551 3.91381 16.4101 2.63528 14.1854C1.89262 12.8925 1.24187 11.555 0.838508 10.1099C0.234204 7.94105 0.513866 5.89353 1.76892 4.02708C2.9609 2.25312 4.64327 1.19021 6.76909 0.893164C8.84798 0.602479 10.723 1.13393 12.3462 2.45816C13.7773 3.6258 14.6294 5.14578 14.9203 6.98091C15.1467 8.40791 14.8744 9.76493 14.3816 11.0926C13.7215 12.8719 12.7769 14.5015 11.7297 16.0744C10.7225 17.5875 9.61216 19.0233 8.42457 20.3984C8.28474 20.5604 8.09309 20.6778 7.92588 20.8163H7.61346L7.61297 20.8158ZM7.77089 11.7028C9.77301 11.7004 11.4031 10.0664 11.4065 8.05899C11.4099 6.05404 9.78279 4.41809 7.77773 4.40879C5.77463 4.39949 4.12698 6.05111 4.13284 8.06192C4.13871 10.0703 5.77219 11.7048 7.77138 11.7023L7.77089 11.7028Z" fill="#253E96"/>
</g>
<defs>
<clipPath id="clip0_271_5374">
<rect width="14.4681" height="20" fill="white" transform="translate(0.532227 0.815918)"/>
</clipPath>
</defs>
</svg>
