<svg width="15" height="14" viewBox="0 0 15 14" fill="none" xmlns="http://www.w3.org/2000/svg">
<path d="M5.95254 2.78434C6.36456 1.6692 6.57056 1.11163 6.87084 0.952723C7.13094 0.815072 7.4423 0.815072 7.7024 0.952723C8.00268 1.11163 8.20868 1.6692 8.6207 2.78434L8.83181 3.35572C8.95556 3.69066 9.01743 3.85813 9.12549 3.98159C9.22095 4.09065 9.34163 4.17472 9.47702 4.22646C9.63029 4.28504 9.80882 4.28504 10.1659 4.28504H11.0821C12.3654 4.28504 13.007 4.28504 13.2626 4.52159C13.4837 4.72623 13.5861 5.02893 13.5346 5.32577C13.4751 5.66889 12.9653 6.05841 11.9455 6.83744L11.1307 7.45989C10.8466 7.67692 10.7045 7.78544 10.6183 7.92521C10.5421 8.04868 10.4972 8.18892 10.4877 8.3337C10.4769 8.49759 10.5297 8.66838 10.6352 9.00996L10.9172 9.92231C11.3152 11.2102 11.5142 11.8542 11.3582 12.1713C11.2233 12.4455 10.9571 12.6311 10.6533 12.663C10.3018 12.6999 9.76618 12.2907 8.69498 11.4724L8.15 11.0561C7.8408 10.8199 7.6862 10.7017 7.51595 10.6563C7.36569 10.6162 7.20755 10.6162 7.05729 10.6563C6.88704 10.7017 6.73244 10.8199 6.42324 11.0561L5.87827 11.4724C4.80706 12.2907 4.27145 12.6999 3.91996 12.663C3.61612 12.6311 3.34993 12.4455 3.21507 12.1713C3.05908 11.8542 3.25807 11.2102 3.65606 9.92231L3.938 9.00996C4.04355 8.66838 4.09633 8.49759 4.08554 8.3337C4.07601 8.18892 4.03118 8.04868 3.95497 7.92521C3.8687 7.78544 3.72665 7.67692 3.44255 7.45989L2.62775 6.83744C1.60799 6.05841 1.0981 5.66889 1.03862 5.32577C0.987151 5.02893 1.08954 4.72623 1.31064 4.52159C1.56621 4.28504 2.20785 4.28504 3.49113 4.28504H4.40736C4.76442 4.28504 4.94295 4.28504 5.09622 4.22646C5.23161 4.17472 5.35229 4.09065 5.44775 3.98159C5.55581 3.85813 5.61768 3.69066 5.74143 3.35572L5.95254 2.78434Z" fill="#F9E000" stroke="#EED600" stroke-linejoin="round"/>
</svg>
