<svg width="184" height="156" viewBox="0 0 184 156" fill="none" xmlns="http://www.w3.org/2000/svg">
<g clip-path="url(#clip0_138_5358)">
<path opacity="0.1" d="M83.9631 145.01C94.9193 145.01 103.801 143.999 103.801 142.753C103.801 141.507 94.9193 140.496 83.9631 140.496C73.007 140.496 64.1252 141.507 64.1252 142.753C64.1252 143.999 73.007 145.01 83.9631 145.01Z" fill="black"/>
<path d="M134.198 66.3344C134.172 66.0363 134.164 65.7467 134.138 65.4572C134.155 64.878 134.172 64.3074 134.189 63.7283C134.112 63.1577 134.249 62.5616 134.052 61.9995C134.026 61.7695 134.017 61.5481 133.992 61.3182C134.035 60.3217 133.88 59.3508 133.682 58.38C133.682 58.38 133.682 58.38 133.674 58.38C133.682 58.38 133.691 58.38 133.7 58.38C133.682 57.9116 133.657 57.4432 133.485 57.0003C133.545 56.5745 133.373 56.1827 133.279 55.7824C133.279 55.7824 133.27 55.7654 133.261 55.7654C133.176 55.1182 133.081 54.4794 132.832 53.8662V53.8492C132.84 53.8492 132.849 53.8662 132.858 53.8662C132.789 53.3297 132.703 52.8102 132.462 52.3247C132.454 52.3247 132.445 52.3077 132.437 52.2992C132.402 51.8819 132.291 51.4816 132.084 51.1154L132.102 51.1324C132.102 51.1324 132.093 51.1154 132.084 51.1069C132.059 50.6129 131.852 50.1701 131.681 49.7187C131.586 49.4888 131.483 49.2588 131.388 49.0289C131.371 48.5264 131.148 48.0835 130.925 47.6492C130.727 47.1978 130.529 46.7294 130.332 46.278C130.22 45.6393 129.894 45.1113 129.61 44.5492V44.5747C129.61 44.5747 129.601 44.5662 129.593 44.5577H129.61C129.61 44.5577 129.593 44.5407 129.584 44.5407C129.584 44.5407 129.584 44.5407 129.584 44.5492C129.584 44.5492 129.576 44.5407 129.567 44.5322C129.567 44.5322 129.567 44.5322 129.576 44.5322C129.473 44.1574 129.326 43.8083 129.077 43.5102C129.077 43.5017 129.06 43.4932 129.052 43.4761C129.069 43.4846 129.077 43.5017 129.095 43.5102C128.991 43.1269 128.82 42.7778 128.57 42.4712C128.313 41.7899 127.935 41.1767 127.522 40.572C127.522 40.572 127.522 40.572 127.505 40.572C126.732 39.0986 125.83 37.719 124.807 36.4074C124.807 36.4074 124.799 36.4074 124.79 36.3989C124.79 36.3989 124.799 36.3989 124.807 36.3989C124.747 36.2967 124.696 36.1945 124.636 36.1008C115.683 24.2544 103.801 17.4583 88.9376 15.7976C88.3964 15.7379 87.8379 15.7635 87.2966 15.6868C87.3568 15.4569 87.4083 15.2184 87.4083 14.9715V10.8154H91.2488C92.7609 10.8154 93.9809 9.60607 93.9809 8.10717C93.9809 6.60827 92.7523 5.39893 91.2488 5.39893H78.1037C76.5916 5.39893 75.3716 6.60827 75.3716 8.10717C75.3716 9.60607 76.6002 10.8154 78.1037 10.8154H81.9355V14.9715C81.9355 15.1418 81.9527 15.3121 81.9871 15.4739H81.6176C80.7842 15.8061 79.8821 15.7124 79.0144 15.8401H79.0058C79.0058 15.8401 79.0058 15.8401 79.0144 15.8401C79.0144 15.8401 79.0144 15.8401 79.0058 15.8231V15.8401C79.0058 15.8401 79.0058 15.8401 78.9972 15.8401C76.8149 16.0105 74.6671 16.3767 72.5449 16.8877H72.5278C72.5278 16.8877 72.5278 16.8877 72.5364 16.8877C72.5364 16.8877 72.5364 16.8962 72.5364 16.9047C72.5364 16.9047 72.5278 16.9047 72.5192 16.8962C72.1669 16.9984 71.8061 17.1006 71.4538 17.2028C70.4916 17.3135 69.598 17.6456 68.6959 17.9522C68.6959 17.9522 68.7045 17.9522 68.7131 17.9522C68.7045 17.9522 68.6959 17.9522 68.6873 17.9522C66.3333 18.6846 64.0307 19.4937 61.8657 20.686C59.7693 21.5547 57.8448 22.7385 55.9804 24.0074C53.9958 25.353 52.0026 26.6901 50.3186 28.419C48.6003 29.8923 47.0023 31.4764 45.6104 33.2563C45.4472 33.4182 45.2582 33.5459 45.1121 33.7247C43.2478 36.1179 41.4521 38.5536 40.0259 41.2448C36.7783 46.9083 34.914 52.9976 34.1064 59.4445C34.029 60.0833 34.1064 60.7476 33.7627 61.3352V68.7701C33.8916 68.8041 33.9259 68.9063 33.9345 69.0256C34.5359 75.1234 36.3659 80.8805 38.8489 86.4503C40.8679 90.964 43.1962 95.3245 45.9541 99.455C45.9713 99.455 45.9885 99.4379 46.0057 99.4294C45.9971 99.4464 45.9799 99.455 45.9713 99.472C48.0247 102.896 50.3272 106.149 52.793 109.3C52.8273 109.411 52.8445 109.521 52.9133 109.615C56.1952 113.856 59.6061 117.995 63.1973 121.981C66.213 125.337 69.263 128.658 72.5364 131.775C73.5244 132.763 74.5124 133.742 75.509 134.722C76.5486 135.948 77.8459 136.91 78.9972 138.009C79.5299 138.699 80.2602 139.184 80.9131 139.755C81.0592 139.729 81.1966 139.687 81.2911 139.559C81.5575 140.053 82.2964 140.01 82.5026 140.581C82.5627 140.641 82.6228 140.7 82.6744 140.751C82.8376 140.862 83.0352 140.922 83.1813 141.049C83.525 141.348 83.8342 141.416 84.1435 141.279C83.903 141.407 83.628 141.45 83.2844 141.339C83.1211 141.373 82.9407 141.39 83.0181 141.637C83.2586 142.046 83.6281 142.276 84.0748 142.412C84.4786 142.106 84.8223 141.731 85.2347 141.407C86.2055 140.649 87.2021 139.891 87.9238 138.878C89.6164 137.345 91.3347 135.837 92.9928 134.253C94.4878 132.823 95.8968 131.315 97.3402 129.833C99.153 128.181 100.828 126.393 102.418 124.527C102.418 124.527 102.409 124.527 102.401 124.527C103.612 123.429 104.652 122.151 105.717 120.925C106.421 120.116 107.246 119.392 107.77 118.43C109.274 116.658 110.837 114.921 112.289 113.107C117.822 106.157 122.874 98.8929 126.938 90.9811C128.579 87.7703 130.117 84.5256 131.191 81.0764C131.191 81.0764 131.191 81.0508 131.199 81.0338C131.199 81.0508 131.199 81.0594 131.199 81.0764C132.076 78.8536 132.763 76.5797 133.133 74.2206C133.322 74.0077 133.304 73.7352 133.304 73.4797C133.304 73.4797 133.304 73.4627 133.304 73.4541C133.657 72.5599 133.493 71.572 133.794 70.6693C133.794 70.6693 133.794 70.6693 133.803 70.6693C134.112 69.2981 134.009 67.9014 134.138 66.5132C134.138 66.5132 134.138 66.4962 134.138 66.4877C134.138 66.4877 134.146 66.5047 134.146 66.5132C134.172 66.4621 134.181 66.4025 134.207 66.3514L134.198 66.3344ZM87.8293 73.9566C87.2279 74.178 86.6007 74.2717 85.9993 74.2632C85.9821 74.2632 85.9735 74.2632 85.9564 74.2632L60.8347 73.9822L80.9561 67.7907C80.9561 67.7651 80.9733 67.7396 80.9818 67.7055L79.6759 37.8041L90.6044 67.0242C90.7333 67.3138 90.8364 67.6118 90.9137 67.9099C91.6268 70.3882 90.3037 73.0283 87.8293 73.9481V73.9566Z" fill="white"/>
<path d="M33.3527 53.9771L33.3418 53.9879H33.3527V53.9771Z" fill="white"/>
<path d="M32.4481 59.5213C32.7059 57.6562 33.0324 55.8167 33.3416 53.9941C31.1852 57.0771 30.5666 62.3573 30.18 66.0109C29.759 70.0392 29.9136 74.1356 30.6525 78.1299C31.589 83.1801 33.4791 88.0516 36.1683 92.4461C37.5257 94.6774 39.0894 96.781 40.8507 98.7312C41.6497 99.6255 42.4401 100.511 43.3508 101.295C44.2701 102.078 45.7564 102.734 46.5125 103.637C46.1173 103.168 45.7393 102.691 45.3612 102.214C36.0308 90.3595 30.326 74.5785 32.4567 59.5213H32.4481Z" fill="white"/>
<path d="M28.1954 66.1386C28.4102 64.8781 28.6594 63.6177 28.9171 62.3828C27.3878 64.4353 26.8551 68.0292 26.5201 70.5161C26.1506 73.2584 26.1678 76.0518 26.5974 78.7856C27.1473 82.2518 28.3329 85.6073 30.077 88.6562C30.9533 90.1977 31.9843 91.6625 33.1442 93.0251C33.6768 93.6553 34.1923 94.277 34.8023 94.8221C35.4123 95.3672 36.4175 95.8526 36.9158 96.4828C36.6581 96.1592 36.4089 95.827 36.1598 95.4949C30.034 87.2254 26.4599 76.3584 28.204 66.1301L28.1954 66.1386Z" fill="white"/>
<path d="M134.688 44.813C132.918 39.9842 130.246 35.479 126.869 31.5869C125.16 29.6111 123.27 27.7886 121.216 26.1534C120.271 25.404 119.352 24.663 118.321 24.0413C117.29 23.4196 115.7 23.0023 114.815 22.2358C115.271 22.6361 115.735 23.0364 116.181 23.4452C127.351 33.6139 135.59 48.2537 135.985 63.4556C136.028 65.3378 136.019 67.2199 136.011 69.068H136.028C137.643 65.6784 137.377 60.3641 137.153 56.6935C136.896 52.6482 136.08 48.6284 134.679 44.813H134.688Z" fill="white"/>
<path d="M140.014 51.6603C139.928 48.8925 139.439 46.1331 138.571 43.51C137.463 40.1801 135.736 37.0631 133.511 34.3378C132.385 32.9496 131.122 31.6807 129.765 30.5224C129.138 29.9859 128.536 29.4664 127.84 29.0235C127.144 28.5721 126.07 28.2655 125.486 27.729C125.795 28.01 126.096 28.2911 126.397 28.5807C133.811 35.7345 139.138 45.8776 139.112 56.2507C139.112 57.5367 139.069 58.8057 139.026 60.0661C140.186 57.7837 140.117 54.1727 140.04 51.6688L140.014 51.6603Z" fill="white"/>
<path opacity="0.4" d="M66.6856 19.9284C63.3778 21.1803 60.0873 23.0539 56.9857 25.2682C56.9342 25.3023 56.8826 25.3364 56.8311 25.3704C56.5905 25.5408 56.3499 25.7111 56.118 25.8899C55.8946 26.0603 55.6712 26.2306 55.4478 26.4009C55.3447 26.4776 55.2416 26.5542 55.1385 26.6394C55.1213 26.6564 55.0956 26.6734 55.0698 26.6905C54.7519 26.9375 54.434 27.1929 54.1247 27.4484C53.9529 27.5847 53.7811 27.7295 53.6178 27.8743C53.5491 27.9339 53.4804 27.985 53.4116 28.0446C53.3859 28.0616 53.3687 28.0787 53.3429 28.1042C52.9563 28.4364 52.5782 28.7685 52.2002 29.1092C52.0713 29.2284 51.9339 29.3476 51.805 29.4668C51.7878 29.4839 51.7621 29.5009 51.7449 29.5179C51.7191 29.5435 51.6933 29.5605 51.6675 29.5861C51.1263 30.0886 50.5936 30.591 50.0695 31.1105C50.0008 31.1787 49.9406 31.2468 49.8805 31.3064C49.4595 31.7237 49.0385 32.1581 48.6261 32.5924C48.5488 32.669 48.4801 32.7542 48.4113 32.8309C48.2997 32.9501 48.188 33.0778 48.0677 33.2056C47.7842 33.5207 47.4921 33.8273 47.2085 34.1509C47.0797 34.3042 46.9508 34.4575 46.8219 34.6023C46.8219 34.6023 46.8133 34.6108 46.8047 34.6193C46.6673 34.7811 46.5298 34.9515 46.3923 35.1133C46.2119 35.3262 46.0315 35.5391 45.8511 35.7605C45.7652 35.8627 45.6878 35.9649 45.6105 36.0756C45.6105 36.0756 45.6019 36.0927 45.5933 36.0927C45.5675 36.1267 45.5332 36.1693 45.5074 36.2034C45.4473 36.28 45.3871 36.3567 45.327 36.4333C45.1552 36.6548 44.9833 36.8762 44.8115 37.0976C44.7342 37.1998 44.6482 37.3105 44.5709 37.4127C44.4764 37.549 44.3819 37.6767 44.2874 37.813C44.253 37.8556 44.2273 37.8982 44.1929 37.9408C41.9505 41.0152 40.0604 44.2855 38.7974 47.5729C38.0156 49.6254 37.1392 54.5905 37.6805 54.4457C37.9984 54.3605 40.026 50.3322 41.0484 48.4416C44.0039 42.991 47.7842 37.813 52.3119 33.3248C56.2898 29.3902 60.8777 25.924 65.6975 23.1732C68.1032 21.802 73.4643 19.3919 73.6104 18.8127C73.7135 18.4295 68.7475 19.1278 66.677 19.9199L66.6856 19.9284Z" fill="#C9C9C9"/>
<path fill-rule="evenodd" clip-rule="evenodd" d="M157.962 17.0156C156.038 3.25296 149.207 2.68235 137.781 1.87329C136.964 0.689495 135.332 -0.162153 133.614 0.0763085C131.26 0.399935 129.61 2.55461 129.902 4.67521C130.203 6.79581 132.351 8.2351 134.705 7.90296C135.77 7.75818 136.595 7.42603 137.153 6.70213C148.383 7.52823 151.45 7.75818 152.842 17.7139C153.933 25.5576 151.355 36.6887 146.226 45.1626C145.161 45.3074 144.156 45.878 143.631 46.8063C140.899 50.6302 136.337 55.3568 130.357 56.1829C124.378 57.009 118.905 53.6535 115.219 50.7068C114.248 49.9744 113.346 49.6763 112.272 49.8211C105.012 43.0505 99.4795 33.0181 98.3797 25.1744C96.9879 15.2186 99.6685 14.2052 110.236 10.3813C111.181 10.9008 112.057 10.9944 112.917 10.8752C115.271 10.5516 116.946 8.59279 116.654 6.47219C116.362 4.35158 114.171 2.72494 111.826 3.04004C110.116 3.27851 108.982 4.50488 108.294 5.89307C97.512 9.75103 91.1027 12.1356 93.0186 25.8983C94.2644 34.7895 100.193 46.0568 108.423 53.5683C108.569 54.6244 108.922 55.6634 109.901 56.3873C115.795 61.1821 122.221 63.5411 128.321 63.5667L130.452 78.8197C132.583 94.0642 128.957 107.512 117.255 109.224C116.697 109.3 115.795 109.513 115.236 109.53C113.982 111.702 111.817 113.814 110.7 115.509C112.315 115.671 113.003 115.568 114.652 115.304C131.852 112.562 139.052 96.6277 136.449 78.0107L134.318 62.7576C140.178 61.0884 145.711 57.0942 150.273 50.8601C151.012 49.8977 151.089 48.8076 150.719 47.7771C156.562 38.128 159.199 25.8983 157.962 17.0071V17.0156Z" fill="#ED1C24"/>
<path opacity="0.3" d="M130.701 94.422C130.641 94.439 130.547 94.8393 130.443 95.3418C130.332 94.8138 130.194 94.3965 130.1 94.422C130.048 94.4305 129.962 94.7542 129.885 95.1629C129.816 95.427 129.748 95.8102 129.67 96.1849C129.644 96.3127 129.619 96.4404 129.593 96.5767C129.567 96.7129 129.533 96.8577 129.507 96.994C129.455 97.2069 129.404 97.4368 129.352 97.6583C129.301 97.8712 129.249 98.0841 129.189 98.297C129.163 98.3737 129.146 98.4503 129.129 98.5355C128.656 100.068 127.969 101.525 127.058 102.836C126.234 104.012 125.228 105.076 124.086 105.996C124.026 106.047 123.957 106.09 123.897 106.141C123.716 106.285 123.527 106.413 123.347 106.549C123.209 106.635 123.063 106.728 122.917 106.822C122.642 106.992 122.359 107.163 122.127 107.316C122.041 107.367 121.972 107.41 121.895 107.461C121.809 107.512 121.732 107.563 121.646 107.614C121.414 107.75 121.19 107.887 121.01 107.997C120.537 108.278 120.168 108.517 120.185 108.619C120.185 108.67 120.451 108.67 120.812 108.636C121.001 108.747 122.84 108.474 123.562 108.185C125.752 107.29 127.625 105.621 128.949 103.739C130.272 101.848 131.182 99.5234 131.26 97.1728C131.285 96.3553 130.907 94.3709 130.701 94.4305V94.422Z" fill="white"/>
<path d="M80.3547 139.27L83.2243 141.91L84.1007 141.501L85.1145 140.334L82.3222 138.035L80.3547 139.27Z" fill="white"/>
</g>
<defs>
<clipPath id="clip0_138_5358">
<rect width="183" height="155" fill="white" transform="translate(0.753906 0.275391)"/>
</clipPath>
</defs>
</svg>
