<svg width="261" height="63" viewBox="0 0 261 63" fill="none" xmlns="http://www.w3.org/2000/svg">
<path d="M61.195 3.87268C60.8887 4.1667 60.7417 4.53422 60.7417 4.93851V8.22178H64.319C64.7233 8.22178 65.1153 8.07477 65.4338 7.80525C65.7769 7.51123 65.9606 7.1437 65.9606 6.71492V3.43164H62.3833C61.9423 3.43164 61.5503 3.5664 61.195 3.87268Z" fill="white"/>
<path d="M29.465 5.61248C26.1205 2.41497 22.0287 0.797852 17.2875 0.797852C12.5464 0.797852 8.46683 2.41497 5.11006 5.61248C1.77779 8.79774 0.0871582 12.7058 0.0871582 17.2387C0.0871582 21.7715 1.77779 25.6674 5.11006 28.8526C8.45458 32.0256 12.5464 33.6427 17.2875 33.6427C17.8266 33.6427 18.4024 33.6182 19.0149 33.5692L24.1113 37.2078L28.632 35.1006L24.5034 32.1114C27.4559 30.7393 29.8203 28.8403 31.5354 26.4514C33.5201 23.7072 34.5124 20.5954 34.5124 17.2387C34.5124 12.7181 32.8095 8.79774 29.465 5.61248ZM17.2875 5.26945C20.6566 5.26945 23.5846 6.42105 25.998 8.69974C28.4727 11.0642 29.6855 13.8574 29.6855 17.2264C29.6855 20.5954 28.4849 23.3642 25.998 25.7286C24.3441 27.309 22.335 28.3748 20.0195 28.9016L19.4315 28.4606L19.407 28.4361C18.4146 27.75 17.2875 27.6765 16.2585 28.1911L14.6903 28.9139C12.3381 28.4116 10.28 27.3335 8.58934 25.7164C6.11464 23.3519 4.91405 20.5709 4.91405 17.2142C4.91405 13.8574 6.11464 11.0519 8.57709 8.68747C10.9783 6.40879 13.9185 5.25721 17.2875 5.25721V5.26945Z" fill="white"/>
<path d="M52.7543 24.8711C52.7543 26.1942 52.1785 27.3213 51.0147 28.3259C49.8754 29.306 48.6258 29.7838 47.2046 29.7838C45.8693 29.7838 44.7422 29.3182 43.7866 28.3504C42.831 27.3826 42.3778 26.3535 42.3778 25.2019L42.3533 10.4517H37.5264L37.5509 25.1039C37.5999 27.6398 38.5922 29.8205 40.4789 31.5847C42.341 33.3365 44.5952 34.2309 47.2169 34.2309C49.2016 34.2309 51.0515 33.5938 52.7788 32.3075V33.6428H57.6057V10.4395H52.7788V24.8589H52.7543V24.8711Z" fill="white"/>
<path d="M65.7524 10.415H60.9255V33.6307H65.7524V10.415Z" fill="white"/>
<path d="M79.7186 14.3109C82.0218 14.3109 83.8349 15.1195 85.2805 16.7856L85.4888 17.0184H91.063L90.5485 16.0261C89.6909 14.3477 88.2575 12.8898 86.3096 11.7137C84.3127 10.4763 82.0953 9.85156 79.7308 9.85156C76.3373 9.85156 73.3971 11.0154 70.9836 13.3186C68.5947 15.6463 67.3818 18.4763 67.3818 21.7595C67.3818 25.0428 68.5947 27.8483 70.9836 30.1759C73.3848 32.4669 76.3373 33.643 79.7308 33.643C82.0953 33.643 84.3005 33.0182 86.2974 31.7931C88.2453 30.617 89.6786 29.1591 90.5485 27.4807L91.063 26.4884H85.4888L85.2805 26.7212C83.8472 28.3873 82.0218 29.1959 79.7186 29.1959C77.6114 29.1959 75.884 28.4731 74.4017 27.0029C72.9193 25.5328 72.1965 23.8177 72.1965 21.7595C72.1965 19.7014 72.9193 17.9617 74.4017 16.4916C75.8718 15.0215 77.6114 14.3109 79.7186 14.3109Z" fill="white"/>
<path d="M114.475 10.4149H107.786L98.0461 19.8482V0.785645H91.3816L92.4964 5.19601H93.207V33.6305H98.0339V24.2095L107.822 33.6305H114.548L102.456 22.0044L114.487 10.4027L114.475 10.4149Z" fill="white"/>
<path d="M133.954 0.785682H123.663L124.778 5.3063H125.55V33.6306H133.978C138.695 33.6061 142.787 31.989 146.107 28.8159C149.464 25.6307 151.154 21.7349 151.154 17.2143C151.154 12.6936 149.464 8.79782 146.131 5.58807C142.787 2.41506 138.707 0.785688 133.966 0.773438L133.954 0.785682ZM146.217 17.2265C146.217 20.5833 145.017 23.352 142.53 25.7042C140.165 27.9706 137.274 29.1222 133.942 29.1345H130.377V5.31854H133.966C137.286 5.31854 140.177 6.49464 142.542 8.74882C145.017 11.0888 146.229 13.8697 146.229 17.2265H146.217Z" fill="white"/>
<path d="M165.169 9.83887C161.776 9.83887 158.835 11.0027 156.422 13.3059C154.033 15.6336 152.82 18.4636 152.82 21.7346C152.82 25.0056 154.033 27.8233 156.422 30.151C158.823 32.4419 161.776 33.618 165.169 33.618C168.563 33.618 171.478 32.4542 173.867 30.151C176.268 27.8233 177.494 24.9933 177.494 21.7346C177.494 18.4758 176.281 15.6091 173.867 13.3059C171.466 11.015 168.538 9.83887 165.169 9.83887ZM165.169 29.1587C163.062 29.1587 161.335 28.4481 159.852 26.9658C158.37 25.4956 157.647 23.7805 157.647 21.7223C157.647 19.6642 158.37 17.9245 159.852 16.4544C161.322 14.9843 163.062 14.2737 165.169 14.2737C167.276 14.2737 168.979 14.9843 170.462 16.4544C171.932 17.9245 172.642 19.6519 172.642 21.7223C172.642 23.7928 171.932 25.4956 170.462 26.9658C168.979 28.4359 167.252 29.1587 165.169 29.1587Z" fill="white"/>
<path d="M191.668 14.3109C193.971 14.3109 195.785 15.1195 197.23 16.7856L197.439 17.0184H203.013L202.498 16.0261C201.641 14.3477 200.207 12.8898 198.259 11.7137C196.262 10.4763 194.045 9.85156 191.681 9.85156C188.287 9.85156 185.347 11.0154 182.933 13.3186C180.544 15.6463 179.332 18.4763 179.332 21.7595C179.332 25.0428 180.544 27.8483 182.933 30.1759C185.335 32.4669 188.287 33.643 191.681 33.643C194.045 33.643 196.262 33.0182 198.247 31.7931C200.195 30.617 201.628 29.1591 202.498 27.4807L203.013 26.4884H197.439L197.23 26.7212C195.797 28.3873 193.971 29.1959 191.668 29.1959C189.561 29.1959 187.834 28.4731 186.351 27.0029C184.869 25.5328 184.158 23.8177 184.158 21.7595C184.158 19.7014 184.881 17.9617 186.364 16.4916C187.834 15.0215 189.573 14.3109 191.681 14.3109H191.668Z" fill="white"/>
<path d="M213.757 4.35068H208.954V10.4272H203.233L204.899 14.9478H208.942L208.918 27.3825C208.918 27.5418 208.918 27.7133 208.942 27.8481C208.991 28.3381 209.089 28.8282 209.236 29.2937C209.689 30.6903 210.584 31.8051 211.907 32.5892C213.095 33.2998 214.908 33.6428 217.42 33.6428H219.282V29.1222H216.709C216.415 29.1222 216.17 29.1222 215.986 29.0977C215.472 29.0487 215.068 28.9384 214.81 28.7914C214.308 28.4974 214.002 28.0441 213.842 27.4193C213.806 27.211 213.769 26.9905 213.757 26.7822V14.9478H219.294V10.4272H213.757V4.32617V4.35068Z" fill="white"/>
<path d="M232.623 9.83887C229.23 9.83887 226.289 11.0027 223.876 13.3059C221.487 15.6336 220.274 18.4636 220.274 21.7346C220.274 25.0056 221.487 27.8233 223.876 30.151C226.289 32.4419 229.23 33.618 232.623 33.618C236.017 33.618 238.932 32.4542 241.321 30.151C243.735 27.8233 244.948 24.9933 244.948 21.7346C244.948 18.4758 243.735 15.6091 241.321 13.3059C238.92 11.015 236.004 9.83887 232.623 9.83887ZM232.623 29.1587C230.516 29.1587 228.789 28.4481 227.306 26.9658C225.824 25.4956 225.113 23.7805 225.113 21.7223C225.113 19.6642 225.836 17.9245 227.318 16.4544C228.789 14.9843 230.528 14.2737 232.635 14.2737C234.743 14.2737 236.445 14.9843 237.928 16.4544C239.398 17.9245 240.109 19.6519 240.109 21.7223C240.109 23.7928 239.386 25.4956 237.928 26.9658C236.445 28.4359 234.718 29.1587 232.635 29.1587H232.623Z" fill="white"/>
<path d="M259.87 10.648C259.073 10.3785 258.142 10.2314 257.125 10.2314C255.141 10.2314 253.291 10.942 251.563 12.3386V10.4152H246.761V33.6308H251.563V20.2773C251.6 18.8561 252.2 17.6433 253.377 16.5897C254.516 15.5361 255.741 15.0461 257.125 15.0461C257.811 15.0461 258.338 15.1441 258.706 15.3279L259.514 15.7321L260.421 10.844L259.857 10.6602L259.87 10.648Z" fill="white"/>
<path d="M67.4307 46.6661H69.2193V62.3596H67.4919V50.5006L62.3955 62.3596H60.5824L55.486 50.5006V62.3596H53.7586V48.1729H53.3175L52.9377 46.6538H55.5227L61.4767 60.5464L67.4184 46.6538L67.4307 46.6661Z" fill="white"/>
<path d="M80.1352 59.7252L81.1765 61.0483C80.0984 61.9182 78.7753 62.3592 77.2317 62.3592C77.0602 62.3592 76.8887 62.3592 76.7172 62.3592C75.0755 62.2489 73.7034 61.6609 72.6131 60.5828C71.4737 59.4802 70.8979 58.1571 70.8979 56.6012C70.8979 55.0453 71.4737 53.661 72.6008 52.5217C73.7279 51.4068 75.1 50.8433 76.7049 50.8433C78.3098 50.8433 79.6697 51.4068 80.809 52.5217C81.9361 53.6365 82.5119 55.0086 82.5119 56.6012C82.5119 56.7727 82.4506 56.9075 82.3159 57.0178C82.2056 57.128 82.0586 57.1893 81.8748 57.1893H72.6743C72.8704 58.2796 73.3481 59.1372 74.0955 59.7865C74.855 60.4358 75.7371 60.7543 76.7172 60.7543C78.0403 60.7543 79.1796 60.4113 80.1352 59.7252ZM76.6927 52.4359C75.7983 52.4359 74.9898 52.6932 74.2915 53.22C73.5932 53.7222 73.0909 54.4696 72.7724 55.4619H80.6375C80.319 54.4818 79.7922 53.7345 79.1061 53.22C78.3956 52.6932 77.587 52.4359 76.7172 52.4359H76.6927Z" fill="white"/>
<path d="M92.9742 46.6655H95.4489L95.0814 48.1847H94.7138V62.3713H92.9864V60.8889C91.7981 61.869 90.524 62.3713 89.2009 62.3713C87.6695 62.3713 86.3709 61.8445 85.3051 60.7787C84.2392 59.7128 83.7002 58.4387 83.7002 56.9319C83.7002 55.425 84.2392 54.1386 85.3051 53.0728C86.3709 52.007 87.6818 51.4802 89.2009 51.4802C90.524 51.4802 91.7981 51.9825 92.9864 52.9626V46.69L92.9742 46.6655ZM89.1886 60.8277C90.23 60.8277 91.1243 60.4479 91.8594 59.6883C92.5822 58.9288 92.9619 58.0099 92.9619 56.9319C92.9619 55.8538 92.5944 54.9349 91.8594 54.1754C91.112 53.4036 90.2177 53.0238 89.1886 53.0238C88.1596 53.0238 87.253 53.4036 86.5179 54.1754C85.7829 54.9349 85.4031 55.8538 85.4031 56.9319C85.4031 58.0099 85.7706 58.9288 86.5179 59.6883C87.253 60.4479 88.1473 60.8277 89.1886 60.8277Z" fill="white"/>
<path d="M96.8455 49.679V48.3804C96.8455 48.2701 96.8822 48.1721 96.968 48.0863C97.066 48.0006 97.1762 47.9761 97.3232 47.9761H98.7689V49.2747C98.7689 49.3849 98.7321 49.4829 98.6341 49.5564C98.5361 49.6422 98.4136 49.679 98.2911 49.679H96.8455ZM98.6586 62.3587H96.9312V51.4676H98.6586V62.3587Z" fill="white"/>
<path d="M108.998 59.4805H111.069C110.664 60.2645 110.003 60.9261 109.072 61.4896C108.128 62.0654 107.087 62.3595 105.972 62.3595C104.367 62.3595 102.983 61.8204 101.844 60.7301C100.717 59.6275 100.153 58.3166 100.153 56.773C100.153 55.2294 100.717 53.9063 101.844 52.8037C102.983 51.7134 104.367 51.1743 105.972 51.1743C107.087 51.1743 108.116 51.4683 109.072 52.0441C109.991 52.6077 110.664 53.2815 111.069 54.0533H108.998C108.214 53.1467 107.21 52.7057 105.972 52.7057C104.845 52.7057 103.877 53.0977 103.081 53.894C102.285 54.6781 101.88 55.6337 101.88 56.7608C101.88 57.8879 102.285 58.8189 103.081 59.6152C103.865 60.3993 104.833 60.8036 105.972 60.8036C107.222 60.8036 108.226 60.3503 108.998 59.456V59.4805Z" fill="white"/>
<path d="M123.614 52.9746H123.246V62.3589H121.519V60.8765C120.318 61.8566 119.044 62.3589 117.721 62.3589C116.202 62.3589 114.903 61.8321 113.825 60.7663C112.747 59.7004 112.208 58.4263 112.208 56.9195C112.208 55.4126 112.747 54.1262 113.825 53.0604C114.891 51.9946 116.19 51.4678 117.721 51.4678C119.044 51.4678 120.318 51.9701 121.519 52.9501V51.4678H123.994L123.614 52.9746ZM117.733 60.8275C118.787 60.8275 119.669 60.4477 120.404 59.6882C121.139 58.9286 121.519 58.0098 121.519 56.9317C121.519 55.8536 121.151 54.9348 120.404 54.1752C119.669 53.4034 118.775 53.0236 117.733 53.0236C116.692 53.0236 115.798 53.4034 115.063 54.1752C114.328 54.9348 113.948 55.8536 113.948 56.9317C113.948 58.0098 114.315 58.9286 115.063 59.6882C115.81 60.4477 116.704 60.8275 117.733 60.8275Z" fill="white"/>
<path d="M125.721 46.6661H128.257V62.3596H126.542V48.1729H126.101L125.721 46.6538V46.6661Z" fill="white"/>
<path d="M142.86 54.9105C143.35 55.2413 143.742 55.6456 144.036 56.1234C144.33 56.6012 144.477 57.2015 144.477 57.9243C144.477 58.6471 144.342 59.2719 144.085 59.8354C143.828 60.3867 143.46 60.8523 143.019 61.232C142.566 61.5996 142.027 61.8936 141.414 62.0896C140.802 62.2734 140.128 62.3714 139.418 62.3714C138.707 62.3714 138.009 62.2611 137.372 62.0161C136.735 61.7833 136.195 61.4525 135.73 61.0238C135.277 60.595 134.909 60.0559 134.627 59.4311C134.542 59.2474 134.48 59.0881 134.444 58.9656L135.779 58.108C135.999 58.7083 136.367 59.3086 136.894 59.9089C137.47 60.5705 138.352 60.9013 139.552 60.9013C140.496 60.9013 141.267 60.6562 141.88 60.1662C142.493 59.6639 142.799 58.9901 142.799 58.1325C142.799 57.618 142.701 57.2137 142.529 56.8829C142.333 56.5644 142.088 56.2826 141.77 56.0621C141.476 55.8294 141.133 55.6578 140.777 55.5231C140.434 55.4006 140.079 55.2903 139.724 55.1801C139.038 54.9595 138.388 54.7268 137.776 54.5062C137.176 54.2735 136.649 54.004 136.183 53.6609C135.742 53.3424 135.375 52.9259 135.13 52.4358C134.885 51.9458 134.75 51.321 134.75 50.5737C134.75 49.9856 134.86 49.4466 135.105 48.9811C135.338 48.5033 135.656 48.0867 136.061 47.7437C136.477 47.3884 136.98 47.1066 137.555 46.9229C138.131 46.7391 138.744 46.6411 139.43 46.6411C140.116 46.6411 140.741 46.7514 141.329 46.9474C141.904 47.1679 142.382 47.4742 142.799 47.8662C143.215 48.2582 143.534 48.736 143.779 49.2996C143.816 49.4098 143.852 49.4833 143.877 49.5201L142.554 50.3532C142.444 49.9244 142.149 49.4466 141.659 48.932C141.133 48.3807 140.398 48.099 139.491 48.099C138.584 48.099 137.874 48.3195 137.323 48.7483C136.759 49.1771 136.477 49.7896 136.477 50.5614C136.477 51.0025 136.563 51.3945 136.735 51.7008C136.906 52.007 137.139 52.2521 137.421 52.4726C137.702 52.6686 138.009 52.8524 138.364 52.9871C138.719 53.1219 139.087 53.2444 139.467 53.3424C140.042 53.5384 140.643 53.7467 141.255 53.9794C141.843 54.2122 142.382 54.5062 142.885 54.8493V54.886L142.86 54.9105Z" fill="white"/>
<path d="M154.879 59.7252L155.92 61.0483C154.842 61.9182 153.519 62.3592 151.975 62.3592C151.804 62.3592 151.632 62.3592 151.473 62.3592C149.831 62.2489 148.459 61.6609 147.369 60.5828C146.229 59.4802 145.654 58.1571 145.654 56.6012C145.654 55.0453 146.217 53.661 147.356 52.5217C148.484 51.4068 149.868 50.8433 151.461 50.8433C153.053 50.8433 154.425 51.4068 155.565 52.5217C156.692 53.6365 157.268 55.0086 157.268 56.6012C157.268 56.7727 157.206 56.9075 157.071 57.0178C156.961 57.128 156.814 57.1893 156.63 57.1893H147.43C147.626 58.2796 148.104 59.1372 148.851 59.7865C149.611 60.4358 150.493 60.7543 151.473 60.7543C152.796 60.7543 153.935 60.4113 154.891 59.7252H154.879ZM151.436 52.4359C150.542 52.4359 149.733 52.6932 149.023 53.22C148.324 53.7222 147.822 54.4696 147.491 55.4619H155.356C155.038 54.4818 154.511 53.7345 153.825 53.22C153.114 52.6932 152.306 52.4359 151.436 52.4359Z" fill="white"/>
<path d="M163.246 51.3696C163.724 51.3696 164.14 51.4309 164.508 51.5534L164.201 53.2563C163.969 53.146 163.65 53.0848 163.258 53.0848C162.486 53.0848 161.788 53.3788 161.163 53.9423C160.514 54.5304 160.171 55.2287 160.146 56.025V62.3588H158.431V51.4676H160.146V52.8643C161.09 51.8719 162.131 51.3696 163.258 51.3696H163.246Z" fill="white"/>
<path d="M175.656 51.4678H177.359L172.532 62.3589H170.486L165.659 51.4678H167.362L171.515 60.852L175.656 51.4678Z" fill="white"/>
<path d="M178.756 49.679V48.3804C178.756 48.2701 178.792 48.1721 178.878 48.0863C178.976 48.0006 179.086 47.9761 179.233 47.9761H180.679V49.2747C180.679 49.3849 180.642 49.4829 180.544 49.5564C180.434 49.6422 180.324 49.679 180.201 49.679H178.756ZM180.569 62.3587H178.841V51.4676H180.569V62.3587Z" fill="white"/>
<path d="M190.896 59.4805H192.954C192.55 60.2645 191.889 60.9261 190.957 61.4896C190.014 62.0654 188.973 62.3595 187.858 62.3595C186.253 62.3595 184.869 61.8204 183.742 60.7301C182.615 59.6275 182.051 58.3166 182.051 56.773C182.051 55.2294 182.615 53.9063 183.742 52.8037C184.881 51.7134 186.265 51.1743 187.858 51.1743C188.973 51.1743 190.002 51.4683 190.957 52.0441C191.876 52.6077 192.55 53.2815 192.954 54.0533H190.896C190.124 53.1467 189.108 52.7057 187.87 52.7057C186.743 52.7057 185.775 53.0977 184.979 53.894C184.183 54.6781 183.778 55.6337 183.778 56.7608C183.778 57.8879 184.183 58.8189 184.979 59.6152C185.763 60.3993 186.731 60.8036 187.87 60.8036C189.12 60.8036 190.124 60.3503 190.896 59.456V59.4805Z" fill="white"/>
<path d="M203.368 59.7252L204.409 61.0483C203.331 61.9182 202.008 62.3592 200.464 62.3592C200.293 62.3592 200.121 62.3592 199.962 62.3592C198.32 62.2489 196.948 61.6609 195.858 60.5828C194.718 59.4802 194.143 58.1571 194.143 56.6012C194.143 55.0453 194.718 53.661 195.845 52.5217C196.973 51.4068 198.357 50.8433 199.95 50.8433C201.542 50.8433 202.914 51.4068 204.054 52.5217C205.181 53.6365 205.757 55.0086 205.757 56.6012C205.757 56.7727 205.695 56.9075 205.561 57.0178C205.45 57.128 205.303 57.1893 205.119 57.1893H195.919C196.115 58.2796 196.593 59.1372 197.34 59.7865C198.1 60.4358 198.982 60.7543 199.962 60.7543C201.285 60.7543 202.424 60.4113 203.38 59.7252H203.368ZM199.925 52.4359C199.031 52.4359 198.222 52.6932 197.512 53.22C196.813 53.7222 196.311 54.4696 195.992 55.4619H203.858C203.539 54.4818 203.012 53.7345 202.326 53.22C201.616 52.6932 200.807 52.4359 199.937 52.4359H199.925Z" fill="white"/>
<path d="M211.478 55.8416C212.777 56.1234 213.72 56.5767 214.296 57.2015C214.676 57.5935 214.908 58.0468 214.982 58.5613C215.006 58.6961 215.019 58.8309 215.019 58.9656C215.019 59.3331 214.933 59.7129 214.761 60.0927C214.492 60.7175 214.051 61.2198 213.426 61.6241C212.813 62.0284 212.127 62.2611 211.368 62.3224C211.172 62.3224 210.976 62.3469 210.792 62.3469C209.8 62.3469 208.954 62.1264 208.256 61.6853C208.011 61.5261 207.778 61.3423 207.582 61.1218C207.435 60.9748 207.313 60.8155 207.203 60.6318C207.043 60.3745 206.933 60.1417 206.896 59.9579L208.673 59.3821V59.5659C208.734 59.7374 208.832 59.8967 208.967 60.0437C209.346 60.497 209.947 60.7175 210.768 60.7175C210.902 60.7175 211.049 60.7175 211.209 60.693C211.662 60.6685 212.066 60.5215 212.421 60.252C212.715 60.0437 212.936 59.7864 213.071 59.4924C213.108 59.4066 213.132 59.3209 213.156 59.2474C213.181 59.1371 213.193 59.0269 213.193 58.9411C213.193 58.6838 213.095 58.4266 212.899 58.2183C212.568 57.863 211.944 57.5935 211.037 57.3975L210.633 57.2995L210.216 57.2015C209.91 57.1157 209.64 57.0422 209.408 56.9565C208.82 56.7237 208.33 56.4174 207.962 56.0376C207.558 55.6211 207.313 55.1188 207.215 54.5063C207.178 54.3347 207.178 54.151 207.178 53.9917C207.178 53.5507 207.276 53.1341 207.448 52.7421C207.938 51.6273 208.881 51.0025 210.278 50.88C210.449 50.88 210.621 50.8555 210.78 50.8555C211.821 50.8555 212.666 51.125 213.353 51.6763C213.855 52.0683 214.21 52.5828 214.431 53.1954C214.504 53.3914 214.553 53.5874 214.59 53.7957C214.614 53.8692 214.639 53.9182 214.688 53.955L212.789 54.0652C212.764 53.9305 212.74 53.8202 212.691 53.7099C212.568 53.3547 212.385 53.0729 212.127 52.8646C211.797 52.6074 211.343 52.4848 210.743 52.4848C210.645 52.4848 210.523 52.4848 210.4 52.4848C209.763 52.5338 209.334 52.8156 209.101 53.3179C209.016 53.5139 208.979 53.7344 208.979 53.9672C208.979 54.0652 208.979 54.151 209.003 54.249C209.04 54.5553 209.15 54.8125 209.31 54.984C209.616 55.3026 210.327 55.5843 211.441 55.8294L211.466 55.8539L211.478 55.8416Z" fill="white"/>
</svg>
