<svg width="413" height="376" viewBox="0 0 413 376" fill="none" xmlns="http://www.w3.org/2000/svg">
<g clip-path="url(#clip0_686_19928)">
<path d="M252.42 278.651C298.116 232.722 298.116 158.256 252.42 112.327C206.724 66.3981 132.637 66.3981 86.9408 112.327C41.2449 158.256 41.2449 232.722 86.9408 278.651C132.637 324.58 206.724 324.58 252.42 278.651Z" fill="#C6DAFA"/>
<path d="M252.42 278.651C298.116 232.722 298.116 158.256 252.42 112.327C206.724 66.3981 132.637 66.3981 86.9408 112.327C41.2449 158.256 41.2449 232.722 86.9408 278.651C132.637 324.58 206.724 324.58 252.42 278.651Z" fill="#C6DAFA"/>
<path d="M395.827 26.3213H309.77V163.344H395.827V26.3213Z" fill="#C6DAFA"/>
<path d="M388.834 33.1777H316.762V156.497H388.834V33.1777Z" fill="white"/>
<path d="M399.048 23.084H305.133V28.0974H399.048V23.084Z" fill="#91BDFF"/>
<path d="M399.048 30.8667H305.133V35.8801H399.048V30.8667Z" fill="#91BDFF"/>
<path d="M399.048 38.6494H305.133V43.6628H399.048V38.6494Z" fill="#91BDFF"/>
<path d="M399.048 46.4321H305.133V51.4455H399.048V46.4321Z" fill="#91BDFF"/>
<path d="M399.048 54.2148H305.133V59.2282H399.048V54.2148Z" fill="#91BDFF"/>
<path d="M399.048 61.9971H305.133V67.0104H399.048V61.9971Z" fill="#91BDFF"/>
<path d="M399.048 69.7798H305.133V74.7932H399.048V69.7798Z" fill="#91BDFF"/>
<path d="M399.048 77.5625H305.133V82.5759H399.048V77.5625Z" fill="#91BDFF"/>
<path d="M399.048 85.3452H305.133V90.3586H399.048V85.3452Z" fill="#91BDFF"/>
<path d="M399.047 23.084V113.964" stroke="#91BDFF" stroke-miterlimit="10"/>
<path d="M400.795 112.818H397.299V121.671H400.795V112.818Z" fill="#91BDFF"/>
<path d="M328.971 126.188H320.572V156.535H328.971V126.188Z" fill="#C6DAFA"/>
<path d="M358.366 131H350.822V156.525H358.366V131Z" fill="#C6DAFA"/>
<path d="M368.608 136.109H361.064V156.535H368.608V136.109Z" fill="#C6DAFA"/>
<path d="M346.149 118.939H332.582V156.525H346.149V118.939Z" fill="#C6DAFA"/>
<path d="M384.751 118.939H371.184V156.525H384.751V118.939Z" fill="#C6DAFA"/>
<path d="M411.855 363.162H0.433594L25.2401 349.125H387.048L411.855 363.162Z" fill="#C6DAFA"/>
<path d="M411.171 363.162H0.433594V375.442H411.171V363.162Z" fill="#91BDFF"/>
<path d="M362.052 305.551C380.759 305.551 392.217 309.142 392.93 309.371C394.136 309.762 394.801 311.052 394.412 312.264C394.022 313.477 392.73 314.136 391.533 313.754C391.172 313.64 365.786 305.78 329.056 313.811C327.821 314.079 326.595 313.296 326.329 312.054C326.063 310.813 326.842 309.581 328.078 309.314C340.98 306.497 352.466 305.551 362.043 305.551H362.052Z" fill="#253E96"/>
<path d="M348.712 290.731C349.045 290.101 355.41 267.326 352.038 267.01C348.674 266.695 350.166 268.767 348.323 270.305C346.48 271.842 342.613 249.02 340.827 253.078C339.041 257.136 342.356 262.016 339.801 260.918C337.245 259.82 332.647 238.716 329.369 240.702C326.091 242.688 330.832 250.089 328.058 250.328C325.284 250.567 310.016 243.529 308.04 253.049C306.063 262.57 326.994 264.117 329.074 266.743C331.165 269.369 318.671 270.563 324.903 272.931C331.126 275.309 341.663 278.364 337.768 279.348C336.941 279.558 325.654 274.974 326.243 283.101C326.528 287.035 348.703 290.731 348.703 290.731H348.712Z" fill="#2BA167"/>
<path d="M348.759 293.252C348.759 293.252 344.93 263 328.352 258.502" stroke="#1D402F" stroke-miterlimit="10" stroke-linecap="round"/>
<path d="M360.512 315.358C378.106 315.358 392.368 313.409 392.368 311.004C392.368 308.599 378.106 306.649 360.512 306.649C342.919 306.649 328.656 308.599 328.656 311.004C328.656 313.409 342.919 315.358 360.512 315.358Z" fill="#1D402F"/>
<path d="M359.571 309.81C360.179 309.438 377.195 293.099 374.459 291.103C371.722 289.107 371.951 291.657 369.594 292.029C367.238 292.411 375.475 270.792 371.875 273.37C368.283 275.948 368.663 281.85 367.02 279.596C365.376 277.343 372.122 256.821 368.293 256.86C364.464 256.888 364.787 265.683 362.288 264.47C359.78 263.258 350.213 249.382 343.686 256.563C337.159 263.745 354.384 275.786 354.849 279.119C355.315 282.442 343.971 277.075 348.113 282.308C352.265 287.541 359.78 295.572 355.923 294.417C355.106 294.169 347.724 284.447 344.104 291.743C342.356 295.276 359.562 309.81 359.562 309.81H359.571Z" fill="#2BA167"/>
<path d="M358.309 316.81C358.309 316.81 370.384 284.018 358.394 271.651" stroke="#1D402F" stroke-miterlimit="10" stroke-linecap="round"/>
<path d="M365.197 319.627C364.988 318.939 362.983 295.372 366.346 295.696C369.71 296.021 367.857 297.778 369.377 299.631C370.897 301.483 378.954 279.797 379.951 284.123C380.949 288.449 376.778 292.622 379.495 292.02C382.213 291.418 390.668 271.556 393.519 274.125C396.369 276.693 390.336 283.072 393.006 283.827C395.685 284.581 411.998 280.551 412.159 290.272C412.321 299.994 391.476 297.568 388.939 299.755C386.402 301.942 398.44 305.465 391.884 306.621C385.329 307.786 374.403 308.808 378.051 310.507C378.83 310.87 390.763 308.493 388.673 316.361C387.666 320.171 365.187 319.617 365.187 319.617L365.197 319.627Z" fill="#2BA167"/>
<path d="M361.529 325.71C361.529 325.71 374.07 293.099 391.2 291.8" stroke="#1D402F" stroke-miterlimit="10" stroke-linecap="round"/>
<path d="M367.571 292.049C367.258 291.409 361.529 268.462 364.901 268.242C368.274 268.023 366.726 270.047 368.521 271.632C370.317 273.218 374.82 250.509 376.492 254.625C378.165 258.731 374.716 263.525 377.3 262.494C379.884 261.462 385.072 240.492 388.292 242.574C391.513 244.656 386.573 251.923 389.337 252.238C392.102 252.553 407.56 245.945 409.27 255.523C410.98 265.091 390.021 266.056 387.865 268.615C385.708 271.184 398.154 272.721 391.865 274.917C385.575 277.123 374.953 279.883 378.83 280.972C379.656 281.201 391.057 276.932 390.249 285.04C389.86 288.964 367.59 292.03 367.59 292.03L367.571 292.049Z" fill="#2BA167"/>
<path d="M364.93 298.647C364.93 298.647 372.112 264.442 388.815 260.402" stroke="#1D402F" stroke-miterlimit="10" stroke-linecap="round"/>
<path d="M354.822 315.903C355.05 315.225 357.748 291.724 354.376 291.953C351.003 292.183 352.798 293.987 351.231 295.792C349.654 297.597 342.243 275.681 341.112 279.979C339.991 284.276 344.039 288.563 341.34 287.885C338.642 287.207 330.776 267.097 327.849 269.579C324.923 272.062 330.776 278.613 328.077 279.291C325.379 279.969 309.199 275.452 308.743 285.164C308.297 294.875 329.199 293.071 331.669 295.334C334.139 297.597 322.006 300.758 328.524 302.114C335.041 303.47 345.929 304.816 342.234 306.411C341.445 306.745 329.588 304.014 331.441 311.95C332.343 315.788 354.822 315.903 354.822 315.903Z" fill="#2BA167"/>
<path d="M355.278 318.395C355.278 318.395 346.737 289.136 329.654 287.331" stroke="#1D402F" stroke-miterlimit="10" stroke-linecap="round"/>
<path d="M380.806 355.647L379.41 355.981C366.669 358.998 352.836 359.113 339.982 356.315L328.6 311.128C348.58 315.635 370.099 315.798 390.212 311.577L392.34 311.128L380.797 355.656L380.806 355.647Z" fill="#253E96"/>
<path d="M330.091 316.991C334.338 318.08 344.418 320.19 358.745 320.19C367.866 320.19 378.725 319.312 390.877 316.8L392.15 311.882C392.017 311.882 391.874 311.901 391.732 311.93C355.002 319.961 329.616 312.102 329.255 311.987C329.103 311.94 328.951 311.911 328.789 311.892L330.072 317.001L330.091 316.991Z" fill="#24416E"/>
<path d="M358.744 318.204C340.037 318.204 328.58 314.614 327.867 314.384C326.66 313.993 325.995 312.704 326.385 311.491C326.774 310.278 328.066 309.619 329.264 310.001C329.625 310.116 355.011 317.975 391.741 309.944C392.976 309.677 394.201 310.46 394.467 311.701C394.733 312.942 393.954 314.174 392.719 314.442C379.817 317.259 368.331 318.204 358.754 318.204H358.744Z" fill="#253E96"/>
<path d="M243.329 340.082L51.6318 345.038L4.375 213.649L196.081 208.684L243.329 340.082Z" fill="#424242"/>
<path d="M332.903 350.529L141.206 355.494L51.623 344.751L243.32 339.786L332.903 350.529Z" fill="#333333"/>
<path d="M234.027 332.509L57.7309 337.074L15.709 220.133L192.005 215.569L234.027 332.509Z" fill="#253E96"/>
<path d="M51.623 344.751L141.206 355.494L141.481 366.313L52.2501 354.119L51.623 344.751Z" fill="#1A1A1A"/>
<path d="M141.205 355.494L332.902 350.528L333.111 358.655L141.481 366.313L141.205 355.494Z" fill="black"/>
<path d="M187.758 219.58L228.393 332.652L234.027 332.509L192.005 215.569L15.709 220.133L17.0961 224.001L187.758 219.58Z" fill="#122138"/>
<path d="M4.37589 213.649L3.2168 215.196L52.2502 354.119L51.6232 344.751L4.37589 213.649Z" fill="black"/>
<path d="M235.188 349.297L190.088 350.462L169.016 347.931L214.116 346.766L235.188 349.297Z" fill="#424242"/>
<path d="M167.01 60.4217C167.01 60.4217 173.831 91.476 163.019 88.1624C152.198 84.8392 151.238 59.9634 151.238 59.9634L167.01 60.4217Z" fill="#1A1A1A"/>
<path d="M181.014 229.253C185.089 242.574 189.697 255.007 193.944 262.083C199.863 280.294 207.483 283.636 207.483 283.636L221.04 278.689C223.178 277.801 223.359 274.001 222.836 271.9L210.647 209.142L210.447 209.218" fill="#FCBC76"/>
<path d="M210.457 209.219L192.329 152.639C157.528 146.996 170.088 184.706 170.088 184.706C171.874 195.506 176.045 213.048 181.014 229.263" fill="white"/>
<path d="M216.775 207.585C216.775 207.585 192.633 203.116 181.365 220.801L186.439 234.17L188.016 234.228C199.626 234.629 211.046 231.201 220.518 224.459L216.775 207.595V207.585Z" fill="white"/>
<path d="M214.304 212.427C214.304 212.427 209.668 216.972 201.203 219.589C192.737 222.196 183.512 222.224 184.168 220.171C184.823 218.118 185.241 218.834 185.241 218.834L186.524 220.983C186.524 220.983 204.642 219.331 212.642 212.704L212.176 209.61C212.176 209.61 213.696 209.734 214.304 212.436V212.427Z" fill="#ADADAD"/>
<path d="M83.4316 151.531L141.89 135.565L192.329 152.735L83.4316 151.531Z" fill="white"/>
<path d="M196.254 333.493L196.026 299.564L197.793 244.312C199.275 223.485 195.171 169.512 183.732 152.075L155.078 142.02L152.152 147.033L147.468 149.965L126.101 139.996L86.3398 150.949L96.1256 336.09L196.245 333.502L196.254 333.493Z" fill="white"/>
<path d="M149.929 153.775C151.42 161.453 152.807 169.159 154.118 176.875C155.344 184.6 156.465 192.345 157.539 200.099C159.648 215.607 161.215 231.191 162.66 246.776C163.8 262.389 164.75 278.031 165.073 293.691C165.073 301.531 165.234 309.352 164.968 317.183C164.797 325.013 164.807 326.522 164.332 334.324H163.828C164.465 318.71 164.113 309.362 163.638 293.739C163.04 278.117 162.099 262.513 160.816 246.929C159.515 231.354 157.947 215.798 156.114 200.271C154.261 184.753 152.199 169.245 149.748 153.814L149.929 153.785V153.775Z" fill="#ADADAD"/>
<path d="M144.18 160.221C143.695 160.221 143.211 160.03 142.878 159.686C142.517 159.362 142.308 158.884 142.299 158.397C142.299 157.891 142.489 157.423 142.831 157.07C143.505 156.373 144.741 156.344 145.434 157.022C145.795 157.366 145.985 157.834 145.995 158.33C145.995 158.817 145.824 159.304 145.482 159.638C145.14 160.001 144.684 160.211 144.18 160.221Z" fill="#ADADAD"/>
<path d="M158.47 315.807C157.453 315.827 156.607 314.986 156.607 313.964C156.588 312.943 157.405 312.112 158.422 312.093C159.458 312.074 160.284 312.914 160.303 313.936C160.303 314.958 159.505 315.788 158.489 315.807H158.47ZM155.581 282.786C155.524 281.764 156.303 280.876 157.339 280.838C158.356 280.781 159.22 281.564 159.277 282.586C159.334 283.607 158.555 284.495 157.519 284.534C157.519 284.534 157.481 284.553 157.462 284.553C156.465 284.572 155.638 283.789 155.581 282.786ZM153.482 251.646C153.406 250.624 154.147 249.717 155.182 249.631C156.199 249.555 157.082 250.319 157.177 251.34C157.253 252.362 156.493 253.25 155.477 253.346C155.477 253.346 155.401 253.346 155.363 253.346C154.403 253.365 153.577 252.639 153.482 251.655V251.646ZM150.508 220.563C150.394 219.541 151.135 218.615 152.152 218.51C153.168 218.395 154.09 219.14 154.175 220.162C154.289 221.184 153.567 222.091 152.551 222.196C152.494 222.215 152.437 222.215 152.38 222.215C151.439 222.234 150.612 221.527 150.498 220.563H150.508ZM146.793 189.547C146.66 188.525 147.382 187.58 148.399 187.456C149.396 187.322 150.327 188.029 150.46 189.05C150.593 190.072 149.89 191.008 148.874 191.142C148.798 191.142 148.722 191.142 148.655 191.142C147.734 191.161 146.926 190.483 146.793 189.537V189.547Z" fill="#ADADAD"/>
<path d="M133.274 151.369L126.642 140.32L122.424 104.291L144.751 97.9214L156.408 146.871C157.482 155.074 139.525 156.754 133.274 151.369Z" fill="#FCBC76"/>
<path d="M148.226 134.247C149.927 133.999 151.513 133.397 152.958 132.557L144.758 97.9214L122.432 104.291L124.427 121.308L124.921 122.081L138.231 131.697C141.205 133.846 144.758 134.743 148.236 134.237L148.226 134.247Z" fill="#E3923C"/>
<path d="M152.703 131.554C158.897 130.991 163.999 126.13 165.348 119.494L169.396 99.6597C169.956 96.8904 170.032 94.0447 169.595 91.2564C167.971 80.9049 165.747 69.8278 163.401 63.955L163.049 61.1093C158.764 50.3664 148.465 50.29 137.882 51.2449C126.262 52.2953 122.623 61.1666 121.398 73.8767L114.88 80.4275C114.32 86.1666 115.526 91.9821 118.301 96.9573L128.01 115.827C128.533 116.839 129.255 117.717 130.148 118.424L142.86 128.46C145.71 130.771 149.216 131.869 152.712 131.554H152.703Z" fill="#FCBC76"/>
<path d="M120.931 101.111C120.931 101.111 125.377 80.5133 123.905 71.9667C123.905 71.9667 164.501 82.8529 168.302 62.6753C168.302 62.6753 172.548 48.762 158.25 48.8861C143.581 49.0102 112.228 44.799 112.789 70.1428C113.501 102.591 120.931 101.111 120.931 101.111Z" fill="#1A1A1A"/>
<path d="M126.186 95.1333C128.999 99.1249 128.808 104.11 125.768 106.277C122.728 108.445 117.978 106.974 115.165 102.983C112.353 98.9912 112.543 94.0065 115.583 91.8388C118.624 89.6711 123.374 91.1417 126.186 95.1333Z" fill="#FCBC76"/>
<g style="mix-blend-mode:multiply" opacity="0.67">
<path d="M117.635 142.23L137.539 165.015L149.842 153.795L117.635 142.23Z" fill="#707070"/>
</g>
<g style="mix-blend-mode:multiply" opacity="0.67">
<path d="M163.077 143.596L157.301 159.342L160.199 159.409L163.077 143.596Z" fill="#707070"/>
</g>
<g style="mix-blend-mode:multiply" opacity="0.67">
<path d="M149.842 153.794L142.916 163.945L150.564 156.382L157.937 160.699L149.842 153.794Z" fill="#707070"/>
</g>
<path d="M153.414 134.486L157.86 134.581L154.944 142.183L153.414 134.486Z" fill="#ADADAD"/>
<path d="M157.86 134.581L163.076 143.596L158.155 160.851L149.842 153.794L157.86 134.581Z" fill="white"/>
<path d="M125.786 132.528L121.264 132.595C121.777 132.91 126.119 136.014 126.119 136.014L125.786 132.528Z" fill="#ADADAD"/>
<path d="M121.265 132.595L117.445 142.412L142.917 163.945L149.843 153.795L125.834 135.794" fill="white"/>
<g style="mix-blend-mode:multiply" opacity="0.42">
<path d="M178.383 270.324L96.79 268.424C96.448 248.046 97.2175 200.338 92.0966 178.966C92.0966 178.966 88.9804 154.052 80.1447 156.449L69.2568 228.002L69.0098 305.265L77.5985 291.724C84.078 300.299 102.452 311.51 113.027 310.46C168.768 304.921 196.139 285.632 196.139 285.632L178.364 270.324H178.383Z" fill="#707070"/>
</g>
<path d="M83.6889 154.396C84.81 155.045 85.1235 156.258 85.5415 157.289C85.8931 158.368 86.1876 159.467 86.4156 160.574C86.8146 162.799 87.0237 165.024 87.2042 167.249C87.3942 169.474 87.3562 171.709 87.3182 173.924C87.2992 176.149 87.2327 178.365 87.1187 180.58C86.9476 182.796 86.7101 184.992 86.4726 187.198C86.2351 189.394 86.0451 191.6 85.627 193.777C85.2565 195.964 84.9145 198.141 84.4774 200.318C83.9644 202.477 83.5464 204.654 82.9383 206.793L82.7578 206.774C83.2519 202.391 83.7934 198.027 84.2019 193.634C84.6485 189.251 85.0095 184.858 85.2755 180.466C85.608 176.073 85.76 171.671 85.76 167.268C85.7315 165.072 85.6745 162.866 85.437 160.679C85.3325 159.581 85.1615 158.502 84.9335 157.433C84.791 156.907 84.677 156.363 84.4679 155.867C84.2969 155.37 84.0119 154.826 83.6414 154.577L83.6889 154.396Z" fill="#ADADAD"/>
<path d="M95.4785 225.92L95.7635 221.489C95.64 222.931 95.5545 224.411 95.4785 225.92Z" fill="#ADADAD"/>
<path d="M92.2764 234.047C91.1743 223.161 98.0054 198.695 92.0009 173.619C92.0009 173.619 100.001 145.678 77.2557 152.62C70.7097 154.616 61.4749 186.673 60.3728 199.402L58.0927 232.901C56.9906 241.6 58.9572 245.105 59.8123 253.823" fill="white"/>
<path d="M59.8125 253.823L64.8574 300.204C65.2849 302.754 67.2041 306.889 69.7693 306.955L107.288 305.208C107.288 305.208 94.5758 256.726 92.2766 234.037" fill="#FCBC76"/>
<path d="M80.4092 291.333L93.0167 262.991L178.286 264.977L178.989 293.195C178.989 293.195 74.4047 321.977 80.4092 291.333Z" fill="#FCBC76"/>
<path d="M119.088 263.602L110.604 262.532C110.604 262.532 175.285 295.095 179.446 293.195C188.13 289.222 196.68 284.18 196.68 284.18L178.277 264.986L119.088 263.611V263.602Z" fill="#E3923C"/>
<path d="M118.67 249.335C118.67 249.335 111.24 249.469 108.371 250.013C105.501 250.548 97.2168 263.115 97.2168 263.115L113.862 263.554L118.67 249.335Z" fill="#FCBC76"/>
<path d="M212.32 274.841L207.436 247.74L118.671 249.335L111.127 263.162C111.127 263.162 217.678 303.785 212.32 274.841Z" fill="#FCBC76"/>
<path d="M97.949 229.969C97.949 229.969 68.2496 219.35 50.3691 239.471L54.0839 257.461L56.0791 257.853C70.7103 260.746 85.883 258.731 99.2791 252.133L97.9585 229.979L97.949 229.969Z" fill="white"/>
<path d="M93.8456 235.594C93.8456 235.594 87.0525 240.416 75.7846 241.982C64.5262 243.558 52.8213 241.696 54.0659 239.222C55.3105 236.749 55.7 237.752 55.7 237.752L56.8876 240.741C56.8876 240.741 80.193 242.364 91.6889 235.603L91.7269 231.583C91.7269 231.583 93.6365 232.051 93.8551 235.594H93.8456Z" fill="#ADADAD"/>
<path d="M191.749 187.685C192.899 191.409 193.754 195.257 194.504 199.163C194.913 201.101 195.207 203.088 195.559 205.055C195.872 207.041 196.157 209.027 196.452 211.023C196.699 213.038 196.965 215.043 197.184 217.058C197.374 219.092 197.621 221.107 197.763 223.17C198.096 227.266 198.324 231.42 198.276 235.698L198.105 235.775L194.761 211.806L191.578 187.761L191.749 187.685Z" fill="#ADADAD"/>
<path d="M174.619 248.351C174.619 248.351 193.127 235.183 204.765 234.973L217.705 244.875L216.118 264.069L202.428 249.612L174.619 248.361V248.351Z" fill="#FCBC76"/>
<path d="M86.3493 150.939C88.3159 153.632 89.8551 156.583 91.0997 159.638C92.3823 162.685 93.3608 165.845 94.1874 169.044C94.9095 172.263 95.584 175.5 95.8215 178.804C95.9831 180.446 96.0401 182.098 96.1256 183.741C96.0876 185.402 96.0876 187.045 95.9261 188.697L95.7455 188.716C95.394 185.479 94.9855 182.251 94.4154 179.042C93.8929 175.834 93.1613 172.654 92.4013 169.493C91.6317 166.332 90.7481 163.2 89.7316 160.106C88.7055 157.022 87.5749 153.957 86.1973 151.025L86.3588 150.939H86.3493Z" fill="#ADADAD"/>
<path d="M77.0663 158.741L76.4202 178.747C76.2302 185.402 75.9927 192.049 76.0497 198.695C75.9357 205.332 76.0972 211.978 76.5437 218.557C76.7622 221.852 77.0947 225.137 77.6933 228.336C78.2538 231.535 79.0994 234.724 80.8095 237.274L80.724 237.389C78.8049 234.992 77.8073 231.735 77.0757 228.546C76.3537 225.318 75.9262 222.005 75.6031 218.682C74.9666 212.035 74.8146 205.341 74.8336 198.666C74.8716 191.982 75.1091 185.316 75.4701 178.651C75.8407 171.995 76.3062 165.349 76.9427 158.722L77.0663 158.741Z" fill="#ADADAD"/>
<path d="M116.381 96.537C116.381 96.537 120.96 95.1715 122.613 100.252" stroke="#E3923C" stroke-miterlimit="10" stroke-linecap="round"/>
<path d="M118.67 100.013L120.523 97.2725" stroke="#E3923C" stroke-miterlimit="10" stroke-linecap="round"/>
<path d="M184.396 170.343C179.351 148.485 162.402 142.201 162.231 142.135L161.328 140.578C161.575 140.626 180.282 147.673 185.46 170.095L184.396 170.343Z" fill="#ED1C24"/>
<path d="M184.186 189.68C181.678 189.346 179.426 188.095 177.802 186.128C176.101 184.065 175.303 181.458 175.55 178.784C175.882 175.28 178.058 172.157 181.25 170.648C181.497 170.534 181.782 170.61 181.934 170.839C182.086 171.069 182.048 171.365 181.849 171.546C180.224 173.045 179.208 175.089 178.999 177.285C178.543 182.193 182.143 186.557 187.027 187.025C188.604 187.178 190.2 186.892 191.644 186.204C191.891 186.09 192.176 186.166 192.328 186.395C192.48 186.624 192.442 186.92 192.243 187.102C190.162 189.021 187.359 189.976 184.557 189.709C184.433 189.699 184.31 189.68 184.186 189.67V189.68Z" fill="#C9C9C9"/>
<path d="M184.186 189.68C181.678 189.346 179.426 188.095 177.802 186.128C176.101 184.065 175.303 181.458 175.55 178.784C175.882 175.28 178.058 172.157 181.25 170.648C181.497 170.534 181.782 170.61 181.934 170.839C182.086 171.069 182.048 171.365 181.849 171.546C180.224 173.045 179.208 175.089 178.999 177.285C178.543 182.193 182.143 186.557 187.027 187.025C188.604 187.178 190.2 186.892 191.644 186.204C191.891 186.09 192.176 186.166 192.328 186.395C192.48 186.624 192.442 186.92 192.243 187.102C190.162 189.021 187.359 189.976 184.557 189.709C184.433 189.699 184.31 189.68 184.186 189.67V189.68Z" fill="#ED1C24"/>
<path d="M185.536 188.869C180.244 188.171 176.396 183.359 176.9 177.973C177.413 172.463 182.296 168.395 187.778 168.92C193.26 169.426 197.307 174.344 196.785 179.854C196.272 185.364 191.388 189.432 185.906 188.907C185.783 188.897 185.659 188.878 185.536 188.869Z" fill="#ED1C24"/>
<path d="M185.887 186.224C182.001 185.708 179.18 182.184 179.55 178.231C179.93 174.192 183.512 171.203 187.531 171.585C191.559 171.957 194.523 175.567 194.143 179.606C193.763 183.655 190.182 186.634 186.163 186.252C186.068 186.252 185.982 186.233 185.887 186.224Z" fill="#D30A12"/>
<path d="M91.3836 246.365L85.7021 245.821C83.479 245.611 81.4838 244.531 80.0777 242.793C78.6716 241.055 78.0255 238.878 78.263 236.653L83.2699 189.814C84.049 185.536 87.2888 182.413 91.5356 181.821C95.7824 181.229 99.7538 183.349 101.635 187.226L119.496 231.334C120.399 233.559 120.294 236.061 119.221 238.2C118.147 240.349 116.209 241.915 113.891 242.517L109.796 243.577L109.521 242.517L113.615 241.457C115.62 240.941 117.311 239.566 118.242 237.713C119.173 235.851 119.259 233.674 118.48 231.745L100.637 187.675C98.9747 184.266 95.4594 182.385 91.6781 182.91C87.9063 183.435 85.0181 186.204 84.3435 189.976L79.3461 236.777C79.1371 238.706 79.6977 240.607 80.9233 242.115C82.1489 243.624 83.878 244.551 85.8066 244.742L91.4881 245.286L91.3836 246.374V246.365Z" fill="#ED1C24"/>
<path d="M107.382 243.385C107.278 241.953 108.342 240.702 109.767 240.597C111.192 240.492 112.436 241.561 112.541 242.994C112.646 244.426 111.581 245.677 110.156 245.782C108.731 245.887 107.487 244.818 107.382 243.385Z" fill="#ED1C24"/>
<path d="M88.9426 245.859C88.8381 244.427 89.9022 243.176 91.3273 243.071C92.7524 242.966 93.997 244.035 94.1015 245.467C94.206 246.9 93.142 248.151 91.7169 248.256C90.2917 248.361 89.0471 247.291 88.9426 245.859Z" fill="#ED1C24"/>
<path d="M83.2882 198.561L82.3477 198.017C85.4544 192.612 89.0742 189.719 93.1215 189.422C99.601 188.955 104.722 195.333 104.94 195.601L104.085 196.279C104.038 196.212 99.107 190.072 93.1975 190.511C89.5397 190.778 86.205 193.49 83.2977 198.561H83.2882Z" fill="#ED1C24"/>
<path d="M90.1016 182.356C90.0636 181.993 86.5198 146.403 118.67 139.27L118.157 140.597C86.9569 147.511 91.1467 181.879 91.1847 182.223L90.1016 182.347V182.356Z" fill="#ED1C24"/>
<path d="M140.409 91.9818C140.39 93.1373 139.829 94.0636 139.164 94.054C138.499 94.0445 137.977 93.0895 138.005 91.9341C138.024 90.7786 138.585 89.8523 139.25 89.8619C139.915 89.8714 140.428 90.8264 140.409 91.9818Z" fill="#1A1A1A"/>
<path d="M162.553 90.5971C162.534 91.7525 161.974 92.6788 161.309 92.6693C160.644 92.6597 160.121 91.7048 160.15 90.5493C160.169 89.3939 160.729 88.4676 161.394 88.4771C162.059 88.4867 162.582 89.4416 162.553 90.5971Z" fill="#1A1A1A"/>
<path d="M152.578 87.3125C152.578 87.3125 155.143 94.8373 156.577 99.9844C158.012 105.131 149.195 104.205 149.195 104.205" stroke="#E3923C" stroke-miterlimit="10" stroke-linecap="round"/>
<path d="M139.164 106.812C139.164 106.812 142.47 115.034 150.65 112.685" stroke="#E3923C" stroke-miterlimit="10" stroke-linecap="round"/>
<path d="M96.9133 263.057C96.9133 263.057 90.8043 262.723 87.2891 270.487C87.2891 270.487 94.7282 264.662 96.9133 263.057Z" fill="#E3923C"/>
<path d="M174.619 248.352L203.254 249.603L216.841 264.509L198.2 251.923L174.619 248.352Z" fill="#E3923C"/>
<path d="M198.125 236.099L205.631 234.17L217.364 244.77L205.659 235.507L198.125 236.099Z" fill="#E3923C"/>
<path d="M207.531 241.027C208.605 241.457 209.507 242.096 210.448 242.688C211.379 243.3 212.262 243.968 213.165 244.608C214.03 245.305 214.923 245.973 215.759 246.699C216.604 247.425 217.44 248.16 218.219 248.972L218.191 249.01L212.88 244.999L210.22 242.994C209.327 242.345 208.443 241.638 207.521 241.075V241.027H207.531Z" fill="#E3923C"/>
<path d="M208.177 246.031C209.251 246.46 210.154 247.1 211.094 247.692C212.025 248.303 212.909 248.972 213.811 249.612C214.676 250.309 215.569 250.977 216.405 251.703C217.251 252.429 218.087 253.164 218.866 253.976L218.837 254.014L213.526 250.003L210.866 247.998C209.973 247.349 209.09 246.642 208.168 246.078V246.031H208.177Z" fill="#E3923C"/>
<path d="M208.509 251.712C209.583 252.142 210.486 252.782 211.426 253.374C212.357 253.985 213.241 254.654 214.143 255.293C215.008 255.99 215.901 256.659 216.737 257.385C217.583 258.11 218.419 258.846 219.198 259.657L219.169 259.696L213.858 255.685L211.198 253.68C210.305 253.03 209.422 252.324 208.5 251.76V251.712H208.509Z" fill="#E3923C"/>
<path d="M132.371 94.0255C132.361 93.8631 132.352 93.7104 132.352 93.548C132.323 89.4132 135.639 86.0327 139.753 86.0041C143.867 85.9754 147.23 89.3081 147.258 93.443C147.287 97.5778 143.971 100.958 139.857 100.987C135.905 101.016 132.646 97.9407 132.371 94.0255Z" stroke="white" stroke-miterlimit="10" stroke-linecap="round"/>
<path d="M171.239 91.2564C171.267 95.3913 167.952 98.7717 163.838 98.8004C159.724 98.829 156.361 95.4963 156.332 91.3615C156.304 87.2267 159.619 83.8462 163.733 83.8176C167.847 83.7889 171.21 87.1216 171.239 91.2564Z" stroke="white" stroke-miterlimit="10" stroke-linecap="round"/>
<path d="M147.201 91.8676C147.201 91.8676 151.971 87.2362 156.331 91.3519" stroke="white" stroke-miterlimit="10" stroke-linecap="round"/>
<path d="M122.271 91.1704L132.352 93.5482" stroke="white" stroke-miterlimit="10" stroke-linecap="round"/>
<path d="M159.676 80.943C159.676 80.943 162.174 77.9923 166.07 81.1627" stroke="#1A1A1A" stroke-miterlimit="10" stroke-linecap="round"/>
<path d="M133.967 83.4545C133.967 83.4545 136.903 80.1791 143.002 82.767" stroke="#1A1A1A" stroke-miterlimit="10" stroke-linecap="round"/>
<path d="M134.707 209.858L115.639 211.654L115.648 204.492L134.716 202.696L134.707 209.858Z" fill="#253E96"/>
<path d="M99.508 0.452148H12.291V54.1763H99.508V0.452148Z" fill="#91BDFF"/>
<path d="M67.623 48.6856L85.399 70.5153V46.6421L67.623 48.6856Z" fill="#91BDFF"/>
<path d="M23.9199 13.3149H58.1227" stroke="white" stroke-miterlimit="10"/>
<path d="M23.9199 21.4512H87.8791" stroke="white" stroke-miterlimit="10"/>
<path d="M23.9199 29.5869H87.8791" stroke="white" stroke-miterlimit="10"/>
<path d="M23.9199 37.7231H87.8791" stroke="white" stroke-miterlimit="10"/>
</g>
<defs>
<clipPath id="clip0_686_19928">
<rect width="411.735" height="375" fill="white" transform="translate(0.433594 0.452148)"/>
</clipPath>
</defs>
</svg>
