<svg width="435" height="437" viewBox="0 0 435 437" fill="none" xmlns="http://www.w3.org/2000/svg">
<path d="M325.788 327.765C385.704 267.543 385.704 169.906 325.788 109.685C265.873 49.4635 168.731 49.4635 108.816 109.685C48.901 169.906 48.901 267.543 108.816 327.765C168.731 387.986 265.873 387.986 325.788 327.765Z" fill="#C6DAFA"/>
<g clip-path="url(#clip0_686_20075)">
<path opacity="0.5" d="M209.611 420.482C209.611 426.861 234.181 432.03 264.494 432.03C294.808 432.03 319.377 426.861 319.377 420.482C319.377 414.102 294.808 408.934 264.494 408.934C234.181 408.934 209.611 414.102 209.611 420.482Z" fill="#AAC3FF"/>
<path d="M270.057 110.916C270.057 110.916 273.617 121.614 269.903 123.151C266.188 124.678 257.355 125.021 256.422 126.72C255.489 128.419 276.87 136.569 297.942 127.569C297.942 127.569 287.252 126.891 288.493 105.313C289.734 83.7352 270.057 110.916 270.057 110.916Z" fill="#B25757"/>
<path d="M294.009 125.003C294.009 125.003 280.511 135.963 260.426 125.626L257.291 174.466L263.886 176.969L294.018 124.994L294.009 125.003Z" fill="#92DFDC"/>
<path d="M275.176 157.478L262.646 182.562L256.051 180.059L259.249 143.897C264.531 148.46 269.839 152.987 275.176 157.478Z" fill="#71C6C6"/>
<path d="M277.186 54.8648C277.186 54.8648 269.44 51.4673 257.971 56.2202C245.233 61.5063 235.657 81.1959 247.435 113.301C247.435 113.301 252.39 111.431 261.685 110.247C270.98 109.054 277.177 54.8648 277.177 54.8648H277.186Z" fill="#061533"/>
<path d="M272.847 63.8647C272.847 63.8647 252.862 63.0153 250.687 81.8735C247.816 106.867 256.73 118.054 270.981 116.355C285.232 114.656 291.428 101.066 290.812 85.6054C290.196 70.1447 286.473 66.0695 272.838 63.8647H272.847Z" fill="#D66C68"/>
<path d="M262.773 61.4885C264.313 58.2175 267.411 56.1392 270.727 54.8109C271.932 54.1332 273.327 53.5458 274.858 53.0669C276.888 52.4254 279.162 51.9645 281.589 51.7476C282.215 51.7115 282.767 51.6121 283.528 51.6844C284.181 51.7386 284.815 51.838 285.458 51.9645C286.101 52.0639 286.735 52.2627 287.379 52.4254C288.004 52.6422 288.656 52.8229 289.281 53.085C291.791 54.079 294.246 55.4976 296.402 57.35C298.54 59.2295 300.37 61.4704 301.91 63.9011C302.272 64.5156 302.59 65.1662 302.925 65.7897C303.251 66.4222 303.613 67.0367 303.858 67.7234C304.365 69.0517 305.008 70.389 305.335 71.6902C305.525 72.3499 305.724 73.0005 305.914 73.651L306.05 74.139C306.078 74.2384 306.087 74.2565 306.132 74.4282L306.177 74.6812L306.367 75.6842C306.621 77.0125 306.875 78.3317 307.119 79.6239C307.409 80.907 307.527 82.1992 307.636 83.4642C307.754 84.7202 307.871 85.9582 307.989 87.1509C308.052 88.3527 308.053 89.5274 308.08 90.6569C308.08 91.7864 308.152 92.8798 308.062 93.928C307.944 96.0243 307.889 97.94 307.627 99.6297C307.527 100.47 307.427 101.265 307.337 101.988C307.21 102.711 307.101 103.38 306.993 103.976C306.811 105.178 306.549 106.109 306.413 106.741C306.259 107.374 306.159 107.708 306.159 107.708C306.159 107.708 306.404 106.334 306.621 103.922C306.675 103.316 306.739 102.648 306.802 101.925C306.829 101.193 306.866 100.407 306.902 99.5665C307.02 97.8857 306.92 95.9791 306.938 93.9189C306.965 92.8888 306.829 91.8135 306.766 90.7021C306.675 89.5906 306.639 88.4431 306.53 87.2684C306.367 86.0937 306.204 84.8919 306.032 83.663C305.86 82.4341 305.733 81.1781 305.416 79.9221C305.144 78.6661 304.864 77.3829 304.592 76.0908L304.383 75.1149L304.329 74.8709C304.329 74.8709 304.284 74.7354 304.266 74.6721L304.193 74.4372C304.275 74.7715 304.356 75.0878 304.438 75.4312C308.487 93.7563 304.438 108.557 304.438 108.557C302.916 109.452 301.222 110.229 299.464 110.889C299.79 108.801 300.107 105.901 299.944 102.946C299.944 102.946 299.636 107.356 298.395 111.277C296.311 112.009 294.182 112.596 292.189 113.057C292.343 110.952 292.506 108.259 292.506 106C292.506 106 291.827 109.741 290.993 113.319C286.282 114.331 282.595 114.657 282.595 114.657C282.595 114.657 287.551 108.205 287.551 99.5393C287.551 90.8738 285.385 85.9491 275.619 83.5726C265.862 81.1962 258.107 71.3378 262.764 61.4885H262.773Z" fill="#081A47"/>
<path d="M261.686 85.9489C261.686 85.9489 260.889 85.7411 259.693 85.4248C259.403 85.3706 259.113 85.2712 258.805 85.217C258.497 85.1447 258.18 85.0814 257.854 85.0363C257.537 84.9549 257.211 84.973 256.894 84.9098C256.731 84.9098 256.577 84.9098 256.422 84.9098C256.259 84.8917 256.105 84.8917 255.96 84.9188L255.498 84.9459C255.353 84.9911 255.209 85.0092 255.054 85.0363C254.746 85.0634 254.484 85.208 254.185 85.2802C253.886 85.3525 253.641 85.5333 253.351 85.6417C253.061 85.7411 252.844 85.9489 252.59 86.0664C252.346 86.211 252.092 86.3194 251.902 86.473C251.712 86.6176 251.521 86.7351 251.367 86.8344C251.05 87.0332 250.842 87.1417 250.842 87.1417C250.842 87.1417 250.86 86.9248 250.951 86.5543C250.996 86.3736 251.05 86.1387 251.141 85.8857C251.204 85.6146 251.349 85.3525 251.521 85.0634C251.702 84.7833 251.856 84.4309 252.155 84.1598C252.445 83.8887 252.717 83.5453 253.107 83.3104C253.496 83.0845 253.886 82.7953 254.366 82.6779C254.602 82.6056 254.837 82.5242 255.073 82.47L255.806 82.3977C256.305 82.3345 256.776 82.4429 257.247 82.4881C257.691 82.6146 258.144 82.705 258.524 82.9038C258.923 83.0664 259.276 83.2833 259.593 83.5001C259.919 83.708 260.182 83.961 260.427 84.1688C260.889 84.6387 261.224 85.0724 261.414 85.4067C261.614 85.732 261.686 85.9489 261.686 85.9489Z" fill="#081A47"/>
<path d="M277.223 85.2712C277.223 85.2712 276.426 85.0633 275.23 84.7471C274.94 84.6929 274.65 84.5935 274.342 84.5393C274.034 84.467 273.717 84.4037 273.391 84.3585C273.074 84.2772 272.748 84.2953 272.431 84.232C272.268 84.232 272.114 84.232 271.96 84.232C271.797 84.214 271.643 84.214 271.498 84.2411L271.036 84.2682C270.891 84.3134 270.746 84.3314 270.592 84.3585C270.284 84.3856 270.021 84.5302 269.722 84.6025C269.423 84.6748 269.178 84.8555 268.888 84.964C268.599 85.0633 268.381 85.2712 268.127 85.3886C267.883 85.5332 267.629 85.6417 267.439 85.7953C267.249 85.9398 267.058 86.0573 266.904 86.1567C266.587 86.3555 266.379 86.4639 266.379 86.4639C266.379 86.4639 266.397 86.2471 266.488 85.8766C266.533 85.6959 266.587 85.4609 266.678 85.2079C266.741 84.9368 266.886 84.6748 267.058 84.3856C267.24 84.1055 267.394 83.7531 267.693 83.482C267.982 83.211 268.254 82.8676 268.644 82.6326C269.033 82.4067 269.423 82.1176 269.903 82.0001C270.139 81.9278 270.374 81.8465 270.61 81.7923L271.344 81.72C271.842 81.6568 272.313 81.7652 272.784 81.8104C273.228 81.9369 273.681 82.0272 274.061 82.226C274.46 82.3887 274.813 82.6055 275.13 82.8224C275.457 83.0302 275.719 83.2832 275.964 83.4911C276.426 83.9609 276.761 84.3947 276.951 84.729C277.151 85.0543 277.223 85.2712 277.223 85.2712Z" fill="#081A47"/>
<path d="M263.77 89.4277C263.634 90.25 263.444 91.0542 263.281 91.8675C263.099 92.6717 262.9 93.4759 262.701 94.2801C262.293 95.8795 261.849 97.4698 261.369 99.0602L261.206 98.5993C261.894 99.0873 262.574 99.5933 263.235 100.126C263.897 100.66 264.531 101.22 265.138 101.825C264.359 101.473 263.607 101.075 262.873 100.641C262.139 100.217 261.432 99.7559 260.735 99.277L260.49 99.1144L260.572 98.8252C261.025 97.2349 261.523 95.6626 262.048 94.0903C262.311 93.3042 262.583 92.5271 262.873 91.75C263.172 90.9729 263.453 90.1958 263.779 89.4368L263.77 89.4277Z" fill="#823636"/>
<path d="M274.334 104.374C274.334 104.374 270.42 111.169 262.756 106.416L274.334 104.374Z" fill="white"/>
<path d="M255.145 92.3285C255.145 93.8104 255.561 95.0212 256.078 95.0212C256.594 95.0212 257.011 93.8194 257.011 92.3285C257.011 90.8375 256.594 89.6357 256.078 89.6357C255.561 89.6357 255.145 90.8375 255.145 92.3285Z" fill="#081A47"/>
<path d="M271.125 92.3285C271.125 93.8104 271.542 95.0212 272.058 95.0212C272.575 95.0212 272.991 93.8194 272.991 92.3285C272.991 90.8375 272.575 89.6357 272.058 89.6357C271.542 89.6357 271.125 90.8375 271.125 92.3285Z" fill="#081A47"/>
<path d="M257.764 378.98C257.764 378.98 255.391 414.41 252.446 415.106C242.354 417.482 207.629 420.021 240.868 411.708C240.868 411.708 236.402 387.88 233.403 356.489C230.413 325.107 257.764 378.971 257.764 378.971V378.98Z" fill="#D66C68"/>
<path d="M239.028 400.865C237.452 390.952 235.169 375.04 233.402 356.489C230.413 325.107 257.763 378.971 257.763 378.971C257.763 378.971 257.292 386.001 256.513 393.853C251.567 397.612 245.406 399.753 239.037 400.856L239.028 400.865Z" fill="#B25757"/>
<path d="M254.221 411.853C254.221 411.853 253.777 416.886 252.446 417.039C251.114 417.184 206.885 421.368 235.522 413.054C235.522 413.054 227.215 417.654 254.221 411.853Z" fill="#081A47"/>
<path d="M239.318 277.83C252.436 277.17 265.491 276.384 278.619 276.158C271.625 314.227 261.224 390.365 261.224 390.365C261.224 390.365 245.143 397.693 232.415 391.585C232.415 391.585 226.354 332.173 225.457 278.164C230.077 278.2 234.707 278.065 239.318 277.83Z" fill="#71C6C6"/>
<path d="M296.659 385.91C296.659 385.91 294.285 421.341 291.341 422.036C281.248 424.413 246.523 426.952 279.763 418.639C279.763 418.639 275.296 394.811 272.298 363.419C269.308 332.037 296.659 385.901 296.659 385.901V385.91Z" fill="#D66C68"/>
<path d="M277.923 407.805C276.346 397.892 274.063 381.98 272.297 363.429C269.307 332.047 296.658 385.91 296.658 385.91C296.658 385.91 296.187 392.941 295.408 400.793C290.461 404.552 284.301 406.693 277.932 407.796L277.923 407.805Z" fill="#B25757"/>
<path d="M293.116 418.783C293.116 418.783 292.672 423.816 291.34 423.97C290.008 424.114 245.78 428.298 274.417 419.985C274.417 419.985 266.109 424.584 293.116 418.783Z" fill="#081A47"/>
<path d="M281.772 276.113C290.922 276.022 300.073 275.959 309.232 275.914C306.469 316.622 302.491 397.178 302.491 397.178C302.491 397.178 291.665 408.365 271.236 400.856C271.236 400.856 261.877 334.432 254.24 277.071C263.409 276.61 272.568 276.212 281.763 276.122L281.772 276.113Z" fill="#92DFDC"/>
<path d="M253.845 124.443C253.845 124.443 231.133 124.569 226.078 150.467C222.4 163.759 217.118 177.738 217.118 177.738L200.349 139.931L181.967 144.747C181.967 144.747 198.048 208.442 218.259 208.442C238.471 208.442 251.109 154.822 251.109 154.822L253.836 124.452L253.845 124.443Z" fill="white"/>
<path opacity="0.5" d="M200.343 139.931L217.112 177.738C217.112 177.738 222.394 163.759 226.072 150.467C226.09 150.349 226.126 150.25 226.144 150.132C231.979 160.659 236.78 171.837 241.79 182.725C236.128 195.755 228.083 208.442 218.254 208.442C198.042 208.442 181.961 144.747 181.961 144.747L200.343 139.931Z" fill="#CEE2F9"/>
<path d="M210.227 130.072L148.658 133.741L154.628 225.854L217.574 222.186L210.227 130.072Z" fill="#061533"/>
<path d="M150.842 167.364L149.066 139.913C171.181 149.518 192.552 160.723 213.616 172.497L215.672 198.267C193.413 189.096 171.19 179.861 150.842 167.373V167.364Z" fill="#10458F"/>
<path d="M152.11 186.945L151.611 179.201C172.158 191.12 194.4 200.065 216.541 209.201L217.302 218.725C195.523 208.361 174.532 195.918 152.11 186.945Z" fill="#10458F"/>
<g opacity="0.3">
<path d="M194.318 197.074L172.005 158.12C172.005 158.12 175.049 151.542 172.005 149.012C168.961 146.481 166.931 156.096 166.931 156.096C166.931 156.096 158.307 153.566 158.307 157.108C158.307 160.65 167.439 160.65 167.439 160.65L189.245 200.111C189.245 200.111 182.142 205.171 187.216 208.713C192.289 212.255 194.826 203.147 194.826 203.147C194.826 203.147 202.943 206.689 202.436 199.098C201.928 191.508 194.318 197.074 194.318 197.074Z" fill="#AAC3FF"/>
</g>
<path d="M184.95 131.446C183.265 131.446 179.433 131.906 179.433 131.906C179.433 131.906 185.838 151.208 176.679 132.06C176.679 132.06 180.81 158.183 173.155 132.06C173.155 132.06 172.086 157.876 169.631 132.521C169.631 132.521 166.097 152.445 166.723 130.379C167.692 127.199 179.587 126.404 184.95 131.446Z" fill="#D66C68"/>
<path d="M293.512 120.178L300.261 121.316C300.261 121.316 300.035 124.605 300.569 124.904C302.961 126.214 304.066 126.087 307.473 127.425C320.319 132.44 315.418 139.696 313.597 153.602C311.758 167.653 300.732 189.195 300.732 189.195C300.732 189.195 322.937 233.192 324.16 328.504C324.16 328.504 299.745 339.085 257.844 336.293L254.782 284.968L252.028 336.293C252.028 336.293 233.148 339.88 215.273 324.835C215.273 324.835 229.914 227.201 233.193 195.602C236.545 163.28 231.553 148.316 234.842 134.102C236.518 126.855 262.773 122.401 262.773 122.401L258.859 178.686L293.494 120.178H293.512Z" fill="white"/>
<path opacity="0.5" d="M276.173 191.563C288.783 176.283 301.123 160.623 311.233 143.554C312.8 140.916 314.35 138.196 315.844 135.413C316.696 139.84 314.649 145.623 313.607 153.593C311.768 167.644 300.742 189.186 300.742 189.186C300.742 189.186 322.947 233.183 324.17 328.495C324.17 328.495 299.755 339.076 257.854 336.284L254.792 284.959L252.038 336.284C252.038 336.284 233.158 339.871 215.283 324.826C215.283 324.826 222.513 276.619 227.948 236.987C245.796 223.921 262.04 208.686 276.182 191.554L276.173 191.563Z" fill="#CEE2F9"/>
<path d="M341.345 188.472C341.345 188.472 308.088 208.595 303.803 206.147C299.517 203.707 299.517 198.204 299.517 198.204C299.517 198.204 277.466 212.869 299.517 195.15C299.517 195.15 276.234 200.038 298.901 191.481C298.901 191.481 278.689 189.34 300.74 189.186C300.74 189.186 281.933 179.264 302.453 186.593C305.479 188.002 306.049 194.698 306.049 194.698L331.353 174.755L341.354 188.463L341.345 188.472Z" fill="#D66C68"/>
<path d="M292.469 125.03C292.469 125.03 306.14 119.952 323.253 134.193C340.367 148.442 358.25 169.948 352.815 179.255C347.379 188.563 314.71 205.749 314.71 205.749L306.864 190.252L330.147 171.313C330.147 171.313 293.012 142.542 292.469 125.03Z" fill="white"/>
<path d="M300.034 123.702L302.86 142.614L302.897 142.885L302.616 142.867L288.084 141.855L288.365 141.331L294.752 149.463L294.988 149.762L294.689 150.006L276.941 164.536C271.025 169.379 265.109 174.222 259.157 179.029L258.586 179.49L258.432 178.776L254.655 161.68L250.922 144.575L250.868 144.349L251.067 144.232L258.922 139.452L258.994 139.93L248.222 136.858L248.041 136.804L248.123 136.641L253.857 124.452L248.412 136.777L248.313 136.56L259.139 139.424L259.728 139.578L259.211 139.903L251.42 144.783L251.565 144.439L255.47 161.509L259.329 178.587L258.604 178.334C264.511 173.481 270.445 168.665 276.388 163.849L294.209 149.4L294.145 149.942L287.867 141.729L287.423 141.15L288.148 141.214L302.661 142.433L302.426 142.686L300.043 123.711L300.034 123.702Z" fill="#AAC3FF"/>
</g>
<defs>
<clipPath id="clip0_686_20075">
<rect width="205.145" height="380.373" fill="white" transform="translate(148.658 51.6572)"/>
</clipPath>
</defs>
</svg>
