<svg width="36" height="38" viewBox="0 0 36 38" fill="none" xmlns="http://www.w3.org/2000/svg">
<path opacity="0.1" d="M16.0042 37.6109C18.8686 37.6109 21.1906 37.3501 21.1906 37.0285C21.1906 36.7068 18.8686 36.446 16.0042 36.446C13.1399 36.446 10.8179 36.7068 10.8179 37.0285C10.8179 37.3501 13.1399 37.6109 16.0042 37.6109Z" fill="black"/>
<path d="M29.1375 17.3075C29.1307 17.2306 29.1285 17.1559 29.1217 17.0812C29.1262 16.9317 29.1307 16.7845 29.1352 16.635C29.115 16.4878 29.1509 16.3339 29.0993 16.1889C29.0925 16.1295 29.0903 16.0724 29.0835 16.013C29.0948 15.7559 29.0543 15.5053 29.0027 15.2548C29.0027 15.2548 29.0027 15.2548 29.0004 15.2548C29.0027 15.2548 29.0049 15.2548 29.0072 15.2548C29.0027 15.1339 28.9959 15.013 28.951 14.8988C28.9667 14.7889 28.9218 14.6878 28.8971 14.5845C28.8971 14.5845 28.8949 14.5801 28.8926 14.5801C28.8702 14.413 28.8455 14.2482 28.7803 14.09V14.0856C28.7826 14.0856 28.7848 14.09 28.7871 14.09C28.7691 13.9515 28.7466 13.8174 28.6837 13.6922C28.6815 13.6922 28.6792 13.6878 28.677 13.6856C28.668 13.5779 28.6388 13.4746 28.5849 13.3801L28.5894 13.3845C28.5894 13.3845 28.5871 13.3801 28.5849 13.3779C28.5782 13.2504 28.5243 13.1361 28.4793 13.0196C28.4546 12.9603 28.4277 12.901 28.403 12.8416C28.3985 12.7119 28.3401 12.5977 28.2817 12.4856C28.23 12.3691 28.1783 12.2482 28.1267 12.1317C28.0975 11.9669 28.0121 11.8306 27.938 11.6856V11.6922C27.938 11.6922 27.9358 11.69 27.9335 11.6878H27.938C27.938 11.6878 27.9335 11.6834 27.9313 11.6834C27.9313 11.6834 27.9313 11.6834 27.9313 11.6856C27.9313 11.6856 27.929 11.6834 27.9268 11.6812C27.9268 11.6812 27.9268 11.6812 27.929 11.6812C27.9021 11.5845 27.8639 11.4944 27.7987 11.4174C27.7987 11.4152 27.7943 11.413 27.792 11.4086C27.7965 11.4108 27.7987 11.4152 27.8032 11.4174C27.7763 11.3185 27.7314 11.2284 27.6662 11.1493C27.5988 10.9735 27.5 10.8152 27.3922 10.6592C27.3922 10.6592 27.3922 10.6592 27.3877 10.6592C27.1855 10.279 26.9497 9.92293 26.6824 9.58447C26.6824 9.58447 26.6802 9.58447 26.6779 9.58227C26.6779 9.58227 26.6802 9.58227 26.6824 9.58227C26.6667 9.5559 26.6532 9.52953 26.6375 9.50535C24.297 6.44821 21.1905 4.69436 17.3047 4.26579C17.1632 4.25041 17.0172 4.257 16.8757 4.23722C16.8914 4.17788 16.9049 4.11634 16.9049 4.0526V2.98008H17.9089C18.3042 2.98008 18.6232 2.66799 18.6232 2.28118C18.6232 1.89436 18.302 1.58228 17.9089 1.58228H14.4723C14.077 1.58228 13.758 1.89436 13.758 2.28118C13.758 2.66799 14.0792 2.98008 14.4723 2.98008H15.4741V4.0526C15.4741 4.09656 15.4786 4.14052 15.4876 4.18227H15.391C15.1731 4.26799 14.9373 4.24381 14.7104 4.27678H14.7081C14.7081 4.27678 14.7081 4.27678 14.7104 4.27678C14.7104 4.27678 14.7104 4.27678 14.7081 4.27238V4.27678C14.7081 4.27678 14.7081 4.27678 14.7059 4.27678C14.1354 4.32074 13.5738 4.41524 13.019 4.54711H13.0145C13.0145 4.54711 13.0145 4.54711 13.0168 4.54711C13.0168 4.54711 13.0168 4.54931 13.0168 4.55151C13.0168 4.55151 13.0145 4.55151 13.0123 4.54931C12.9202 4.57568 12.8259 4.60205 12.7338 4.62843C12.4822 4.657 12.2486 4.74271 12.0128 4.82184C12.0128 4.82184 12.015 4.82184 12.0172 4.82184C12.015 4.82184 12.0128 4.82184 12.0105 4.82184C11.3951 5.01085 10.7931 5.21964 10.2271 5.52733C9.679 5.75151 9.17586 6.057 8.68844 6.38447C8.16958 6.73172 7.64847 7.07678 7.20823 7.52293C6.759 7.90315 6.34121 8.31194 5.97733 8.77128C5.93466 8.81304 5.88524 8.84601 5.84706 8.89216C5.35964 9.50975 4.89019 10.1383 4.51733 10.8328C3.66828 12.2944 3.18087 13.8658 2.96973 15.5295C2.94951 15.6944 2.96973 15.8658 2.87988 16.0174V17.9361C2.91358 17.9449 2.92256 17.9713 2.92481 18.0021C3.08204 19.5757 3.56047 21.0614 4.20961 22.4988C4.73745 23.6636 5.34616 24.7889 6.06718 25.8548C6.07167 25.8548 6.07616 25.8504 6.08066 25.8482C6.07841 25.8526 6.07392 25.8548 6.07167 25.8592C6.6085 26.7427 7.21047 27.5823 7.85512 28.3955C7.8641 28.424 7.8686 28.4526 7.88657 28.4768C8.7446 29.5713 9.63632 30.6394 10.5752 31.668C11.3636 32.5339 12.161 33.3911 13.0168 34.1955C13.2751 34.4504 13.5334 34.7031 13.794 34.9559C14.0657 35.2724 14.4049 35.5207 14.7059 35.8042C14.8452 35.9823 15.0361 36.1075 15.2068 36.2548C15.245 36.2482 15.2809 36.2372 15.3056 36.2042C15.3753 36.3317 15.5684 36.3207 15.6223 36.468C15.6381 36.4834 15.6538 36.4988 15.6673 36.5119C15.7099 36.5405 15.7616 36.5559 15.7998 36.5889C15.8896 36.6658 15.9705 36.6834 16.0513 36.6482C15.9885 36.6812 15.9166 36.6922 15.8267 36.6636C15.7841 36.6724 15.7369 36.6768 15.7571 36.7405C15.82 36.846 15.9166 36.9053 16.0334 36.9405C16.1389 36.8614 16.2288 36.7647 16.3366 36.6812C16.5904 36.4856 16.851 36.29 17.0397 36.0284C17.4821 35.6328 17.9314 35.2438 18.3649 34.835C18.7557 34.4658 19.1241 34.0768 19.5014 33.6944C19.9754 33.268 20.4134 32.8064 20.8289 32.3251C20.8289 32.3251 20.8267 32.3251 20.8244 32.3251C21.1411 32.0416 21.4129 31.7119 21.6914 31.3955C21.8756 31.1867 22.0913 30.9999 22.2283 30.7515C22.6214 30.2944 23.0302 29.846 23.4098 29.3779C24.8563 27.5845 26.177 25.7097 27.2394 23.668C27.6685 22.8394 28.0705 22.0021 28.3513 21.1119C28.3513 21.1119 28.3513 21.1053 28.3535 21.101C28.3535 21.1053 28.3535 21.1075 28.3535 21.1119C28.5827 20.5383 28.7623 19.9515 28.8589 19.3427C28.9083 19.2878 28.9039 19.2174 28.9039 19.1515C28.9039 19.1515 28.9039 19.1471 28.9039 19.1449C28.9959 18.9141 28.9533 18.6592 29.0319 18.4262C29.0319 18.4262 29.0319 18.4262 29.0341 18.4262C29.115 18.0724 29.088 17.7119 29.1217 17.3537C29.1217 17.3537 29.1217 17.3493 29.1217 17.3471C29.1217 17.3471 29.124 17.3515 29.124 17.3537C29.1307 17.3405 29.133 17.3251 29.1397 17.3119L29.1375 17.3075ZM17.0149 19.2746C16.8577 19.3317 16.6937 19.3559 16.5365 19.3537C16.532 19.3537 16.5298 19.3537 16.5253 19.3537L9.95752 19.2812L15.218 17.6834C15.218 17.6768 15.2225 17.6702 15.2248 17.6614L14.8833 9.94491L17.7405 17.4856C17.7741 17.5603 17.8011 17.6372 17.8213 17.7141C18.0077 18.3537 17.6618 19.035 17.0149 19.2724V19.2746Z" fill="#253E96"/>
<path d="M2.77326 14.1187L2.77002 14.1218H2.77326V14.1187Z" fill="#253E96"/>
<path d="M2.53655 15.5494C2.60393 15.0681 2.68928 14.5934 2.77015 14.123C2.20636 14.9187 2.04464 16.2813 1.94356 17.2241C1.8335 18.2637 1.87393 19.3209 2.0671 20.3516C2.31193 21.6549 2.80609 22.9121 3.50913 24.0461C3.86402 24.622 4.27282 25.1648 4.73329 25.6681C4.94218 25.8989 5.14883 26.1274 5.38692 26.3296C5.62726 26.5318 6.01584 26.7011 6.2135 26.934C6.11018 26.8132 6.01135 26.6901 5.91252 26.567C3.47319 23.5077 1.98175 19.4351 2.53879 15.5494H2.53655Z" fill="#253E96"/>
<path d="M1.42447 17.2571C1.48062 16.9318 1.54576 16.6065 1.61315 16.2878C1.21333 16.8175 1.07407 17.745 0.98647 18.3867C0.889885 19.0944 0.894378 19.8153 1.00669 20.5208C1.15044 21.4153 1.46041 22.2812 1.91638 23.0681C2.14549 23.4659 2.41503 23.8439 2.71826 24.1955C2.85752 24.3582 2.99229 24.5186 3.15177 24.6593C3.31124 24.7999 3.57404 24.9252 3.70432 25.0878C3.63693 25.0043 3.5718 24.9186 3.50666 24.8329C1.90515 22.6988 0.970747 19.8944 1.42672 17.2549L1.42447 17.2571Z" fill="#253E96"/>
<path d="M29.2657 11.7536C28.803 10.5075 28.1044 9.34483 27.2217 8.34043C26.7747 7.83054 26.2805 7.36021 25.7437 6.93824C25.4966 6.74483 25.2563 6.55362 24.9867 6.39318C24.7172 6.23274 24.3017 6.12505 24.0703 5.92725C24.1894 6.03054 24.3107 6.13384 24.4275 6.23933C27.3475 8.86351 29.5015 12.6415 29.6048 16.5646C29.6161 17.0503 29.6138 17.536 29.6116 18.013H29.6161C30.0384 17.1382 29.9687 15.7668 29.9103 14.8196C29.8429 13.7756 29.6296 12.7382 29.2634 11.7536H29.2657Z" fill="#253E96"/>
<path d="M30.6581 13.5208C30.6357 12.8065 30.5076 12.0944 30.2808 11.4175C29.991 10.5582 29.5395 9.75376 28.9578 9.05046C28.6635 8.69222 28.3333 8.36475 27.9785 8.06585C27.8145 7.92739 27.6573 7.79332 27.4753 7.67904C27.2934 7.56255 27.0126 7.48343 26.8599 7.34497C26.9407 7.4175 27.0193 7.49003 27.098 7.56475C29.0364 9.4109 30.429 12.0285 30.4223 14.7054C30.4223 15.0373 30.411 15.3647 30.3998 15.69C30.703 15.101 30.6851 14.1691 30.6649 13.523L30.6581 13.5208Z" fill="#253E96"/>
<path opacity="0.4" d="M11.4872 5.33169C10.6224 5.65476 9.76213 6.13828 8.95127 6.70971C8.93779 6.7185 8.92432 6.72729 8.91084 6.73608C8.84795 6.78004 8.78506 6.824 8.72441 6.87015C8.66601 6.91411 8.60761 6.95806 8.54921 7.00202C8.52226 7.0218 8.4953 7.04158 8.46835 7.06356C8.46386 7.06795 8.45712 7.07235 8.45038 7.07674C8.36727 7.14048 8.28416 7.20641 8.2033 7.27235C8.15838 7.30751 8.11346 7.34487 8.07078 7.38224C8.05281 7.39762 8.03484 7.41081 8.01687 7.42619C8.01013 7.43059 8.00564 7.43498 7.9989 7.44158C7.89782 7.52729 7.79899 7.61301 7.70016 7.70092C7.66647 7.73169 7.63053 7.76246 7.59684 7.79323C7.59235 7.79762 7.58561 7.80202 7.58112 7.80641C7.57438 7.81301 7.56764 7.8174 7.5609 7.82399C7.41939 7.95367 7.28013 8.08334 7.14312 8.2174C7.12515 8.23498 7.10942 8.25257 7.0937 8.26795C6.98364 8.37564 6.87358 8.48773 6.76576 8.59982C6.74555 8.6196 6.72758 8.64158 6.70961 8.66136C6.68041 8.69213 6.65121 8.72509 6.61976 8.75806C6.54564 8.83938 6.46927 8.9185 6.39515 9.00202C6.36145 9.04158 6.32776 9.08114 6.29407 9.1185C6.29407 9.1185 6.29182 9.1207 6.28958 9.1229C6.25364 9.16465 6.2177 9.20861 6.18176 9.25037C6.13459 9.30531 6.08742 9.36026 6.04025 9.4174C6.01779 9.44378 5.99758 9.47015 5.97736 9.49872C5.97736 9.49872 5.97511 9.50312 5.97287 9.50312C5.96613 9.51191 5.95715 9.5229 5.95041 9.53169C5.93468 9.55147 5.91896 9.57125 5.90324 9.59103C5.85831 9.64817 5.81339 9.70531 5.76847 9.76246C5.74825 9.78883 5.72579 9.8174 5.70558 9.84378C5.68087 9.87894 5.65616 9.91191 5.63145 9.94707C5.62247 9.95806 5.61573 9.96905 5.60675 9.98004C5.0205 10.7734 4.52634 11.6174 4.19616 12.4658C3.99176 12.9954 3.76265 14.2767 3.90416 14.2394C3.98727 14.2174 4.51736 13.1778 4.78465 12.6899C5.55733 11.2833 6.54564 9.94707 7.72936 8.78883C8.76933 7.77345 9.96878 6.87894 11.2289 6.16905C11.8578 5.8152 13.2594 5.19323 13.2976 5.04378C13.3245 4.94488 12.0263 5.12509 11.4849 5.32949L11.4872 5.33169Z" fill="#C9C9C9"/>
<path fill-rule="evenodd" clip-rule="evenodd" d="M35.3505 4.58004C34.8473 1.02839 33.0616 0.881138 30.0743 0.672346C29.8609 0.366852 29.4341 0.147072 28.9849 0.20861C28.3694 0.292127 27.9382 0.848171 28.0145 1.39542C28.0932 1.94268 28.6547 2.3141 29.2701 2.22839C29.5487 2.19103 29.7643 2.10531 29.9103 1.9185C32.846 2.13169 33.6479 2.19103 34.0118 4.76026C34.297 6.78444 33.6232 9.65696 32.2822 11.8438C32.0037 11.8811 31.7409 12.0284 31.6039 12.268C30.8896 13.2548 29.6969 14.4745 28.1336 14.6877C26.5703 14.9009 25.1395 14.035 24.1759 13.2745C23.922 13.0855 23.6862 13.0086 23.4054 13.046C21.5074 11.2987 20.0609 8.70971 19.7734 6.68553C19.4095 4.1163 20.1103 3.85476 22.8731 2.86795C23.1202 3.00202 23.3493 3.02619 23.5739 2.99542C24.1893 2.91191 24.6273 2.40641 24.551 1.85916C24.4746 1.31191 23.9018 0.892127 23.2886 0.973445C22.8416 1.03498 22.5451 1.35147 22.3655 1.70971C19.5465 2.70531 17.8709 3.3207 18.3718 6.87235C18.6975 9.16685 20.2473 12.0745 22.3991 14.013C22.4373 14.2855 22.5294 14.5537 22.7855 14.7405C24.3263 15.9778 26.0065 16.5866 27.6012 16.5932L28.1583 20.5295C28.7153 24.4636 27.7675 27.9339 24.7082 28.3756C24.5622 28.3954 24.3263 28.4504 24.1803 28.4548C23.8524 29.0152 23.2864 29.5603 22.9944 29.9976C23.4167 30.0394 23.5963 30.013 24.0276 29.9449C28.5244 29.2372 30.4067 25.1251 29.7261 20.3207L29.1691 16.3844C30.7009 15.9537 32.1475 14.9229 33.3402 13.3141C33.5333 13.0658 33.5536 12.7844 33.457 12.5185C34.9844 10.0284 35.6739 6.87235 35.3505 4.57784V4.58004Z" fill="#ED1C24"/>
<path opacity="0.3" d="M28.2236 24.556C28.2078 24.5603 28.1831 24.6636 28.1562 24.7933C28.127 24.6571 28.091 24.5494 28.0663 24.556C28.0529 24.5581 28.0304 24.6417 28.0102 24.7472C27.9922 24.8153 27.9742 24.9142 27.954 25.0109C27.9473 25.0439 27.9406 25.0768 27.9338 25.112C27.9271 25.1472 27.9181 25.1845 27.9114 25.2197C27.8979 25.2746 27.8844 25.334 27.8709 25.3911C27.8574 25.4461 27.844 25.501 27.8282 25.556C27.8215 25.5757 27.817 25.5955 27.8125 25.6175C27.689 26.0131 27.5093 26.3889 27.2712 26.7274C27.0556 27.0307 26.7928 27.3054 26.494 27.5428C26.4783 27.556 26.4603 27.5669 26.4446 27.5801C26.3974 27.6175 26.348 27.6505 26.3009 27.6856C26.2649 27.7076 26.2267 27.7318 26.1886 27.756C26.1167 27.7999 26.0426 27.8439 25.9819 27.8834C25.9594 27.8966 25.9415 27.9076 25.9213 27.9208C25.8988 27.934 25.8786 27.9472 25.8561 27.9603C25.7955 27.9955 25.7371 28.0307 25.6899 28.0592C25.5664 28.1318 25.4698 28.1933 25.4743 28.2197C25.4743 28.2329 25.5439 28.2329 25.6382 28.2241C25.6877 28.2527 26.1683 28.1823 26.357 28.1076C26.9298 27.8768 27.4194 27.4461 27.7654 26.9603C28.1113 26.4724 28.3494 25.8724 28.3696 25.2658C28.3763 25.0549 28.2775 24.5428 28.2236 24.5581V24.556Z" fill="#253E96"/>
</svg>
