<svg width="304" height="130" viewBox="0 0 304 130" fill="none" xmlns="http://www.w3.org/2000/svg">
<g filter="url(#filter0_d_712_12850)">
<g clip-path="url(#clip0_712_12850)">
<rect x="14.6206" y="10.5386" width="274.623" height="100.788" rx="10" fill="white"/>
<g clip-path="url(#clip1_712_12850)">
<path d="M271.874 69.4602H192.371C190.299 69.4602 188.621 71.1377 188.621 73.2074C188.621 75.277 190.299 76.9546 192.371 76.9546H271.874C273.945 76.9546 275.624 75.277 275.624 73.2074C275.624 71.1377 273.945 69.4602 271.874 69.4602Z" fill="#D1E0FF"/>
<path d="M220.547 30.1782H223.368V25.8974H220.547V30.1782Z" fill="#C4BCB5"/>
<path d="M219.231 23.9517H224.678C225.755 23.9517 226.625 24.8214 226.625 25.8975C226.625 26.9736 225.755 27.8433 224.678 27.8433H219.231C218.155 27.8433 217.284 26.9736 217.284 25.8975C217.284 24.8214 218.155 23.9517 219.231 23.9517Z" fill="#D92A1A"/>
<path d="M219.609 27.8433H224.259V23.9516H219.609V27.8433Z" fill="white"/>
<path opacity="0.14" d="M223.368 29.1287L220.544 27.8433H223.368V29.1287Z" fill="black"/>
<path d="M191.409 52.4697C191.459 49.9638 193.214 47.8116 195.66 47.2603L205.636 45.0108C207.149 44.6688 208.462 43.7371 209.286 42.4252L214.174 34.6154H213.702C213.443 34.6154 213.233 34.4061 213.233 34.1466V29.7272C213.233 29.4678 213.443 29.2585 213.702 29.2585H227.885V28.486C227.885 28.2531 228.074 28.0645 228.307 28.0645H267.598C268.419 28.0645 269.085 28.7278 269.085 29.5504V33.33C269.085 34.123 269.212 34.9131 269.466 35.6679L271.431 41.5555C272.059 43.4394 272.381 45.4147 272.381 47.4018V63.1865C272.381 65.3269 270.646 67.0604 268.504 67.0604H261.152C261.152 62.9949 257.853 59.7017 253.787 59.7017C249.722 59.7017 246.423 62.9978 246.423 67.0604H214.015C214.015 62.9949 210.717 59.7017 206.651 59.7017C202.585 59.7017 199.286 62.9978 199.286 67.0604H194.33C192.571 67.0604 191.158 65.6188 191.193 63.8616L191.418 52.4786L191.409 52.4697Z" fill="white"/>
<path d="M212.209 30.308L213.233 29.8923V33.9756L212.209 33.5599C211.95 33.4538 211.782 33.2032 211.782 32.9231V30.9478C211.782 30.6677 211.953 30.4142 212.209 30.311V30.308Z" fill="#D92A1A"/>
<path opacity="0.14" d="M227.9 29.2556V34.6125H225.613L227.9 29.2556Z" fill="black"/>
<path d="M191.373 54.3538H192.736C193.306 54.3538 193.766 54.8137 193.766 55.3827V59.3068C193.766 59.8758 193.306 60.3357 192.736 60.3357H191.255L191.373 54.3538Z" fill="#FFC547"/>
<path d="M272.378 53.0121H191.4L191.412 52.4726C191.435 51.2226 191.887 50.058 192.636 49.1382H272.381V53.0121H272.378Z" fill="#D92A1A"/>
<path d="M253.784 73.8503C257.519 73.8503 260.547 70.8249 260.547 67.093C260.547 63.361 257.519 60.3357 253.784 60.3357C250.049 60.3357 247.022 63.361 247.022 67.093C247.022 70.8249 250.049 73.8503 253.784 73.8503Z" fill="#2B2928"/>
<path d="M253.784 72.3055C256.665 72.3055 259.001 69.9718 259.001 67.0931C259.001 64.2143 256.665 61.8806 253.784 61.8806C250.903 61.8806 248.568 64.2143 248.568 67.0931C248.568 69.9718 250.903 72.3055 253.784 72.3055Z" fill="#171515"/>
<path d="M253.784 70.7607C255.811 70.7607 257.455 69.1187 257.455 67.0931C257.455 65.0676 255.811 63.4255 253.784 63.4255C251.757 63.4255 250.114 65.0676 250.114 67.0931C250.114 69.1187 251.757 70.7607 253.784 70.7607Z" fill="#B0A8A2"/>
<path d="M253.784 69.2156C254.957 69.2156 255.909 68.2653 255.909 67.0929C255.909 65.9206 254.957 64.9702 253.784 64.9702C252.611 64.9702 251.66 65.9206 251.66 67.0929C251.66 68.2653 252.611 69.2156 253.784 69.2156Z" fill="#C4C0BC"/>
<path d="M206.645 73.8503C210.38 73.8503 213.407 70.8249 213.407 67.093C213.407 63.361 210.38 60.3357 206.645 60.3357C202.91 60.3357 199.882 63.361 199.882 67.093C199.882 70.8249 202.91 73.8503 206.645 73.8503Z" fill="#2B2928"/>
<path d="M206.645 72.3055C209.526 72.3055 211.861 69.9718 211.861 67.0931C211.861 64.2143 209.526 61.8806 206.645 61.8806C203.764 61.8806 201.428 64.2143 201.428 67.0931C201.428 69.9718 203.764 72.3055 206.645 72.3055Z" fill="#171515"/>
<path d="M206.645 70.7607C208.672 70.7607 210.315 69.1185 210.315 67.0931C210.315 65.0677 208.672 63.4255 206.645 63.4255C204.618 63.4255 202.974 65.0677 202.974 67.0931C202.974 69.1185 204.618 70.7607 206.645 70.7607Z" fill="#B0A8A2"/>
<path d="M206.645 69.2156C207.818 69.2156 208.769 68.2653 208.769 67.0929C208.769 65.9206 207.818 64.9702 206.645 64.9702C205.472 64.9702 204.521 65.9206 204.521 67.0929C204.521 68.2653 205.472 69.2156 206.645 69.2156Z" fill="#C4C0BC"/>
<path d="M271.387 55.4475H272.381V60.6776H271.387C270.838 60.6776 270.392 60.2325 270.392 59.6841V56.4411C270.392 55.8927 270.838 55.4475 271.387 55.4475Z" fill="#FFC547"/>
<path d="M212.174 46.1488H226.543C227.204 46.1488 227.741 45.6122 227.741 44.9518V37.6904C227.741 37.03 227.204 36.4934 226.543 36.4934H216.865C216.26 36.4934 215.703 36.8089 215.39 37.3248L211.147 44.3327C210.663 45.1317 211.239 46.1517 212.174 46.1517V46.1488Z" fill="#D1E0FF"/>
<path d="M243.115 36.4934H231.6C230.642 36.4934 229.865 37.2695 229.865 38.227V44.4182C229.865 45.3756 230.642 46.1517 231.6 46.1517H243.115C244.074 46.1517 244.85 45.3756 244.85 44.4182V38.227C244.85 37.2695 244.074 36.4934 243.115 36.4934Z" fill="#D1E0FF"/>
<path d="M268.681 57.3049H267.002C266.52 57.3049 266.129 57.695 266.129 58.1761C266.129 58.6573 266.52 59.0473 267.002 59.0473H268.681C269.163 59.0473 269.554 58.6573 269.554 58.1761C269.554 57.695 269.163 57.3049 268.681 57.3049Z" fill="#D92A1A"/>
<path d="M246.42 67.0929H214.009C214.009 67.0929 214.009 67.0663 214.009 67.0516C214.009 65.604 213.587 64.2538 212.865 63.1128H247.562C246.839 64.2508 246.417 65.6011 246.417 67.0516C246.417 67.0663 246.417 67.0781 246.417 67.0929H246.42Z" fill="#4A4A4A"/>
<path d="M191.285 63.1157H200.425C199.702 64.2537 199.281 65.604 199.281 67.0545C199.281 67.0693 199.281 67.0811 199.281 67.0958H191.285C190.58 67.0958 190.01 66.5239 190.01 65.8222V64.3923C190.01 63.6877 190.583 63.1187 191.285 63.1187V63.1157Z" fill="#4A4A4A"/>
<path d="M261.149 67.0516C261.149 65.604 260.727 64.2538 260.004 63.1128H272.201C272.906 63.1128 273.476 63.6847 273.476 64.3864V65.8163C273.476 66.5209 272.903 67.0899 272.201 67.0899H261.149C261.149 67.0899 261.149 67.0634 261.149 67.0487V67.0516Z" fill="#4A4A4A"/>
<path opacity="0.14" d="M238.486 34.0081H243.564C244.033 34.0081 244.414 33.6279 244.414 33.159V30.709C244.414 30.2401 244.033 29.8599 243.564 29.8599H238.486C238.017 29.8599 237.637 30.2401 237.637 30.709V33.159C237.637 33.6279 238.017 34.0081 238.486 34.0081Z" fill="black"/>
<path opacity="0.14" d="M256.316 34.0081H261.394C261.863 34.0081 262.243 33.6279 262.243 33.159V30.709C262.243 30.2401 261.863 29.8599 261.394 29.8599H256.316C255.847 29.8599 255.466 30.2401 255.466 30.709V33.159C255.466 33.6279 255.847 34.0081 256.316 34.0081Z" fill="black"/>
<path opacity="0.14" d="M247.273 34.0081H252.35C252.82 34.0081 253.2 33.6279 253.2 33.159V30.709C253.2 30.2401 252.82 29.8599 252.35 29.8599H247.273C246.803 29.8599 246.423 30.2401 246.423 30.709V33.159C246.423 33.6279 246.803 34.0081 247.273 34.0081Z" fill="black"/>
<path d="M255.274 39.7305L256.587 37.932L258.529 39.3472V36.9739H260.753V39.3472L262.698 37.932L264.008 39.7305L261.532 41.5348L264.008 43.3391L262.698 45.1345L260.753 43.7223V46.1487H258.529V43.7223L256.587 45.1345L255.274 43.3391L257.753 41.5348L255.274 39.7305Z" fill="#D92A1A"/>
</g>
</g>
<g clip-path="url(#clip2_712_12850)">
<path d="M78.6434 61.8773C77.7986 66.0534 74 67.7691 70.8835 66.8503C67.873 65.9619 65.3996 62.4942 67.0543 58.3994C66.8221 58.3994 66.6174 58.3994 66.4113 58.3994C61.3034 58.3994 56.1969 58.3994 51.0889 58.3994C50.3588 58.3994 50.006 58.1294 49.9857 57.5677C49.9669 57.0858 50.263 56.7273 50.7405 56.6707C50.9191 56.6503 51.102 56.6605 51.2834 56.6605C56.7891 56.6605 62.2948 56.6648 67.8004 56.646C68.1067 56.646 68.4725 56.511 68.7091 56.3165C70.9619 54.4614 74.1959 54.46 76.4763 56.3165C76.7158 56.511 77.0787 56.6402 77.3864 56.646C78.9569 56.6794 80.529 56.6605 82.1561 56.6605C82.1561 55.3686 82.0618 54.1145 82.1808 52.8821C82.3173 51.4814 81.9355 50.4145 80.8004 49.5639C79.2327 48.3882 78.3952 46.7813 77.9452 44.8726C77.4691 42.852 76.7782 40.8823 76.1758 38.8922C76.0916 38.6164 75.9929 38.3421 75.8753 38.0794C75.7142 37.7223 75.4515 37.5249 75.0276 37.5249C71.6949 37.5336 68.3622 37.5292 65.0309 37.5307C64.9627 37.5307 64.893 37.5452 64.7667 37.5612V38.2086C64.7667 43.3528 64.7667 48.4985 64.7667 53.6427C64.7667 53.8416 64.7856 54.0477 64.745 54.2393C64.6492 54.6864 64.353 54.923 63.8944 54.9216C63.4342 54.9201 63.141 54.6806 63.0496 54.2335C63.0104 54.0419 63.0292 53.8373 63.0292 53.6369C63.0292 46.9526 63.0292 40.2683 63.0292 33.584C63.0292 32.5403 62.8013 32.3139 61.7533 32.3139C52.7524 32.3139 43.7514 32.3139 34.7489 32.3139C33.6966 32.3139 33.4687 32.5389 33.4687 33.5782C33.4687 41.0594 33.4687 48.5406 33.4687 56.0233V56.6605C35.2149 56.6605 36.9117 56.6648 38.6086 56.6518C38.7479 56.6518 38.9061 56.54 39.0237 56.4428C42.7063 53.3858 47.9478 55.1727 48.9958 59.8437C49.0146 59.9279 49.0335 60.0135 49.0611 60.1413H49.7215C54.3766 60.1413 59.0303 60.1413 63.6853 60.1413C64.4053 60.1413 64.7653 60.4243 64.7682 60.989C64.7711 61.4738 64.5258 61.7772 64.0482 61.8613C63.8552 61.8962 63.6505 61.8788 63.4516 61.8788C58.8691 61.8788 54.2866 61.8788 49.7056 61.8788H49.0655C48.7185 63.6932 47.8302 65.1505 46.2654 66.1492C45.1637 66.8532 43.9517 67.1566 42.6482 67.0854C39.8874 66.9345 37.8698 65.0954 36.9742 61.8802C35.6707 61.8802 34.3527 61.8802 33.0347 61.8802C31.9649 61.8773 31.7312 61.6436 31.7312 60.5709C31.7312 51.5496 31.7312 42.5283 31.7312 33.507C31.7312 31.6215 32.7734 30.572 34.6459 30.572C43.7194 30.572 52.793 30.572 61.8666 30.572C63.7086 30.572 64.7638 31.6273 64.7682 33.4678C64.7682 34.2241 64.7682 34.9803 64.7682 35.7903H68.2461C68.2461 35.5014 68.2432 35.2373 68.2461 34.9745C68.2649 33.4867 69.3971 32.3226 70.8342 32.3124C72.2958 32.3023 73.4411 33.4678 73.4614 34.989C73.4643 35.2373 73.4614 35.4869 73.4614 35.7903C73.9941 35.7903 74.479 35.8063 74.9623 35.7874C76.1845 35.7366 77.0366 36.3158 77.4677 37.4088C77.8988 38.4989 78.2138 39.6354 78.5563 40.7589C79.1108 42.5748 79.6392 44.3979 80.2009 46.2123C80.2822 46.4751 80.4433 46.7378 80.6335 46.9352C81.5537 47.8845 82.4885 48.8193 83.4349 49.7425C83.7543 50.0545 83.9023 50.3928 83.9009 50.8456C83.8878 54.1421 83.8951 57.44 83.8922 60.7364C83.8922 61.5856 83.6004 61.8759 82.7498 61.8773C81.3767 61.8802 80.0035 61.8773 78.642 61.8773H78.6434ZM38.687 61.0006C38.687 63.4058 40.6262 65.3523 43.0285 65.3552C45.4323 65.3581 47.3759 63.4174 47.3788 61.0107C47.3817 58.6026 45.4453 56.6619 43.0372 56.6605C40.6291 56.6605 38.687 58.5954 38.687 61.0006ZM72.5949 56.6605C70.1882 56.6605 68.2475 58.6012 68.2475 61.0049C68.2475 63.4072 70.1926 65.3537 72.5934 65.3552C74.9957 65.3552 76.9379 63.413 76.9393 61.0064C76.9393 58.5983 75.003 56.6605 72.5949 56.6605ZM36.9742 60.1151C37.1512 59.5186 37.3109 58.9873 37.4735 58.4415H33.4992V60.1151H36.9742ZM78.6449 60.0963H82.1271V58.4241H78.147C78.3139 58.9844 78.4721 59.5171 78.6449 60.0963ZM71.7254 35.7656C71.676 35.1531 71.9359 34.4767 71.2464 34.1747C70.988 34.0615 70.5366 34.1109 70.3072 34.2734C69.7847 34.6465 70.0184 35.2373 70.0068 35.7642H71.7268L71.7254 35.7656Z" fill="#ED1C24"/>
<path d="M50.858 41.8766C51.7013 41.8766 52.4924 41.8723 53.285 41.8766C54.0281 41.8824 54.3315 42.1873 54.3344 42.9392C54.3402 43.9712 54.3402 45.0032 54.3344 46.0367C54.3301 46.7785 54.0194 47.0848 53.2719 47.092C52.4939 47.0978 51.7173 47.092 50.858 47.092C50.858 47.8846 50.8594 48.6539 50.858 49.4246C50.8551 50.2796 50.5691 50.567 49.7214 50.5699C48.7068 50.5728 47.6936 50.5757 46.679 50.5699C45.9649 50.5655 45.6499 50.2535 45.6441 49.5451C45.6368 48.7511 45.6426 47.9571 45.6426 47.0935C44.8544 47.0935 44.1011 47.0949 43.3477 47.0935C42.4492 47.0906 42.1676 46.8177 42.1662 45.9395C42.1633 44.9249 42.1604 43.9102 42.1676 42.8971C42.1734 42.1887 42.487 41.8824 43.204 41.8781C43.9966 41.8723 44.7891 41.8781 45.6426 41.8781C45.6426 41.0609 45.6397 40.2887 45.6426 39.515C45.6455 38.692 45.9329 38.4031 46.7501 38.4002C47.7648 38.3973 48.7779 38.3959 49.7926 38.4002C50.5416 38.4031 50.8522 38.7079 50.858 39.4482C50.8638 40.2408 50.8594 41.0318 50.8594 41.8766H50.858ZM52.5737 43.6156C51.7681 43.6156 51.0104 43.6185 50.2542 43.6156C49.4079 43.6127 49.122 43.3224 49.1191 42.4703C49.1161 41.701 49.1191 40.9317 49.1191 40.1653H47.3801C47.3801 40.9636 47.383 41.7373 47.3801 42.5095C47.3758 43.3166 47.0767 43.6112 46.2595 43.6156C45.4888 43.6199 44.7165 43.6156 43.94 43.6156V45.3545C44.734 45.3545 45.4917 45.3531 46.2494 45.3545C47.0956 45.3574 47.3772 45.6448 47.3801 46.5012C47.383 47.2706 47.3801 48.0399 47.3801 48.8048H49.1191C49.1191 47.9876 49.1147 47.1965 49.1191 46.4054C49.1249 45.6637 49.4326 45.3603 50.1816 45.3545C50.9712 45.3487 51.7608 45.3545 52.5737 45.3545V43.6156Z" fill="#ED1C24"/>
<path d="M71.6136 47.9601C70.2738 47.9601 68.934 47.963 67.5943 47.9601C66.8133 47.9572 66.5085 47.6552 66.5071 46.8758C66.5042 44.7028 66.5042 42.5299 66.5071 40.3569C66.5071 39.5702 66.8046 39.2683 67.5826 39.2668C69.6104 39.2625 71.6382 39.2712 73.666 39.261C74.2162 39.2581 74.5457 39.4933 74.7024 40.0202C75.3629 42.2367 76.0393 44.4503 76.6954 46.6682C76.9363 47.4825 76.5546 47.9557 75.6866 47.9586C74.3294 47.963 72.9708 47.9586 71.6136 47.9586V47.9601ZM68.2663 46.1877H74.73C74.357 44.9336 74.0013 43.7245 73.6341 42.5183C73.4831 42.0218 73.441 41.3454 73.0985 41.0958C72.7516 40.8432 72.094 41.0087 71.5715 41.0058C70.4756 41 69.3797 41.0043 68.2649 41.0043V46.1877H68.2663Z" fill="#ED1C24"/>
<path d="M71.7182 28.8738C71.7182 29.1815 71.7386 29.4907 71.7139 29.797C71.6732 30.2905 71.3321 30.5852 70.8473 30.5823C70.3639 30.5794 70.0156 30.2789 69.9953 29.7854C69.9706 29.1525 69.9691 28.5167 69.9982 27.8853C70.0199 27.4005 70.3901 27.0928 70.8647 27.0928C71.3423 27.0928 71.6761 27.3947 71.7139 27.8969C71.7386 28.2206 71.7182 28.5487 71.7182 28.8738Z" fill="#ED1C24"/>
<path d="M68.2563 49.7077C68.5641 49.7077 68.8732 49.6874 69.1795 49.7135C69.6687 49.7541 69.9241 50.0604 69.9662 50.5307C70.0069 50.985 69.6774 51.3987 69.2056 51.4249C68.5568 51.4611 67.9022 51.4597 67.2533 51.4249C66.77 51.3987 66.4796 51.0155 66.5058 50.5293C66.5334 50.043 66.799 49.7556 67.2823 49.7135C67.606 49.6845 67.9326 49.7077 68.2592 49.7091L68.2563 49.7077Z" fill="#ED1C24"/>
<path d="M66.7162 28.2729C66.8251 28.3586 67.1082 28.4979 67.2635 28.7258C67.5901 29.199 67.863 29.7114 68.1315 30.2224C68.3826 30.6999 68.2549 31.1368 67.8267 31.3938C67.3941 31.6521 66.9412 31.5621 66.6553 31.1093C66.3272 30.5911 66.0181 30.0598 65.7437 29.5126C65.4331 28.8957 65.8395 28.2773 66.7162 28.2744V28.2729Z" fill="#ED1C24"/>
<path d="M75.0161 28.27C75.8319 28.2758 76.263 28.8855 75.9799 29.4661C75.6969 30.0482 75.3674 30.6099 75.0147 31.1528C74.7418 31.5737 74.2932 31.6405 73.8766 31.3894C73.4659 31.1426 73.3222 30.7144 73.5544 30.2688C73.8462 29.7099 74.1553 29.1569 74.5066 28.6373C74.6402 28.4398 74.9159 28.3382 75.0147 28.27H75.0161Z" fill="#ED1C24"/>
<path d="M45.6385 61.005C45.6385 62.4406 44.4381 63.6294 43.0054 63.6149C41.5974 63.6018 40.4275 62.4173 40.426 61.0064C40.4246 59.5709 41.6192 58.3893 43.0591 58.3995C44.4729 58.4111 45.6399 59.5897 45.6385 61.005ZM43.8981 61.0079C43.901 60.5289 43.528 60.15 43.049 60.1413C42.5685 60.1341 42.1824 60.4984 42.1679 60.976C42.1519 61.4724 42.5496 61.8788 43.0446 61.873C43.5178 61.8672 43.8952 61.484 43.8981 61.0079Z" fill="#ED1C24"/>
<path d="M72.608 58.3994C74.0232 58.4052 75.1946 59.5781 75.199 60.9933C75.2033 62.4304 74.0116 63.6235 72.5775 63.6148C71.1477 63.6076 69.9676 62.3999 69.9851 60.9629C70.0025 59.5549 71.1898 58.3936 72.608 58.3994ZM72.592 61.873C73.0667 61.8744 73.4484 61.4985 73.4586 61.0209C73.4687 60.5419 73.1015 60.1558 72.6225 60.1413C72.1203 60.1253 71.7196 60.5187 71.7269 61.0166C71.7342 61.4927 72.1159 61.8701 72.5906 61.873H72.592Z" fill="#ED1C24"/>
</g>
<path d="M41.4073 84.0928H40.1744C40.1015 83.7381 39.9739 83.4266 39.7916 83.1581C39.6126 82.8896 39.3938 82.6643 39.1353 82.482C38.8801 82.2964 38.5967 82.1572 38.2852 82.0644C37.9736 81.9716 37.6488 81.9252 37.3107 81.9252C36.6943 81.9252 36.1358 82.0809 35.6353 82.3925C35.1382 82.704 34.7421 83.1631 34.4471 83.7696C34.1554 84.3762 34.0096 85.1202 34.0096 86.0019C34.0096 86.8835 34.1554 87.6276 34.4471 88.2341C34.7421 88.8406 35.1382 89.2997 35.6353 89.6112C36.1358 89.9228 36.6943 90.0786 37.3107 90.0786C37.6488 90.0786 37.9736 90.0322 38.2852 89.9394C38.5967 89.8466 38.8801 89.709 39.1353 89.5267C39.3938 89.3411 39.6126 89.1141 39.7916 88.8456C39.9739 88.5738 40.1015 88.2623 40.1744 87.911H41.4073C41.3145 88.4313 41.1455 88.897 40.9002 89.308C40.655 89.719 40.35 90.0686 39.9855 90.357C39.6209 90.642 39.2116 90.8591 38.7575 91.0083C38.3067 91.1574 37.8245 91.232 37.3107 91.232C36.4424 91.232 35.6701 91.0199 34.994 90.5956C34.3178 90.1714 33.7859 89.5682 33.3981 88.786C33.0103 88.0038 32.8164 87.0757 32.8164 86.0019C32.8164 84.928 33.0103 84 33.3981 83.2178C33.7859 82.4356 34.3178 81.8324 34.994 81.4081C35.6701 80.9839 36.4424 80.7718 37.3107 80.7718C37.8245 80.7718 38.3067 80.8463 38.7575 80.9955C39.2116 81.1446 39.6209 81.3634 39.9855 81.6517C40.35 81.9368 40.655 82.2848 40.9002 82.6958C41.1455 83.1034 41.3145 83.5691 41.4073 84.0928ZM45.4878 91.2718C45.0039 91.2718 44.5647 91.1806 44.1703 90.9983C43.7759 90.8127 43.4627 90.5459 43.2307 90.1979C42.9987 89.8466 42.8827 89.4223 42.8827 88.9252C42.8827 88.4877 42.9688 88.133 43.1412 87.8612C43.3135 87.5861 43.5439 87.3707 43.8322 87.2149C44.1206 87.0592 44.4388 86.9432 44.7868 86.8669C45.1381 86.7874 45.4911 86.7244 45.8457 86.678C46.3097 86.6183 46.6859 86.5736 46.9743 86.5438C47.2659 86.5106 47.4781 86.4559 47.6106 86.3797C47.7465 86.3035 47.8145 86.1709 47.8145 85.982V85.9422C47.8145 85.4517 47.6802 85.0705 47.4118 84.7987C47.1466 84.527 46.7439 84.3911 46.2037 84.3911C45.6435 84.3911 45.2044 84.5137 44.8862 84.759C44.568 85.0042 44.3443 85.2661 44.215 85.5445L43.1014 85.1468C43.3003 84.6827 43.5654 84.3215 43.8969 84.0629C44.2316 83.8011 44.5962 83.6188 44.9906 83.5161C45.3883 83.41 45.7794 83.357 46.1639 83.357C46.4092 83.357 46.6909 83.3868 47.0091 83.4465C47.3306 83.5028 47.6405 83.6205 47.9388 83.7994C48.2404 83.9784 48.4906 84.2485 48.6895 84.6098C48.8883 84.9711 48.9878 85.455 48.9878 86.0615V91.0928H47.8145V90.0587H47.7548C47.6753 90.2244 47.5427 90.4017 47.3571 90.5906C47.1715 90.7796 46.9246 90.9403 46.6163 91.0729C46.3081 91.2055 45.9319 91.2718 45.4878 91.2718ZM45.6667 90.2178C46.1308 90.2178 46.5219 90.1266 46.84 89.9443C47.1615 89.762 47.4035 89.5267 47.5659 89.2384C47.7316 88.95 47.8145 88.6468 47.8145 88.3286V87.2547C47.7648 87.3144 47.6554 87.3691 47.4864 87.4188C47.3206 87.4652 47.1284 87.5066 46.9096 87.5431C46.6942 87.5762 46.4837 87.606 46.2783 87.6325C46.0761 87.6557 45.912 87.6756 45.7861 87.6922C45.4811 87.732 45.1961 87.7966 44.931 87.8861C44.6691 87.9723 44.457 88.1032 44.2946 88.2789C44.1355 88.4512 44.056 88.6865 44.056 88.9848C44.056 89.3925 44.2068 89.7007 44.5084 89.9095C44.8133 90.115 45.1994 90.2178 45.6667 90.2178ZM52.3026 80.911V91.0928H51.1293V80.911H52.3026ZM55.6248 80.911V91.0928H54.4515V80.911H55.6248ZM63.9585 91.2718C63.4746 91.2718 63.0354 91.1806 62.641 90.9983C62.2466 90.8127 61.9334 90.5459 61.7014 90.1979C61.4694 89.8466 61.3534 89.4223 61.3534 88.9252C61.3534 88.4877 61.4395 88.133 61.6119 87.8612C61.7842 87.5861 62.0146 87.3707 62.3029 87.2149C62.5913 87.0592 62.9095 86.9432 63.2575 86.8669C63.6088 86.7874 63.9618 86.7244 64.3164 86.678C64.7804 86.6183 65.1566 86.5736 65.445 86.5438C65.7366 86.5106 65.9488 86.4559 66.0813 86.3797C66.2172 86.3035 66.2852 86.1709 66.2852 85.982V85.9422C66.2852 85.4517 66.1509 85.0705 65.8825 84.7987C65.6173 84.527 65.2146 84.3911 64.6744 84.3911C64.1143 84.3911 63.6751 84.5137 63.3569 84.759C63.0387 85.0042 62.815 85.2661 62.6857 85.5445L61.5721 85.1468C61.771 84.6827 62.0361 84.3215 62.3676 84.0629C62.7023 83.8011 63.0669 83.6188 63.4613 83.5161C63.859 83.41 64.2501 83.357 64.6346 83.357C64.8799 83.357 65.1616 83.3868 65.4798 83.4465C65.8013 83.5028 66.1112 83.6205 66.4095 83.7994C66.7111 83.9784 66.9613 84.2485 67.1602 84.6098C67.359 84.9711 67.4585 85.455 67.4585 86.0615V91.0928H66.2852V90.0587H66.2255C66.146 90.2244 66.0134 90.4017 65.8278 90.5906C65.6422 90.7796 65.3953 90.9403 65.087 91.0729C64.7788 91.2055 64.4026 91.2718 63.9585 91.2718ZM64.1375 90.2178C64.6015 90.2178 64.9926 90.1266 65.3107 89.9443C65.6322 89.762 65.8742 89.5267 66.0366 89.2384C66.2023 88.95 66.2852 88.6468 66.2852 88.3286V87.2547C66.2355 87.3144 66.1261 87.3691 65.9571 87.4188C65.7913 87.4652 65.5991 87.5066 65.3803 87.5431C65.1649 87.5762 64.9544 87.606 64.749 87.6325C64.5468 87.6557 64.3827 87.6756 64.2568 87.6922C63.9518 87.732 63.6668 87.7966 63.4017 87.8861C63.1398 87.9723 62.9277 88.1032 62.7653 88.2789C62.6062 88.4512 62.5267 88.6865 62.5267 88.9848C62.5267 89.3925 62.6775 89.7007 62.9791 89.9095C63.284 90.115 63.6701 90.2178 64.1375 90.2178ZM70.7733 86.499V91.0928H69.6V83.4564H70.7335V84.6496H70.8329C71.0119 84.2618 71.2837 83.9503 71.6483 83.7149C72.0129 83.4763 72.4835 83.357 73.0602 83.357C73.5773 83.357 74.0297 83.463 74.4175 83.6752C74.8052 83.884 75.1069 84.2021 75.3223 84.6297C75.5377 85.0539 75.6454 85.5909 75.6454 86.2405V91.0928H74.4721V86.32C74.4721 85.7201 74.3164 85.2528 74.0048 84.9181C73.6933 84.58 73.2657 84.411 72.7221 84.411C72.3476 84.411 72.0129 84.4922 71.7179 84.6546C71.4262 84.817 71.1959 85.0539 71.0268 85.3655C70.8578 85.6771 70.7733 86.0549 70.7733 86.499ZM82.3036 91.0928H81.011L84.7497 80.911H86.0224L89.761 91.0928H88.4684L85.4258 82.5218H85.3463L82.3036 91.0928ZM82.7809 87.1155H87.9911V88.2093H82.7809V87.1155ZM91.1879 91.0928V83.4564H92.3214V84.6496H92.4208C92.5799 84.2419 92.8368 83.9254 93.1914 83.7C93.5461 83.4713 93.972 83.357 94.4691 83.357C94.9729 83.357 95.3922 83.4713 95.7269 83.7C96.065 83.9254 96.3285 84.2419 96.5174 84.6496H96.597C96.7925 84.2552 97.0858 83.942 97.4769 83.71C97.868 83.4746 98.337 83.357 98.8839 83.357C99.5667 83.357 100.125 83.5708 100.559 83.9983C100.994 84.4226 101.211 85.0838 101.211 85.982V91.0928H100.037V85.982C100.037 85.4185 99.8832 85.0158 99.575 84.7739C99.2667 84.5319 98.9038 84.411 98.4862 84.411C97.9492 84.411 97.5333 84.5734 97.2383 84.8982C96.9433 85.2197 96.7958 85.6273 96.7958 86.1212V91.0928H95.6027V85.8627C95.6027 85.4285 95.4618 85.0788 95.1801 84.8137C94.8983 84.5452 94.5354 84.411 94.0913 84.411C93.7864 84.411 93.5013 84.4922 93.2362 84.6546C92.9743 84.817 92.7622 85.0423 92.5998 85.3307C92.4407 85.6157 92.3612 85.9455 92.3612 86.32V91.0928H91.1879ZM103.515 91.0928V80.911H104.688V84.6695H104.788C104.874 84.5369 104.993 84.3679 105.146 84.1624C105.301 83.9536 105.523 83.768 105.812 83.6056C106.103 83.4398 106.498 83.357 106.995 83.357C107.638 83.357 108.205 83.5177 108.695 83.8392C109.186 84.1607 109.569 84.6164 109.844 85.2064C110.119 85.7964 110.256 86.4924 110.256 87.2945C110.256 88.1032 110.119 88.8042 109.844 89.3975C109.569 89.9874 109.188 90.4448 108.7 90.7696C108.213 91.0911 107.651 91.2519 107.015 91.2519C106.524 91.2519 106.132 91.1707 105.837 91.0083C105.542 90.8425 105.315 90.6553 105.156 90.4465C104.996 90.2343 104.874 90.0587 104.788 89.9195H104.648V91.0928H103.515ZM104.668 87.2746C104.668 87.8513 104.753 88.3601 104.922 88.8009C105.091 89.2384 105.338 89.5814 105.663 89.83C105.987 90.0753 106.385 90.1979 106.856 90.1979C107.346 90.1979 107.756 90.0686 108.084 89.8101C108.415 89.5483 108.664 89.1969 108.83 88.7561C108.999 88.312 109.083 87.8182 109.083 87.2746C109.083 86.7377 109 86.2538 108.835 85.8229C108.672 85.3887 108.425 85.0457 108.094 84.7938C107.766 84.5386 107.353 84.411 106.856 84.411C106.379 84.411 105.978 84.5319 105.653 84.7739C105.328 85.0125 105.083 85.3473 104.917 85.7781C104.751 86.2057 104.668 86.7045 104.668 87.2746ZM116.864 87.9706V83.4564H118.037V91.0928H116.864V89.8002H116.784C116.605 90.1879 116.327 90.5177 115.949 90.7895C115.571 91.058 115.094 91.1922 114.517 91.1922C114.04 91.1922 113.616 91.0878 113.244 90.879C112.873 90.6669 112.581 90.3487 112.369 89.9244C112.157 89.4969 112.051 88.9583 112.051 88.3087V83.4564H113.224V88.2291C113.224 88.786 113.38 89.2301 113.692 89.5615C114.007 89.893 114.408 90.0587 114.895 90.0587C115.187 90.0587 115.483 89.9841 115.785 89.835C116.09 89.6858 116.345 89.4571 116.55 89.1489C116.759 88.8406 116.864 88.4479 116.864 87.9706ZM121.359 80.911V91.0928H120.186V80.911H121.359ZM125.755 91.2718C125.271 91.2718 124.832 91.1806 124.438 90.9983C124.043 90.8127 123.73 90.5459 123.498 90.1979C123.266 89.8466 123.15 89.4223 123.15 88.9252C123.15 88.4877 123.236 88.133 123.409 87.8612C123.581 87.5861 123.811 87.3707 124.1 87.2149C124.388 87.0592 124.706 86.9432 125.054 86.8669C125.406 86.7874 125.759 86.7244 126.113 86.678C126.577 86.6183 126.954 86.5736 127.242 86.5438C127.534 86.5106 127.746 86.4559 127.878 86.3797C128.014 86.3035 128.082 86.1709 128.082 85.982V85.9422C128.082 85.4517 127.948 85.0705 127.679 84.7987C127.414 84.527 127.012 84.3911 126.471 84.3911C125.911 84.3911 125.472 84.5137 125.154 84.759C124.836 85.0042 124.612 85.2661 124.483 85.5445L123.369 85.1468C123.568 84.6827 123.833 84.3215 124.164 84.0629C124.499 83.8011 124.864 83.6188 125.258 83.5161C125.656 83.41 126.047 83.357 126.431 83.357C126.677 83.357 126.958 83.3868 127.277 83.4465C127.598 83.5028 127.908 83.6205 128.206 83.7994C128.508 83.9784 128.758 84.2485 128.957 84.6098C129.156 84.9711 129.255 85.455 129.255 86.0615V91.0928H128.082V90.0587H128.022C127.943 90.2244 127.81 90.4017 127.625 90.5906C127.439 90.7796 127.192 90.9403 126.884 91.0729C126.576 91.2055 126.199 91.2718 125.755 91.2718ZM125.934 90.2178C126.398 90.2178 126.789 90.1266 127.108 89.9443C127.429 89.762 127.671 89.5267 127.833 89.2384C127.999 88.95 128.082 88.6468 128.082 88.3286V87.2547C128.032 87.3144 127.923 87.3691 127.754 87.4188C127.588 87.4652 127.396 87.5066 127.177 87.5431C126.962 87.5762 126.751 87.606 126.546 87.6325C126.344 87.6557 126.18 87.6756 126.054 87.6922C125.749 87.732 125.464 87.7966 125.199 87.8861C124.937 87.9723 124.725 88.1032 124.562 88.2789C124.403 88.4512 124.324 88.6865 124.324 88.9848C124.324 89.3925 124.474 89.7007 124.776 89.9095C125.081 90.115 125.467 90.2178 125.934 90.2178ZM132.57 86.499V91.0928H131.397V83.4564H132.53V84.6496H132.63C132.809 84.2618 133.081 83.9503 133.445 83.7149C133.81 83.4763 134.28 83.357 134.857 83.357C135.374 83.357 135.827 83.463 136.214 83.6752C136.602 83.884 136.904 84.2021 137.119 84.6297C137.335 85.0539 137.442 85.5909 137.442 86.2405V91.0928H136.269V86.32C136.269 85.7201 136.113 85.2528 135.802 84.9181C135.49 84.58 135.063 84.411 134.519 84.411C134.144 84.411 133.81 84.4922 133.515 84.6546C133.223 84.817 132.993 85.0539 132.824 85.3655C132.655 85.6771 132.57 86.0549 132.57 86.499ZM142.689 91.2519C141.973 91.2519 141.356 91.0828 140.839 90.7448C140.322 90.4067 139.924 89.941 139.646 89.3477C139.368 88.7545 139.228 88.0767 139.228 87.3144C139.228 86.5388 139.371 85.8544 139.656 85.2611C139.944 84.6645 140.345 84.1988 140.859 83.8641C141.376 83.526 141.979 83.357 142.669 83.357C143.206 83.357 143.69 83.4564 144.12 83.6553C144.551 83.8541 144.904 84.1325 145.179 84.4905C145.454 84.8485 145.625 85.2661 145.691 85.7433H144.518C144.429 85.3953 144.23 85.0871 143.922 84.8186C143.617 84.5468 143.206 84.411 142.689 84.411C142.231 84.411 141.83 84.5303 141.485 84.7689C141.144 85.0042 140.877 85.3373 140.685 85.7682C140.496 86.1958 140.402 86.6979 140.402 87.2746C140.402 87.8646 140.494 88.3783 140.68 88.8158C140.869 89.2533 141.134 89.593 141.476 89.835C141.82 90.0769 142.225 90.1979 142.689 90.1979C142.994 90.1979 143.27 90.1449 143.519 90.0388C143.767 89.9327 143.978 89.7803 144.15 89.5814C144.323 89.3825 144.445 89.1439 144.518 88.8655H145.691C145.625 89.3163 145.461 89.7223 145.199 90.0835C144.941 90.4415 144.598 90.7265 144.17 90.9387C143.746 91.1475 143.252 91.2519 142.689 91.2519ZM150.608 91.2519C149.873 91.2519 149.238 91.0895 148.704 90.7646C148.174 90.4365 147.765 89.9791 147.476 89.3925C147.191 88.8025 147.049 88.1164 147.049 87.3343C147.049 86.5521 147.191 85.8627 147.476 85.2661C147.765 84.6662 148.166 84.1988 148.679 83.8641C149.196 83.526 149.8 83.357 150.489 83.357C150.887 83.357 151.279 83.4233 151.667 83.5558C152.055 83.6884 152.408 83.9039 152.726 84.2021C153.044 84.4971 153.298 84.8882 153.487 85.3754C153.676 85.8627 153.77 86.4626 153.77 87.1752V87.6723H147.884V86.6581H152.577C152.577 86.2272 152.491 85.8428 152.319 85.5047C152.15 85.1666 151.908 84.8998 151.593 84.7043C151.281 84.5087 150.913 84.411 150.489 84.411C150.022 84.411 149.617 84.527 149.276 84.759C148.938 84.9877 148.678 85.286 148.495 85.6539C148.313 86.0218 148.222 86.4162 148.222 86.8371V87.5132C148.222 88.0899 148.321 88.5788 148.52 88.9798C148.722 89.3776 149.003 89.6808 149.36 89.8896C149.718 90.0951 150.134 90.1979 150.608 90.1979C150.917 90.1979 151.195 90.1548 151.444 90.0686C151.695 89.9791 151.913 89.8466 152.095 89.6709C152.277 89.4919 152.418 89.2699 152.517 89.0047L153.651 89.3229C153.532 89.7074 153.331 90.0454 153.049 90.3371C152.768 90.6254 152.42 90.8508 152.005 91.0132C151.591 91.1723 151.125 91.2519 150.608 91.2519Z" fill="black"/>
</g>
<defs>
<filter id="filter0_d_712_12850" x="0.620605" y="0.538574" width="302.623" height="128.788" filterUnits="userSpaceOnUse" color-interpolation-filters="sRGB">
<feFlood flood-opacity="0" result="BackgroundImageFix"/>
<feColorMatrix in="SourceAlpha" type="matrix" values="0 0 0 0 0 0 0 0 0 0 0 0 0 0 0 0 0 0 127 0" result="hardAlpha"/>
<feOffset dy="4"/>
<feGaussianBlur stdDeviation="7"/>
<feComposite in2="hardAlpha" operator="out"/>
<feColorMatrix type="matrix" values="0 0 0 0 0 0 0 0 0 0 0 0 0 0 0 0 0 0 0.25 0"/>
<feBlend mode="normal" in2="BackgroundImageFix" result="effect1_dropShadow_712_12850"/>
<feBlend mode="normal" in="SourceGraphic" in2="effect1_dropShadow_712_12850" result="shape"/>
</filter>
<clipPath id="clip0_712_12850">
<rect x="14.6206" y="10.5386" width="274.623" height="100.788" rx="10" fill="white"/>
</clipPath>
<clipPath id="clip1_712_12850">
<rect width="87" height="53" fill="white" transform="translate(188.621 23.9517)"/>
</clipPath>
<clipPath id="clip2_712_12850">
<rect width="52.1711" height="40" fill="white" transform="translate(31.7312 27.0928)"/>
</clipPath>
</defs>
</svg>
