<svg width="24" height="16" viewBox="0 0 24 16" fill="none" xmlns="http://www.w3.org/2000/svg">
<path d="M14.4627 8.38232C14.4627 9.77518 14.1714 11.0174 13.5888 12.1089C13.0062 13.1937 12.1759 14.0408 11.0978 14.6502C10.0196 15.2663 8.78414 15.5743 7.39129 15.5743C6.39352 15.5743 5.43928 15.3801 4.52856 14.9917C3.61785 14.6033 2.83437 14.081 2.17812 13.4247C1.52187 12.7685 0.999547 11.985 0.611154 11.0743C0.222761 10.1636 0.0285645 9.20933 0.0285645 8.21157C0.0285645 7.2138 0.222761 6.25956 0.611154 5.34884C0.999547 4.43813 1.52187 3.65464 2.17812 2.99839C2.83437 2.34214 3.61785 1.81982 4.52856 1.43143C5.43928 1.04304 6.39352 0.848841 7.39129 0.848841C9.30647 0.848841 10.9504 1.4917 12.3232 2.77741L10.3243 4.69594C9.54084 3.93924 8.56316 3.56089 7.39129 3.56089C6.56763 3.56089 5.80423 3.76848 5.10111 4.18366C4.40468 4.59884 3.85223 5.16469 3.44374 5.88121C3.03526 6.59103 2.83102 7.36782 2.83102 8.21157C2.83102 9.05532 3.03526 9.83545 3.44374 10.552C3.85223 11.2618 4.40468 11.8243 5.10111 12.2395C5.80423 12.6546 6.56763 12.8622 7.39129 12.8622C7.94709 12.8622 8.45602 12.7852 8.91807 12.6312C9.38682 12.4772 9.77187 12.2863 10.0732 12.0587C10.3745 11.8243 10.6357 11.5598 10.8567 11.2651C11.0844 10.9705 11.2484 10.6926 11.3489 10.4314C11.456 10.1703 11.5297 9.9225 11.5699 9.68813H7.39129V7.15688H14.3422C14.4225 7.57875 14.4627 7.98723 14.4627 8.38232ZM23.1714 7.15688V9.26625H21.0721V11.3656H18.9627V9.26625H16.8634V7.15688H18.9627V5.05755H21.0721V7.15688H23.1714Z" fill="white"/>
</svg>
