<svg width="51" height="51" viewBox="0 0 51 51" fill="none" xmlns="http://www.w3.org/2000/svg">
<g clip-path="url(#clip0_712_12302)">
<path d="M0.466797 48.2363C0.625954 47.2774 0.778588 46.316 0.946876 45.3584C1.33433 43.1628 2.54497 41.6065 4.6401 40.825C6.18861 40.2471 7.76974 39.754 9.34957 39.2609C9.71485 39.1474 9.91705 38.9973 10.0253 38.6242C10.4558 37.1475 10.4676 37.1514 9.30782 36.1286C9.18519 36.0216 9.073 35.9003 8.94124 35.8077C7.57145 34.8397 6.95309 33.5273 7.1279 31.8549C7.16182 31.5261 7.04049 31.3787 6.73001 31.2574C5.43457 30.7499 4.64401 29.5627 4.6401 28.1903C4.63618 26.7958 5.43588 25.6008 6.75088 25.0881C7.04049 24.9759 7.13312 24.8389 7.13181 24.5284C7.1292 23.0647 7.06267 21.5932 7.19313 20.1399C7.44099 17.3664 8.9856 15.4382 11.4016 14.1519C11.6273 14.0319 11.8517 13.8897 12.037 13.7149C13.9534 11.9094 16.9252 11.8937 18.8598 13.6771C19.0712 13.8715 19.319 14.0332 19.5721 14.1715C22.2817 15.6522 23.7689 17.8843 23.7989 21.0152C23.8107 22.2024 23.8094 23.3909 23.795 24.578C23.7924 24.8454 23.872 24.9668 24.1277 25.0659C25.4805 25.5943 26.305 26.7932 26.3037 28.1799C26.3011 29.5627 25.4792 30.759 24.1211 31.2913C23.8511 31.397 23.7806 31.53 23.7976 31.7883C23.8159 32.0636 23.8015 32.3415 23.8015 32.618C23.7989 33.6878 23.3971 34.5775 22.5896 35.2806C22.0012 35.7933 21.4011 36.2956 20.8323 36.8292C20.7084 36.9453 20.638 37.1827 20.6432 37.3614C20.6797 38.5734 21.1624 39.2622 22.4996 39.527C23.915 39.8062 25.2679 40.4376 26.6207 40.9842C28.4105 41.7095 29.509 43.0663 29.8743 44.9566C30.1234 46.2455 30.3165 47.5501 30.4391 48.8572C30.5409 49.9531 29.7973 50.6732 28.6897 50.6732C19.8709 50.6758 11.0533 50.6732 2.23448 50.6771C1.32781 50.6771 0.80207 50.1827 0.466797 49.4052C0.466797 49.0151 0.466797 48.6237 0.466797 48.2337L0.466797 48.2363ZM8.79122 24.8663C8.79122 25.062 8.79122 25.2068 8.79122 25.3503C8.78339 26.2387 8.63206 26.3835 7.74104 26.5492C7.43577 26.6053 7.11355 26.7475 6.87481 26.9432C6.3295 27.3867 6.18339 28.0012 6.38169 28.6626C6.59433 29.3723 7.11616 29.7428 7.84541 29.8432C8.61119 29.9489 8.786 30.1524 8.79122 30.9182C8.79513 31.4387 8.80296 31.9592 8.78991 32.4797C8.77295 33.1425 9.00777 33.6695 9.51786 34.1039C10.5706 35.0002 11.6091 35.9134 12.6423 36.8292C13.0271 37.1697 13.4576 37.3458 13.9716 37.3419C14.9631 37.3366 15.9559 37.3366 16.9473 37.3419C17.46 37.3445 17.8932 37.1788 18.2793 36.837C19.3386 35.899 20.4084 34.9728 21.4781 34.0465C21.9243 33.6604 22.1447 33.1803 22.1395 32.5893C22.1343 31.9553 22.1304 31.32 22.1434 30.686C22.1539 30.2163 22.403 29.9332 22.8766 29.8602C23.037 29.8354 23.2001 29.8197 23.358 29.7832C24.0846 29.6123 24.5908 28.9874 24.6156 28.2399C24.6404 27.4898 24.1812 26.8153 23.4845 26.5936C23.3619 26.5544 23.2301 26.5427 23.101 26.5244C22.3352 26.4187 22.1421 26.1957 22.1382 25.4038C22.1382 25.2316 22.1382 25.0594 22.1382 24.8637H8.79122V24.8663ZM10.6907 48.9968C10.6006 48.7881 10.5406 48.6407 10.4728 48.4959C9.78529 47.0413 9.10562 45.5841 8.40246 44.1373C8.08545 43.4864 8.06979 42.8654 8.41289 42.2261C8.59814 41.8804 8.74947 41.5165 8.91645 41.1616C8.88384 41.1264 8.85253 41.0912 8.81992 41.0546C7.79975 41.4212 6.78871 41.8152 5.75811 42.1492C3.77908 42.7923 2.72108 44.1621 2.46147 46.1959C2.34406 47.1209 2.22274 48.0445 2.10141 48.9773H6.30994C6.30994 48.715 6.30472 48.4894 6.30994 48.265C6.32559 47.7027 6.62564 47.3648 7.11224 47.3544C7.61319 47.3439 7.94847 47.6975 7.97065 48.2728C7.97978 48.5089 7.97195 48.7464 7.97195 48.9981H10.6894L10.6907 48.9968ZM22.9653 48.9942C22.9653 48.685 22.947 48.4241 22.9692 48.1671C23.0149 47.6557 23.3593 47.34 23.825 47.3544C24.2725 47.3687 24.5843 47.6792 24.6182 48.175C24.6364 48.4437 24.6221 48.7163 24.6221 48.9773H28.7941C28.6923 47.477 28.5293 46.0316 28.0453 44.6344C27.7661 43.8281 27.2821 43.1941 26.5189 42.8171C25.7492 42.4375 24.9652 42.08 24.1668 41.7669C23.4858 41.4995 22.7735 41.3077 21.9595 41.0455C22.1826 41.5152 22.3274 41.8596 22.5061 42.1844C22.8727 42.8536 22.8518 43.4955 22.5139 44.1804C21.8029 45.6206 21.1337 47.0817 20.4475 48.535C20.381 48.6746 20.3249 48.8194 20.2505 48.9942H22.964H22.9653ZM15.4588 14.0202C13.6194 14.0254 12.1374 15.5061 12.1361 17.3416C12.1335 19.1693 13.6246 20.6735 15.4497 20.6852C17.2826 20.6969 18.8194 19.1589 18.805 17.3272C18.7907 15.4969 17.2918 14.0163 15.4588 14.0202ZM22.1095 21.5045C20.9484 21.5045 19.8135 21.4927 18.6798 21.5136C18.4189 21.5188 18.1345 21.5932 17.9023 21.7145C16.5103 22.4411 15.0544 22.6277 13.6325 21.9558C12.7936 21.5592 11.9744 21.481 11.0977 21.5005C10.4637 21.5136 9.82834 21.5005 9.19433 21.5058C9.07039 21.5058 8.94776 21.5332 8.82383 21.5488V23.1339H22.1082V21.5045H22.1095ZM16.976 42.3318C16.946 40.5902 18.5193 40.4167 19.5121 39.694C19.366 39.2296 19.2316 38.8004 19.0816 38.3216C17.9688 39.2048 16.6864 39.0026 15.4471 39.0078C14.2104 39.013 12.9371 39.1852 11.8426 38.3294C11.6913 38.8278 11.5608 39.2583 11.4238 39.7109C12.4792 40.3998 13.9703 40.6541 13.9455 42.3305H16.976V42.3318ZM17.3191 49.0138C17.627 49.0138 17.8605 49.049 18.0758 49.002C18.2336 48.9681 18.4411 48.8612 18.505 48.7281C19.3504 46.9721 20.1774 45.2084 20.9993 43.4407C21.0554 43.3207 21.0906 43.1419 21.0424 43.0324C20.7854 42.4427 20.4971 41.8661 20.2035 41.249C19.7848 41.4747 19.396 41.6443 19.0555 41.8817C18.869 42.0109 18.685 42.2366 18.6328 42.4518C18.4176 43.352 18.2493 44.2626 18.0706 45.1705C17.8227 46.4268 17.5788 47.6857 17.3205 49.0138H17.3191ZM13.5633 48.976C13.5698 48.9277 13.5764 48.9107 13.5724 48.8964C13.1354 46.6864 12.6997 44.4752 12.2522 42.2666C12.23 42.1557 12.1335 42.0292 12.0357 41.9718C11.6208 41.7265 11.1929 41.5047 10.7311 41.2529C10.4676 41.8022 10.1962 42.3005 9.99402 42.8249C9.91314 43.0324 9.91053 43.3337 10.0005 43.5333C10.7154 45.1131 11.4617 46.6799 12.1974 48.2506C12.4566 48.8038 12.9119 49.046 13.5633 48.9773V48.976ZM14.3121 44.046C14.6383 45.6493 14.954 47.2187 15.2814 48.7842C15.2984 48.8677 15.4067 48.9329 15.4719 49.0073C15.5397 48.912 15.648 48.8246 15.6702 48.719C15.875 47.7353 16.0681 46.7504 16.2611 45.7641C16.372 45.1992 16.4751 44.6344 16.5873 44.046H14.3134H14.3121ZM10.3423 16.9998C9.63135 17.7695 9.11605 18.6853 8.92167 19.8033H10.9672C10.7598 18.8718 10.555 17.9534 10.3423 16.9998ZM19.9609 19.815H22.0208C21.7977 18.7075 21.332 17.7734 20.591 17.0246C20.381 17.9547 20.1748 18.8692 19.9609 19.815Z" fill="#253E96"/>
<path d="M36.6957 0.679688C37.9024 1.58245 39.1092 2.48259 40.3146 3.38796C40.612 3.61104 40.9016 3.84717 41.293 4.15374C41.293 3.78585 41.2865 3.50537 41.293 3.2262C41.3191 2.24386 41.9622 1.55375 42.9381 1.52896C44.06 1.50026 45.1845 1.50026 46.3064 1.52765C47.3123 1.55244 47.945 2.2282 47.9515 3.26403C47.9645 5.16869 47.9632 7.07205 47.9489 8.97671C47.9463 9.30285 48.0389 9.52202 48.305 9.71248C48.7277 10.0151 49.1191 10.3622 49.5365 10.6713C50.1849 11.1514 50.5958 11.7489 50.4263 12.5864C50.2554 13.4292 49.6957 13.8962 48.7982 14.0215V14.6059C48.7982 19.8463 48.7982 25.0868 48.7982 30.3272C48.7982 31.2626 48.5425 31.5209 47.6136 31.5209C41.2669 31.5209 34.9189 31.5209 28.5722 31.5209C28.4261 31.5209 28.2774 31.5274 28.1339 31.5026C27.6668 31.4243 27.3785 31.0643 27.4098 30.6129C27.4398 30.1824 27.7464 29.8719 28.2174 29.8641C29.3236 29.8471 30.4312 29.8562 31.5375 29.8536C31.7123 29.8536 31.8871 29.8536 32.1206 29.8536V29.2301C32.1206 26.7566 32.1193 24.2819 32.1206 21.8084C32.1219 20.0277 33.1238 19.0245 34.8967 19.0205C35.8739 19.0192 36.8497 19.0153 37.8268 19.0205C39.4392 19.031 40.4581 20.0577 40.4646 21.6988C40.475 24.2049 40.4672 26.7109 40.4672 29.2183C40.4672 29.4101 40.4672 29.6006 40.4672 29.821H47.1074V14.0528H25.4608C25.4608 14.4415 25.4647 14.8407 25.4608 15.2399C25.453 15.8648 25.1464 16.2236 24.6259 16.2223C24.1041 16.221 23.8066 15.8674 23.7988 15.2347C23.7949 14.8773 23.7962 14.5185 23.7936 14.161C23.7936 14.1297 23.7792 14.0984 23.7649 14.0423C23.7218 14.0241 23.6657 13.9901 23.607 13.9797C22.8504 13.8545 22.3729 13.4083 22.189 12.6791C22.005 11.9459 22.2399 11.3275 22.8295 10.8579C24.7407 9.34068 26.6571 7.83 28.5722 6.31671C30.6908 4.64165 32.8068 2.96398 34.9333 1.29805C35.2385 1.06192 35.5868 0.884504 35.9143 0.679688C36.1752 0.679688 36.4348 0.679688 36.6957 0.679688ZM48.8321 12.2942C48.6586 12.1325 48.5646 12.0307 48.4577 11.9459C44.5296 8.84104 40.5964 5.7427 36.6775 2.6261C36.3761 2.38736 36.2091 2.43302 35.9417 2.64566C32.4742 5.38916 28.9975 8.12092 25.5234 10.8566C24.956 11.3041 24.3924 11.7554 23.714 12.2942H48.8321ZM38.7426 29.8262C38.7687 29.7388 38.7935 29.6945 38.7935 29.6488C38.7961 26.951 38.8052 24.2545 38.7909 21.5566C38.7882 20.9656 38.4608 20.693 37.845 20.6891C36.8705 20.6813 35.8947 20.6852 34.9202 20.6878C34.0501 20.6891 33.7918 20.9474 33.7905 21.8254C33.7892 24.3275 33.7905 26.8297 33.7905 29.3331C33.7905 29.4897 33.8074 29.6475 33.8179 29.8275H38.7426V29.8262ZM42.9576 3.21185C42.9576 3.43884 42.985 3.62017 42.9537 3.78977C42.7176 5.04084 43.1951 5.90316 44.2831 6.54761C44.9693 6.95464 45.5589 7.52473 46.2582 8.07526V3.21185H42.9576Z" fill="#253E96"/>
<path d="M16.2872 17.4122C16.252 17.8741 15.8541 18.2054 15.3845 18.1637C14.9474 18.1258 14.6096 17.7371 14.6343 17.3C14.6604 16.8487 15.0753 16.4795 15.5201 16.5134C15.9754 16.5473 16.3224 16.9543 16.2872 17.4122Z" fill="#253E96"/>
</g>
<defs>
<clipPath id="clip0_712_12302">
<rect width="50" height="50" fill="white" transform="translate(0.466797 0.679688)"/>
</clipPath>
</defs>
</svg>
