<svg width="74" height="45" viewBox="0 0 74 45" fill="none" xmlns="http://www.w3.org/2000/svg">
<path fill-rule="evenodd" clip-rule="evenodd" d="M36.718 39.5155C32.8342 42.793 27.7963 44.7715 22.2912 44.7715C10.0082 44.7715 0.0507812 34.9217 0.0507812 22.7715C0.0507812 10.6212 10.0082 0.771484 22.2912 0.771484C27.7963 0.771484 32.8342 2.75002 36.718 6.02744C40.6017 2.75002 45.6396 0.771484 51.1447 0.771484C63.4278 0.771484 73.3851 10.6212 73.3851 22.7715C73.3851 34.9217 63.4278 44.7715 51.1447 44.7715C45.6396 44.7715 40.6017 42.793 36.718 39.5155Z" fill="#ED0006"/>
<path fill-rule="evenodd" clip-rule="evenodd" d="M36.7188 39.5155C41.5004 35.4803 44.5324 29.4762 44.5324 22.7715C44.5324 16.0668 41.5004 10.0626 36.7188 6.02744C40.6025 2.75002 45.6404 0.771484 51.1455 0.771484C63.4286 0.771484 73.3859 10.6212 73.3859 22.7715C73.3859 34.9217 63.4286 44.7715 51.1455 44.7715C45.6404 44.7715 40.6025 42.793 36.7188 39.5155Z" fill="#F9A000"/>
<path fill-rule="evenodd" clip-rule="evenodd" d="M36.716 39.5115C41.4977 35.4763 44.5297 29.4722 44.5297 22.7675C44.5297 16.0628 41.4977 10.0586 36.716 6.02344C31.9343 10.0586 28.9023 16.0628 28.9023 22.7675C28.9023 29.4722 31.9343 35.4763 36.716 39.5115Z" fill="#FF5E00"/>
</svg>
