<svg width="253" height="217" viewBox="0 0 253 217" fill="none" xmlns="http://www.w3.org/2000/svg">
<g clip-path="url(#clip0_712_12308)">
<path d="M34.0901 16.9268L58.0047 2.91699H76.4215L100.733 16.2656V107.081H34.0901V16.9268Z" fill="white"/>
<path d="M101.415 107.081H34.0901V16.9268L34.7789 16.2656C43.6689 7.65676 55.3793 2.91699 67.7525 2.91699C80.1257 2.91699 91.836 7.65676 100.726 16.2656L101.415 16.9268V107.081ZM38.5611 102.583H96.9504V18.8581C88.9832 11.4735 78.6505 7.41454 67.7525 7.41454C56.8544 7.41454 46.5218 11.4735 38.5546 18.8581V102.583H38.5611Z" fill="#FAFAFA"/>
<path d="M66.0823 103.127H69.429V72.9859H97.7951V69.6143H69.429V38.7862H97.7951V35.4081H69.429V6.83203H66.0823V35.4081H37.7097V38.7862H66.0823V69.6143H37.7097V72.9859H66.0823V103.127Z" fill="#DBDADA"/>
<path d="M103.65 109.333H31.8611V16.0105L32.5174 15.3493C51.948 -4.22516 83.5699 -4.22516 103 15.3493L103.657 16.0105V109.333H103.65ZM36.3256 104.835H99.1859V17.8894C81.6658 0.927049 53.8456 0.927049 36.3256 17.8894V104.835Z" fill="#DBDADA"/>
<path d="M191.627 51.0285V70.459H218.921V51.0285H191.627Z" fill="white"/>
<path d="M192.914 52.2916V69.1885H217.641V52.2916H192.914Z" fill="#C9D5FF"/>
<path d="M182.166 26.6096V46.04H209.459V26.6096H182.166Z" fill="white"/>
<path d="M183.452 27.8795V44.7764H208.179V27.8795H183.452Z" fill="#C9D5FF"/>
<path d="M169.078 75.7812H186.448V51.0218H169.078V75.7812Z" fill="white"/>
<path d="M170.215 74.6162H185.317V52.1874H170.215V74.6162Z" fill="#C9D5FF"/>
<path d="M159.206 46.04H178.494V18.5441L159.206 18.5441V46.04Z" fill="white"/>
<path d="M160.461 44.75H177.233V19.84L160.461 19.84V44.75Z" fill="#C9D5FF"/>
<path d="M163.183 66.2364V51.022H141.81V66.2364H163.183Z" fill="white"/>
<path d="M162.183 65.2415V52.0107H142.817V65.2415H162.183Z" fill="#C9D5FF"/>
<path d="M126.467 216.665C196.055 216.665 252.467 213.347 252.467 209.255C252.467 205.162 196.055 201.844 126.467 201.844C56.8789 201.844 0.466797 205.162 0.466797 209.255C0.466797 213.347 56.8789 216.665 126.467 216.665Z" fill="#F0F4FC"/>
<path d="M16.2324 115.834H18.6044L25.2004 154.839H22.8284L16.2324 115.834Z" fill="#263238"/>
<path d="M25.0312 115.834H27.3967L33.9992 154.839H31.6273L25.0312 115.834Z" fill="#263238"/>
<path d="M33.824 115.834H36.1959L42.7919 154.839H40.4265L33.824 115.834Z" fill="#263238"/>
<path opacity="0.4" d="M16.2324 115.834H18.6044L25.2004 154.839H22.8284L16.2324 115.834Z" fill="#F0F4FC"/>
<path opacity="0.4" d="M25.0312 115.834H27.3967L33.9992 154.839H31.6273L25.0312 115.834Z" fill="#F0F4FC"/>
<path opacity="0.4" d="M33.824 115.834H36.1959L42.7919 154.839H40.4265L33.824 115.834Z" fill="#F0F4FC"/>
<path d="M36.4817 155.854L36.6831 164.475L37.5799 208.724H40.5563L41.4531 164.475L41.6545 155.854H36.4817Z" fill="#263238"/>
<path opacity="0.4" d="M36.4817 155.854L36.6831 164.475L37.5799 208.724H40.5563L41.4531 164.475L41.6545 155.854H36.4817Z" fill="#F0F4FC"/>
<path opacity="0.2" d="M36.4817 155.854L36.6831 164.711H41.4531L41.6545 155.854H36.4817Z" fill="black"/>
<path d="M20.333 208.587L23.0819 156.462H27.5724L23.7252 208.587H20.333Z" fill="#263238"/>
<path opacity="0.4" d="M23.7317 208.587H20.333L22.8284 160.672L23.0754 156.403H27.5659L27.2214 160.672L23.7317 208.587Z" fill="#F0F4FC"/>
<path opacity="0.2" d="M27.5658 156.403L27.2214 160.835H22.8284L23.0753 156.403H27.5658Z" fill="black"/>
<path d="M54.4177 208.587L50.5706 156.462H55.061L57.8099 208.587H54.4177Z" fill="#263238"/>
<path opacity="0.4" d="M54.4047 208.587L50.915 160.672L50.5706 156.403H55.061L55.308 160.672L57.8034 208.587H54.4047Z" fill="#F0F4FC"/>
<path opacity="0.2" d="M50.5706 156.403L50.915 160.835H55.308L55.061 156.403H50.5706Z" fill="black"/>
<path d="M57.4656 158.08H20.6709V154.374C20.6709 152.849 21.9056 151.605 23.4198 151.605H54.7167C56.2309 151.605 57.4656 152.849 57.4656 154.374V158.08Z" fill="#263238"/>
<path d="M20.0144 158.079H58.1218C58.7319 158.079 59.2266 157.581 59.2266 156.966V155.958C59.2266 155.343 58.7319 154.845 58.1218 154.845H20.0144C19.4043 154.845 18.9097 155.343 18.9097 155.958V156.966C18.9097 157.581 19.4043 158.079 20.0144 158.079Z" fill="#263238"/>
<path opacity="0.6" d="M20.0144 158.079H58.1218C58.7319 158.079 59.2266 157.581 59.2266 156.966V155.958C59.2266 155.343 58.7319 154.845 58.1218 154.845H20.0144C19.4043 154.845 18.9097 155.343 18.9097 155.958V156.966C18.9097 157.581 19.4043 158.079 20.0144 158.079Z" fill="#F0F4FC"/>
<path d="M20.3264 120.338C24.141 118.014 29.4373 118.014 34.4997 120.338C37.0601 121.471 40.0819 121.791 41.4271 120.161C43.7081 117.765 39.705 110.669 32.0173 108.423C26.5195 106.832 21.0737 106.832 16.4208 108.423C9.94176 110.669 9.7403 117.765 13.308 120.161C15.524 121.791 18.3703 121.471 20.3264 120.338Z" fill="#263238"/>
<path opacity="0.6" d="M63.1061 95.369C65.1596 92.0302 64.8672 85.261 64.8607 85.1824C64.8607 85.1104 64.9127 85.0449 64.9907 85.0449C65.0622 85.0449 65.1271 85.0973 65.1271 85.1693C65.1401 85.5097 65.4586 92.8682 62.9631 96.0367L63.1061 95.369Z" fill="#F0F4FC"/>
<path d="M51.9287 87.7487C51.9287 87.7487 49.7841 83.1661 49.5372 78.4067C49.2903 73.6472 53.3063 68.8158 57.3354 69.7651C57.3354 69.7651 62.1378 67.5916 65.1402 70.1055C68.1425 72.6129 71.0993 80.351 66.024 90.0793C66.024 90.0793 56.7116 87.1726 51.9287 87.7487Z" fill="#263238"/>
<path d="M81.3605 119.644C81.3605 119.644 74.2511 138.511 80.2947 144.613" stroke="#263238" stroke-width="0.43" stroke-linecap="round" stroke-linejoin="round"/>
<path d="M79.6448 110.511L81.7958 108.521L84.9151 106.374L89.9904 109.935L87.677 111.094C87.677 111.094 86.0068 112.711 83.5309 112.063L81.7958 112.777L79.6448 110.505V110.511Z" fill="#CE7A63"/>
<path d="M69.7346 98.3672C71.996 100.672 73.5167 115.055 73.5167 115.055L80.0542 109.215L83.5309 113.176C83.5309 113.176 75.2518 125.274 71.7361 124.325C68.2204 123.375 65.5625 113.942 65.5625 113.942L69.7281 98.3672H69.7346Z" fill="#253E96"/>
<path opacity="0.6" d="M83.5376 113.183C83.5376 113.183 75.2585 125.281 71.7428 124.331C71.0669 124.148 70.4171 123.644 69.8127 122.957C67.3043 120.083 65.5757 113.948 65.5757 113.948L66.5375 110.361L69.7412 98.374C72.0027 100.672 73.5234 115.061 73.5234 115.061L80.0544 109.222L83.5376 113.183Z" fill="#F0F4FC"/>
<path opacity="0.1" d="M69.8127 122.957C67.3043 120.083 65.5757 113.948 65.5757 113.948L66.5375 110.361L69.3513 105.752C69.3513 105.752 71.5673 116.076 69.8127 122.957Z" fill="black"/>
<path d="M51.7466 91.1333L60.5262 92.8551C60.5262 92.8551 64.7112 95.0351 65.569 103.159C66.4268 111.284 64.3993 128.704 62.0273 134.027C59.6554 139.349 38.2102 135.245 38.2102 135.245L44.9102 111.415L43.9679 95.6636L51.7401 91.1333H51.7466Z" fill="#253E96"/>
<path opacity="0.6" d="M51.7466 91.1333L60.5262 92.8551C60.5262 92.8551 64.7112 95.0351 65.569 103.159C66.4268 111.284 64.3993 128.704 62.0273 134.027C59.6554 139.349 38.2102 135.245 38.2102 135.245L44.9102 111.415L43.9679 95.6636L51.7401 91.1333H51.7466Z" fill="#F0F4FC"/>
<path opacity="0.2" d="M51.7466 91.1333L60.5262 92.8551C60.5262 92.8551 64.7112 95.0351 65.569 103.159C66.4268 111.284 64.3993 128.704 62.0273 134.027C59.6554 139.349 38.2102 135.245 38.2102 135.245L44.9102 111.415L43.9679 95.6636L51.7401 91.1333H51.7466Z" fill="black"/>
<path d="M68.3569 105.425C67.954 107.395 67.8435 108.947 66.4593 113.555C65.3676 117.477 64.1719 121.3 62.0663 127.65L42.0054 123.814C43.734 118.302 44.8972 110.825 44.3448 97.346C44.2149 94.2232 46.7168 91.8533 49.7191 92.2592C50.5184 92.3705 51.3698 92.5014 52.2276 92.6651C55.5808 93.3001 58.3232 93.85 61.202 94.8255C62.1573 95.1528 63.1386 95.5194 64.0744 95.8861C67.4471 97.215 69.0782 101.889 68.3504 105.425H68.3569Z" fill="#253E96"/>
<path d="M55.2819 82.6359C55.3729 85.7325 55.0675 91.2971 52.728 92.7832C52.728 92.7832 55.5614 93.032 60.5133 98.0467C62.7748 96.0238 61.709 94.9436 61.709 94.9436C58.6157 93.379 59.0901 90.9502 60.0194 88.7832L55.2819 82.6294V82.6359Z" fill="#CE7A63"/>
<path opacity="0.2" d="M57.212 85.1433L60.0128 88.7832C59.7919 89.2938 59.5969 89.8241 59.4734 90.3478C58.2712 89.8699 56.8025 88.0762 56.887 86.721C56.926 86.0467 57.056 85.4182 57.212 85.1367V85.1433Z" fill="black"/>
<path d="M64.0419 94.9761C64.0419 94.9761 68.1945 109.457 61.384 135.801C61.384 135.801 70.2935 112.501 69.7411 98.3738L64.0419 94.9826V94.9761Z" fill="#253E96"/>
<path opacity="0.6" d="M64.0419 94.9761C64.0419 94.9761 68.1945 109.457 61.384 135.801C61.384 135.801 70.2935 112.501 69.7411 98.3738L64.0419 94.9826V94.9761Z" fill="#F0F4FC"/>
<path d="M60.5261 92.8552L67.551 96.4035L65.5495 97.2873L67.876 99.4935L64.9841 115.055C64.9841 115.055 65.335 97.9943 60.5261 92.8486V92.8552Z" fill="#253E96"/>
<path opacity="0.7" d="M60.5261 92.8552L67.551 96.4035L65.5495 97.2873L67.876 99.4935L64.9841 115.055C64.9841 115.055 65.335 97.9943 60.5261 92.8486V92.8552Z" fill="#F0F4FC"/>
<path d="M54.1513 78.0401C54.4502 82.9436 54.4762 85.0254 56.9067 87.6637C60.5653 91.6375 66.401 90.5115 67.5448 85.6931C68.5715 81.3527 67.9087 74.0598 63.1973 71.8601C58.5573 69.6931 53.8459 73.1367 54.1513 78.0401Z" fill="#CE7A63"/>
<path d="M60.13 79.6045C60.1365 80.0169 60.3574 80.3639 60.6174 80.377C60.8773 80.3901 61.0853 80.0693 61.0723 79.6503C61.0658 79.2379 60.8448 78.8909 60.5849 78.8778C60.3249 78.8647 60.117 79.1855 60.13 79.6045Z" fill="#263238"/>
<path d="M65.2052 79.7027C65.2117 80.1151 65.4326 80.4621 65.6926 80.4752C65.9525 80.4882 66.1604 80.1675 66.1475 79.7485C66.141 79.336 65.92 78.9891 65.6601 78.976C65.4001 78.9629 65.1922 79.2837 65.2052 79.7027Z" fill="#263238"/>
<path d="M65.5496 78.9959L66.4983 78.7603C66.4983 78.7603 66.024 79.5066 65.5496 78.9959Z" fill="#263238"/>
<path d="M63.6716 80.5342C63.6716 80.5342 64.38 82.3476 65.1403 83.2445C64.6269 83.7289 63.7236 83.4474 63.7236 83.4474L63.6716 80.5342Z" fill="#BA4D3C"/>
<path d="M61.4685 84.855C61.6765 84.9009 61.8974 84.9336 62.1379 84.9467C62.2028 84.9467 62.2548 84.9009 62.2548 84.8289C62.2548 84.7634 62.2028 84.7045 62.1379 84.7045C60.3898 84.6194 59.5514 83.31 59.5449 83.2969C59.506 83.238 59.4345 83.2184 59.3825 83.2511C59.3305 83.2839 59.3175 83.3624 59.35 83.4148C59.3825 83.4672 60.0583 84.5212 61.475 84.8485L61.4685 84.855Z" fill="#263238"/>
<path d="M59.337 76.9793C59.3955 76.9858 59.4605 76.9727 59.5125 76.9269C60.2793 76.2526 61.1176 76.521 61.1241 76.5275C61.2476 76.5668 61.3776 76.5014 61.4101 76.3704C61.4425 76.246 61.3646 76.1086 61.2411 76.0627C61.1956 76.0496 60.1493 75.7092 59.1941 76.5472C59.0966 76.6323 59.0901 76.7829 59.1811 76.8876C59.2201 76.94 59.2785 76.9662 59.337 76.9793Z" fill="#263238"/>
<path d="M67.2328 77.0907C67.2913 77.1038 67.3497 77.1038 67.4017 77.0711C67.5122 77.0056 67.5447 76.8616 67.4732 76.7437C66.7779 75.5653 65.6991 75.4606 65.6536 75.4606C65.5237 75.4475 65.4197 75.5522 65.4197 75.6832C65.4197 75.8141 65.5237 75.9319 65.6471 75.945C65.6926 75.945 66.5244 76.0432 67.0768 76.9794C67.1158 77.0383 67.1678 77.0841 67.2263 77.0972L67.2328 77.0907Z" fill="#263238"/>
<path d="M60.4744 78.8978L61.4232 78.6621C61.4232 78.6621 60.9488 79.415 60.4744 78.8978Z" fill="#263238"/>
<path d="M58.5702 73.5097C58.5702 73.5097 64.1265 77.2872 67.1938 75.585C67.1938 75.585 67.9216 70.5179 60.3963 70.1186C52.871 69.7192 45.5342 80.1284 55.6979 86.0859L55.6719 80.3444C55.6719 80.3444 58.4077 77.333 58.5767 73.5032L58.5702 73.5097Z" fill="#263238"/>
<path d="M52.5656 81.9877C53.1115 83.009 54.0213 83.6636 54.8726 83.9058C56.1463 84.2659 56.7312 83.009 56.3283 81.6931C55.9708 80.5147 54.8661 78.9042 53.6119 79.1202C52.3706 79.3363 51.9417 80.8158 52.5656 81.9811V81.9877Z" fill="#CE7A63"/>
<path d="M60.5522 81.4705C60.4873 82.2626 61.0786 82.9631 61.865 83.0286C62.6513 83.094 63.3466 82.4983 63.4116 81.7061C63.4766 80.914 62.8917 80.2135 62.0989 80.148C61.3126 80.0826 60.6172 80.6718 60.5522 81.4705Z" stroke="#263238" stroke-width="0.43" stroke-linecap="round" stroke-linejoin="round"/>
<path d="M65.0361 81.4704C64.9711 82.2625 65.5625 82.963 66.3488 83.0285C67.1352 83.094 67.8305 82.4982 67.8955 81.7061C67.9605 80.9139 67.3691 80.2135 66.5828 80.148C65.7965 80.0825 65.1011 80.6783 65.0361 81.4704Z" stroke="#263238" stroke-width="0.43" stroke-linecap="round" stroke-linejoin="round"/>
<path d="M65.0362 81.4702C65.0362 81.4702 64.2044 80.7239 63.4246 81.5488" stroke="#263238" stroke-width="0.43" stroke-linecap="round" stroke-linejoin="round"/>
<path d="M60.5522 81.4702L55.7043 79.8794" stroke="#263238" stroke-width="0.43" stroke-linecap="round" stroke-linejoin="round"/>
<path d="M69.8321 208.927C65.5366 208.927 64.9712 208.862 62.5603 208.777C60.4937 208.705 59.9998 208.96 58.3427 208.927C56.9585 208.894 57.0105 207.559 57.4329 206.02C57.6474 205.248 57.9788 203.611 58.2712 202.367L64.5618 201.909C65.4456 203.611 67.4472 206.04 69.8646 206.367C72.1716 206.682 71.5477 208.934 69.8321 208.934V208.927Z" fill="#263238"/>
<path d="M43.89 123.814C43.89 123.814 33.4144 138.557 38.4378 147.611C43.4611 156.665 71.3788 157.366 71.3788 157.366C71.3788 157.366 64.133 168.495 58.7782 202.092L64.9128 202.93C64.9128 202.93 90.0166 157.412 87.9826 149.228C85.9485 141.051 61.8845 135.742 61.8845 135.742L62.0599 127.644L43.8835 123.808L43.89 123.814Z" fill="#253E96"/>
<path opacity="0.2" d="M64.9191 202.937L58.7845 202.099C64.1393 168.502 71.3852 157.372 71.3852 157.372C71.3852 157.372 57.2574 157.019 47.2951 153.549C43.253 152.148 39.8933 150.23 38.4441 147.618C33.4207 138.564 43.8964 123.821 43.8964 123.821L62.0728 127.657L61.8973 135.755C61.8973 135.755 83.5439 140.528 87.5145 147.998C87.7355 148.403 87.8979 148.816 88.0019 149.241C90.0359 157.418 64.9256 202.937 64.9256 202.937H64.9191Z" fill="black"/>
<path opacity="0.2" d="M64.9192 202.937L58.7846 202.099C64.1394 168.502 71.3852 157.372 71.3852 157.372C71.3852 157.372 57.2574 157.019 47.2952 153.549L57.3419 135.755C57.3419 135.755 77.4743 138.944 87.5081 147.998C87.729 148.403 87.8915 148.816 87.9955 149.241C90.0295 157.418 64.9192 202.937 64.9192 202.937Z" fill="black"/>
<path d="M58.7782 208.927C54.4826 208.927 53.9173 208.862 51.5063 208.777C49.4398 208.705 48.9459 208.96 47.2888 208.927C45.9046 208.894 45.9566 207.559 46.379 206.02C46.5934 205.248 46.9248 203.611 47.2173 202.367L53.5079 201.909C54.3917 203.611 56.3932 206.04 58.8107 206.367C61.1176 206.682 60.4938 208.934 58.7782 208.934V208.927Z" fill="#263238"/>
<path d="M42.2979 122.891C42.2979 122.891 28.8655 138.564 33.8888 147.618C38.9122 156.672 66.8299 157.372 66.8299 157.372C66.8299 157.372 53.209 171.919 47.7242 202.099L53.8588 202.937C53.8588 202.937 85.4677 157.418 83.4336 149.235C81.3996 141.058 57.3355 135.749 57.3355 135.749V126.512L42.2914 122.885L42.2979 122.891Z" fill="#253E96"/>
<path opacity="0.2" d="M42.2979 122.891C42.2979 122.891 28.8655 138.564 33.8888 147.618C38.9122 156.672 66.8299 157.372 66.8299 157.372C66.8299 157.372 53.209 171.919 47.7242 202.099L53.8588 202.937C53.8588 202.937 85.4677 157.418 83.4336 149.235C81.3996 141.058 57.3355 135.749 57.3355 135.749V126.512L42.2914 122.885L42.2979 122.891Z" fill="black"/>
<path d="M35.8383 143.316C38.7626 136.959 41.778 130.819 44.4748 126.125C53.7612 109.915 51.7467 91.1328 51.7467 91.1328C51.7467 91.1328 44.3969 92.3898 43.5716 92.6516C42.7527 92.9135 40.7772 120.311 40.7772 120.311C36.8781 125.732 32.68 134.485 28.9434 143.316H35.8318H35.8383Z" fill="#253E96"/>
<path opacity="0.6" d="M35.8381 143.317C38.7625 136.967 41.7778 130.826 44.4682 126.125C45.8329 123.742 46.9571 121.3 47.8734 118.878C48.2243 117.955 48.5428 117.039 48.8352 116.129C53.0203 103.068 51.7401 91.127 51.7401 91.127C51.7401 91.127 44.3902 92.3839 43.5714 92.6458C43.2985 92.7374 42.8891 95.8929 42.4796 100.043C42.4212 100.606 42.3692 101.189 42.3107 101.785C42.1417 103.533 41.9728 105.392 41.8168 107.232C41.7388 108.115 41.6673 108.999 41.5958 109.863C41.128 115.487 40.7835 120.312 40.7835 120.312C36.8844 125.733 32.6799 134.485 28.9497 143.317H35.8381Z" fill="#F0F4FC"/>
<path d="M51.7467 91.1333L46.21 94.1513L50.0961 97.0318L47.9971 99.6178L49.1278 115.192C49.1278 115.192 55.3274 100.155 51.7467 91.1333Z" fill="#253E96"/>
<path opacity="0.7" d="M51.7467 91.1333L46.21 94.1513L50.0961 97.0318L47.9971 99.6178L49.1278 115.192C49.1278 115.192 55.3274 100.155 51.7467 91.1333Z" fill="#F0F4FC"/>
<path opacity="0.1" d="M47.8801 118.885C45.6641 117.831 43.2597 113.451 41.6025 109.87C41.674 109.006 41.7455 108.122 41.8235 107.238C41.9795 105.399 42.1484 103.539 42.3174 101.791C42.3759 101.196 42.4279 100.613 42.4863 100.05L43.7016 98.0532C43.7016 98.0532 48.1011 110.4 48.8419 116.135C49.1018 118.165 48.9004 119.369 47.8801 118.885Z" fill="black"/>
<path d="M73.6792 117.549C73.6792 117.549 75.3104 113.549 77.3639 111.402C79.4174 109.255 87.7355 110.492 87.989 110.819C88.2489 111.147 88.7623 114.571 88.2489 116.096C87.7355 117.621 81.9064 120.731 81.9064 120.731H74.2771C74.2771 120.731 73.1009 118.826 73.6792 117.549Z" fill="#263238"/>
<path opacity="0.3" d="M88.4439 115.015C88.4114 115.428 88.3464 115.801 88.2489 116.102C87.7355 117.627 81.9064 120.737 81.9064 120.737H74.2771C74.2771 120.737 73.1009 118.832 73.6792 117.549C73.6792 117.549 75.3039 113.555 77.3639 111.401C79.4174 109.254 87.7355 110.491 87.989 110.825C88.1969 111.087 88.5674 113.346 88.4439 115.015Z" fill="#F0F4FC"/>
<path opacity="0.1" d="M88.4439 115.016C88.4114 115.428 88.3464 115.801 88.2489 116.102C87.7356 117.628 81.9064 120.737 81.9064 120.737H74.2771C74.2771 120.737 79.2615 114.852 79.7164 114.662C80.1258 114.485 86.6308 114.492 88.4439 115.016Z" fill="black"/>
<path d="M64.3214 114.44L73.1529 113.752L78.4232 113.183L82.7058 115.048L80.1974 118.885L77.8644 118.204C77.8644 118.204 75.5899 118.59 73.6143 117.379L65.8421 118.034L64.3149 114.446L64.3214 114.44Z" fill="#CE7A63"/>
<path d="M55.5354 94.446C52.832 89.9222 53.7288 81.9484 53.7808 81.5163C53.7873 81.4443 53.8588 81.392 53.9303 81.3985C54.0017 81.405 54.0537 81.4771 54.0472 81.5491C54.0342 81.6538 53.1569 89.4574 55.6264 94.0139L55.5354 94.446Z" fill="#263238"/>
<path opacity="0.6" d="M55.5354 94.446C52.832 89.9222 53.7288 81.9484 53.7808 81.5163C53.7873 81.4443 53.8588 81.392 53.9303 81.3985C54.0017 81.405 54.0537 81.4771 54.0472 81.5491C54.0342 81.6538 53.1569 89.4574 55.6264 94.0139L55.5354 94.446Z" fill="#F0F4FC"/>
<path d="M54.0083 81.9682C54.1642 81.8373 54.3657 81.929 54.3852 81.4903C54.4047 81.0517 53.6638 80.8684 53.7353 82.001L54.0083 81.9682Z" fill="#263238"/>
<path opacity="0.6" d="M54.0083 81.9682C54.1642 81.8373 54.3657 81.929 54.3852 81.4903C54.4047 81.0517 53.6638 80.8684 53.7353 82.001L54.0083 81.9682Z" fill="#F0F4FC"/>
<path d="M54.2356 90.4131C54.853 93.4442 56.1982 96.292 58.9795 97.1234C62.0858 98.0596 63.6065 95.5391 64.3408 92.5735" stroke="#263238" stroke-width="0.82" stroke-linecap="round" stroke-linejoin="round"/>
<path d="M59.7464 97.2935C59.7464 97.2935 58.3427 112.508 60.5262 120.239C61.3385 123.107 65.5756 125.536 64.6398 128.77" stroke="#263238" stroke-width="0.82" stroke-linecap="round" stroke-linejoin="round"/>
<path d="M63.6716 127.35L65.7706 127.657C65.7706 127.657 64.5034 134.335 62.3394 133.268L63.6781 127.35H63.6716Z" fill="#253E96"/>
<path opacity="0.6" d="M63.6716 127.35L65.7706 127.657C65.7706 127.657 64.5034 134.335 62.3394 133.268L63.6781 127.35H63.6716Z" fill="#F0F4FC"/>
<path d="M43.5779 92.6457C37.5473 95.1007 44.9686 119.958 49.5371 120.606C54.1121 121.255 71.7426 119.048 71.7426 119.048V113.176C71.7426 113.176 53.5727 113.687 52.9293 112.777C52.286 111.873 49.3681 101.674 47.9774 98.0401C46.8012 94.9698 43.5714 92.6392 43.5714 92.6392L43.5779 92.6457Z" fill="#253E96"/>
<path opacity="0.6" d="M43.5779 92.6457C37.5473 95.1007 44.9686 119.958 49.5371 120.606C54.1121 121.255 71.7426 119.048 71.7426 119.048V113.176C71.7426 113.176 53.5727 113.687 52.9293 112.777C52.286 111.873 49.3681 101.674 47.9774 98.0401C46.8012 94.9698 43.5714 92.6392 43.5714 92.6392L43.5779 92.6457Z" fill="#F0F4FC"/>
<path d="M177.896 170.446H115.972C114.464 170.446 113.236 169.208 113.236 167.69V124.881C113.236 118.204 118.617 112.783 125.245 112.783H168.616C175.245 112.783 180.626 118.204 180.626 124.881V167.69C180.626 169.208 179.397 170.446 177.89 170.446H177.896Z" fill="#263238"/>
<path opacity="0.4" d="M177.896 170.446H115.972C114.464 170.446 113.236 169.208 113.236 167.69V124.881C113.236 118.204 118.617 112.783 125.245 112.783H168.616C175.245 112.783 180.626 118.204 180.626 124.881V167.69C180.626 169.208 179.397 170.446 177.89 170.446H177.896Z" fill="#F0F4FC"/>
<path d="M113.236 208.436H77.8774V144.2C77.8774 137.392 83.3622 131.866 90.1207 131.866H100.999C107.758 131.866 113.242 137.392 113.242 144.2L113.242 208.436H113.236Z" fill="#263238"/>
<path opacity="0.4" d="M113.236 208.436H77.8774V144.2C77.8774 137.392 83.3622 131.866 90.1207 131.866H100.999C107.758 131.866 113.242 137.392 113.242 144.2L113.242 208.436H113.236Z" fill="#F0F4FC"/>
<path opacity="0.5" d="M77.8708 208.436H98.2113V142.112C98.2113 136.456 93.6558 131.867 88.041 131.867C82.4263 131.867 77.8708 136.456 77.8708 142.112V208.436Z" fill="#F0F4FC"/>
<path d="M102.5 208.436H168.142V182.812H102.5V208.436Z" fill="#263238"/>
<path opacity="0.4" d="M102.5 208.436H168.142V182.812H102.5V208.436Z" fill="#F0F4FC"/>
<path d="M104.599 191.611H161.513C168.386 191.611 173.958 185.998 173.958 179.075V177.261C173.958 170.337 168.386 164.724 161.513 164.724H104.599C97.7262 164.724 92.1545 170.337 92.1545 177.261V179.075C92.1545 185.998 97.7262 191.611 104.599 191.611Z" fill="#263238"/>
<path opacity="0.6" d="M104.599 191.611H161.513C168.386 191.611 173.958 185.998 173.958 179.075V177.261C173.958 170.337 168.386 164.724 161.513 164.724H104.599C97.7262 164.724 92.1545 170.337 92.1545 177.261V179.075C92.1545 185.998 97.7262 191.611 104.599 191.611Z" fill="#F0F4FC"/>
<path opacity="0.2" d="M151.785 191.611H161.325C168.198 191.611 173.77 185.998 173.77 179.075V177.261C173.77 170.337 168.198 164.724 161.325 164.724H151.785C144.912 164.724 139.34 170.337 139.34 177.261V179.075C139.34 185.998 144.912 191.611 151.785 191.611Z" fill="black"/>
<path d="M120.508 124.927C120.508 124.927 113.886 155.127 102.5 132.129" stroke="#263238" stroke-width="0.43" stroke-linecap="round" stroke-linejoin="round"/>
<path d="M133.056 100.888C127.786 103.002 116.992 121.405 116.602 122.171C116.212 122.937 101.818 128.521 101.818 128.521L103.053 132.992C103.053 132.992 116.907 129.961 119.39 128.521C121.872 127.081 131.874 116.94 131.874 116.94L133.05 100.888H133.056Z" fill="#FF8B7B"/>
<path d="M133.056 100.895L132.803 118.027C132.803 118.027 131.523 119.35 130.022 120.587C128.683 121.68 127.175 122.708 126.226 122.675L120.508 116.947C120.508 111.729 128.306 102.747 133.056 100.895Z" fill="#253E96"/>
<path opacity="0.2" d="M130.021 120.587C128.683 121.68 127.175 122.708 126.226 122.675C124.608 119.788 129.417 112.07 129.417 112.07C129.417 112.07 130.398 117.143 130.021 120.587Z" fill="black"/>
<path d="M71.0148 207.736L66.2969 205.883L71.6842 191.35L78.3581 193.536L71.0148 207.736Z" fill="#FF8B7B"/>
<path opacity="0.2" d="M71.6841 191.356L68.4868 199.984L73.9846 201.994L78.3581 193.543L71.6841 191.356Z" fill="black"/>
<path d="M136.02 164.704C132.608 166.904 126.551 167.585 120.371 167.585C114.191 167.585 107.667 166.884 103.8 166.367C103.8 166.367 92.3626 182.911 81.874 194.335C80.0349 196.344 78.2219 198.191 76.5062 199.762L69.1499 197.333C69.1499 197.333 81.1397 163.768 89.3733 153.398C89.8997 152.443 90.816 151.447 92.3302 150.544C92.5706 150.393 92.7981 150.269 93.032 150.158C95.5339 148.862 99.4201 147.814 105.418 147.408C109.506 147.133 114.568 147.159 120.839 147.618L128.027 140.292L143.558 140.927C143.558 140.927 144.91 158.956 136.02 164.704Z" fill="#263238"/>
<path opacity="0.2" d="M136.02 164.704C132.608 166.904 126.551 167.585 120.371 167.585C114.191 167.585 107.667 166.884 103.8 166.367C103.8 166.367 92.3626 182.911 81.874 194.335C80.7173 169.235 94.2147 154.917 105.418 147.408C109.506 147.133 114.568 147.159 120.839 147.618L128.027 140.292L143.558 140.927C143.558 140.927 144.91 158.956 136.02 164.704Z" fill="black"/>
<path d="M67.3367 202.282L73.2569 202.374C73.4778 202.374 73.6598 202.538 73.6923 202.754L74.4526 207.631C74.5306 208.135 74.1212 208.606 73.6078 208.593C71.4763 208.521 68.396 208.351 65.7121 208.305C62.5733 208.253 62.8852 208.384 59.207 208.325C56.9845 208.292 56.5101 206.014 57.4524 205.824C61.7545 204.953 62.1899 204.908 65.998 202.688C66.4139 202.446 66.8623 202.276 67.3302 202.282H67.3367Z" fill="#263238"/>
<path d="M68.7794 194.047L68.1555 197.837L77.091 201.386L78.6896 198.184L68.7794 194.047Z" fill="#263238"/>
<path d="M84.025 208.39L79.3005 206.537L84.6878 192.004L91.3618 194.19L84.025 208.39Z" fill="#FF8B7B"/>
<path opacity="0.2" d="M84.6878 192.01L81.4905 200.639L86.9947 202.649L91.3682 194.197L84.6878 192.01Z" fill="black"/>
<path d="M80.3467 202.937L86.2669 203.029C86.4878 203.029 86.6698 203.192 86.7023 203.408L87.4626 208.279C87.5406 208.783 87.1312 209.254 86.6178 209.241C84.4863 209.169 81.406 208.999 78.7221 208.953C75.5833 208.901 75.8952 209.032 72.217 208.973C69.9945 208.94 69.5202 206.662 70.4624 206.472C74.7645 205.601 75.1999 205.556 79.008 203.336C79.4239 203.094 79.8723 202.924 80.3402 202.93L80.3467 202.937Z" fill="#263238"/>
<path d="M81.7895 194.047L81.1592 197.837L90.1012 201.386L91.6933 198.184L81.7895 194.047Z" fill="#263238"/>
<path d="M156.561 140.927L141.03 140.292L133.843 147.618C118.376 146.485 110.24 147.984 106.029 150.151C105.801 150.263 105.568 150.393 105.327 150.537C103.813 151.441 102.897 152.436 102.37 153.392C94.1366 163.762 82.1533 197.326 82.1533 197.326L89.5097 199.749C100.999 189.209 116.797 166.354 116.797 166.354C124.459 167.382 142.141 169.137 149.017 164.691C157.913 158.943 156.555 140.914 156.555 140.914L156.561 140.927Z" fill="#263238"/>
<path d="M160.363 115.415C160.389 118.21 160.298 121.386 160.012 124.927C159.551 130.708 158.557 137.477 156.633 145.222L123.569 144.443C122.243 140.58 122.223 131.71 127.65 123.317C128.176 118.282 127.539 112.711 127.955 107.323C128.208 103.958 131.425 100.862 135.441 100.155C141.407 99.1138 147.542 98.924 153.806 99.3495C157.146 99.5721 159.57 101.615 159.791 104.436C159.986 107.003 160.331 110.669 160.363 115.415Z" fill="#253E96"/>
<path opacity="0.2" d="M68.7794 194.047L68.1555 197.837L77.091 201.386L78.6896 198.184L68.7794 194.047Z" fill="#F0F4FC"/>
<path opacity="0.2" d="M81.7895 194.047L81.1592 197.837L90.1012 201.386L91.6933 198.184L81.7895 194.047Z" fill="#F0F4FC"/>
<path d="M147.392 89.739C147.444 93.8503 147.711 98.6424 150.505 101.346C148.978 103.971 145.741 106.073 141.446 105.7C136.721 105.287 137.904 101.942 138.924 100.227C141.192 98.4395 140.536 96.0238 140.257 94.3282L147.392 89.7324V89.739Z" fill="#FF8B7B"/>
<path opacity="0.2" d="M145.826 91.5329C145.826 91.2711 145.826 91.0092 145.813 90.7539L140.257 94.3349C140.426 95.3497 140.731 96.6262 140.458 97.8636C143.136 96.6721 145.8 94.0141 145.826 91.5264V91.5329Z" fill="black"/>
<path d="M132.803 121.517C132.803 121.517 131.711 124.201 131.906 124.882C132.101 125.562 132.803 122.171 132.803 122.171C132.803 122.171 132.42 125.013 132.64 125.242C132.868 125.471 133.186 122.459 133.186 122.459C133.186 122.459 133.089 125.071 133.186 125.255C133.284 125.438 133.765 122.675 133.765 122.675C133.765 122.675 133.284 125.373 133.446 125.595C133.609 125.824 134.187 122.675 134.187 122.675C134.187 122.675 133.992 125.726 134.187 125.857C134.382 125.988 134.538 122.878 134.538 122.878C134.538 122.878 134.603 125.798 134.733 125.864C134.863 125.929 134.993 122.852 134.993 122.852C134.993 122.852 134.928 125.962 135.253 126.086C135.578 126.211 135.448 123.042 135.448 123.042C135.448 123.042 135.61 125.772 135.864 126.086C136.117 126.4 136.065 123.199 136.065 123.199C136.065 123.199 136.247 126.001 136.507 126.106C136.767 126.211 136.507 123.068 136.507 123.068C136.507 123.068 137.02 125.726 137.345 125.693C137.664 125.661 137.027 121.746 137.027 121.746L132.816 121.517H132.803Z" fill="#263238"/>
<path d="M136.741 100.155C136.741 100.155 133.57 102.747 133.056 110.472C132.543 118.197 133.056 120.875 132.497 121.438C131.939 122.001 135.714 122.865 136.481 122.649C137.248 122.433 137.209 121.222 137.209 120.836C137.209 120.449 136.696 108.751 139.009 105.425C141.322 102.099 136.741 100.161 136.741 100.161V100.155Z" fill="#253E96"/>
<path opacity="0.4" d="M139.016 105.425C138.496 106.171 138.119 107.343 137.846 108.718C136.91 113.444 137.215 120.528 137.215 120.829C137.215 121.222 137.261 122.426 136.488 122.643C135.714 122.859 131.945 122.001 132.504 121.438C133.056 120.875 132.543 118.197 133.056 110.472C133.388 105.516 134.818 102.675 135.792 101.274C135.792 101.274 135.786 101.274 135.792 101.268C136.345 100.489 136.748 100.155 136.748 100.155C136.748 100.155 141.329 102.099 139.016 105.425Z" fill="#F0F4FC"/>
<path opacity="0.1" d="M139.015 105.425C138.496 106.171 138.119 107.343 137.846 108.718C135.883 106.76 135.422 103.526 135.792 101.274C135.792 101.274 135.786 101.274 135.792 101.268C136.345 100.489 136.748 100.155 136.748 100.155C136.748 100.155 141.329 102.099 139.015 105.425Z" fill="black"/>
<path d="M140.114 98.5968C140.114 98.5968 139.997 102.787 144.468 101.078C148.074 99.7032 148.614 96.4364 148.614 96.4364C148.614 96.4364 150.414 95.9323 150.927 97.7785C150.927 97.7785 153.085 98.0142 153.806 99.3366C154.528 100.666 147.165 109.039 141.076 108.436C134.986 107.834 135.565 101.039 136.39 99.9913C137.215 98.9438 137.898 99.6901 137.898 99.6901C137.898 99.6901 139.678 97.3464 140.114 98.5968Z" fill="#253E96"/>
<path opacity="0.4" d="M140.114 98.5968C140.114 98.5968 139.997 102.787 144.468 101.078C148.074 99.7032 148.614 96.4364 148.614 96.4364C148.614 96.4364 150.414 95.9323 150.927 97.7785C150.927 97.7785 153.085 98.0142 153.806 99.3366C154.528 100.666 147.165 109.039 141.076 108.436C134.986 107.834 135.565 101.039 136.39 99.9913C137.215 98.9438 137.898 99.6901 137.898 99.6901C137.898 99.6901 139.678 97.3464 140.114 98.5968Z" fill="#F0F4FC"/>
<path d="M134.889 87.2841C136.559 88.2595 140.432 88.1548 138.431 80.3905C136.748 73.8373 131.815 85.4968 134.889 87.2841Z" fill="#E0E0E0"/>
<path d="M149.744 83.559C149.062 88.9338 148.939 92.1154 146.053 94.6817C141.706 98.5442 135.253 95.5786 134.317 90.0925C133.479 85.1563 134.733 77.1956 140.12 75.4411C145.429 73.7128 150.427 78.1842 149.744 83.559Z" fill="#FF8B7B"/>
<path opacity="0.2" d="M142.557 84.2662C142.557 84.2662 143.759 83.6377 144.793 84.096C143.597 84.4299 142.557 84.2662 142.557 84.2662Z" fill="black"/>
<path opacity="0.2" d="M142.629 84.7962C142.629 84.7962 143.818 84.4688 144.63 85.1562C143.506 85.202 142.629 84.7962 142.629 84.7962Z" fill="black"/>
<path d="M150.765 80.6394C151.077 79.1664 147.899 77.0322 146.079 78.1451C144.286 79.2384 146.82 81.5232 147.275 83.5919C147.724 85.6606 145.163 87.5919 145.163 87.5919C145.163 87.5919 146.203 88.8685 148.263 88.7834C152.883 87.0223 151.499 81.2351 150.771 80.6394H150.765Z" fill="#E0E0E0"/>
<path d="M151.213 89.1693C150.453 90.4066 149.186 91.166 148.022 91.4148C146.268 91.788 145.494 90.1775 146.066 88.567C146.58 87.1202 148.113 85.1824 149.836 85.5359C151.532 85.8829 152.09 87.7552 151.22 89.1693H151.213Z" fill="#FF8B7B"/>
<path d="M141.206 84.6394C141.18 85.078 140.92 85.4184 140.64 85.3988C140.354 85.3791 140.146 85.006 140.172 84.5673C140.198 84.1287 140.458 83.7883 140.738 83.8079C141.024 83.8276 141.232 84.2007 141.206 84.6394Z" fill="#263238"/>
<path d="M135.747 84.4035C135.721 84.8421 135.461 85.1826 135.181 85.1629C134.895 85.1433 134.687 84.7701 134.713 84.3315C134.739 83.8929 134.999 83.5525 135.279 83.5721C135.565 83.5917 135.773 83.9649 135.747 84.4035Z" fill="#263238"/>
<path d="M137.631 84.1154C137.631 84.1154 136.325 86.4984 135.084 87.5655C135.76 88.3904 137.105 88.2398 137.105 88.2398L137.625 84.1089L137.631 84.1154Z" fill="#FF5652"/>
<path d="M142.193 81.7129C142.239 81.7129 142.278 81.6998 142.317 81.6736C142.434 81.5951 142.466 81.438 142.388 81.3136C141.608 80.109 140.419 80.0894 140.367 80.0894C140.224 80.0894 140.114 80.2072 140.114 80.3447C140.114 80.4887 140.231 80.6065 140.374 80.6065C140.413 80.6065 141.335 80.6327 141.959 81.5885C142.011 81.6671 142.102 81.7129 142.193 81.7064V81.7129Z" fill="#263238"/>
<path d="M134.09 82.1644C134.174 82.1775 134.259 82.1579 134.324 82.0924C135.11 81.2741 136.02 81.4378 136.059 81.4443C136.195 81.4705 136.332 81.3788 136.358 81.2414C136.384 81.1039 136.293 80.9664 136.156 80.9402C136.104 80.9337 134.941 80.7111 133.96 81.7389C133.862 81.8437 133.862 82.0073 133.966 82.1055C134.005 82.1448 134.051 82.1644 134.096 82.1775L134.09 82.1644Z" fill="#263238"/>
<path d="M133.882 89.2481C133.882 89.2481 134.772 87.9256 136.916 89.2481C136.916 89.2481 137.742 88.3643 139.834 88.4756C141.927 88.5868 142.999 89.2481 142.999 89.2481L145.494 87.3037L146.151 88.3315C146.151 88.3315 148.991 95.2317 145.137 97.5623C141.283 99.8929 136.488 98.8978 135.116 97.3463C133.745 95.7947 134.427 91.7358 134.427 91.7358C134.427 91.7358 133.628 89.9813 133.875 89.2481H133.882Z" fill="#E0E0E0"/>
<path d="M141.712 91.2644C139.399 92.1286 137.215 90.4854 137.215 90.4854C137.215 90.4854 136.28 91.6376 135.415 91.5132" stroke="#263238" stroke-width="0.5" stroke-linecap="round" stroke-linejoin="round"/>
<path d="M102.045 128.554L95.9497 128.384L98.4711 134.511C98.4711 134.511 103.618 134.603 103.793 131.421L102.039 128.554H102.045Z" fill="#FF8B7B"/>
<path d="M93.032 131.363L93.6948 134.034C93.9288 134.989 94.9036 135.552 95.8394 135.277L98.4713 134.511L95.9498 128.384L93.9353 129.392C93.214 129.752 92.837 130.577 93.032 131.363Z" fill="#FF8B7B"/>
<path d="M120.501 115.448L126.844 122.675L122.048 127.35L116.134 121.516L120.501 115.448Z" fill="#263238"/>
<path d="M116.687 120.783L122.49 126.655C122.678 126.845 122.984 126.852 123.179 126.662L126.428 123.533C126.623 123.343 126.629 123.035 126.447 122.839L120.3 116.168C120.092 115.938 119.728 115.958 119.546 116.207L116.641 120.135C116.498 120.331 116.518 120.606 116.687 120.783Z" fill="#263238"/>
<path opacity="0.2" d="M116.687 120.783L122.49 126.655C122.678 126.845 122.984 126.852 123.179 126.662L126.428 123.533C126.623 123.343 126.629 123.035 126.447 122.839L120.3 116.168C120.092 115.938 119.728 115.958 119.546 116.207L116.641 120.135C116.498 120.331 116.518 120.606 116.687 120.783Z" fill="#F0F4FC"/>
<path opacity="0.2" d="M160.363 115.415C160.389 118.21 160.298 121.386 160.012 124.927C156.425 121.706 156.003 113.183 156.003 113.183C157.562 113.7 159.038 114.479 160.363 115.415Z" fill="black"/>
<path d="M156.808 100.155C162.235 102.485 175.862 119.703 173.672 126.112C171.489 132.528 163.378 133.209 162.319 132.953C161.26 132.691 159.063 128.056 165.276 123.814L157.348 116.573C157.348 116.573 155.047 112.063 155.106 107.919C155.164 103.775 156.808 100.148 156.808 100.148V100.155Z" fill="#253E96"/>
<path d="M162.391 128.528L156.36 129.425L159.895 135.022C159.895 135.022 164.984 134.223 164.607 131.055L162.391 128.534V128.528Z" fill="#FF8B7B"/>
<path d="M154.001 132.862L155.112 135.375C155.509 136.272 156.568 136.659 157.439 136.226L159.902 135.015L156.367 129.418L154.553 130.76C153.904 131.244 153.676 132.115 154.001 132.862Z" fill="#FF8B7B"/>
<path d="M190.471 208.436H155.112V144.2C155.112 137.392 160.597 131.866 167.356 131.866H178.234C184.993 131.866 190.477 137.392 190.477 144.2V208.436H190.471Z" fill="#263238"/>
<path opacity="0.6" d="M190.471 208.436H155.112V144.2C155.112 137.392 160.597 131.866 167.356 131.866H178.234C184.993 131.866 190.477 137.392 190.477 144.2V208.436H190.471Z" fill="#F0F4FC"/>
<path opacity="0.4" d="M155.106 208.436H175.446V142.112C175.446 136.456 170.891 131.867 165.276 131.867C159.661 131.867 155.106 136.456 155.106 142.112V208.436Z" fill="#F0F4FC"/>
<path d="M204.254 155.854L204.449 164.476L205.352 208.725H208.322L209.219 164.476L209.42 155.854H204.254Z" fill="#263238"/>
<path opacity="0.4" d="M204.254 155.854L204.449 164.476L205.352 208.725H208.322L209.219 164.476L209.42 155.854H204.254Z" fill="#F0F4FC"/>
<path opacity="0.2" d="M204.254 155.854L204.449 164.712H209.219L209.42 155.854H204.254Z" fill="black"/>
<path d="M188.099 208.587L190.848 156.463H195.338L191.491 208.587H188.099Z" fill="#263238"/>
<path opacity="0.4" d="M191.497 208.587H188.105L190.594 160.672L190.841 156.404H195.338L194.987 160.672L191.497 208.587Z" fill="#F0F4FC"/>
<path opacity="0.2" d="M195.338 156.404L194.987 160.836H190.594L190.841 156.404H195.338Z" fill="black"/>
<path d="M222.184 208.587L218.336 156.463H222.827L225.576 208.587H222.184Z" fill="#263238"/>
<path opacity="0.4" d="M222.177 208.587L218.681 160.672L218.336 156.404H222.827L223.074 160.672L225.569 208.587H222.177Z" fill="#F0F4FC"/>
<path opacity="0.2" d="M218.336 156.404L218.681 160.836H223.074L222.827 156.404H218.336Z" fill="black"/>
<path d="M187.787 158.08H225.894C226.504 158.08 226.999 157.581 226.999 156.967V155.958C226.999 155.344 226.504 154.846 225.894 154.846H187.787C187.177 154.846 186.682 155.344 186.682 155.958V156.967C186.682 157.581 187.177 158.08 187.787 158.08Z" fill="#263238"/>
<path opacity="0.6" d="M187.787 158.08H225.894C226.504 158.08 226.999 157.581 226.999 156.967V155.958C226.999 155.344 226.504 154.846 225.894 154.846H187.787C187.177 154.846 186.682 155.344 186.682 155.958V156.967C186.682 157.581 187.177 158.08 187.787 158.08Z" fill="#F0F4FC"/>
<path d="M214.886 121.588H212.644V154.839H214.886V121.588Z" fill="#263238"/>
<path d="M226.148 131.769H201.388L204.345 111.415H223.191L226.148 131.769Z" fill="#253E96"/>
<path d="M218.603 153.025H208.933C207.939 153.025 207.126 153.837 207.126 154.845H220.409C220.409 153.844 219.604 153.025 218.603 153.025Z" fill="#263238"/>
<path opacity="0.4" d="M226.148 131.769H201.388L204.345 111.415H223.191L226.148 131.769Z" fill="#F0F4FC"/>
<path d="M201.713 154.839H196.703L195.995 146.439H202.422L201.713 154.839Z" fill="#253E96"/>
<path opacity="0.7" d="M202.422 146.439L202.071 150.636L201.72 154.839H196.703L196.345 150.636L195.995 146.439H202.422Z" fill="#F0F4FC"/>
<path opacity="0.7" d="M201.889 150.04L201.518 154.485H196.898L196.521 150.04H201.889Z" fill="#F0F4FC"/>
<path d="M196.41 145.857H201.999C202.435 145.857 202.786 146.21 202.786 146.649V146.793H195.624V146.649C195.624 146.21 195.975 145.857 196.41 145.857Z" fill="#253E96"/>
<path d="M199.569 145.189H198.841V146.184H199.569V145.189Z" fill="#253E96"/>
</g>
<defs>
<clipPath id="clip0_712_12308">
<rect width="252" height="216" fill="white" transform="translate(0.466797 0.671875)"/>
</clipPath>
</defs>
</svg>
