<svg width="303" height="130" viewBox="0 0 303 130" fill="none" xmlns="http://www.w3.org/2000/svg">
<g filter="url(#filter0_d_712_11160)">
<g clip-path="url(#clip0_712_11160)">
<rect x="14.1538" y="10.5388" width="274.623" height="100.788" rx="10" fill="white"/>
<g clip-path="url(#clip1_712_11160)">
<path d="M271.407 69.4602H191.904C189.833 69.4602 188.154 71.1377 188.154 73.2074C188.154 75.277 189.833 76.9546 191.904 76.9546H271.407C273.478 76.9546 275.157 75.277 275.157 73.2074C275.157 71.1377 273.478 69.4602 271.407 69.4602Z" fill="#D1E0FF"/>
<path d="M220.081 30.1782H222.901V25.8974H220.081V30.1782Z" fill="#C4BCB5"/>
<path d="M218.765 23.9517H224.211C225.288 23.9517 226.159 24.8214 226.159 25.8975C226.159 26.9736 225.288 27.8433 224.211 27.8433H218.765C217.688 27.8433 216.817 26.9736 216.817 25.8975C216.817 24.8214 217.688 23.9517 218.765 23.9517Z" fill="#D92A1A"/>
<path d="M219.142 27.8433H223.792V23.9516H219.142V27.8433Z" fill="white"/>
<path opacity="0.14" d="M222.901 29.1287L220.078 27.8433H222.901V29.1287Z" fill="black"/>
<path d="M190.942 52.4697C190.992 49.9638 192.748 47.8116 195.194 47.2603L205.169 45.0108C206.683 44.6688 207.996 43.7371 208.819 42.4252L213.708 34.6154H213.236C212.976 34.6154 212.766 34.4061 212.766 34.1466V29.7272C212.766 29.4678 212.976 29.2585 213.236 29.2585H227.418V28.486C227.418 28.2531 227.607 28.0645 227.84 28.0645H267.132C267.952 28.0645 268.619 28.7278 268.619 29.5504V33.33C268.619 34.123 268.745 34.9131 268.999 35.6679L270.964 41.5555C271.593 43.4394 271.914 45.4147 271.914 47.4018V63.1865C271.914 65.3269 270.179 67.0604 268.037 67.0604H260.685C260.685 62.9949 257.386 59.7017 253.32 59.7017C249.255 59.7017 245.956 62.9978 245.956 67.0604H213.548C213.548 62.9949 210.25 59.7017 206.184 59.7017C202.118 59.7017 198.82 62.9978 198.82 67.0604H193.863C192.104 67.0604 190.691 65.6188 190.727 63.8616L190.951 52.4786L190.942 52.4697Z" fill="white"/>
<path d="M211.743 30.308L212.766 29.8923V33.9756L211.743 33.5599C211.483 33.4538 211.315 33.2032 211.315 32.9231V30.9478C211.315 30.6677 211.486 30.4142 211.743 30.311V30.308Z" fill="#D92A1A"/>
<path opacity="0.14" d="M227.433 29.2556V34.6125H225.147L227.433 29.2556Z" fill="black"/>
<path d="M190.907 54.3538H192.27C192.839 54.3538 193.299 54.8137 193.299 55.3827V59.3068C193.299 59.8758 192.839 60.3357 192.27 60.3357H190.789L190.907 54.3538Z" fill="#FFC547"/>
<path d="M271.911 53.0121H190.933L190.945 52.4726C190.969 51.2226 191.42 50.058 192.169 49.1382H271.914V53.0121H271.911Z" fill="#D92A1A"/>
<path d="M253.318 73.8503C257.052 73.8503 260.08 70.8249 260.08 67.093C260.08 63.361 257.052 60.3357 253.318 60.3357C249.583 60.3357 246.555 63.361 246.555 67.093C246.555 70.8249 249.583 73.8503 253.318 73.8503Z" fill="#2B2928"/>
<path d="M253.318 72.3055C256.198 72.3055 258.534 69.9718 258.534 67.0931C258.534 64.2143 256.198 61.8806 253.318 61.8806C250.437 61.8806 248.101 64.2143 248.101 67.0931C248.101 69.9718 250.437 72.3055 253.318 72.3055Z" fill="#171515"/>
<path d="M253.318 70.7607C255.345 70.7607 256.988 69.1187 256.988 67.0931C256.988 65.0676 255.345 63.4255 253.318 63.4255C251.29 63.4255 249.647 65.0676 249.647 67.0931C249.647 69.1187 251.29 70.7607 253.318 70.7607Z" fill="#B0A8A2"/>
<path d="M253.318 69.2156C254.491 69.2156 255.442 68.2653 255.442 67.0929C255.442 65.9206 254.491 64.9702 253.318 64.9702C252.144 64.9702 251.193 65.9206 251.193 67.0929C251.193 68.2653 252.144 69.2156 253.318 69.2156Z" fill="#C4C0BC"/>
<path d="M206.178 73.8503C209.913 73.8503 212.941 70.8249 212.941 67.093C212.941 63.361 209.913 60.3357 206.178 60.3357C202.443 60.3357 199.416 63.361 199.416 67.093C199.416 70.8249 202.443 73.8503 206.178 73.8503Z" fill="#2B2928"/>
<path d="M206.178 72.3055C209.059 72.3055 211.395 69.9718 211.395 67.0931C211.395 64.2143 209.059 61.8806 206.178 61.8806C203.297 61.8806 200.962 64.2143 200.962 67.0931C200.962 69.9718 203.297 72.3055 206.178 72.3055Z" fill="#171515"/>
<path d="M206.178 70.7607C208.205 70.7607 209.848 69.1185 209.848 67.0931C209.848 65.0677 208.205 63.4255 206.178 63.4255C204.151 63.4255 202.508 65.0677 202.508 67.0931C202.508 69.1185 204.151 70.7607 206.178 70.7607Z" fill="#B0A8A2"/>
<path d="M206.178 69.2156C207.351 69.2156 208.302 68.2653 208.302 67.0929C208.302 65.9206 207.351 64.9702 206.178 64.9702C205.005 64.9702 204.054 65.9206 204.054 67.0929C204.054 68.2653 205.005 69.2156 206.178 69.2156Z" fill="#C4C0BC"/>
<path d="M270.92 55.4475H271.914V60.6776H270.92C270.371 60.6776 269.926 60.2325 269.926 59.6841V56.4411C269.926 55.8927 270.371 55.4475 270.92 55.4475Z" fill="#FFC547"/>
<path d="M211.707 46.1488H226.076C226.737 46.1488 227.274 45.6122 227.274 44.9518V37.6904C227.274 37.03 226.737 36.4934 226.076 36.4934H216.398C215.794 36.4934 215.236 36.8089 214.923 37.3248L210.681 44.3327C210.197 45.1317 210.772 46.1517 211.707 46.1517V46.1488Z" fill="#D1E0FF"/>
<path d="M242.649 36.4934H231.133C230.175 36.4934 229.398 37.2695 229.398 38.227V44.4182C229.398 45.3756 230.175 46.1517 231.133 46.1517H242.649C243.607 46.1517 244.384 45.3756 244.384 44.4182V38.227C244.384 37.2695 243.607 36.4934 242.649 36.4934Z" fill="#D1E0FF"/>
<path d="M268.214 57.3049H266.536C266.053 57.3049 265.662 57.695 265.662 58.1761C265.662 58.6573 266.053 59.0473 266.536 59.0473H268.214C268.697 59.0473 269.088 58.6573 269.088 58.1761C269.088 57.695 268.697 57.3049 268.214 57.3049Z" fill="#D92A1A"/>
<path d="M245.953 67.0929H213.542C213.542 67.0929 213.542 67.0663 213.542 67.0516C213.542 65.604 213.121 64.2538 212.398 63.1128H247.095C246.372 64.2508 245.95 65.6011 245.95 67.0516C245.95 67.0663 245.95 67.0781 245.95 67.0929H245.953Z" fill="#4A4A4A"/>
<path d="M190.818 63.1157H199.959C199.236 64.2537 198.814 65.604 198.814 67.0545C198.814 67.0693 198.814 67.0811 198.814 67.0958H190.818C190.113 67.0958 189.543 66.5239 189.543 65.8222V64.3923C189.543 63.6877 190.116 63.1187 190.818 63.1187V63.1157Z" fill="#4A4A4A"/>
<path d="M260.682 67.0516C260.682 65.604 260.26 64.2538 259.537 63.1128H271.734C272.439 63.1128 273.009 63.6847 273.009 64.3864V65.8163C273.009 66.5209 272.436 67.0899 271.734 67.0899H260.682C260.682 67.0899 260.682 67.0634 260.682 67.0487V67.0516Z" fill="#4A4A4A"/>
<path opacity="0.14" d="M238.019 34.0081H243.097C243.566 34.0081 243.947 33.6279 243.947 33.159V30.709C243.947 30.2401 243.566 29.8599 243.097 29.8599H238.019C237.55 29.8599 237.17 30.2401 237.17 30.709V33.159C237.17 33.6279 237.55 34.0081 238.019 34.0081Z" fill="black"/>
<path opacity="0.14" d="M255.849 34.0081H260.927C261.396 34.0081 261.776 33.6279 261.776 33.159V30.709C261.776 30.2401 261.396 29.8599 260.927 29.8599H255.849C255.38 29.8599 254.999 30.2401 254.999 30.709V33.159C254.999 33.6279 255.38 34.0081 255.849 34.0081Z" fill="black"/>
<path opacity="0.14" d="M246.806 34.0081H251.884C252.353 34.0081 252.733 33.6279 252.733 33.159V30.709C252.733 30.2401 252.353 29.8599 251.884 29.8599H246.806C246.337 29.8599 245.956 30.2401 245.956 30.709V33.159C245.956 33.6279 246.337 34.0081 246.806 34.0081Z" fill="black"/>
<path d="M254.807 39.7305L256.12 37.932L258.062 39.3472V36.9739H260.286V39.3472L262.231 37.932L263.541 39.7305L261.065 41.5348L263.541 43.3391L262.231 45.1345L260.286 43.7223V46.1487H258.062V43.7223L256.12 45.1345L254.807 43.3391L257.286 41.5348L254.807 39.7305Z" fill="#D92A1A"/>
</g>
</g>
<g clip-path="url(#clip2_712_11160)">
<path d="M78.1766 61.8776C77.3318 66.0536 73.5332 67.7693 70.4167 66.8505C67.4062 65.9622 64.9328 62.4945 66.5876 58.3997C66.3553 58.3997 66.1506 58.3997 65.9445 58.3997C60.8366 58.3997 55.7301 58.3997 50.6221 58.3997C49.892 58.3997 49.5393 58.1297 49.5189 57.5679C49.5001 57.086 49.7962 56.7275 50.2737 56.6709C50.4523 56.6506 50.6352 56.6607 50.8166 56.6607C56.3223 56.6607 61.828 56.6651 67.3336 56.6462C67.6399 56.6462 68.0057 56.5112 68.2423 56.3167C70.4951 54.4617 73.7291 54.4602 76.0095 56.3167C76.249 56.5112 76.6119 56.6404 76.9196 56.6462C78.4902 56.6796 80.0622 56.6607 81.6893 56.6607C81.6893 55.3689 81.595 54.1147 81.714 52.8824C81.8505 51.4817 81.4687 50.4148 80.3336 49.5642C78.7659 48.3884 77.9284 46.7816 77.4784 44.8728C77.0023 42.8523 76.3114 40.8825 75.709 38.8925C75.6248 38.6167 75.5261 38.3423 75.4085 38.0796C75.2474 37.7225 74.9847 37.5251 74.5608 37.5251C71.2281 37.5338 67.8954 37.5295 64.5641 37.5309C64.4959 37.5309 64.4262 37.5454 64.2999 37.5614V38.2088C64.2999 43.353 64.2999 48.4987 64.2999 53.643C64.2999 53.8419 64.3188 54.048 64.2782 54.2396C64.1824 54.6866 63.8862 54.9232 63.4276 54.9218C62.9674 54.9203 62.6742 54.6808 62.5828 54.2338C62.5436 54.0422 62.5624 53.8375 62.5624 53.6372C62.5624 46.9529 62.5624 40.2685 62.5624 33.5842C62.5624 32.5405 62.3345 32.3141 61.2865 32.3141C52.2856 32.3141 43.2846 32.3141 34.2821 32.3141C33.2298 32.3141 33.0019 32.5391 33.0019 33.5784C33.0019 41.0596 33.0019 48.5408 33.0019 56.0235V56.6607C34.7481 56.6607 36.4449 56.6651 38.1418 56.652C38.2811 56.652 38.4394 56.5403 38.5569 56.443C42.2395 53.3861 47.481 55.1729 48.529 59.844C48.5479 59.9281 48.5667 60.0138 48.5943 60.1415H49.2548C53.9098 60.1415 58.5635 60.1415 63.2185 60.1415C63.9385 60.1415 64.2985 60.4246 64.3014 60.9892C64.3043 61.474 64.059 61.7774 63.5814 61.8616C63.3884 61.8964 63.1837 61.879 62.9848 61.879C58.4023 61.879 53.8198 61.879 49.2388 61.879H48.5987C48.2517 63.6934 47.3634 65.1508 45.7986 66.1494C44.6969 66.8534 43.4849 67.1568 42.1814 67.0857C39.4206 66.9347 37.403 65.0956 36.5074 61.8805C35.2039 61.8805 33.8859 61.8805 32.5679 61.8805C31.4981 61.8776 31.2644 61.6439 31.2644 60.5712C31.2644 51.5499 31.2644 42.5286 31.2644 33.5073C31.2644 31.6217 32.3066 30.5723 34.1791 30.5723C43.2526 30.5723 52.3262 30.5723 61.3998 30.5723C63.2418 30.5723 64.297 31.6275 64.3014 33.4681C64.3014 34.2243 64.3014 34.9806 64.3014 35.7905H67.7793C67.7793 35.5017 67.7764 35.2375 67.7793 34.9748C67.7981 33.487 68.9303 32.3228 70.3674 32.3127C71.8291 32.3025 72.9743 33.4681 72.9946 34.9893C72.9975 35.2375 72.9946 35.4872 72.9946 35.7905C73.5273 35.7905 74.0122 35.8065 74.4955 35.7876C75.7177 35.7368 76.5698 36.316 77.0009 37.409C77.432 38.4991 77.747 39.6357 78.0895 40.7592C78.644 42.575 79.1724 44.3982 79.7341 46.2126C79.8154 46.4753 79.9765 46.738 80.1667 46.9354C81.0869 47.8847 82.0217 48.8195 82.9681 49.7427C83.2875 50.0548 83.4355 50.393 83.4341 50.8459C83.421 54.1423 83.4283 57.4402 83.4254 60.7367C83.4254 61.5858 83.1336 61.8761 82.283 61.8776C80.9099 61.8805 79.5367 61.8776 78.1752 61.8776H78.1766ZM38.2202 61.0008C38.2202 63.406 40.1594 65.3525 42.5617 65.3554C44.9655 65.3583 46.9091 63.4176 46.912 61.011C46.9149 58.6029 44.9785 56.6622 42.5704 56.6607C40.1623 56.6607 38.2202 58.5956 38.2202 61.0008ZM72.1281 56.6607C69.7214 56.6607 67.7807 58.6014 67.7807 61.0052C67.7807 63.4075 69.7258 65.354 72.1266 65.3554C74.5289 65.3554 76.4711 63.4133 76.4725 61.0066C76.4725 58.5985 74.5362 56.6607 72.1281 56.6607ZM36.5074 60.1154C36.6844 59.5188 36.8441 58.9875 37.0067 58.4418H33.0324V60.1154H36.5074ZM78.1781 60.0965H81.6603V58.4244H77.6802C77.8471 58.9846 78.0053 59.5174 78.1781 60.0965ZM71.2586 35.7659C71.2092 35.1533 71.4691 34.4769 70.7796 34.175C70.5212 34.0618 70.0698 34.1111 69.8404 34.2737C69.3179 34.6467 69.5516 35.2375 69.54 35.7644H71.26L71.2586 35.7659Z" fill="#ED1C24"/>
<path d="M50.3913 41.8769C51.2346 41.8769 52.0257 41.8725 52.8183 41.8769C53.5615 41.8827 53.8648 42.1875 53.8677 42.9394C53.8735 43.9715 53.8735 45.0035 53.8677 46.037C53.8634 46.7787 53.5527 47.085 52.8052 47.0923C52.0272 47.0981 51.2506 47.0923 50.3913 47.0923C50.3913 47.8848 50.3928 48.6541 50.3913 49.4249C50.3884 50.2798 50.1024 50.5672 49.2547 50.5701C48.2401 50.573 47.227 50.5759 46.2123 50.5701C45.4982 50.5658 45.1832 50.2537 45.1774 49.5454C45.1701 48.7514 45.1759 47.9574 45.1759 47.0937C44.3877 47.0937 43.6344 47.0952 42.881 47.0937C41.9825 47.0908 41.701 46.8179 41.6995 45.9397C41.6966 44.9251 41.6937 43.9105 41.701 42.8973C41.7068 42.189 42.0203 41.8827 42.7373 41.8783C43.5299 41.8725 44.3224 41.8783 45.1759 41.8783C45.1759 41.0611 45.173 40.2889 45.1759 39.5152C45.1788 38.6922 45.4662 38.4034 46.2835 38.4005C47.2981 38.3976 48.3112 38.3961 49.3259 38.4005C50.0749 38.4034 50.3855 38.7082 50.3913 39.4485C50.3971 40.241 50.3928 41.0321 50.3928 41.8769H50.3913ZM52.107 43.6158C51.3014 43.6158 50.5437 43.6187 49.7875 43.6158C48.9412 43.6129 48.6553 43.3226 48.6524 42.4706C48.6495 41.7012 48.6524 40.9319 48.6524 40.1655H46.9134C46.9134 40.9639 46.9163 41.7375 46.9134 42.5098C46.9091 43.3168 46.61 43.6115 45.7928 43.6158C45.0221 43.6202 44.2498 43.6158 43.4733 43.6158V45.3548C44.2673 45.3548 45.025 45.3533 45.7827 45.3548C46.6289 45.3577 46.9105 45.6451 46.9134 46.5015C46.9163 47.2708 46.9134 48.0401 46.9134 48.8051H48.6524C48.6524 47.9879 48.648 47.1968 48.6524 46.4057C48.6582 45.6639 48.9659 45.3606 49.7149 45.3548C50.5045 45.349 51.2942 45.3548 52.107 45.3548V43.6158Z" fill="#ED1C24"/>
<path d="M71.1468 47.9603C69.8071 47.9603 68.4673 47.9632 67.1275 47.9603C66.3466 47.9574 66.0418 47.6555 66.0403 46.876C66.0374 44.7031 66.0374 42.5301 66.0403 40.3572C66.0403 39.5704 66.3379 39.2685 67.1159 39.2671C69.1437 39.2627 71.1715 39.2714 73.1993 39.2613C73.7494 39.2584 74.0789 39.4935 74.2357 40.0204C74.8962 42.2369 75.5726 44.4505 76.2287 46.6684C76.4696 47.4828 76.0879 47.956 75.2198 47.9589C73.8627 47.9632 72.504 47.9589 71.1468 47.9589V47.9603ZM67.7996 46.188H74.2633C73.8902 44.9339 73.5346 43.7247 73.1674 42.5185C73.0164 42.0221 72.9743 41.3457 72.6318 41.096C72.2848 40.8434 71.6273 41.0089 71.1047 41.006C70.0088 41.0002 68.9129 41.0046 67.7981 41.0046V46.188H67.7996Z" fill="#ED1C24"/>
<path d="M71.2513 28.8741C71.2513 29.1818 71.2717 29.491 71.247 29.7972C71.2063 30.2908 70.8652 30.5854 70.3804 30.5825C69.8971 30.5796 69.5487 30.2791 69.5284 29.7856C69.5037 29.1527 69.5022 28.517 69.5313 27.8856C69.553 27.4007 69.9232 27.093 70.3978 27.093C70.8754 27.093 71.2092 27.3949 71.247 27.8972C71.2717 28.2209 71.2513 28.5489 71.2513 28.8741Z" fill="#ED1C24"/>
<path d="M67.7894 49.7079C68.0972 49.7079 68.4063 49.6876 68.7126 49.7137C69.2018 49.7544 69.4572 50.0607 69.4993 50.531C69.54 50.9853 69.2105 51.399 68.7387 51.4251C68.0899 51.4614 67.4353 51.4599 66.7864 51.4251C66.3031 51.399 66.0127 51.0158 66.0389 50.5295C66.0665 50.0432 66.3321 49.7558 66.8154 49.7137C67.1391 49.6847 67.4657 49.7079 67.7923 49.7094L67.7894 49.7079Z" fill="#ED1C24"/>
<path d="M66.2493 28.2732C66.3582 28.3588 66.6413 28.4982 66.7966 28.7261C67.1232 29.1993 67.3961 29.7117 67.6646 30.2226C67.9157 30.7002 67.788 31.1371 67.3598 31.394C66.9272 31.6524 66.4743 31.5624 66.1884 31.1095C65.8603 30.5913 65.5512 30.06 65.2768 29.5128C64.9662 28.8959 65.3726 28.2775 66.2493 28.2746V28.2732Z" fill="#ED1C24"/>
<path d="M74.5492 28.2703C75.365 28.2761 75.7961 28.8857 75.5131 29.4663C75.23 30.0484 74.9005 30.6101 74.5478 31.153C74.2749 31.574 73.8264 31.6407 73.4098 31.3896C72.999 31.1429 72.8553 30.7147 73.0875 30.269C73.3793 29.7102 73.6885 29.1572 74.0397 28.6375C74.1733 28.4401 74.4491 28.3385 74.5478 28.2703H74.5492Z" fill="#ED1C24"/>
<path d="M45.1716 61.0052C45.1716 62.4408 43.9712 63.6296 42.5385 63.6151C41.1305 63.602 39.9606 62.4176 39.9591 61.0067C39.9577 59.5711 41.1523 58.3896 42.5922 58.3997C44.006 58.4113 45.173 59.59 45.1716 61.0052ZM43.4312 61.0081C43.4341 60.5291 43.061 60.1503 42.582 60.1416C42.1016 60.1343 41.7155 60.4986 41.701 60.9762C41.685 61.4726 42.0827 61.8791 42.5777 61.8733C43.0509 61.8674 43.4283 61.4842 43.4312 61.0081Z" fill="#ED1C24"/>
<path d="M72.1411 58.3997C73.5564 58.4055 74.7278 59.5783 74.7321 60.9936C74.7365 62.4306 73.5448 63.6238 72.1106 63.6151C70.6809 63.6078 69.5008 62.4001 69.5182 60.9631C69.5356 59.5551 70.723 58.3939 72.1411 58.3997ZM72.1252 61.8732C72.5998 61.8747 72.9816 61.4987 72.9917 61.0212C73.0019 60.5422 72.6347 60.156 72.1556 60.1415C71.6534 60.1256 71.2528 60.5189 71.26 61.0168C71.2673 61.4929 71.6491 61.8703 72.1237 61.8732H72.1252Z" fill="#ED1C24"/>
</g>
<path d="M40.9405 84.093H39.7076C39.6347 83.7384 39.5071 83.4268 39.3248 83.1584C39.1458 82.8899 38.927 82.6645 38.6685 82.4822C38.4133 82.2966 38.1299 82.1574 37.8184 82.0646C37.5068 81.9718 37.182 81.9254 36.844 81.9254C36.2275 81.9254 35.669 82.0812 35.1685 82.3927C34.6714 82.7043 34.2753 83.1633 33.9803 83.7699C33.6886 84.3764 33.5428 85.1205 33.5428 86.0021C33.5428 86.8837 33.6886 87.6278 33.9803 88.2344C34.2753 88.8409 34.6714 89.2999 35.1685 89.6115C35.669 89.923 36.2275 90.0788 36.844 90.0788C37.182 90.0788 37.5068 90.0324 37.8184 89.9396C38.1299 89.8468 38.4133 89.7093 38.6685 89.527C38.927 89.3414 39.1458 89.1143 39.3248 88.8459C39.5071 88.5741 39.6347 88.2625 39.7076 87.9112H40.9405C40.8477 88.4316 40.6787 88.8972 40.4334 89.3082C40.1882 89.7192 39.8832 90.0689 39.5187 90.3572C39.1541 90.6423 38.7448 90.8594 38.2907 91.0085C37.8399 91.1576 37.3577 91.2322 36.844 91.2322C35.9756 91.2322 35.2033 91.0201 34.5272 90.5959C33.8511 90.1716 33.3191 89.5684 32.9313 88.7862C32.5435 88.004 32.3496 87.076 32.3496 86.0021C32.3496 84.9282 32.5435 84.0002 32.9313 83.218C33.3191 82.4358 33.8511 81.8326 34.5272 81.4084C35.2033 80.9841 35.9756 80.772 36.844 80.772C37.3577 80.772 37.8399 80.8466 38.2907 80.9957C38.7448 81.1449 39.1541 81.3636 39.5187 81.652C39.8832 81.937 40.1882 82.285 40.4334 82.696C40.6787 83.1037 40.8477 83.5693 40.9405 84.093ZM45.021 91.272C44.5371 91.272 44.0979 91.1808 43.7035 90.9986C43.3091 90.813 42.9959 90.5461 42.7639 90.1981C42.5319 89.8468 42.4159 89.4226 42.4159 88.9254C42.4159 88.4879 42.502 88.1333 42.6744 87.8615C42.8467 87.5864 43.0771 87.371 43.3654 87.2152C43.6538 87.0594 43.972 86.9434 44.32 86.8672C44.6713 86.7876 45.0243 86.7246 45.3789 86.6782C45.8429 86.6186 46.2191 86.5738 46.5075 86.544C46.7991 86.5109 47.0113 86.4562 47.1438 86.3799C47.2797 86.3037 47.3477 86.1711 47.3477 85.9822V85.9424C47.3477 85.4519 47.2134 85.0708 46.945 84.799C46.6798 84.5272 46.2771 84.3913 45.7369 84.3913C45.1768 84.3913 44.7376 84.5139 44.4194 84.7592C44.1012 85.0045 43.8775 85.2663 43.7482 85.5447L42.6346 85.147C42.8335 84.683 43.0986 84.3217 43.4301 84.0632C43.7648 83.8014 44.1294 83.6191 44.5238 83.5163C44.9215 83.4103 45.3126 83.3572 45.6971 83.3572C45.9424 83.3572 46.2241 83.3871 46.5423 83.4467C46.8638 83.5031 47.1737 83.6207 47.472 83.7997C47.7736 83.9787 48.0238 84.2488 48.2227 84.6101C48.4215 84.9713 48.521 85.4552 48.521 86.0618V91.093H47.3477V90.0589H47.288C47.2085 90.2246 47.0759 90.402 46.8903 90.5909C46.7047 90.7798 46.4578 90.9406 46.1495 91.0731C45.8413 91.2057 45.4651 91.272 45.021 91.272ZM45.2 90.218C45.664 90.218 46.0551 90.1269 46.3732 89.9446C46.6947 89.7623 46.9367 89.527 47.0991 89.2386C47.2648 88.9503 47.3477 88.647 47.3477 88.3288V87.2549C47.298 87.3146 47.1886 87.3693 47.0196 87.419C46.8538 87.4654 46.6616 87.5068 46.4428 87.5433C46.2274 87.5764 46.0169 87.6063 45.8115 87.6328C45.6093 87.656 45.4452 87.6759 45.3193 87.6924C45.0143 87.7322 44.7293 87.7969 44.4642 87.8863C44.2023 87.9725 43.9902 88.1034 43.8278 88.2791C43.6687 88.4514 43.5892 88.6868 43.5892 88.9851C43.5892 89.3927 43.74 89.701 44.0416 89.9098C44.3465 90.1153 44.7326 90.218 45.2 90.218ZM51.8358 80.9112V91.093H50.6625V80.9112H51.8358ZM55.158 80.9112V91.093H53.9848V80.9112H55.158ZM63.4917 91.272C63.0078 91.272 62.5686 91.1808 62.1742 90.9986C61.7798 90.813 61.4666 90.5461 61.2346 90.1981C61.0026 89.8468 60.8866 89.4226 60.8866 88.9254C60.8866 88.4879 60.9727 88.1333 61.1451 87.8615C61.3174 87.5864 61.5478 87.371 61.8361 87.2152C62.1245 87.0594 62.4427 86.9434 62.7907 86.8672C63.142 86.7876 63.495 86.7246 63.8496 86.6782C64.3136 86.6186 64.6898 86.5738 64.9782 86.544C65.2698 86.5109 65.482 86.4562 65.6145 86.3799C65.7504 86.3037 65.8184 86.1711 65.8184 85.9822V85.9424C65.8184 85.4519 65.6841 85.0708 65.4157 84.799C65.1505 84.5272 64.7478 84.3913 64.2076 84.3913C63.6475 84.3913 63.2083 84.5139 62.8901 84.7592C62.5719 85.0045 62.3482 85.2663 62.2189 85.5447L61.1053 85.147C61.3042 84.683 61.5693 84.3217 61.9008 84.0632C62.2355 83.8014 62.6001 83.6191 62.9945 83.5163C63.3922 83.4103 63.7833 83.3572 64.1678 83.3572C64.4131 83.3572 64.6948 83.3871 65.013 83.4467C65.3345 83.5031 65.6444 83.6207 65.9427 83.7997C66.2443 83.9787 66.4945 84.2488 66.6934 84.6101C66.8922 84.9713 66.9917 85.4552 66.9917 86.0618V91.093H65.8184V90.0589H65.7587C65.6792 90.2246 65.5466 90.402 65.361 90.5909C65.1754 90.7798 64.9285 90.9406 64.6202 91.0731C64.312 91.2057 63.9358 91.272 63.4917 91.272ZM63.6707 90.218C64.1347 90.218 64.5258 90.1269 64.844 89.9446C65.1654 89.7623 65.4074 89.527 65.5698 89.2386C65.7355 88.9503 65.8184 88.647 65.8184 88.3288V87.2549C65.7687 87.3146 65.6593 87.3693 65.4903 87.419C65.3245 87.4654 65.1323 87.5068 64.9136 87.5433C64.6981 87.5764 64.4877 87.6063 64.2822 87.6328C64.08 87.656 63.9159 87.6759 63.79 87.6924C63.485 87.7322 63.2 87.7969 62.9349 87.8863C62.673 87.9725 62.4609 88.1034 62.2985 88.2791C62.1394 88.4514 62.0599 88.6868 62.0599 88.9851C62.0599 89.3927 62.2107 89.701 62.5123 89.9098C62.8172 90.1153 63.2033 90.218 63.6707 90.218ZM70.3065 86.4993V91.093H69.1332V83.4567H70.2667V84.6498H70.3661C70.5451 84.2621 70.8169 83.9505 71.1815 83.7152C71.5461 83.4765 72.0167 83.3572 72.5934 83.3572C73.1105 83.3572 73.5629 83.4633 73.9507 83.6754C74.3384 83.8842 74.6401 84.2024 74.8555 84.6299C75.0709 85.0542 75.1786 85.5911 75.1786 86.2407V91.093H74.0053V86.3203C74.0053 85.7204 73.8496 85.2531 73.538 84.9183C73.2265 84.5802 72.7989 84.4112 72.2553 84.4112C71.8808 84.4112 71.5461 84.4924 71.2511 84.6548C70.9594 84.8172 70.7291 85.0542 70.56 85.3657C70.391 85.6773 70.3065 86.0551 70.3065 86.4993ZM81.8368 91.093H80.5442L84.2829 80.9112H85.5556L89.2942 91.093H88.0016L84.959 82.522H84.8795L81.8368 91.093ZM82.3141 87.1157H87.5243V88.2095H82.3141V87.1157ZM90.7211 91.093V83.4567H91.8546V84.6498H91.954C92.1131 84.2422 92.37 83.9256 92.7246 83.7003C93.0793 83.4716 93.5052 83.3572 94.0023 83.3572C94.5061 83.3572 94.9254 83.4716 95.2601 83.7003C95.5982 83.9256 95.8617 84.2422 96.0506 84.6498H96.1302C96.3257 84.2554 96.619 83.9422 97.0101 83.7102C97.4012 83.4749 97.8702 83.3572 98.4171 83.3572C99.0999 83.3572 99.6583 83.571 100.093 83.9986C100.527 84.4228 100.744 85.084 100.744 85.9822V91.093H99.5705V85.9822C99.5705 85.4188 99.4164 85.0161 99.1082 84.7741C98.7999 84.5322 98.437 84.4112 98.0194 84.4112C97.4824 84.4112 97.0665 84.5736 96.7715 84.8984C96.4765 85.2199 96.329 85.6276 96.329 86.1214V91.093H95.1359V85.8629C95.1359 85.4287 94.995 85.079 94.7133 84.8139C94.4315 84.5454 94.0686 84.4112 93.6245 84.4112C93.3196 84.4112 93.0345 84.4924 92.7694 84.6548C92.5075 84.8172 92.2954 85.0426 92.133 85.3309C91.9739 85.616 91.8944 85.9458 91.8944 86.3203V91.093H90.7211ZM103.048 91.093V80.9112H104.221V84.6697H104.321C104.407 84.5371 104.526 84.3681 104.679 84.1626C104.835 83.9538 105.057 83.7682 105.345 83.6058C105.637 83.4401 106.031 83.3572 106.528 83.3572C107.171 83.3572 107.738 83.518 108.229 83.8395C108.719 84.161 109.102 84.6167 109.377 85.2067C109.652 85.7966 109.79 86.4926 109.79 87.2947C109.79 88.1034 109.652 88.8044 109.377 89.3977C109.102 89.9877 108.721 90.4451 108.234 90.7699C107.746 91.0914 107.185 91.2521 106.548 91.2521C106.058 91.2521 105.665 91.1709 105.37 91.0085C105.075 90.8428 104.848 90.6555 104.689 90.4467C104.53 90.2346 104.407 90.0589 104.321 89.9197H104.182V91.093H103.048ZM104.202 87.2748C104.202 87.8515 104.286 88.3603 104.455 88.8011C104.624 89.2386 104.871 89.5817 105.196 89.8302C105.521 90.0755 105.918 90.1981 106.389 90.1981C106.88 90.1981 107.289 90.0689 107.617 89.8103C107.948 89.5485 108.197 89.1972 108.363 88.7564C108.532 88.3122 108.616 87.8184 108.616 87.2748C108.616 86.7379 108.533 86.254 108.368 85.8231C108.205 85.3889 107.958 85.0459 107.627 84.794C107.299 84.5388 106.886 84.4112 106.389 84.4112C105.912 84.4112 105.511 84.5322 105.186 84.7741C104.861 85.0128 104.616 85.3475 104.45 85.7784C104.284 86.2059 104.202 86.7048 104.202 87.2748ZM116.397 87.9709V83.4567H117.57V91.093H116.397V89.8004H116.317C116.138 90.1882 115.86 90.518 115.482 90.7898C115.104 91.0582 114.627 91.1924 114.05 91.1924C113.573 91.1924 113.149 91.088 112.778 90.8792C112.406 90.6671 112.115 90.3489 111.903 89.9247C111.69 89.4971 111.584 88.9585 111.584 88.3089V83.4567H112.758V88.2294C112.758 88.7862 112.913 89.2303 113.225 89.5618C113.54 89.8932 113.941 90.0589 114.428 90.0589C114.72 90.0589 115.016 89.9844 115.318 89.8352C115.623 89.6861 115.878 89.4574 116.084 89.1491C116.292 88.8409 116.397 88.4481 116.397 87.9709ZM120.892 80.9112V91.093H119.719V80.9112H120.892ZM125.289 91.272C124.805 91.272 124.365 91.1808 123.971 90.9986C123.577 90.813 123.263 90.5461 123.031 90.1981C122.799 89.8468 122.683 89.4226 122.683 88.9254C122.683 88.4879 122.77 88.1333 122.942 87.8615C123.114 87.5864 123.345 87.371 123.633 87.2152C123.921 87.0594 124.24 86.9434 124.588 86.8672C124.939 86.7876 125.292 86.7246 125.647 86.6782C126.111 86.6186 126.487 86.5738 126.775 86.544C127.067 86.5109 127.279 86.4562 127.411 86.3799C127.547 86.3037 127.615 86.1711 127.615 85.9822V85.9424C127.615 85.4519 127.481 85.0708 127.213 84.799C126.947 84.5272 126.545 84.3913 126.004 84.3913C125.444 84.3913 125.005 84.5139 124.687 84.7592C124.369 85.0045 124.145 85.2663 124.016 85.5447L122.902 85.147C123.101 84.683 123.366 84.3217 123.698 84.0632C124.032 83.8014 124.397 83.6191 124.791 83.5163C125.189 83.4103 125.58 83.3572 125.965 83.3572C126.21 83.3572 126.492 83.3871 126.81 83.4467C127.131 83.5031 127.441 83.6207 127.74 83.7997C128.041 83.9787 128.291 84.2488 128.49 84.6101C128.689 84.9713 128.789 85.4552 128.789 86.0618V91.093H127.615V90.0589H127.556C127.476 90.2246 127.343 90.402 127.158 90.5909C126.972 90.7798 126.725 90.9406 126.417 91.0731C126.109 91.2057 125.733 91.272 125.289 91.272ZM125.468 90.218C125.932 90.218 126.323 90.1269 126.641 89.9446C126.962 89.7623 127.204 89.527 127.367 89.2386C127.532 88.9503 127.615 88.647 127.615 88.3288V87.2549C127.566 87.3146 127.456 87.3693 127.287 87.419C127.121 87.4654 126.929 87.5068 126.71 87.5433C126.495 87.5764 126.285 87.6063 126.079 87.6328C125.877 87.656 125.713 87.6759 125.587 87.6924C125.282 87.7322 124.997 87.7969 124.732 87.8863C124.47 87.9725 124.258 88.1034 124.095 88.2791C123.936 88.4514 123.857 88.6868 123.857 88.9851C123.857 89.3927 124.008 89.701 124.309 89.9098C124.614 90.1153 125 90.218 125.468 90.218ZM132.103 86.4993V91.093H130.93V83.4567H132.064V84.6498H132.163C132.342 84.2621 132.614 83.9505 132.978 83.7152C133.343 83.4765 133.814 83.3572 134.39 83.3572C134.907 83.3572 135.36 83.4633 135.748 83.6754C136.135 83.8842 136.437 84.2024 136.652 84.6299C136.868 85.0542 136.976 85.5911 136.976 86.2407V91.093H135.802V86.3203C135.802 85.7204 135.646 85.2531 135.335 84.9183C135.023 84.5802 134.596 84.4112 134.052 84.4112C133.678 84.4112 133.343 84.4924 133.048 84.6548C132.756 84.8172 132.526 85.0542 132.357 85.3657C132.188 85.6773 132.103 86.0551 132.103 86.4993ZM142.222 91.2521C141.506 91.2521 140.889 91.0831 140.372 90.745C139.855 90.4069 139.458 89.9413 139.179 89.348C138.901 88.7547 138.762 88.0769 138.762 87.3146C138.762 86.539 138.904 85.8546 139.189 85.2613C139.477 84.6648 139.879 84.1991 140.392 83.8643C140.909 83.5263 141.513 83.3572 142.202 83.3572C142.739 83.3572 143.223 83.4567 143.654 83.6555C144.084 83.8544 144.437 84.1328 144.713 84.4907C144.988 84.8487 145.158 85.2663 145.225 85.7436H144.051C143.962 85.3956 143.763 85.0873 143.455 84.8189C143.15 84.5471 142.739 84.4112 142.222 84.4112C141.764 84.4112 141.363 84.5305 141.019 84.7692C140.677 85.0045 140.41 85.3376 140.218 85.7684C140.029 86.196 139.935 86.6981 139.935 87.2748C139.935 87.8648 140.028 88.3785 140.213 88.816C140.402 89.2535 140.667 89.5933 141.009 89.8352C141.353 90.0772 141.758 90.1981 142.222 90.1981C142.527 90.1981 142.803 90.1451 143.052 90.039C143.301 89.933 143.511 89.7805 143.683 89.5817C143.856 89.3828 143.978 89.1442 144.051 88.8657H145.225C145.158 89.3165 144.994 89.7225 144.732 90.0838C144.474 90.4417 144.131 90.7268 143.703 90.9389C143.279 91.1477 142.785 91.2521 142.222 91.2521ZM150.142 91.2521C149.406 91.2521 148.771 91.0897 148.237 90.7649C147.707 90.4368 147.298 89.9794 147.009 89.3927C146.724 88.8028 146.582 88.1167 146.582 87.3345C146.582 86.5523 146.724 85.8629 147.009 85.2663C147.298 84.6664 147.699 84.1991 148.213 83.8643C148.73 83.5263 149.333 83.3572 150.022 83.3572C150.42 83.3572 150.813 83.4235 151.2 83.5561C151.588 83.6887 151.941 83.9041 152.259 84.2024C152.578 84.4974 152.831 84.8885 153.02 85.3757C153.209 85.8629 153.303 86.4628 153.303 87.1754V87.6726H147.417V86.6584H152.11C152.11 86.2275 152.024 85.843 151.852 85.5049C151.683 85.1669 151.441 84.9001 151.126 84.7045C150.814 84.509 150.446 84.4112 150.022 84.4112C149.555 84.4112 149.151 84.5272 148.809 84.7592C148.471 84.9879 148.211 85.2862 148.029 85.6541C147.846 86.022 147.755 86.4164 147.755 86.8373V87.5135C147.755 88.0902 147.855 88.579 148.053 88.9801C148.256 89.3778 148.536 89.6811 148.894 89.8899C149.252 90.0954 149.668 90.1981 150.142 90.1981C150.45 90.1981 150.728 90.155 150.977 90.0689C151.229 89.9794 151.446 89.8468 151.628 89.6711C151.81 89.4922 151.951 89.2701 152.051 89.0049L153.184 89.3231C153.065 89.7076 152.864 90.0457 152.583 90.3373C152.301 90.6257 151.953 90.8511 151.539 91.0135C151.124 91.1726 150.659 91.2521 150.142 91.2521Z" fill="black"/>
</g>
<defs>
<filter id="filter0_d_712_11160" x="0.153809" y="0.538818" width="302.623" height="128.788" filterUnits="userSpaceOnUse" color-interpolation-filters="sRGB">
<feFlood flood-opacity="0" result="BackgroundImageFix"/>
<feColorMatrix in="SourceAlpha" type="matrix" values="0 0 0 0 0 0 0 0 0 0 0 0 0 0 0 0 0 0 127 0" result="hardAlpha"/>
<feOffset dy="4"/>
<feGaussianBlur stdDeviation="7"/>
<feComposite in2="hardAlpha" operator="out"/>
<feColorMatrix type="matrix" values="0 0 0 0 0 0 0 0 0 0 0 0 0 0 0 0 0 0 0.25 0"/>
<feBlend mode="normal" in2="BackgroundImageFix" result="effect1_dropShadow_712_11160"/>
<feBlend mode="normal" in="SourceGraphic" in2="effect1_dropShadow_712_11160" result="shape"/>
</filter>
<clipPath id="clip0_712_11160">
<rect x="14.1538" y="10.5388" width="274.623" height="100.788" rx="10" fill="white"/>
</clipPath>
<clipPath id="clip1_712_11160">
<rect width="87" height="53" fill="white" transform="translate(188.154 23.9517)"/>
</clipPath>
<clipPath id="clip2_712_11160">
<rect width="52.1711" height="40" fill="white" transform="translate(31.2644 27.093)"/>
</clipPath>
</defs>
</svg>
