<svg width="16" height="14" viewBox="0 0 16 14" fill="none" xmlns="http://www.w3.org/2000/svg">
<path d="M15.8437 2.30978C15.3951 2.96603 14.8527 3.52518 14.2165 3.98723C14.2232 4.08098 14.2265 4.22161 14.2265 4.40911C14.2265 5.27965 14.0993 6.15018 13.8448 7.02072C13.5904 7.88456 13.202 8.71491 12.6797 9.51179C12.164 10.3087 11.548 11.0151 10.8315 11.6312C10.1149 12.2406 9.2511 12.7294 8.23994 13.0977C7.22878 13.4593 6.1473 13.6401 4.99552 13.6401C3.18079 13.6401 1.52007 13.1546 0.0133754 12.1837C0.24775 12.2104 0.508911 12.2238 0.796858 12.2238C2.30355 12.2238 3.64619 11.7618 4.82476 10.8377C4.12163 10.8243 3.49217 10.61 2.93637 10.1948C2.38056 9.77295 1.99887 9.23723 1.79128 8.58768C2.01226 8.62116 2.2165 8.6379 2.404 8.6379C2.69195 8.6379 2.97655 8.60107 3.2578 8.52741C2.5078 8.3734 1.88503 8.00174 1.38949 7.41246C0.900652 6.81648 0.656233 6.12674 0.656233 5.34326V5.30308C1.11159 5.55755 1.60043 5.69482 2.12275 5.71491C1.68079 5.42027 1.32922 5.03523 1.06806 4.55978C0.806902 4.08433 0.676322 3.56871 0.676322 3.0129C0.676322 2.42362 0.823643 1.87786 1.11829 1.37563C1.92855 2.3734 2.91293 3.17362 4.07141 3.7763C5.23659 4.37228 6.48213 4.70375 7.80802 4.77072C7.75445 4.51625 7.72766 4.26848 7.72766 4.02741C7.72766 3.13009 8.04239 2.3667 8.67186 1.73723C9.30802 1.10107 10.0748 0.782994 10.9721 0.782994C11.9096 0.782994 12.6998 1.12451 13.3426 1.80755C14.0725 1.66692 14.7589 1.40576 15.4018 1.02407C15.154 1.79415 14.6786 2.39014 13.9754 2.81201C14.5982 2.74505 15.221 2.57764 15.8437 2.30978Z" fill="white"/>
</svg>
