<svg width="72" height="26" viewBox="0 0 72 26" fill="none" xmlns="http://www.w3.org/2000/svg">
<path fill-rule="evenodd" clip-rule="evenodd" d="M18.1427 25.7676H12.0125L7.41561 6.37329C7.19742 5.48115 6.73415 4.69245 6.05268 4.32073C4.35201 3.38657 2.47799 2.64312 0.433594 2.26816V1.52148H10.3088C11.6718 1.52148 12.694 2.64312 12.8643 3.94577L15.2495 17.9355L21.3767 1.52148H27.3365L18.1427 25.7676ZM30.7445 25.7676H24.9551L29.7223 1.52148H35.5118L30.7445 25.7676ZM43.0016 8.23898C43.1719 6.9331 44.1941 6.18642 45.3867 6.18642C47.2607 5.99894 49.3021 6.3739 51.0058 7.30482L52.028 2.08453C50.3243 1.33785 48.4503 0.962891 46.7496 0.962891C41.1305 0.962891 37.0418 4.32134 37.0418 8.98243C37.0418 12.5284 39.938 14.3902 41.9824 15.5118C44.1941 16.6302 45.046 17.3769 44.8756 18.4953C44.8756 20.1729 43.1719 20.9196 41.4713 20.9196C39.4269 20.9196 37.3825 20.3604 35.5115 19.4263L34.4893 24.6498C36.5336 25.5807 38.7454 25.9557 40.7898 25.9557C47.0904 26.1399 51.0058 22.7847 51.0058 17.7486C51.0058 11.4067 43.0016 11.035 43.0016 8.23898ZM71.2669 25.7676L66.67 1.52148H61.7324C60.7102 1.52148 59.688 2.26816 59.3473 3.38657L50.835 25.7676H56.7948L57.9844 22.2249H65.3071L65.9886 25.7676H71.2669ZM62.5842 8.05273L64.2848 17.1907H59.5176L62.5842 8.05273Z" fill="#172B85"/>
</svg>
