<svg width="41" height="41" viewBox="0 0 41 41" fill="none" xmlns="http://www.w3.org/2000/svg">
<path d="M20.4668 28.7365V25.6032C20.4668 22.6162 20.4668 21.1227 19.8855 19.9819C19.3742 18.9783 18.5583 18.1624 17.5547 17.6511C16.4139 17.0698 14.9204 17.0698 11.9335 17.0698H5.4668" stroke="#253E96" stroke-width="2" stroke-linecap="round" stroke-linejoin="round"/>
<path d="M22.1334 10.4033V10.4033C22.1334 7.6419 24.372 5.40332 27.1334 5.40332H30.4668" stroke="#253E96" stroke-width="2" stroke-linecap="round" stroke-linejoin="round"/>
<path d="M10.4668 12.07V8.73665C10.4668 6.8957 11.9592 5.40332 13.8001 5.40332V5.40332C15.6411 5.40332 17.1335 6.8957 17.1335 8.73665V8.73665C17.1335 9.65713 17.8797 10.4033 18.8001 10.4033H25.4668C28.2652 10.4033 29.6644 10.4033 30.7471 10.9154C31.8625 11.4429 32.7605 12.3409 33.2881 13.4564C33.8001 14.539 33.8001 15.9382 33.8001 18.7367V19.8478C33.8001 24.4009 33.8001 26.6775 33.1165 28.494C32.0344 31.3688 29.7656 33.6376 26.8908 34.7197C25.0743 35.4033 22.7977 35.4033 18.2446 35.4033V35.4033C15.968 35.4033 14.8297 35.4033 13.9215 35.0615C12.4841 34.5205 11.3496 33.3861 10.8086 31.9486C10.4668 31.0404 10.4668 29.9021 10.4668 27.6256V22.07" stroke="#253E96" stroke-width="2" stroke-linecap="round" stroke-linejoin="round"/>
<path d="M12.1334 17.0698H20.4668C21.7058 17.0698 22.3254 17.0698 22.8406 17.1723C24.9563 17.5931 26.6101 19.247 27.0309 21.3627C27.1334 21.8779 27.1334 22.4974 27.1334 23.7365V23.7365" stroke="#253E96" stroke-width="2" stroke-linecap="round" stroke-linejoin="round"/>
</svg>
