<svg width="41" height="41" viewBox="0 0 41 41" fill="none" xmlns="http://www.w3.org/2000/svg">
<path d="M17.1926 8.79571L17.7322 9.33523C18.5228 10.1258 18.9181 10.5211 19.3508 10.7205C20.059 11.0468 20.8745 11.0468 21.5827 10.7205C22.0155 10.5211 22.4108 10.1258 23.2013 9.33523L23.7409 8.79571L23.7409 8.7957C23.9018 8.63475 23.9823 8.55427 24.0631 8.47988C24.9921 7.62439 26.1945 7.12633 27.4564 7.07434C27.5661 7.06982 27.6799 7.06982 27.9075 7.06982C28.4268 7.06982 28.6865 7.06982 28.9055 7.0879C31.5047 7.30243 33.5675 9.36524 33.782 11.9644C33.8001 12.1834 33.8001 12.4431 33.8001 12.9624V16.3795C33.8001 16.5248 33.8001 16.5975 33.7983 16.6675C33.7636 17.9846 33.2427 19.2423 32.3358 20.1982C32.2876 20.249 32.2362 20.3004 32.1334 20.4032C32.0307 20.5059 31.9793 20.5573 31.931 20.6082C31.0242 21.564 30.5032 22.8217 30.4686 24.1388C30.4668 24.2089 30.4668 24.2815 30.4668 24.4268V32.313C30.4668 34.0196 29.0832 35.4032 27.3766 35.4032C26.2061 35.4032 25.1361 34.7418 24.6127 33.6949L22.3749 29.2194C21.7607 27.9911 21.4537 27.3769 21.0381 27.1799C20.6765 27.0084 20.257 27.0084 19.8954 27.1799C19.4799 27.3769 19.1728 27.9911 18.5586 29.2194L16.3209 33.6949C15.7974 34.7418 14.7274 35.4032 13.5569 35.4032C11.8503 35.4032 10.4668 34.0196 10.4668 32.313V24.4268C10.4668 24.2815 10.4668 24.2089 10.4649 24.1388C10.4303 22.8217 9.90933 21.564 9.00248 20.6082C8.95423 20.5573 8.90285 20.5059 8.80009 20.4032C8.69733 20.3004 8.64595 20.249 8.5977 20.1982C7.69084 19.2423 7.1699 17.9846 7.13527 16.6675C7.13342 16.5975 7.13342 16.5248 7.13342 16.3795V12.9624C7.13342 12.4431 7.13342 12.1834 7.1515 11.9644C7.36603 9.36524 9.42884 7.30243 12.028 7.0879C12.247 7.06982 12.5067 7.06982 13.026 7.06982C13.2536 7.06982 13.3674 7.06982 13.4772 7.07434C14.739 7.12633 15.9414 7.62439 16.8704 8.47988C16.9512 8.55427 17.0317 8.63475 17.1926 8.79571Z" stroke="#253E96" stroke-width="2" stroke-linecap="round" stroke-linejoin="round"/>
<circle cx="20.4668" cy="18.7365" r="1.66667" fill="#253E96"/>
<circle cx="13.8001" cy="15.4035" r="1.66667" fill="#253E96"/>
<circle cx="27.1335" cy="15.4035" r="1.66667" fill="#253E96"/>
</svg>
