<svg width="41" height="41" viewBox="0 0 41 41" fill="none" xmlns="http://www.w3.org/2000/svg">
<path d="M29.0668 7.06982H28.5334C26.2932 7.06982 25.1731 7.06982 24.3175 7.5058C23.5648 7.88929 22.9529 8.50121 22.5694 9.25386C22.1334 10.1095 22.1334 11.2296 22.1334 13.4698V20.4032C22.1334 21.3325 22.1334 21.7971 22.0566 22.1835C21.7409 23.7703 20.5005 25.0107 18.9138 25.3263C18.5274 25.4032 18.0627 25.4032 17.1334 25.4032C16.2041 25.4032 15.7395 25.4032 15.3531 25.48C13.7663 25.7956 12.5259 27.036 12.2103 28.6228C12.1334 29.0092 12.1334 29.4738 12.1334 30.4032C12.1334 31.3325 12.1334 31.7971 12.2103 32.1835C12.5259 33.7703 13.7663 35.0107 15.3531 35.3263C15.7395 35.4032 16.2041 35.4032 17.1334 35.4032H18.4971C24.3795 35.4032 27.3207 35.4032 29.5747 34.2749C31.6355 33.2433 33.3069 31.5719 34.3385 29.5111C35.4668 27.2571 35.4668 24.3159 35.4668 18.4335V13.4698C35.4668 11.2296 35.4668 10.1095 35.0308 9.25386C34.6473 8.50121 34.0354 7.88929 33.2827 7.5058C32.4271 7.06982 31.307 7.06982 29.0668 7.06982Z" stroke="#253E96" stroke-width="2" stroke-linecap="round" stroke-linejoin="round"/>
<path d="M13.8002 5.40332V7.33665C13.8002 9.57686 13.8002 10.697 14.2361 11.5526C14.6196 12.3053 15.2316 12.9172 15.9842 13.3007C16.8399 13.7367 17.96 13.7367 20.2002 13.7367H22.1335" stroke="#253E96" stroke-width="2" stroke-linecap="round" stroke-linejoin="round"/>
<path d="M5.4668 35.4033V35.4033C5.4668 34.474 5.4668 34.0094 5.54366 33.623C5.85928 32.0362 7.09967 30.7958 8.68644 30.4802C9.07283 30.4033 9.53749 30.4033 10.4668 30.4033H12.1335" stroke="#253E96" stroke-width="2" stroke-linecap="round" stroke-linejoin="round"/>
</svg>
