<svg width="41" height="41" viewBox="0 0 41 41" fill="none" xmlns="http://www.w3.org/2000/svg">
<path d="M23.8002 19.4802V14.5701C23.8002 14.1059 23.8002 13.8737 23.8146 13.6778C24.0091 11.0417 26.105 8.94572 28.7412 8.75127C28.9371 8.73682 29.1692 8.73682 29.6335 8.73682H30.2462C33.1295 8.73682 35.4668 11.0742 35.4668 13.9575C35.4668 14.9037 35.2097 15.8321 34.7229 16.6434L31.7068 21.6702C30.9375 22.9523 29.552 23.7368 28.0568 23.7368C25.7059 23.7368 23.8002 21.8311 23.8002 19.4802Z" stroke="#253E96" stroke-width="2" stroke-linecap="round" stroke-linejoin="round"/>
<path d="M19.5005 27.8604L13.3481 31.3761C12.5521 31.8309 11.6513 32.0701 10.7345 32.0701C7.82525 32.0701 5.4668 29.7117 5.4668 26.8024V17.2702C5.4668 14.2832 5.4668 12.7897 6.0481 11.6489C6.55942 10.6453 7.37532 9.82944 8.37885 9.31811C9.51971 8.73682 11.0132 8.73682 14.0001 8.73682H15.2668C18.2537 8.73682 19.7472 8.73682 20.8881 9.31811C21.8916 9.82944 22.7075 10.6453 23.2188 11.6489C23.8001 12.7897 23.8001 14.2832 23.8001 17.2702V20.4514C23.8001 22.255 23.8001 23.1568 23.5369 23.9633C23.304 24.6769 22.9231 25.3332 22.4191 25.8895C21.8495 26.5181 21.0665 26.9656 19.5005 27.8604Z" stroke="#253E96" stroke-width="2" stroke-linecap="round" stroke-linejoin="round"/>
<path d="M23.8002 35.4035L23.8002 25.4035C23.8002 22.6421 21.5616 20.4035 18.8002 20.4035V20.4035C16.0387 20.4035 13.8002 18.1649 13.8002 15.4035V13.7368" stroke="#253E96" stroke-width="2" stroke-linecap="round" stroke-linejoin="round"/>
<path d="M23.8002 35.4033L23.8002 22.07C23.8002 20.8309 23.8002 20.2114 23.9026 19.6962C24.3235 17.5805 25.9773 15.9266 28.093 15.5058C28.6082 15.4033 29.2278 15.4033 30.4668 15.4033V15.4033" stroke="#253E96" stroke-width="2" stroke-linecap="round" stroke-linejoin="round"/>
</svg>
