<svg width="41" height="41" viewBox="0 0 41 41" fill="none" xmlns="http://www.w3.org/2000/svg">
<path d="M17.1335 14.1533V27.9033C17.1335 29.6108 17.1335 30.4645 16.8772 31.1456C16.4714 32.2237 15.6206 33.0745 14.5425 33.4803C13.8614 33.7366 13.0076 33.7366 11.3002 33.7366C9.59278 33.7366 8.73906 33.7366 8.05788 33.4803C6.97982 33.0745 6.12901 32.2237 5.72326 31.1456C5.46688 30.4645 5.46688 29.6108 5.46688 27.9033V18.6033C5.46688 17.43 5.46688 16.8433 5.62066 16.3049C5.75687 15.828 5.98058 15.3805 6.28038 14.9854C6.61889 14.5393 7.08822 14.1873 8.02688 13.4833L11.1335 11.1533C11.7827 10.6665 12.5722 10.4033 13.3835 10.4033C15.4546 10.4033 17.1335 12.0823 17.1335 14.1533Z" stroke="#253E96" stroke-width="2" stroke-linecap="round" stroke-linejoin="round"/>
<path d="M23.8 15.1174V27.9033C23.8 29.6108 23.8 30.4645 24.0564 31.1456C24.4622 32.2237 25.313 33.0745 26.3911 33.4803C27.0722 33.7366 27.9259 33.7366 29.6334 33.7366C31.3408 33.7366 32.1945 33.7366 32.8757 33.4803C33.9538 33.0745 34.8046 32.2237 35.2103 31.1456C35.4667 30.4645 35.4667 29.6108 35.4667 27.9033V18.0543C35.4667 17.0759 35.4667 16.5867 35.3562 16.1264C35.2582 15.7182 35.0966 15.3281 34.8773 14.9702C34.6299 14.5665 34.284 14.2206 33.5922 13.5288L33.5922 13.5288L31.8474 11.784C31.6419 11.5785 31.5391 11.4757 31.4332 11.3837C30.7781 10.8146 29.9557 10.4739 29.09 10.4131C28.9501 10.4033 28.8048 10.4033 28.5141 10.4033C27.8508 10.4033 27.5192 10.4033 27.2411 10.4426C25.4758 10.6917 24.0884 12.079 23.8393 13.8443C23.8 14.1225 23.8 14.4541 23.8 15.1174Z" stroke="#253E96" stroke-width="2" stroke-linecap="round" stroke-linejoin="round"/>
<path d="M20.4668 3.73682V13.7368C20.4668 14.6661 20.4668 15.1308 20.5437 15.5172C20.8593 17.1039 22.0997 18.3443 23.6864 18.66C24.0728 18.7368 24.5375 18.7368 25.4668 18.7368V18.7368C26.3961 18.7368 26.8608 18.7368 27.2472 18.8137C28.8339 19.1293 30.0743 20.3697 30.3899 21.9565C30.4668 22.3428 30.4668 22.8075 30.4668 23.7368V24.5701" stroke="#253E96" stroke-width="2" stroke-linecap="round" stroke-linejoin="round"/>
<path d="M20.4668 3.73682V13.7368C20.4668 14.6661 20.4668 15.1308 20.3899 15.5172C20.0743 17.1039 18.8339 18.3443 17.2472 18.66C16.8608 18.7368 16.3961 18.7368 15.4668 18.7368V18.7368C14.5375 18.7368 14.0728 18.7368 13.6864 18.8137C12.0997 19.1293 10.8593 20.3697 10.5437 21.9565C10.4668 22.3428 10.4668 22.8075 10.4668 23.7368V24.5701" stroke="#253E96" stroke-width="2" stroke-linecap="round" stroke-linejoin="round"/>
</svg>
