<svg width="41" height="41" viewBox="0 0 41 41" fill="none" xmlns="http://www.w3.org/2000/svg">
<path d="M20.4668 20.4033H23.6001C26.5871 20.4033 28.0805 20.4033 29.2214 20.9846C30.2249 21.4959 31.0408 22.3118 31.5522 23.3154C32.1335 24.4562 32.1335 25.9497 32.1335 28.9367V35.4033" stroke="#253E96" stroke-width="2" stroke-linecap="round" stroke-linejoin="round"/>
<path d="M20.4668 20.4033H23.6001C26.5871 20.4033 28.0805 20.4033 29.2214 19.822C30.2249 19.3107 31.0408 18.4948 31.5522 17.4913C32.1335 16.3504 32.1335 14.8569 32.1335 11.87V10.4033" stroke="#253E96" stroke-width="2" stroke-linecap="round" stroke-linejoin="round"/>
<path d="M19.8001 22.82L21.6545 24.2107L21.6545 24.2108C22.1705 24.5978 22.4286 24.7913 22.64 24.9891C24.0926 26.3476 24.6685 28.4015 24.1341 30.3172C24.0563 30.5961 23.9365 30.8956 23.697 31.4946L23.6969 31.4946C23.4834 32.0285 23.3766 32.2954 23.2551 32.5292C22.4241 34.1284 20.8417 35.1997 19.0483 35.3773C18.7861 35.4033 18.4982 35.4033 17.9223 35.4033C16.2618 35.4033 15.4315 35.4033 14.7356 35.3113C9.9536 34.6792 6.19091 30.9165 5.55879 26.1345C5.4668 25.4386 5.4668 24.6096 5.4668 22.9517V17.747C5.4668 16.1894 5.4668 15.4106 5.54802 14.7562C6.14991 9.9067 9.97018 6.08643 14.8197 5.48454C15.474 5.40332 16.2529 5.40332 17.8105 5.40332C18.373 5.40332 18.6542 5.40332 18.9094 5.42791C20.7733 5.60752 22.4064 6.75141 23.2121 8.44166C23.3225 8.67309 23.4186 8.93739 23.6108 9.46599L23.7659 9.89249C24.0993 10.8094 24.266 11.2678 24.3466 11.7014C24.6599 13.3866 24.1441 15.1196 22.9604 16.3593C22.6558 16.6782 22.2656 16.9709 21.4851 17.5563L19.8001 18.82C19.1706 19.2921 18.8001 20.0331 18.8001 20.82C18.8001 21.6069 19.1706 22.3479 19.8001 22.82Z" stroke="#253E96" stroke-width="2" stroke-linecap="round" stroke-linejoin="round"/>
</svg>
