<svg width="41" height="41" viewBox="0 0 41 41" fill="none" xmlns="http://www.w3.org/2000/svg">
<path d="M10.4668 15.4033V10.4033C10.4668 8.85018 10.4668 8.07361 10.7205 7.46104C11.0588 6.64428 11.7078 5.99537 12.5245 5.65706C13.1371 5.40332 13.9137 5.40332 15.4668 5.40332C17.0199 5.40332 17.7965 5.40332 18.4091 5.65706C19.2258 5.99537 19.8747 6.64428 20.2131 7.46104C20.4668 8.07361 20.4668 8.85018 20.4668 10.4033V30.4033C20.4668 31.9565 20.4668 32.733 20.2131 33.3456C19.8747 34.1624 19.2258 34.8113 18.4091 35.1496C17.7965 35.4033 17.0199 35.4033 15.4668 35.4033C13.9137 35.4033 13.1371 35.4033 12.5245 35.1496C11.7078 34.8113 11.0588 34.1624 10.7205 33.3456C10.4668 32.733 10.4668 31.9565 10.4668 30.4033V25.4033C8.91366 25.4033 8.13709 25.4033 7.52452 25.1496C6.70776 24.8113 6.05885 24.1624 5.72053 23.3456C5.4668 22.733 5.4668 21.9565 5.4668 20.4033C5.4668 18.8502 5.4668 18.0736 5.72053 17.461C6.05885 16.6443 6.70776 15.9954 7.52452 15.6571C8.13709 15.4033 8.91366 15.4033 10.4668 15.4033Z" stroke="#253E96" stroke-width="2" stroke-linecap="round" stroke-linejoin="round"/>
<path d="M20.4669 7.06982V8.73649C20.4669 9.76773 20.4669 10.2833 20.2994 10.6904C20.0733 11.2399 19.637 11.6762 19.0875 11.9023C18.6804 12.0698 18.1648 12.0698 17.1335 12.0698V12.0698" stroke="#253E96" stroke-width="2" stroke-linecap="round" stroke-linejoin="round"/>
<path d="M10.4668 25.4033H12.1335C13.1647 25.4033 13.6803 25.4033 14.0874 25.5708C14.6369 25.7969 15.0732 26.2332 15.2993 26.7827C15.4668 27.1898 15.4668 27.7054 15.4668 28.7367V28.7367" stroke="#253E96" stroke-width="2" stroke-linecap="round" stroke-linejoin="round"/>
<path d="M10.4668 15.4033V15.4033C10.4668 16.4346 10.4668 16.9502 10.6343 17.3573C10.8604 17.9067 11.2967 18.3431 11.8462 18.5692C12.2533 18.7367 12.7689 18.7367 13.8001 18.7367V18.7367" stroke="#253E96" stroke-width="2" stroke-linecap="round" stroke-linejoin="round"/>
<path d="M30.4668 15.4033V10.4033C30.4668 8.85018 30.4668 8.07361 30.2131 7.46104C29.8747 6.64428 29.2258 5.99537 28.4091 5.65706C27.7965 5.40332 27.0199 5.40332 25.4668 5.40332C23.9137 5.40332 23.1371 5.40332 22.5245 5.65706C21.7078 5.99537 21.0588 6.64428 20.7205 7.46104C20.4668 8.07361 20.4668 8.85018 20.4668 10.4033V30.4033C20.4668 31.9565 20.4668 32.733 20.7205 33.3456C21.0588 34.1624 21.7078 34.8113 22.5245 35.1496C23.1371 35.4033 23.9137 35.4033 25.4668 35.4033C27.0199 35.4033 27.7965 35.4033 28.4091 35.1496C29.2258 34.8113 29.8747 34.1624 30.2131 33.3456C30.4668 32.733 30.4668 31.9565 30.4668 30.4033V25.4033C32.0199 25.4033 32.7965 25.4033 33.4091 25.1496C34.2258 24.8113 34.8747 24.1624 35.2131 23.3456C35.4668 22.733 35.4668 21.9565 35.4668 20.4033C35.4668 18.8502 35.4668 18.0736 35.2131 17.461C34.8747 16.6443 34.2258 15.9954 33.4091 15.6571C32.7965 15.4033 32.0199 15.4033 30.4668 15.4033Z" stroke="#253E96" stroke-width="2" stroke-linecap="round" stroke-linejoin="round"/>
<path d="M20.4667 7.06982V8.73649C20.4667 9.76773 20.4667 10.2833 20.6342 10.6904C20.8603 11.2399 21.2966 11.6762 21.8461 11.9023C22.2532 12.0698 22.7688 12.0698 23.8 12.0698V12.0698" stroke="#253E96" stroke-width="2" stroke-linecap="round" stroke-linejoin="round"/>
<path d="M30.4668 25.4033H28.8001C27.7689 25.4033 27.2533 25.4033 26.8462 25.5708C26.2967 25.7969 25.8604 26.2332 25.6343 26.7827C25.4668 27.1898 25.4668 27.7054 25.4668 28.7367V28.7367" stroke="#253E96" stroke-width="2" stroke-linecap="round" stroke-linejoin="round"/>
<path d="M30.4668 13.7368V15.4035C30.4668 16.4347 30.4668 16.9503 30.2993 17.3574C30.0732 17.9069 29.6369 18.3432 29.0874 18.5693C28.6803 18.7368 28.1647 18.7368 27.1335 18.7368V18.7368" stroke="#253E96" stroke-width="2" stroke-linecap="round" stroke-linejoin="round"/>
</svg>
