<svg width="41" height="41" viewBox="0 0 41 41" fill="none" xmlns="http://www.w3.org/2000/svg">
<path d="M17.1334 18.7368V19.4701C17.1334 20.9636 17.1334 21.7104 17.4241 22.2808C17.6797 22.7826 18.0877 23.1905 18.5894 23.4462C19.1599 23.7368 19.9066 23.7368 21.4001 23.7368H22.8668C24.3602 23.7368 25.107 23.7368 25.6774 23.4462C26.1792 23.1905 26.5871 22.7826 26.8428 22.2808C27.1334 21.7104 27.1334 20.9636 27.1334 19.4701V18.7368" stroke="#253E96" stroke-width="2" stroke-linecap="round" stroke-linejoin="round"/>
<path d="M22.1334 37.07L22.1334 10.4033" stroke="#253E96" stroke-width="2" stroke-linecap="round" stroke-linejoin="round"/>
<path d="M17.1334 13.7368V13.7368C18.0627 13.7368 18.5274 13.7368 18.9138 13.8137C20.5005 14.1293 21.7409 15.3697 22.0566 16.9565C22.1334 17.3429 22.1334 17.8075 22.1334 18.7368V20.4035" stroke="#253E96" stroke-width="2" stroke-linecap="round" stroke-linejoin="round"/>
<path d="M28.8544 37.0702V29.962C28.8544 29.5461 28.8544 29.3382 28.8664 29.1387C28.9617 27.55 29.6223 26.0478 30.7287 24.9036C30.8676 24.76 31.0208 24.6194 31.3273 24.3383V24.3383C31.6338 24.0572 31.7871 23.9166 31.926 23.773C33.0324 22.6288 33.6929 21.1266 33.7883 19.5379C33.8002 19.3384 33.8002 19.1305 33.8002 18.7146V15.4035C33.8002 14.4749 33.8002 14.0106 33.7713 13.6188C33.3824 8.34657 29.1905 4.15462 23.9182 3.76572C23.5264 3.73682 23.0621 3.73682 22.1335 3.73682V3.73682C21.205 3.73682 20.7407 3.73682 20.3489 3.76572C15.0766 4.15462 10.8847 8.34657 10.4958 13.6188C10.4669 14.0106 10.4669 14.4749 10.4669 15.4035V16.1212C10.4669 16.1259 10.4669 16.1282 10.4669 16.1305C10.4662 16.7484 10.3223 17.3577 10.0467 17.9106C10.0456 17.9127 10.0446 17.9148 10.0425 17.919L8.05486 21.8942C7.63157 22.7408 8.24717 23.7368 9.19366 23.7368V23.7368C9.89684 23.7368 10.4669 24.3069 10.4669 25.0101V26.2368C10.4669 27.6175 11.5862 28.7368 12.9669 28.7368V28.7368C14.3476 28.7368 15.4669 29.8561 15.4669 31.2368V37.0702" stroke="#253E96" stroke-width="2" stroke-linecap="round" stroke-linejoin="round"/>
</svg>
