<svg width="21" height="20" viewBox="0 0 21 20" fill="none" xmlns="http://www.w3.org/2000/svg">
<path d="M17.874 10.8966L14.6286 14.8632L14.6286 14.8632C13.1883 16.6236 12.4681 17.5038 11.6024 17.8238C10.8431 18.1044 10.0085 18.1044 9.24918 17.8238C8.38347 17.5038 7.6633 16.6236 6.22296 14.8632L2.97754 10.8966C2.22522 9.97709 1.84906 9.51734 1.65455 9.02514C1.33784 8.22372 1.33784 7.33183 1.65455 6.53041C1.84906 6.03821 2.22522 5.57847 2.97754 4.65897L3.88033 3.55556C4.13674 3.24216 4.26495 3.08546 4.37867 2.97071C5.70653 1.63073 7.8723 1.63073 9.20017 2.97071C9.31388 3.08546 9.44209 3.24216 9.69851 3.55556C9.76261 3.63391 9.79467 3.67308 9.82309 3.70177C10.1551 4.03676 10.6965 4.03676 11.0285 3.70177C11.0569 3.67308 11.089 3.63391 11.1531 3.55556L11.1531 3.55551C11.4095 3.24214 11.5377 3.08545 11.6514 2.97071C12.9793 1.63073 15.145 1.63073 16.4729 2.97071C16.5866 3.08546 16.7148 3.24216 16.9712 3.55555L17.874 4.65897C18.6263 5.57846 19.0025 6.03821 19.197 6.53041C19.5137 7.33183 19.5137 8.22372 19.197 9.02514C19.0025 9.51734 18.6263 9.97709 17.874 10.8966Z" stroke="#253E96" stroke-width="2" stroke-linejoin="round"/>
</svg>
