<svg width="25" height="20" viewBox="0 0 25 20" fill="none" xmlns="http://www.w3.org/2000/svg">
<g clip-path="url(#clip0_750_12927)">
<path d="M0.426407 6.37298C0.4859 6.20453 0.528485 6.02793 0.607391 5.86949C0.951196 5.18 1.52546 4.8506 2.28509 4.83557C2.71281 4.8268 3.14053 4.83431 3.58516 4.83431C3.64277 4.30765 3.69788 3.80478 3.75237 3.30191C3.81624 2.71199 3.87072 2.12082 3.94462 1.53215C4.06173 0.602189 4.93408 -0.0747762 5.90538 0.00663489C8.60572 0.232707 11.3054 0.463163 14.0052 0.68861C16.5339 0.899652 19.0633 1.10631 21.5927 1.3161C22.0285 1.35242 22.4663 1.37747 22.8978 1.44072C23.8271 1.57724 24.4728 2.35378 24.4239 3.30128C24.3813 4.12792 24.2949 4.95205 24.2254 5.7768C24.1083 7.1777 23.9887 8.5786 23.8709 9.9795C23.7595 11.3103 23.6574 12.6423 23.5346 13.9718C23.452 14.8711 22.6592 15.5656 21.7442 15.5618C21.505 15.5605 21.2658 15.533 20.9996 15.5161C20.9996 16.0027 21.0084 16.4698 20.9959 16.9358C20.989 17.1994 20.9808 17.4712 20.9145 17.7236C20.7178 18.4719 20.0409 18.9942 19.2674 19.0287C19.1817 19.0324 19.0959 19.0312 19.0094 19.0312C13.4785 19.0312 7.94754 19.0312 2.4166 19.0312C1.35136 19.0312 0.755809 18.5809 0.455841 17.5501C0.449578 17.5282 0.435801 17.5081 0.425781 17.4875C0.425781 13.7826 0.425781 10.0784 0.425781 6.37361L0.426407 6.37298ZM1.36389 11.4449V11.6985C1.36389 13.4958 1.36389 15.2925 1.36389 17.0898C1.36389 17.7605 1.69893 18.0931 2.37401 18.0931C7.92813 18.0931 13.4822 18.0931 19.0364 18.0931C19.7234 18.0931 20.0615 17.7586 20.0615 17.0767C20.0621 15.2794 20.0615 13.4827 20.0615 11.6854C20.0615 11.609 20.0553 11.5332 20.0509 11.4449H1.36389ZM4.53516 4.83431H4.8583C9.56136 4.83431 14.265 4.83369 18.9681 4.83682C19.1854 4.83682 19.4084 4.84747 19.6188 4.89631C20.4623 5.09233 20.9984 5.81688 20.999 6.74935C21.0009 9.25744 20.9996 11.7662 20.9996 14.2742V14.5667C21.2589 14.5886 21.4762 14.6174 21.6941 14.6237C22.1939 14.6393 22.564 14.3106 22.6072 13.814C22.7149 12.5765 22.8201 11.3391 22.9241 10.1016C23.1113 7.87533 23.2948 5.64905 23.4833 3.4234C23.539 2.7671 23.2134 2.38948 22.5552 2.33812C21.3484 2.24356 20.1423 2.14086 18.9362 2.04003C17.333 1.90602 15.7304 1.77075 14.1273 1.63611C12.7107 1.51712 11.2948 1.39877 9.87824 1.27978C8.52431 1.16643 7.17038 1.0487 5.81582 0.940984C5.31483 0.900905 4.93658 1.21027 4.86895 1.71126C4.8032 2.19847 4.7556 2.68882 4.70362 3.17791C4.64601 3.71961 4.59278 4.26131 4.53454 4.83369L4.53516 4.83431ZM20.0415 10.4855V8.55668H1.3808V10.4855H20.0415ZM20.0571 7.59353C20.0571 7.23782 20.0753 6.90967 20.0528 6.58403C20.0214 6.13439 19.6989 5.82565 19.2499 5.77806C19.1804 5.77054 19.1096 5.77179 19.0389 5.77179C13.4835 5.77179 7.9275 5.77179 2.37213 5.77242C2.27131 5.77242 2.16798 5.77743 2.06966 5.79684C1.71396 5.86761 1.45031 6.08116 1.40334 6.43373C1.35324 6.81323 1.39207 7.20526 1.39207 7.5929H20.0571V7.59353Z" fill="#253E96"/>
<path d="M15.82 16.7023C15.1093 16.7023 14.3978 16.7042 13.6871 16.7017C13.2781 16.7004 13.1197 16.5426 13.1191 16.1337C13.1166 15.2194 13.1166 14.305 13.1191 13.3901C13.1203 12.9856 13.2806 12.8265 13.6921 12.8259C15.1218 12.8234 16.5521 12.824 17.9818 12.8259C18.4026 12.8259 18.5661 12.9906 18.5667 13.407C18.568 14.3138 18.5686 15.22 18.5667 16.1268C18.5661 16.5326 18.4026 16.6998 18.0006 16.7017C17.2742 16.7048 16.5471 16.7023 15.8207 16.7023H15.82ZM17.6161 15.7542V13.7784H14.0735V15.7542H17.6161Z" fill="#253E96"/>
</g>
<defs>
<clipPath id="clip0_750_12927">
<rect width="24" height="19.0314" fill="white" transform="translate(0.425781)"/>
</clipPath>
</defs>
</svg>
