<svg width="24" height="25" viewBox="0 0 24 25" fill="none" xmlns="http://www.w3.org/2000/svg">
<g clip-path="url(#clip0_750_12932)">
<path d="M13.3515 0.31891C13.7335 0.429082 14.0735 0.599974 14.3202 0.930491C14.5832 1.28292 14.6051 1.69857 14.6589 2.10733C14.7134 2.51735 14.7522 2.92986 14.818 3.33738C14.8317 3.42063 14.9188 3.52329 14.9983 3.56022C15.3521 3.72361 15.7121 3.87259 16.0765 4.0103C16.151 4.03847 16.2756 4.02407 16.3382 3.97713C16.7828 3.64598 17.2161 3.30044 17.655 2.96179C18.3337 2.43847 19.1171 2.48479 19.7282 3.08886C20.2278 3.58276 20.7244 4.08041 21.2196 4.57994C21.8239 5.19027 21.8721 5.96586 21.3474 6.65256C21.0205 7.08073 20.6905 7.50702 20.3537 7.92705C20.2604 8.04348 20.2378 8.13237 20.308 8.27822C20.4658 8.60811 20.6004 8.9499 20.7294 9.29231C20.7763 9.4175 20.8346 9.48323 20.9717 9.49825C21.507 9.55835 22.0405 9.63096 22.5752 9.69356C23.4424 9.79559 23.9878 10.3978 23.9909 11.2666C23.9934 11.9696 23.9934 12.6726 23.9909 13.3756C23.9878 14.1868 23.5019 14.779 22.7005 14.9111C22.1388 15.0037 21.5715 15.0645 21.0055 15.1277C20.8527 15.1446 20.7776 15.204 20.7237 15.3493C20.5966 15.6923 20.4551 16.031 20.3042 16.364C20.2485 16.486 20.2466 16.5674 20.3343 16.6763C20.6812 17.1089 21.0205 17.5471 21.3561 17.9884C21.8702 18.6638 21.822 19.4419 21.2278 20.0435C20.7281 20.5493 20.2259 21.0526 19.72 21.5508C19.1164 22.1455 18.3375 22.1912 17.665 21.6748C17.2317 21.3418 16.7985 21.0081 16.372 20.667C16.2606 20.5781 16.1754 20.563 16.0402 20.6263C15.7083 20.7809 15.369 20.9205 15.0252 21.0457C14.8768 21.0995 14.823 21.179 14.8054 21.3292C14.7366 21.9183 14.674 22.5086 14.5744 23.0926C14.4523 23.8087 13.8499 24.3033 13.1217 24.3108C12.3723 24.3183 11.6221 24.3177 10.872 24.3108C10.1319 24.3045 9.52895 23.8062 9.40748 23.0782C9.31105 22.5017 9.24593 21.9189 9.18081 21.3374C9.16265 21.1752 9.10067 21.0951 8.94601 21.0388C8.60915 20.9167 8.27729 20.779 7.95232 20.6294C7.82146 20.5693 7.7338 20.5706 7.61984 20.6619C7.19344 21.0037 6.76203 21.3393 6.32686 21.6698C5.62934 22.1993 4.85919 22.143 4.23743 21.5239C3.75029 21.0388 3.26378 20.5537 2.77914 20.066C2.15864 19.4413 2.10667 18.6732 2.63889 17.9778C2.96636 17.5502 3.29508 17.1233 3.63195 16.7026C3.72649 16.5843 3.74277 16.4954 3.67453 16.3508C3.51736 16.0203 3.38212 15.6792 3.25438 15.3361C3.2068 15.2091 3.14481 15.1477 3.01019 15.1321C2.47546 15.0707 1.94199 14.9962 1.40664 14.9368C0.72039 14.8604 0.23513 14.4623 0.0391481 13.8025C0.0259991 13.7587 0.00784104 13.7161 -0.0078125 13.6729C-0.0078125 12.7515 -0.0078125 11.8294 -0.0078125 10.908C0.00721489 10.8829 0.0285037 10.8591 0.0366435 10.8322C0.234504 10.1599 0.689709 9.78996 1.37596 9.69857C1.90943 9.6272 2.44353 9.5596 2.97826 9.50264C3.13229 9.48636 3.20617 9.42501 3.25939 9.27979C3.38274 8.94364 3.51674 8.61062 3.66889 8.28699C3.73463 8.14739 3.73589 8.05725 3.63696 7.93456C3.29884 7.51578 2.97137 7.08824 2.6439 6.66069C2.1098 5.96335 2.15613 5.1909 2.77038 4.57181C3.25939 4.07853 3.75091 3.58777 4.24431 3.09825C4.86607 2.48104 5.6356 2.43096 6.3325 2.96367C6.76641 3.29544 7.1972 3.63159 7.62548 3.97024C7.71877 4.04411 7.79328 4.07415 7.91601 4.01781C8.2704 3.85694 8.63607 3.72173 8.99047 3.56022C9.0656 3.5258 9.15138 3.4319 9.16328 3.3549C9.2284 2.94677 9.26785 2.53487 9.32295 2.12548C9.37617 1.72548 9.38932 1.31547 9.63727 0.965546C9.88522 0.61625 10.2302 0.424074 10.6328 0.316406H13.3515V0.31891ZM7.69936 19.43C7.81958 19.4732 7.91538 19.5033 8.00805 19.5421C8.56156 19.7718 9.10943 20.0172 9.67045 20.2275C9.94971 20.3321 10.0843 20.5011 10.1169 20.7884C10.192 21.4475 10.2766 22.1055 10.3617 22.7634C10.4137 23.1665 10.5903 23.318 11.0016 23.3192C11.6578 23.3211 12.314 23.3205 12.9702 23.3192C13.4054 23.3186 13.5732 23.1652 13.627 22.7296C13.7084 22.071 13.793 21.4131 13.8719 20.7546C13.9044 20.4854 14.0447 20.3302 14.3026 20.2325C14.8555 20.0234 15.404 19.7987 15.9419 19.5527C16.2105 19.43 16.4253 19.4432 16.6544 19.6253C17.186 20.0485 17.7239 20.4635 18.2624 20.8779C18.551 21.1001 18.7708 21.0857 19.0288 20.8297C19.5165 20.3458 20.0024 19.8588 20.487 19.3718C20.7644 19.0926 20.7788 18.8842 20.5371 18.5699C20.1226 18.0316 19.7075 17.4939 19.2861 16.9612C19.1164 16.7465 19.1039 16.5399 19.2172 16.2889C19.4577 15.7568 19.6931 15.2209 19.891 14.6726C20.0024 14.364 20.1809 14.2225 20.4989 14.1887C21.1583 14.1186 21.8163 14.031 22.4738 13.9427C22.8363 13.8939 22.9922 13.7105 22.9941 13.3424C22.9979 12.6626 22.9973 11.9834 22.9941 11.3036C22.9922 10.9205 22.8407 10.7421 22.4625 10.6914C21.7969 10.6025 21.1313 10.5186 20.4645 10.4416C20.1771 10.4084 20.0074 10.2745 19.9041 9.99465C19.7044 9.45443 19.489 8.9186 19.2435 8.39841C19.1045 8.1042 19.1202 7.87697 19.3231 7.62595C19.7407 7.11015 20.1427 6.58182 20.5472 6.05537C20.7795 5.75303 20.7644 5.54082 20.4977 5.27227C20.0243 4.79591 19.5485 4.32141 19.0726 3.84692C18.762 3.53706 18.5654 3.52454 18.2179 3.79434C17.6932 4.2006 17.1672 4.60561 16.6469 5.01813C16.4253 5.1934 16.2143 5.20655 15.9544 5.08761C15.4234 4.84473 14.8862 4.61312 14.3377 4.41469C14.0372 4.30576 13.9 4.12986 13.8662 3.82314C13.7936 3.16398 13.7078 2.50608 13.6202 1.84817C13.5701 1.47196 13.3891 1.31735 13.0078 1.31547C12.3359 1.31234 11.6641 1.31296 10.9922 1.31547C10.5928 1.31672 10.4168 1.4657 10.3655 1.85756C10.2784 2.51547 10.1933 3.17337 10.1194 3.83253C10.0862 4.12986 9.95097 4.30451 9.66106 4.4103C9.1207 4.60811 8.58535 4.82533 8.0644 5.07008C7.77826 5.20467 7.55535 5.19152 7.31241 4.99622C6.79459 4.58057 6.26738 4.17807 5.74142 3.77306C5.42459 3.52955 5.21922 3.5427 4.94058 3.82001C4.46472 4.29387 3.9901 4.76961 3.51611 5.24598C3.21619 5.54708 3.20241 5.74927 3.45976 6.08292C3.86112 6.60185 4.25934 7.12329 4.67009 7.63472C4.86545 7.8776 4.88235 8.1017 4.74773 8.38777C4.50604 8.9017 4.28439 9.42689 4.09341 9.96148C3.98321 10.2707 3.80414 10.4128 3.48668 10.4466C2.83487 10.5161 2.18493 10.6031 1.535 10.6889C1.14366 10.7402 0.991509 10.9173 0.990257 11.3142C0.987752 11.9784 0.988379 12.6419 0.990257 13.3061C0.991509 13.7274 1.14491 13.8976 1.56756 13.9502C2.22563 14.0328 2.88371 14.1173 3.54241 14.195C3.82167 14.2281 3.98071 14.3696 4.08027 14.6375C4.28063 15.1771 4.49414 15.7142 4.74022 16.2344C4.87985 16.5292 4.86545 16.7565 4.6632 17.0069C4.24619 17.5233 3.84358 18.051 3.4391 18.5774C3.20617 18.8804 3.22057 19.0914 3.48794 19.3599C3.96192 19.8363 4.43717 20.3108 4.91303 20.7853C5.2236 21.0945 5.42146 21.1083 5.76834 20.8404C6.29367 20.4347 6.814 20.0228 7.34246 19.6209C7.45016 19.5389 7.58353 19.4907 7.70061 19.4294L7.69936 19.43Z" fill="#253E96"/>
<path d="M11.8479 17.3188C9.05092 17.1942 6.87571 14.8856 6.9928 12.1644C7.11176 9.38699 9.42598 7.20733 12.1347 7.32063C14.926 7.43769 17.1131 9.75944 16.9898 12.4743C16.8633 15.2587 14.5497 17.4383 11.8479 17.3181V17.3188ZM11.9888 8.32533C9.7785 8.3272 7.99838 10.1062 7.9965 12.3166C7.99462 14.5263 9.77224 16.3091 11.9825 16.3147C14.2003 16.3203 15.9917 14.5288 15.9867 12.3109C15.9817 10.1006 14.1991 8.32345 11.9894 8.3247L11.9888 8.32533Z" fill="#253E96"/>
</g>
<defs>
<clipPath id="clip0_750_12932">
<rect width="24" height="24" fill="white" transform="translate(-0.0078125 0.320312)"/>
</clipPath>
</defs>
</svg>
