<svg width="25" height="23" viewBox="0 0 25 23" fill="none" xmlns="http://www.w3.org/2000/svg">
<g clip-path="url(#clip0_750_12913)">
<path d="M5.7797 19.5944C5.7797 19.7252 5.78176 19.8099 5.7797 19.8939C5.76319 20.4957 5.42963 20.8358 4.82784 20.8358C3.88424 20.8352 2.94063 20.82 1.99703 20.8111C1.85948 20.8097 1.72261 20.8124 1.58506 20.8083C1.07268 20.7925 0.724678 20.4358 0.715737 19.9187C0.713674 19.7899 0.715737 19.6612 0.716425 19.5324C0.733619 17.0323 0.750125 14.5329 0.767319 12.0328C0.771446 11.4055 1.11601 11.0585 1.74118 11.0606C2.74462 11.064 3.74875 11.0743 4.75219 11.0798C5.51973 11.0847 5.80927 11.3642 5.83266 12.1271C5.83403 12.1767 5.84435 12.2263 5.85535 12.3082C6.65934 12.3082 7.45576 12.2951 8.2515 12.3123C8.79001 12.324 9.33747 12.3268 9.86223 12.4301C10.2543 12.5079 10.6284 12.7172 10.9881 12.91C11.3801 13.12 11.7474 13.3761 12.1236 13.6164C12.5913 13.916 13.0995 14.064 13.6559 14.0619C14.2735 14.0606 14.8911 14.0654 15.5087 14.0791C16.7508 14.1074 17.4943 14.9061 17.4406 16.1441C17.4393 16.1765 17.4406 16.2081 17.4406 16.266C18.3946 15.8728 19.3278 15.4893 20.2604 15.1044C20.68 14.9316 21.0974 14.7525 21.519 14.5838C22.4936 14.1921 23.5465 14.6155 23.9454 15.5568C24.3457 16.5001 23.9241 17.5501 22.9523 17.9729C20.4936 19.0422 18.0287 20.0977 15.5692 21.1643C15.2316 21.3109 14.9124 21.4996 14.5768 21.6497C12.6621 22.5049 10.8285 22.4216 9.1222 21.1312C8.2797 20.4943 7.40006 19.9442 6.35879 19.7018C6.18548 19.6612 6.00872 19.6364 5.78176 19.5944H5.7797ZM5.82234 18.7723C5.94063 18.7895 6.04173 18.8033 6.14283 18.8198C7.44889 19.0332 8.55962 19.655 9.58988 20.4537C11.0053 21.5519 12.5404 21.6373 14.1435 20.9426C15.3609 20.4145 16.5596 19.843 17.7756 19.31C19.3684 18.6118 20.9695 17.9343 22.5658 17.2451C23.0892 17.0192 23.3505 16.5696 23.2494 16.0856C23.1146 15.437 22.4709 15.0886 21.8416 15.3454C20.05 16.078 18.2659 16.8292 16.4709 17.5535C16.1765 17.6727 15.8457 17.7346 15.5273 17.7518C14.9798 17.7821 14.4296 17.758 13.8808 17.7539C12.8347 17.7456 11.788 17.7374 10.7419 17.7243C10.4482 17.7209 10.2818 17.5659 10.2804 17.3188C10.279 17.0702 10.4454 16.9153 10.7357 16.9029C10.8643 16.8974 10.9929 16.9029 11.1215 16.9036C12.6057 16.9139 14.0892 16.9263 15.5734 16.9345C15.9503 16.9366 16.2591 16.7865 16.4654 16.465C16.8794 15.8205 16.4613 14.9591 15.6972 14.9178C15.03 14.8813 14.3595 14.8847 13.691 14.8882C12.9482 14.8923 12.2708 14.6947 11.6483 14.2933C11.31 14.075 10.962 13.8698 10.6284 13.6447C10.0981 13.2866 9.51491 13.1303 8.87942 13.1351C8.36498 13.1386 7.84985 13.1283 7.33541 13.1262C6.84022 13.1241 6.34572 13.1262 5.82303 13.1262V18.7709L5.82234 18.7723ZM1.57887 11.9123V20.0123C2.64834 20.0123 3.71986 20.011 4.7907 20.0137C4.93857 20.0137 4.95508 19.9332 4.95576 19.8168C4.95645 19.4567 4.96471 19.0959 4.96677 18.7358C4.97846 16.8285 4.98878 14.9212 4.99909 13.0146C5.00116 12.6559 4.99909 12.2979 4.99909 11.9123H1.57887Z" fill="#253E96"/>
<path d="M20.3685 12.9668C20.3424 12.9668 20.2956 12.9779 20.2571 12.9655C19.766 12.8009 19.352 12.942 18.9393 13.2299C18.5459 13.5046 18.1106 13.4481 17.7358 13.172C17.3926 12.9186 17.0549 12.845 16.6333 12.9482C16.1017 13.0784 15.6636 12.8759 15.3919 12.394C15.2131 12.0772 14.9744 11.9058 14.6072 11.8597C14.0239 11.7867 13.6814 11.4252 13.6065 10.8475C13.5611 10.5005 13.405 10.2767 13.1092 10.0942C12.5459 9.74788 12.394 9.38502 12.537 8.74123C12.6133 8.39627 12.5735 8.11052 12.3568 7.82615C11.9765 7.32696 11.982 6.80366 12.3616 6.30791C12.5735 6.03042 12.612 5.75087 12.5404 5.41762C12.3974 4.75179 12.5404 4.4027 13.1175 4.04397C13.4043 3.86564 13.5583 3.64943 13.6023 3.31205C13.6794 2.7254 14.0171 2.3591 14.6168 2.28405C14.9689 2.23998 15.2076 2.07679 15.3836 1.76419C15.6704 1.25536 16.1216 1.05706 16.6918 1.20578C17.0611 1.30218 17.3706 1.23952 17.6766 1.00679C18.1409 0.653569 18.6402 0.650126 19.103 1.00404C19.4187 1.24503 19.7371 1.29736 20.112 1.20234C20.6752 1.05981 21.1175 1.26431 21.3974 1.76006C21.5796 2.08299 21.8286 2.24067 22.1876 2.28887C22.7612 2.36598 23.0948 2.71301 23.1711 3.28381C23.2179 3.63497 23.3719 3.87734 23.6869 4.0543C24.1938 4.33936 24.4001 4.78966 24.2516 5.36185C24.1526 5.74261 24.2261 6.05728 24.46 6.37057C24.8025 6.82914 24.8011 7.32145 24.4552 7.77658C24.2158 8.09124 24.1553 8.40866 24.2523 8.78667C24.4001 9.3623 24.1842 9.80503 23.6807 10.0922C23.3781 10.265 23.2165 10.495 23.1746 10.8399C23.103 11.4245 22.7626 11.7805 22.1814 11.8562C21.8039 11.9051 21.5652 12.0862 21.3788 12.4084C21.1642 12.7782 20.8444 13.0109 20.3678 12.9668H20.3685ZM20.352 12.1488C20.3685 12.1654 20.385 12.1826 20.4015 12.1991C20.5122 12.1 20.6587 12.0208 20.7268 11.8982C21.0088 11.3914 21.4283 11.1133 21.9999 11.0561C22.2151 11.0348 22.3444 10.9294 22.3658 10.7022C22.4222 10.0977 22.7296 9.66182 23.264 9.38089C23.4504 9.28312 23.5026 9.1337 23.4455 8.92714C23.2853 8.35289 23.3726 7.82202 23.755 7.35243C23.9063 7.16652 23.9139 6.98406 23.7605 6.79609C23.3713 6.31961 23.286 5.78117 23.449 5.19728C23.5033 5.00174 23.449 4.85714 23.2722 4.76488C22.7275 4.48051 22.4201 4.03571 22.3616 3.4229C22.3424 3.21909 22.233 3.11374 22.0343 3.09378C21.4222 3.03318 20.9765 2.72953 20.6931 2.18283C20.6017 2.00587 20.4545 1.94804 20.2619 2.00381C19.6883 2.16906 19.1574 2.09056 18.6876 1.70773C18.482 1.53973 18.2929 1.54661 18.0879 1.71255C17.6429 2.07266 17.1367 2.17526 16.5886 2.0162C16.3279 1.94046 16.1622 2.02033 16.0398 2.251C15.7798 2.74331 15.3726 3.02423 14.8155 3.07381C14.5487 3.09791 14.429 3.24319 14.4015 3.50415C14.3451 4.04672 14.0748 4.4571 13.5872 4.70704C13.3341 4.83649 13.2743 5.02997 13.3451 5.28266C13.4944 5.81766 13.4001 6.30447 13.057 6.73825C12.8836 6.95721 12.8658 7.16033 13.0473 7.38686C13.3995 7.82546 13.4964 8.32053 13.3437 8.86517C13.2757 9.10754 13.3307 9.2962 13.5735 9.42083C14.0796 9.68041 14.352 10.1059 14.4077 10.6678C14.4318 10.915 14.5583 11.0341 14.7984 11.0582C15.3616 11.1133 15.7832 11.3894 16.0425 11.8948C16.1677 12.1385 16.3561 12.1915 16.5982 12.122C17.1312 11.9698 17.6195 12.0586 18.0515 12.4064C18.2922 12.6005 18.5067 12.5861 18.7426 12.3974C19.1677 12.0566 19.6498 11.9746 20.1732 12.1192C20.2303 12.1351 20.2915 12.1385 20.3506 12.1475L20.352 12.1488Z" fill="#253E96"/>
<path d="M18.3847 2.98829C20.6378 2.98416 22.4576 4.8033 22.4631 7.06448C22.4679 9.31809 20.6447 11.1517 18.3957 11.1551C16.1502 11.1586 14.3146 9.3236 14.3125 7.07481C14.3104 4.82051 16.133 2.99242 18.3854 2.98829H18.3847ZM18.3813 3.81523C16.5862 3.82281 15.1309 5.29079 15.1364 7.08583C15.1419 8.87123 16.6282 10.3433 18.4122 10.3303C20.1921 10.3179 21.6412 8.85195 21.6392 7.06792C21.6371 5.26669 20.1756 3.80766 18.382 3.81523H18.3813Z" fill="#253E96"/>
<path d="M20.7223 6.70748C20.6893 6.76188 20.6398 6.88237 20.5566 6.9712C20.3695 7.17156 20.1742 7.36573 19.9665 7.54475C19.8227 7.66869 19.7959 7.79952 19.8337 7.97578C19.8915 8.24363 19.9307 8.5156 19.9754 8.7862C20.0057 8.96867 19.9809 9.16284 19.8028 9.22894C19.6611 9.28127 19.4672 9.27714 19.3255 9.22274C19.0559 9.11877 18.8117 8.94939 18.5463 8.83234C18.4555 8.7924 18.3172 8.79515 18.2265 8.83578C17.9534 8.95765 17.7017 9.12979 17.4238 9.2372C17.2918 9.28815 17.0751 9.29435 16.9782 9.21792C16.8709 9.13254 16.809 8.92873 16.8138 8.77863C16.8221 8.50734 16.8805 8.23399 16.9452 7.96821C16.9892 7.78643 16.9527 7.66663 16.8117 7.54407C16.5985 7.35885 16.3853 7.16605 16.2113 6.94641C16.124 6.83555 16.058 6.63587 16.0978 6.51538C16.1391 6.39282 16.309 6.26888 16.4459 6.23239C16.7251 6.15802 17.0194 6.13668 17.3083 6.10432C17.4589 6.08779 17.5525 6.02858 17.6164 5.8826C17.7326 5.61614 17.8503 5.34485 18.0105 5.10455C18.093 4.97992 18.267 4.85116 18.4032 4.84772C18.5263 4.84428 18.6934 4.98199 18.7718 5.10317C18.9287 5.34623 19.0229 5.62922 19.1728 5.87778C19.2326 5.97694 19.3613 6.06851 19.4747 6.09468C19.7492 6.15802 20.0332 6.1773 20.3124 6.21999C20.5676 6.25924 20.7189 6.41829 20.7216 6.70886L20.7223 6.70748ZM19.408 6.93608C18.8723 6.94365 18.5421 6.70679 18.4149 6.18694C18.2746 6.40796 18.1976 6.63587 18.0387 6.75086C17.8716 6.87204 17.6267 6.88444 17.3647 6.95949C17.831 7.23697 17.9245 7.63495 17.7636 8.13553C18.1893 7.79538 18.5889 7.80227 19.0139 8.12589C18.8441 7.62531 18.9582 7.23973 19.4073 6.93608H19.408Z" fill="#253E96"/>
</g>
<defs>
<clipPath id="clip0_750_12913">
<rect width="24" height="21.4737" fill="white" transform="translate(0.714844 0.738281)"/>
</clipPath>
</defs>
</svg>
