<svg width="278" height="86" viewBox="0 0 278 86" fill="none" xmlns="http://www.w3.org/2000/svg">
<g clip-path="url(#clip0_686_23525)">
<path opacity="0.1" d="M46.4339 80.2553C52.5443 80.2553 57.4979 79.695 57.4979 79.0039C57.4979 78.3127 52.5443 77.7524 46.4339 77.7524C40.3234 77.7524 35.3699 78.3127 35.3699 79.0039C35.3699 79.695 40.3234 80.2553 46.4339 80.2553Z" fill="black"/>
<path d="M74.4508 36.6298C74.4364 36.4646 74.4316 36.304 74.4172 36.1434C74.4268 35.8223 74.4364 35.5059 74.446 35.1848C74.4029 34.8684 74.4795 34.5378 74.3693 34.2261C74.3549 34.0986 74.3501 33.9758 74.3358 33.8483C74.3597 33.2958 74.2735 32.7575 74.1633 32.2191C74.1633 32.2191 74.1633 32.2191 74.1585 32.2191C74.1633 32.2191 74.1681 32.2191 74.1729 32.2191C74.1633 31.9594 74.1489 31.6997 74.0531 31.4541C74.0866 31.218 73.9908 31.0007 73.9381 30.7788C73.9381 30.7788 73.9333 30.7693 73.9285 30.7693C73.8806 30.4104 73.8279 30.0563 73.6889 29.7162V29.7068C73.6937 29.7068 73.6985 29.7162 73.7033 29.7162C73.6649 29.4187 73.617 29.1307 73.4829 28.8615C73.4781 28.8615 73.4733 28.852 73.4685 28.8473C73.4493 28.6159 73.387 28.394 73.272 28.1909L73.2816 28.2004C73.2816 28.2004 73.2768 28.1909 73.272 28.1862C73.2576 27.9123 73.1426 27.6667 73.0468 27.4164C72.9941 27.2889 72.9366 27.1614 72.8839 27.0339C72.8743 26.7553 72.7497 26.5097 72.6251 26.2689C72.5149 26.0186 72.4047 25.7589 72.2945 25.5086C72.2322 25.1544 72.0501 24.8616 71.892 24.5499V24.5641C71.892 24.5641 71.8872 24.5594 71.8824 24.5547H71.892C71.892 24.5547 71.8824 24.5452 71.8776 24.5452C71.8776 24.5452 71.8776 24.5452 71.8776 24.5499C71.8776 24.5499 71.8728 24.5452 71.8681 24.5405C71.8681 24.5405 71.8681 24.5405 71.8728 24.5405C71.8153 24.3327 71.7339 24.1391 71.5949 23.9738C71.5949 23.9691 71.5853 23.9644 71.5806 23.9549C71.5901 23.9596 71.5949 23.9691 71.6045 23.9738C71.547 23.7613 71.4512 23.5677 71.3122 23.3977C71.1685 23.0199 70.9576 22.6799 70.7276 22.3446C70.7276 22.3446 70.7276 22.3446 70.7181 22.3446C70.2868 21.5276 69.7837 20.7626 69.2135 20.0353C69.2135 20.0353 69.2087 20.0353 69.2039 20.0306C69.2039 20.0306 69.2087 20.0306 69.2135 20.0306C69.1799 19.9739 69.1512 19.9173 69.1176 19.8653C64.1247 13.2965 57.4978 9.52801 49.2082 8.60714C48.9063 8.57408 48.5949 8.58825 48.293 8.54575C48.3265 8.41824 48.3553 8.28602 48.3553 8.14907V5.84454H50.4972C51.3405 5.84454 52.0209 5.17396 52.0209 4.34282C52.0209 3.51168 51.3357 2.84109 50.4972 2.84109H43.1659C42.3226 2.84109 41.6421 3.51168 41.6421 4.34282C41.6421 5.17396 42.3274 5.84454 43.1659 5.84454H45.303V8.14907C45.303 8.24352 45.3126 8.33796 45.3317 8.42769H45.1257C44.6609 8.61186 44.1578 8.55992 43.6738 8.63075H43.669C43.669 8.63075 43.669 8.63075 43.6738 8.63075C43.6738 8.63075 43.6738 8.63075 43.669 8.62131V8.63075C43.669 8.63075 43.669 8.63075 43.6642 8.63075C42.4471 8.7252 41.2492 8.92826 40.0657 9.21161H40.0561C40.0561 9.21161 40.0561 9.21161 40.0609 9.21161C40.0609 9.21161 40.0609 9.21633 40.0609 9.22105C40.0609 9.22105 40.0561 9.22105 40.0513 9.21633C39.8548 9.273 39.6536 9.32967 39.4571 9.38633C38.9205 9.44773 38.4221 9.6319 37.919 9.80191C37.919 9.80191 37.9238 9.80191 37.9286 9.80191C37.9238 9.80191 37.919 9.80191 37.9142 9.80191C36.6013 10.208 35.3171 10.6567 34.1096 11.3178C32.9404 11.7995 31.8671 12.4559 30.8273 13.1595C29.7204 13.9057 28.6088 14.6471 27.6696 15.6057C26.7113 16.4227 25.82 17.3011 25.0438 18.2881C24.9527 18.3778 24.8473 18.4486 24.7658 18.5478C23.7261 19.8748 22.7246 21.2254 21.9292 22.7177C20.1179 25.8581 19.0781 29.2346 18.6277 32.8094C18.5846 33.1636 18.6277 33.5319 18.436 33.8578V37.9804C18.5079 37.9993 18.5271 38.056 18.5319 38.1221C18.8673 41.5033 19.8879 44.6957 21.2727 47.7841C22.3988 50.287 23.6973 52.7049 25.2354 54.9952C25.245 54.9952 25.2546 54.9858 25.2642 54.9811C25.2594 54.9905 25.2498 54.9952 25.245 55.0047C26.3902 56.9031 27.6744 58.707 29.0496 60.4543C29.0688 60.5157 29.0784 60.5771 29.1167 60.6291C30.9471 62.9808 32.8494 65.2759 34.8523 67.486C36.5342 69.3466 38.2353 71.1883 40.0609 72.9167C40.6119 73.4645 41.163 74.0076 41.7188 74.5507C42.2986 75.2307 43.0221 75.7643 43.6642 76.3735C43.9613 76.756 44.3686 77.0252 44.7328 77.3416C44.8142 77.3274 44.8909 77.3038 44.9436 77.233C45.0921 77.5069 45.5042 77.4833 45.6192 77.7997C45.6528 77.8327 45.6863 77.8658 45.7151 77.8941C45.8061 77.9555 45.9163 77.9886 45.9978 78.0594C46.1894 78.2247 46.3619 78.2625 46.5344 78.1869C46.4003 78.2578 46.2469 78.2814 46.0553 78.22C45.9642 78.2389 45.8636 78.2483 45.9067 78.3853C46.0409 78.6119 46.2469 78.7394 46.4961 78.815C46.7213 78.645 46.913 78.4372 47.143 78.2578C47.6845 77.8375 48.2403 77.4172 48.6428 76.8552C49.5867 76.0052 50.5451 75.1693 51.4699 74.2909C52.3036 73.4976 53.0895 72.6617 53.8945 71.84C54.9055 70.9239 55.8399 69.9322 56.7263 68.898C56.7263 68.898 56.7216 68.898 56.7168 68.898C57.3924 68.2888 57.9722 67.5804 58.5664 66.9004C58.9593 66.4518 59.4193 66.0504 59.7116 65.5167C60.5501 64.5345 61.4222 63.5711 62.232 62.5652C65.3178 58.7118 68.1353 54.6836 70.4018 50.2964C71.317 48.5161 72.1747 46.7169 72.7737 44.8043C72.7737 44.8043 72.7737 44.7901 72.7785 44.7807C72.7785 44.7901 72.7785 44.7949 72.7785 44.8043C73.2672 43.5718 73.6506 42.3109 73.8566 41.0028C73.962 40.8847 73.9524 40.7336 73.9524 40.5919C73.9524 40.5919 73.9524 40.5825 73.9524 40.5778C74.1489 40.0819 74.0579 39.5341 74.2256 39.0335C74.2256 39.0335 74.2256 39.0335 74.2304 39.0335C74.4029 38.2732 74.3454 37.4988 74.4172 36.729C74.4172 36.729 74.4172 36.7196 74.4172 36.7148C74.4172 36.7148 74.422 36.7243 74.422 36.729C74.4364 36.7007 74.4412 36.6676 74.4556 36.6393L74.4508 36.6298ZM48.5901 40.8564C48.2547 40.9792 47.9049 41.0311 47.5694 41.0264C47.5599 41.0264 47.5551 41.0264 47.5455 41.0264L33.5346 40.8705L44.7567 37.4374C44.7567 37.4232 44.7663 37.409 44.7711 37.3901L44.0428 20.8098L50.1378 37.0123C50.2097 37.1729 50.2672 37.3382 50.3103 37.5035C50.708 38.8777 49.9701 40.3416 48.5901 40.8517V40.8564Z" fill="#253E96"/>
<path d="M18.2084 29.7776L18.2012 29.7848H18.2084V29.7776Z" fill="#253E96"/>
<path d="M17.7029 32.8519C17.8466 31.8177 18.0287 30.7977 18.2012 29.7871C16.9985 31.4966 16.6535 34.4245 16.4379 36.4504C16.2031 38.6841 16.2893 40.9555 16.7014 43.1704C17.2237 45.9707 18.2779 48.6719 19.7777 51.1087C20.5348 52.346 21.4068 53.5124 22.3891 54.5938C22.8348 55.0897 23.2756 55.5808 23.7835 56.0153C24.2962 56.4497 25.1252 56.8133 25.5469 57.3139C25.3264 57.0542 25.1156 56.7897 24.9048 56.5253C19.701 49.9517 16.5193 41.2011 17.7077 32.8519H17.7029Z" fill="#253E96"/>
<path d="M15.331 36.5212C15.4508 35.8223 15.5897 35.1234 15.7335 34.4387C14.8806 35.5768 14.5835 37.5696 14.3966 38.9485C14.1906 40.4692 14.2002 42.0181 14.4397 43.534C14.7464 45.456 15.4077 47.3166 16.3804 49.0073C16.8691 49.862 17.4441 50.6743 18.091 51.4298C18.3881 51.7793 18.6756 52.124 19.0158 52.4263C19.356 52.7285 19.9166 52.9977 20.1946 53.3471C20.0508 53.1677 19.9118 52.9835 19.7729 52.7993C16.3564 48.2139 14.3631 42.1881 15.3358 36.5165L15.331 36.5212Z" fill="#253E96"/>
<path d="M74.7238 24.6963C73.7367 22.0187 72.2465 19.5206 70.3634 17.3625C69.4098 16.2669 68.3556 15.2563 67.2104 14.3496C66.6833 13.934 66.1706 13.5232 65.5956 13.1784C65.0206 12.8337 64.1342 12.6023 63.6406 12.1773C63.8946 12.3992 64.1533 12.6212 64.4025 12.8479C70.6317 18.4864 75.2269 26.6042 75.4473 35.0337C75.4713 36.0773 75.4665 37.121 75.4617 38.1457H75.4713C76.3721 36.2662 76.2236 33.3194 76.099 31.2841C75.9552 29.041 75.5 26.812 74.719 24.6963H74.7238Z" fill="#253E96"/>
<path d="M77.6948 28.4931C77.6469 26.9584 77.3737 25.4283 76.8898 23.9738C76.2716 22.1273 75.3085 20.399 74.0675 18.8878C73.4398 18.118 72.7354 17.4144 71.9783 16.7722C71.6285 16.4746 71.2931 16.1866 70.905 15.941C70.5168 15.6907 69.9179 15.5207 69.592 15.2232C69.7645 15.379 69.9323 15.5349 70.1 15.6954C74.2352 19.6623 77.206 25.2866 77.1916 31.0385C77.1916 31.7516 77.1677 32.4552 77.1437 33.1541C77.7906 31.8885 77.7523 29.8862 77.7091 28.4979L77.6948 28.4931Z" fill="#253E96"/>
<path opacity="0.4" d="M36.7978 10.8975C34.953 11.5917 33.1177 12.6306 31.3879 13.8584C31.3592 13.8773 31.3304 13.8962 31.3017 13.9151C31.1675 14.0096 31.0334 14.104 30.904 14.2032C30.7794 14.2976 30.6548 14.3921 30.5302 14.4865C30.4727 14.529 30.4152 14.5715 30.3577 14.6187C30.3482 14.6282 30.3338 14.6376 30.3194 14.6471C30.1421 14.784 29.9648 14.9257 29.7923 15.0674C29.6965 15.1429 29.6006 15.2232 29.5096 15.3035C29.4713 15.3366 29.4329 15.3649 29.3946 15.3979C29.3802 15.4074 29.3706 15.4168 29.3563 15.431C29.1406 15.6152 28.9298 15.7993 28.719 15.9882C28.6471 16.0544 28.5704 16.1205 28.4986 16.1866C28.489 16.196 28.4746 16.2055 28.465 16.2149C28.4506 16.2291 28.4363 16.2385 28.4219 16.2527C28.12 16.5313 27.8229 16.8099 27.5306 17.098C27.4923 17.1358 27.4588 17.1736 27.4252 17.2066C27.1904 17.438 26.9556 17.6789 26.7256 17.9197C26.6825 17.9622 26.6442 18.0094 26.6058 18.0519C26.5436 18.118 26.4813 18.1889 26.4142 18.2597C26.2561 18.4344 26.0931 18.6044 25.935 18.7839C25.8631 18.8689 25.7913 18.9539 25.7194 19.0342C25.7194 19.0342 25.7146 19.0389 25.7098 19.0436C25.6331 19.1334 25.5565 19.2278 25.4798 19.3175C25.3792 19.4356 25.2786 19.5536 25.1779 19.6764C25.13 19.7331 25.0869 19.7898 25.0438 19.8512C25.0438 19.8512 25.039 19.8606 25.0342 19.8606C25.0198 19.8795 25.0006 19.9031 24.9863 19.922C24.9527 19.9645 24.9192 20.007 24.8856 20.0495C24.7898 20.1723 24.694 20.2951 24.5981 20.4178C24.555 20.4745 24.5071 20.5359 24.464 20.5926C24.4113 20.6681 24.3585 20.739 24.3058 20.8145C24.2867 20.8381 24.2723 20.8618 24.2531 20.8854C23.0025 22.5902 21.9483 24.4036 21.244 26.2264C20.8079 27.3645 20.3192 30.1176 20.621 30.0374C20.7983 29.9901 21.9292 27.7565 22.4994 26.7081C24.1477 23.6857 26.2561 20.8145 28.7813 18.3258C30.9998 16.1441 33.5586 14.2221 36.2467 12.6967C37.5884 11.9364 40.5784 10.6 40.6598 10.2789C40.7173 10.0664 37.9478 10.4536 36.793 10.8928L36.7978 10.8975Z" fill="#C9C9C9"/>
<path fill-rule="evenodd" clip-rule="evenodd" d="M87.7046 9.28243C86.6313 1.65104 82.8219 1.33464 76.449 0.886013C75.9938 0.2296 75.0833 -0.24264 74.125 -0.110413C72.8121 0.069038 71.8921 1.2638 72.055 2.43968C72.2227 3.61556 73.4206 4.41364 74.7336 4.22947C75.3277 4.14919 75.7877 3.96502 76.0992 3.56361C82.3619 4.02168 84.0725 4.14919 84.8488 9.66967C85.4573 14.019 84.0198 20.1912 81.1592 24.89C80.565 24.9702 80.0044 25.2866 79.7121 25.8014C78.1884 27.9217 75.644 30.5427 72.309 31.0007C68.974 31.4588 65.9216 29.5982 63.866 27.9642C63.3246 27.5581 62.8214 27.3928 62.2225 27.4731C58.1735 23.7188 55.0877 18.1558 54.4743 13.8065C53.6981 8.28601 55.1931 7.72404 61.0868 5.60369C61.6139 5.89175 62.1027 5.9437 62.5819 5.87759C63.8948 5.69813 64.8291 4.61198 64.6662 3.43611C64.5033 2.26023 63.2814 1.35825 61.9733 1.53298C61.0198 1.66521 60.3873 2.34523 60.0039 3.11498C53.9904 5.25423 50.4158 6.5765 51.4843 14.2079C52.1791 19.1381 55.4854 25.3858 60.0758 29.551C60.1573 30.1365 60.3537 30.7127 60.9 31.1141C64.1871 33.7728 67.7712 35.0809 71.1733 35.0951L72.3617 43.5529C73.55 52.006 71.5279 59.4626 65.0017 60.4118C64.6902 60.4543 64.1871 60.5724 63.8756 60.5818C63.176 61.786 61.9685 62.9572 61.3456 63.8969C62.2464 63.9867 62.6298 63.93 63.5498 63.7836C73.1427 62.263 77.1581 53.4274 75.7063 43.1042L74.5179 34.6464C77.7859 33.7208 80.8717 31.506 83.4161 28.0492C83.8282 27.5156 83.8713 26.9111 83.6652 26.3397C86.9236 20.9893 88.3946 14.2079 87.7046 9.27771V9.28243Z" fill="#ED1C24"/>
<path opacity="0.3" d="M72.5006 52.2043C72.4671 52.2137 72.4143 52.4357 72.3568 52.7143C72.2945 52.4215 72.2179 52.1901 72.1652 52.2043C72.1364 52.209 72.0885 52.3885 72.0454 52.6151C72.0071 52.7615 71.9687 52.974 71.9256 53.1818C71.9112 53.2527 71.8968 53.3235 71.8825 53.3991C71.8681 53.4746 71.8489 53.5549 71.8346 53.6305C71.8058 53.7485 71.777 53.876 71.7483 53.9988C71.7195 54.1169 71.6908 54.2349 71.6573 54.353C71.6429 54.3955 71.6333 54.438 71.6237 54.4852C71.3602 55.3352 70.9768 56.1428 70.4689 56.87C70.0089 57.5217 69.4483 58.112 68.811 58.622C68.7775 58.6504 68.7391 58.674 68.7056 58.7023C68.605 58.7826 68.4995 58.8534 68.3989 58.929C68.3223 58.9762 68.2408 59.0282 68.1593 59.0801C68.006 59.1745 67.8479 59.269 67.7185 59.354C67.6706 59.3823 67.6322 59.4059 67.5891 59.4343C67.5412 59.4626 67.4981 59.4909 67.4502 59.5193C67.3208 59.5948 67.1962 59.6704 67.0956 59.7318C66.832 59.8876 66.626 60.0199 66.6356 60.0765C66.6356 60.1049 66.7841 60.1049 66.9854 60.086C67.0908 60.1474 68.1162 59.9962 68.5187 59.8357C69.7406 59.3398 70.7852 58.4142 71.5231 57.3706C72.261 56.3222 72.7689 55.033 72.812 53.7296C72.8264 53.2763 72.6156 52.176 72.5006 52.209V52.2043Z" fill="#253E96"/>
<path d="M44.4214 77.0724L46.0218 78.5363L46.5106 78.3097L47.076 77.6627L45.5187 76.3876L44.4214 77.0724Z" fill="#253E96"/>
</g>
<path d="M144.354 26.7438C144.149 26.9406 144.05 27.1865 144.05 27.4571V29.6543H146.444C146.715 29.6543 146.977 29.5559 147.19 29.3755C147.42 29.1787 147.543 28.9328 147.543 28.6459V26.4487H145.149C144.854 26.4487 144.591 26.5389 144.354 26.7438Z" fill="#253E96"/>
<path d="M123.12 27.9081C120.882 25.7683 118.143 24.6861 114.971 24.6861C111.798 24.6861 109.068 25.7683 106.821 27.9081C104.591 30.0397 103.46 32.655 103.46 35.6884C103.46 38.7218 104.591 41.3289 106.821 43.4605C109.059 45.5839 111.798 46.6661 114.971 46.6661C115.331 46.6661 115.717 46.6497 116.127 46.6169L119.537 49.0518L122.562 47.6417L119.799 45.6413C121.775 44.7231 123.358 43.4523 124.505 41.8536C125.833 40.0172 126.498 37.9348 126.498 35.6884C126.498 32.6632 125.358 30.0397 123.12 27.9081ZM114.971 27.6785C117.225 27.6785 119.185 28.4492 120.8 29.9741C122.456 31.5564 123.267 33.4256 123.267 35.6802C123.267 37.9348 122.464 39.7876 120.8 41.3699C119.693 42.4275 118.348 43.1408 116.799 43.4933L116.405 43.1982L116.389 43.1818C115.725 42.7227 114.971 42.6735 114.282 43.0178L113.232 43.5015C111.658 43.1654 110.281 42.4439 109.15 41.3617C107.494 39.7794 106.69 37.9184 106.69 35.672C106.69 33.4256 107.494 31.5482 109.141 29.9659C110.748 28.441 112.716 27.6704 114.971 27.6704V27.6785Z" fill="#253E96"/>
<path d="M138.705 40.7961C138.705 41.6815 138.32 42.4358 137.541 43.1081C136.778 43.7639 135.942 44.0837 134.991 44.0837C134.098 44.0837 133.343 43.7721 132.704 43.1245C132.064 42.4768 131.761 41.7881 131.761 41.0175L131.745 31.1466H128.514L128.531 40.9519C128.564 42.649 129.228 44.1083 130.49 45.2888C131.736 46.4612 133.245 47.0597 134.999 47.0597C136.328 47.0597 137.565 46.6334 138.721 45.7726V46.6662H141.952V31.1384H138.721V40.7879H138.705V40.7961Z" fill="#253E96"/>
<path d="M147.404 31.1219H144.173V46.658H147.404V31.1219Z" fill="#253E96"/>
<path d="M156.75 33.7291C158.291 33.7291 159.504 34.2702 160.472 35.3851L160.611 35.5409H164.341L163.997 34.8768C163.423 33.7537 162.464 32.778 161.16 31.991C159.824 31.163 158.34 30.7448 156.758 30.7448C154.487 30.7448 152.519 31.5237 150.904 33.065C149.306 34.6227 148.494 36.5165 148.494 38.7137C148.494 40.9109 149.306 42.7883 150.904 44.346C152.511 45.8791 154.487 46.6662 156.758 46.6662C158.34 46.6662 159.816 46.248 161.152 45.4282C162.456 44.6412 163.415 43.6656 163.997 42.5424L164.341 41.8783H160.611L160.472 42.0341C159.513 43.149 158.291 43.6901 156.75 43.6901C155.34 43.6901 154.184 43.2064 153.192 42.2226C152.2 41.2388 151.716 40.091 151.716 38.7137C151.716 37.3364 152.2 36.1722 153.192 35.1884C154.175 34.2046 155.34 33.7291 156.75 33.7291Z" fill="#253E96"/>
<path d="M180.009 31.1217H175.532L169.015 37.4345V24.6777H164.555L165.301 27.6292H165.776V46.6577H169.006V40.3531L175.557 46.6577H180.058L171.966 38.8774L180.017 31.1135L180.009 31.1217Z" fill="#253E96"/>
<path d="M193.044 24.6779H186.157L186.904 27.7031H187.42V46.6579H193.061C196.217 46.6415 198.955 45.5593 201.177 43.4359C203.423 41.3043 204.555 38.6972 204.555 35.672C204.555 32.6468 203.423 30.0397 201.193 27.8917C198.955 25.7683 196.225 24.6779 193.052 24.6697L193.044 24.6779ZM201.251 35.6802C201.251 37.9266 200.447 39.7794 198.783 41.3535C197.201 42.8702 195.266 43.6409 193.036 43.649H190.65V27.7113H193.052C195.274 27.7113 197.209 28.4984 198.791 30.0069C200.447 31.5728 201.259 33.4338 201.259 35.6802H201.251Z" fill="#253E96"/>
<path d="M213.934 30.7365C211.663 30.7365 209.695 31.5153 208.08 33.0566C206.481 34.6143 205.67 36.5081 205.67 38.6971C205.67 40.8861 206.481 42.7717 208.08 44.3294C209.687 45.8625 211.663 46.6496 213.934 46.6496C216.205 46.6496 218.156 45.8707 219.755 44.3294C221.361 42.7717 222.181 40.8779 222.181 38.6971C222.181 36.5163 221.37 34.5979 219.755 33.0566C218.148 31.5235 216.188 30.7365 213.934 30.7365ZM213.934 43.6654C212.524 43.6654 211.368 43.1899 210.376 42.1979C209.384 41.214 208.9 40.0663 208.9 38.6889C208.9 37.3116 209.384 36.1474 210.376 35.1636C211.359 34.1798 212.524 33.7043 213.934 33.7043C215.344 33.7043 216.483 34.1798 217.475 35.1636C218.459 36.1474 218.935 37.3034 218.935 38.6889C218.935 40.0745 218.459 41.214 217.475 42.1979C216.483 43.1817 215.327 43.6654 213.934 43.6654Z" fill="#253E96"/>
<path d="M231.667 33.7291C233.208 33.7291 234.422 34.2702 235.389 35.3851L235.528 35.5409H239.259L238.914 34.8768C238.34 33.7537 237.381 32.778 236.078 31.991C234.741 31.163 233.257 30.7448 231.675 30.7448C229.404 30.7448 227.437 31.5237 225.821 33.065C224.223 34.6227 223.411 36.5165 223.411 38.7137C223.411 40.9109 224.223 42.7883 225.821 44.346C227.428 45.8791 229.404 46.6662 231.675 46.6662C233.257 46.6662 234.741 46.248 236.069 45.4282C237.373 44.6412 238.332 43.6656 238.914 42.5424L239.259 41.8783H235.528L235.389 42.0341C234.43 43.149 233.208 43.6901 231.667 43.6901C230.257 43.6901 229.101 43.2064 228.109 42.2226C227.117 41.2388 226.641 40.091 226.641 38.7137C226.641 37.3364 227.125 36.1722 228.117 35.1884C229.101 34.2046 230.265 33.7291 231.675 33.7291H231.667Z" fill="#253E96"/>
<path d="M246.449 27.0636H243.235V31.13H239.406L240.521 34.1552H243.227L243.21 42.4766C243.21 42.5832 243.21 42.698 243.227 42.7882C243.259 43.1161 243.325 43.444 243.423 43.7556C243.727 44.6902 244.325 45.4362 245.211 45.9609C246.006 46.4365 247.219 46.666 248.9 46.666H250.146V43.6408H248.425C248.228 43.6408 248.064 43.6408 247.941 43.6244C247.596 43.5916 247.326 43.5178 247.154 43.4194C246.818 43.2227 246.613 42.9193 246.506 42.5012C246.481 42.3618 246.457 42.2143 246.449 42.0749V34.1552H250.154V31.13H246.449V27.0472V27.0636Z" fill="#253E96"/>
<path d="M259.074 30.7365C256.803 30.7365 254.836 31.5153 253.221 33.0566C251.622 34.6143 250.81 36.5081 250.81 38.6971C250.81 40.8861 251.622 42.7717 253.221 44.3294C254.836 45.8625 256.803 46.6496 259.074 46.6496C261.345 46.6496 263.297 45.8707 264.895 44.3294C266.51 42.7717 267.322 40.8779 267.322 38.6971C267.322 36.5163 266.51 34.5979 264.895 33.0566C263.288 31.5235 261.337 30.7365 259.074 30.7365ZM259.074 43.6654C257.664 43.6654 256.508 43.1899 255.516 42.1979C254.524 41.214 254.049 40.0663 254.049 38.6889C254.049 37.3116 254.532 36.1474 255.524 35.1636C256.508 34.1798 257.672 33.7043 259.083 33.7043C260.493 33.7043 261.632 34.1798 262.624 35.1636C263.608 36.1474 264.084 37.3034 264.084 38.6889C264.084 40.0745 263.6 41.214 262.624 42.1979C261.632 43.1817 260.476 43.6654 259.083 43.6654H259.074Z" fill="#253E96"/>
<path d="M277.308 31.2778C276.775 31.0974 276.152 30.9991 275.471 30.9991C274.143 30.9991 272.905 31.4746 271.749 32.4092V31.122H268.535V46.658H271.749V37.7218C271.774 36.7707 272.175 35.9591 272.963 35.254C273.725 34.549 274.545 34.221 275.471 34.221C275.93 34.221 276.283 34.2866 276.529 34.4096L277.07 34.6801L277.677 31.409L277.3 31.286L277.308 31.2778Z" fill="#253E96"/>
<path d="M148.527 55.3811H149.724V65.8833H148.568V57.9473L145.157 65.8833H143.944L140.533 57.9473V65.8833H139.377V56.3896H139.082L138.828 55.373H140.558L144.542 64.67L148.518 55.373L148.527 55.3811Z" fill="#253E96"/>
<path d="M157.029 64.1206L157.725 65.006C157.004 65.5881 156.119 65.8833 155.086 65.8833C154.971 65.8833 154.856 65.8833 154.741 65.8833C153.643 65.8095 152.724 65.416 151.995 64.6945C151.232 63.9566 150.847 63.0712 150.847 62.03C150.847 60.9888 151.232 60.0624 151.987 59.3C152.741 58.5539 153.659 58.1768 154.733 58.1768C155.807 58.1768 156.717 58.5539 157.479 59.3C158.234 60.046 158.619 60.9642 158.619 62.03C158.619 62.1448 158.578 62.235 158.488 62.3088C158.414 62.3826 158.316 62.4235 158.193 62.4235H152.036C152.167 63.1532 152.487 63.7271 152.987 64.1616C153.495 64.5961 154.085 64.8093 154.741 64.8093C155.627 64.8093 156.389 64.5797 157.029 64.1206ZM154.725 59.2426C154.126 59.2426 153.585 59.4147 153.118 59.7673C152.651 60.1034 152.314 60.6035 152.101 61.2676H157.365C157.152 60.6117 156.799 60.1116 156.34 59.7673C155.864 59.4147 155.323 59.2426 154.741 59.2426H154.725Z" fill="#253E96"/>
<path d="M165.621 55.381H167.277L167.031 56.3976H166.785V65.8914H165.629V64.8994C164.833 65.5552 163.981 65.8914 163.095 65.8914C162.071 65.8914 161.202 65.5388 160.488 64.8256C159.775 64.1123 159.414 63.2597 159.414 62.2513C159.414 61.2429 159.775 60.382 160.488 59.6688C161.202 58.9555 162.079 58.603 163.095 58.603C163.981 58.603 164.833 58.9391 165.629 59.595V55.3974L165.621 55.381ZM163.087 64.8584C163.784 64.8584 164.383 64.6042 164.874 64.0959C165.358 63.5876 165.612 62.9727 165.612 62.2513C165.612 61.5298 165.366 60.9149 164.874 60.4066C164.374 59.8901 163.776 59.636 163.087 59.636C162.399 59.636 161.792 59.8901 161.3 60.4066C160.808 60.9149 160.554 61.5298 160.554 62.2513C160.554 62.9727 160.8 63.5876 161.3 64.0959C161.792 64.6042 162.39 64.8584 163.087 64.8584Z" fill="#253E96"/>
<path d="M168.211 57.3976V56.5286C168.211 56.4548 168.236 56.3892 168.293 56.3318C168.359 56.2745 168.433 56.2581 168.531 56.2581H169.498V57.1271C169.498 57.2009 169.474 57.2665 169.408 57.3156C169.343 57.373 169.261 57.3976 169.179 57.3976H168.211ZM169.425 65.883H168.269V58.5946H169.425V65.883Z" fill="#253E96"/>
<path d="M176.344 63.9567H177.729C177.459 64.4814 177.016 64.9241 176.393 65.3012C175.762 65.6865 175.065 65.8833 174.319 65.8833C173.245 65.8833 172.318 65.5226 171.556 64.7929C170.802 64.055 170.425 63.1778 170.425 62.1448C170.425 61.1118 170.802 60.2264 171.556 59.4885C172.318 58.7589 173.245 58.3981 174.319 58.3981C175.065 58.3981 175.754 58.5949 176.393 58.9802C177.008 59.3574 177.459 59.8083 177.729 60.3248H176.344C175.819 59.7181 175.147 59.4229 174.319 59.4229C173.565 59.4229 172.917 59.6853 172.384 60.2182C171.851 60.7429 171.581 61.3824 171.581 62.1366C171.581 62.8909 171.851 63.5139 172.384 64.0468C172.909 64.5715 173.556 64.8421 174.319 64.8421C175.155 64.8421 175.827 64.5387 176.344 63.9403V63.9567Z" fill="#253E96"/>
<path d="M186.125 59.6031H185.879V65.8831H184.723V64.891C183.919 65.5469 183.067 65.8831 182.181 65.8831C181.165 65.8831 180.296 65.5305 179.574 64.8173C178.853 64.104 178.492 63.2514 178.492 62.243C178.492 61.2346 178.853 60.3737 179.574 59.6605C180.287 58.9472 181.156 58.5947 182.181 58.5947C183.067 58.5947 183.919 58.9308 184.723 59.5867V58.5947H186.379L186.125 59.6031ZM182.189 64.8583C182.894 64.8583 183.485 64.6041 183.977 64.0958C184.469 63.5875 184.723 62.9726 184.723 62.2512C184.723 61.5297 184.477 60.9148 183.977 60.4065C183.485 59.89 182.886 59.6359 182.189 59.6359C181.493 59.6359 180.894 59.89 180.402 60.4065C179.91 60.9148 179.656 61.5297 179.656 62.2512C179.656 62.9726 179.902 63.5875 180.402 64.0958C180.902 64.6041 181.501 64.8583 182.189 64.8583Z" fill="#253E96"/>
<path d="M187.535 55.3811H189.232V65.8833H188.084V56.3896H187.789L187.535 55.373V55.3811Z" fill="#253E96"/>
<path d="M199.004 60.8985C199.332 61.1199 199.595 61.3904 199.791 61.7101C199.988 62.0299 200.087 62.4316 200.087 62.9153C200.087 63.399 199.996 63.8171 199.824 64.1943C199.652 64.5632 199.406 64.8747 199.111 65.1289C198.808 65.3748 198.447 65.5716 198.037 65.7028C197.627 65.8258 197.176 65.8913 196.701 65.8913C196.225 65.8913 195.758 65.8176 195.331 65.6536C194.905 65.4978 194.544 65.2764 194.233 64.9895C193.93 64.7026 193.684 64.3418 193.495 63.9237C193.438 63.8007 193.397 63.6942 193.372 63.6122L194.266 63.0383C194.413 63.44 194.659 63.8417 195.012 64.2435C195.397 64.6862 195.987 64.9075 196.791 64.9075C197.422 64.9075 197.939 64.7436 198.349 64.4156C198.758 64.0795 198.963 63.6286 198.963 63.0547C198.963 62.7103 198.898 62.4398 198.783 62.2184C198.652 62.0053 198.488 61.8167 198.275 61.6692C198.078 61.5134 197.848 61.3986 197.611 61.3084C197.381 61.2264 197.143 61.1527 196.906 61.0789C196.446 60.9313 196.012 60.7755 195.602 60.6279C195.2 60.4722 194.848 60.2918 194.536 60.0623C194.241 59.8491 193.995 59.5704 193.831 59.2424C193.667 58.9145 193.577 58.4964 193.577 57.9962C193.577 57.6027 193.651 57.242 193.815 56.9305C193.971 56.6107 194.184 56.332 194.454 56.1024C194.733 55.8647 195.069 55.6761 195.454 55.5531C195.84 55.4301 196.25 55.3646 196.709 55.3646C197.168 55.3646 197.586 55.4383 197.98 55.5695C198.365 55.7171 198.685 55.9221 198.963 56.1844C199.242 56.4468 199.455 56.7665 199.619 57.1436C199.644 57.2174 199.668 57.2666 199.685 57.2912L198.799 57.8487C198.726 57.5617 198.529 57.242 198.201 56.8977C197.848 56.5287 197.357 56.3402 196.75 56.3402C196.143 56.3402 195.668 56.4877 195.299 56.7747C194.922 57.0616 194.733 57.4716 194.733 57.9881C194.733 58.2832 194.79 58.5455 194.905 58.7505C195.02 58.9555 195.176 59.1194 195.364 59.267C195.553 59.3982 195.758 59.5212 195.996 59.6113C196.233 59.7015 196.479 59.7835 196.733 59.8491C197.119 59.9803 197.52 60.1196 197.93 60.2754C198.324 60.4312 198.685 60.6279 199.021 60.8575V60.8821L199.004 60.8985Z" fill="#253E96"/>
<path d="M207.047 64.1206L207.744 65.006C207.023 65.5881 206.137 65.8833 205.104 65.8833C204.989 65.8833 204.875 65.8833 204.768 65.8833C203.669 65.8095 202.751 65.416 202.022 64.6945C201.259 63.9566 200.874 63.0712 200.874 62.03C200.874 60.9888 201.251 60.0624 202.013 59.3C202.768 58.5539 203.694 58.1768 204.76 58.1768C205.826 58.1768 206.744 58.5539 207.506 59.3C208.261 60.046 208.646 60.9642 208.646 62.03C208.646 62.1448 208.605 62.235 208.515 62.3088C208.441 62.3826 208.343 62.4235 208.22 62.4235H202.063C202.194 63.1532 202.513 63.7271 203.014 64.1616C203.522 64.5961 204.112 64.8093 204.768 64.8093C205.653 64.8093 206.416 64.5797 207.055 64.1206H207.047ZM204.743 59.2426C204.145 59.2426 203.604 59.4147 203.128 59.7673C202.661 60.1034 202.325 60.6035 202.104 61.2676H207.367C207.154 60.6117 206.801 60.1116 206.342 59.7673C205.867 59.4147 205.326 59.2426 204.743 59.2426Z" fill="#253E96"/>
<path d="M212.647 58.5291C212.966 58.5291 213.245 58.57 213.491 58.652L213.286 59.7916C213.13 59.7178 212.917 59.6768 212.655 59.6768C212.138 59.6768 211.671 59.8736 211.253 60.2507C210.818 60.6442 210.589 61.1116 210.572 61.6445V65.883H209.425V58.5946H210.572V59.5293C211.204 58.8652 211.9 58.5291 212.655 58.5291H212.647Z" fill="#253E96"/>
<path d="M220.951 58.5947H222.091L218.861 65.8831H217.492L214.261 58.5947H215.401L218.18 64.8746L220.951 58.5947Z" fill="#253E96"/>
<path d="M223.026 57.3976V56.5286C223.026 56.4548 223.05 56.3892 223.108 56.3318C223.173 56.2745 223.247 56.2581 223.345 56.2581H224.313V57.1271C224.313 57.2009 224.288 57.2665 224.223 57.3156C224.149 57.373 224.075 57.3976 223.993 57.3976H223.026ZM224.239 65.883H223.083V58.5946H224.239V65.883Z" fill="#253E96"/>
<path d="M231.15 63.9567H232.528C232.257 64.4814 231.814 64.9241 231.191 65.3012C230.56 65.6865 229.863 65.8833 229.117 65.8833C228.043 65.8833 227.117 65.5226 226.362 64.7929C225.608 64.055 225.231 63.1778 225.231 62.1448C225.231 61.1118 225.608 60.2264 226.362 59.4885C227.125 58.7589 228.051 58.3981 229.117 58.3981C229.863 58.3981 230.552 58.5949 231.191 58.9802C231.806 59.3574 232.257 59.8083 232.528 60.3248H231.15C230.634 59.7181 229.953 59.4229 229.125 59.4229C228.371 59.4229 227.723 59.6853 227.19 60.2182C226.657 60.7429 226.387 61.3824 226.387 62.1366C226.387 62.8909 226.657 63.5139 227.19 64.0468C227.715 64.5715 228.363 64.8421 229.125 64.8421C229.961 64.8421 230.634 64.5387 231.15 63.9403V63.9567Z" fill="#253E96"/>
<path d="M239.496 64.1206L240.193 65.006C239.472 65.5881 238.586 65.8833 237.553 65.8833C237.438 65.8833 237.324 65.8833 237.217 65.8833C236.118 65.8095 235.2 65.416 234.471 64.6945C233.708 63.9566 233.323 63.0712 233.323 62.03C233.323 60.9888 233.708 60.0624 234.462 59.3C235.217 58.5539 236.143 58.1768 237.209 58.1768C238.275 58.1768 239.193 58.5539 239.955 59.3C240.71 60.046 241.095 60.9642 241.095 62.03C241.095 62.1448 241.054 62.235 240.964 62.3088C240.89 62.3826 240.792 62.4235 240.669 62.4235H234.512C234.643 63.1532 234.962 63.7271 235.463 64.1616C235.971 64.5961 236.561 64.8093 237.217 64.8093C238.102 64.8093 238.865 64.5797 239.504 64.1206H239.496ZM237.192 59.2426C236.594 59.2426 236.053 59.4147 235.577 59.7673C235.11 60.1034 234.774 60.6035 234.561 61.2676H239.824C239.611 60.6117 239.258 60.1116 238.799 59.7673C238.324 59.4147 237.783 59.2426 237.201 59.2426H237.192Z" fill="#253E96"/>
<path d="M244.924 61.5215C245.793 61.7101 246.424 62.0134 246.81 62.4315C247.064 62.6939 247.219 62.9972 247.269 63.3416C247.285 63.4317 247.293 63.5219 247.293 63.6121C247.293 63.8581 247.236 64.1122 247.121 64.3664C246.941 64.7845 246.646 65.1206 246.227 65.3912C245.818 65.6617 245.358 65.8175 244.85 65.8585C244.719 65.8585 244.588 65.8749 244.465 65.8749C243.801 65.8749 243.235 65.7273 242.768 65.4322C242.604 65.3256 242.448 65.2026 242.317 65.055C242.218 64.9566 242.136 64.8501 242.063 64.7271C241.956 64.5549 241.882 64.3992 241.858 64.2762L243.046 63.8908V64.0138C243.087 64.1286 243.153 64.2352 243.243 64.3336C243.497 64.6369 243.899 64.7845 244.448 64.7845C244.539 64.7845 244.637 64.7845 244.744 64.7681C245.047 64.7517 245.317 64.6533 245.555 64.4729C245.752 64.3336 245.899 64.1614 245.99 63.9646C246.014 63.9072 246.031 63.8499 246.047 63.8007C246.063 63.7269 246.072 63.6531 246.072 63.5957C246.072 63.4235 246.006 63.2514 245.875 63.112C245.654 62.8742 245.235 62.6939 244.629 62.5627L244.358 62.4971L244.079 62.4315C243.874 62.3741 243.694 62.325 243.538 62.2676C243.145 62.1118 242.817 61.9068 242.571 61.6527C242.3 61.3739 242.136 61.0378 242.071 60.6279C242.046 60.5131 242.046 60.3901 242.046 60.2835C242.046 59.9884 242.112 59.7097 242.227 59.4473C242.555 58.7012 243.186 58.2831 244.12 58.2011C244.235 58.2011 244.35 58.1848 244.457 58.1848C245.153 58.1848 245.719 58.3651 246.178 58.734C246.514 58.9964 246.752 59.3407 246.9 59.7506C246.949 59.8818 246.982 60.013 247.006 60.1524C247.023 60.2016 247.039 60.2344 247.072 60.259L245.801 60.3327C245.785 60.2426 245.768 60.1688 245.736 60.095C245.654 59.8572 245.531 59.6687 245.358 59.5293C245.137 59.3571 244.834 59.2751 244.432 59.2751C244.366 59.2751 244.284 59.2751 244.202 59.2751C243.776 59.3079 243.489 59.4965 243.333 59.8326C243.276 59.9638 243.251 60.1114 243.251 60.2671C243.251 60.3327 243.251 60.3901 243.268 60.4557C243.292 60.6607 243.366 60.8328 243.473 60.9476C243.678 61.1608 244.153 61.3493 244.899 61.5133L244.916 61.5297L244.924 61.5215Z" fill="#253E96"/>
<defs>
<clipPath id="clip0_686_23525">
<rect width="102.063" height="85.9476" fill="white" transform="translate(0.0263672)"/>
</clipPath>
</defs>
</svg>
