<svg width="41" height="41" viewBox="0 0 41 41" fill="none" xmlns="http://www.w3.org/2000/svg">
<path d="M21.1962 0.686279C21.4184 0.74993 21.6417 0.80732 21.8619 0.877232C23.4688 1.38331 24.5926 2.87128 24.6365 4.55646C24.649 5.02497 24.6479 5.49348 24.6396 5.96199C24.6323 6.3919 24.3599 6.68406 23.9853 6.6872C23.6139 6.68928 23.3269 6.39503 23.3144 5.97138C23.3008 5.50287 23.3196 5.03436 23.305 4.56585C23.2612 3.17597 22.0884 2.04173 20.6953 2.0146C20.4627 2.01043 20.351 2.09286 20.2529 2.29529C19.8564 3.1144 19.4317 3.91891 19.0383 4.73906C18.623 5.60409 17.9594 6.02251 16.9931 6.01834C14.1038 6.00686 11.2145 6.00478 8.32516 6.01834C7.35997 6.02251 6.69006 5.61244 6.27164 4.75054C5.88034 3.94395 5.4567 3.15197 5.07793 2.34016C4.94958 2.06573 4.78785 2.00103 4.50821 2.01877C3.15797 2.10434 2.06339 3.19475 1.99139 4.54915C1.98304 4.70463 1.98617 4.86115 1.98617 5.01767C1.98617 15.4689 1.98617 25.9191 1.98617 36.3704C1.98617 38.2684 3.06406 39.3484 4.96002 39.3484C10.0876 39.3484 15.2162 39.3484 20.3437 39.3484C22.1291 39.3484 23.1276 38.4521 23.3144 36.6855C23.3572 36.2827 23.6337 36.0083 23.9916 36.0135C24.3693 36.0187 24.6365 36.3172 24.6417 36.7408C24.6699 38.8079 22.9043 40.6246 20.7819 40.6694C19.2992 40.7007 17.8144 40.6788 16.3306 40.6788C12.5689 40.6788 8.80828 40.6788 5.04662 40.6788C2.68006 40.6788 1.28601 39.5936 0.703757 37.3001C0.698539 37.2782 0.671414 37.2615 0.655762 37.2427C0.655762 26.204 0.655762 15.1642 0.655762 4.12551C0.682892 4.04308 0.718372 3.96169 0.737154 3.87821C1.00845 2.6918 1.66165 1.77669 2.73015 1.19862C3.15275 0.970099 3.63691 0.855319 4.0929 0.68941C9.79434 0.68941 15.4968 0.68941 21.1983 0.68941L21.1962 0.686279ZM6.40416 2.03547C6.81424 2.84623 7.18259 3.63091 7.61353 4.38011C7.70849 4.54498 8.02465 4.66498 8.23961 4.66706C11.178 4.68585 14.1163 4.67646 17.0547 4.68376C17.4304 4.68376 17.6631 4.52202 17.8206 4.19751C18.1044 3.61422 18.3997 3.03614 18.6888 2.45389C18.7535 2.32346 18.8098 2.1899 18.8797 2.03651H6.4052L6.40416 2.03547Z" fill="#787878"/>
<path d="M27.3068 34.6727C24.2213 34.6727 21.1369 34.68 18.0514 34.6695C16.0145 34.6622 14.4066 33.3339 14.0549 31.3607C13.9756 30.9173 13.9965 30.4529 13.9934 29.999C13.9861 28.9316 13.9798 27.8641 13.9986 26.7966C14.0038 26.5076 13.9047 26.3605 13.6532 26.2269C11.3993 25.0384 9.15695 23.828 6.90204 22.6416C6.36257 22.3578 5.99006 21.9769 5.98901 21.3498C5.98901 20.7216 6.36257 20.3408 6.90099 20.057C9.15486 18.8695 11.3983 17.6601 13.6522 16.4706C13.9036 16.3381 14.0038 16.1941 13.9996 15.903C13.9819 14.6665 13.9881 13.43 13.9934 12.1935C14.0038 9.71945 15.6963 8.02488 18.1661 8.02383C24.2714 8.0207 30.3767 8.0207 36.4819 8.02383C38.9403 8.02488 40.6453 9.73927 40.6464 12.207C40.6485 18.2998 40.6485 24.3915 40.6464 30.4842C40.6464 32.9708 38.9424 34.6695 36.4475 34.6716C33.4017 34.6747 30.3548 34.6716 27.3089 34.6716L27.3068 34.6727ZM7.33403 21.3425C7.48742 21.4281 7.59698 21.4917 7.70967 21.5522C10.0376 22.796 12.3604 24.0471 14.6977 25.2732C15.1474 25.509 15.3426 25.8043 15.3332 26.3156C15.3081 27.7076 15.3227 29.1006 15.3259 30.4936C15.33 32.2414 16.4298 33.3391 18.1808 33.3391C24.2724 33.3402 30.3641 33.3402 36.4558 33.3391C38.2015 33.3391 39.3139 32.2289 39.3149 30.4884C39.317 24.3967 39.317 18.305 39.3149 12.2133C39.3149 10.4697 38.2016 9.3532 36.4642 9.3532C30.36 9.35215 24.2547 9.35215 18.1505 9.3532C16.4486 9.3532 15.3332 10.4593 15.3269 12.1528C15.3217 13.5719 15.3133 14.991 15.3321 16.409C15.3384 16.8849 15.1641 17.1802 14.7394 17.4003C13.217 18.1913 11.7082 19.0093 10.1941 19.8159C9.25504 20.3168 8.31488 20.8176 7.33507 21.3404L7.33403 21.3425Z" fill="#787878"/>
<path d="M12.6557 36.6836C14.3732 36.6836 16.0897 36.6825 17.8072 36.6836C18.3508 36.6836 18.6357 36.9121 18.6378 37.3389C18.6409 37.7677 18.3498 38.0129 17.8176 38.014C14.3701 38.0161 10.9225 38.0161 7.47489 38.014C6.95003 38.014 6.65369 37.7573 6.66204 37.3295C6.67038 36.9142 6.94795 36.6846 7.46446 36.6846C9.19451 36.6825 10.9246 36.6846 12.6546 36.6846L12.6557 36.6836Z" fill="#787878"/>
<path d="M17.9844 18.0149C18.0116 16.2838 18.5657 14.4442 19.9868 12.9312C21.0658 11.7824 22.7562 11.7323 23.8988 12.8206C24.5488 13.4404 25.1843 14.0759 25.802 14.727C26.8444 15.8289 26.8288 17.3941 25.7791 18.4876C25.3919 18.8914 24.9954 19.2869 24.5906 19.674C24.4205 19.8368 24.3892 19.962 24.5415 20.1676C25.6643 21.6869 26.9822 23.0058 28.5046 24.1254C28.6893 24.2611 28.8166 24.2527 28.972 24.091C29.3331 23.7153 29.7035 23.3501 30.0739 22.9839C31.2405 21.8308 32.8808 21.8215 34.0485 22.9672C34.6432 23.5505 35.2349 24.1369 35.8161 24.7337C36.9639 25.9118 36.9294 27.5636 35.719 28.6832C33.9952 30.2787 31.9115 30.7931 29.6252 30.647C27.4298 30.5061 25.5172 29.6453 23.856 28.2408C22.1937 26.8342 20.6286 25.3264 19.4578 23.4639C18.4707 21.8924 17.9897 20.1749 17.9834 18.017L17.9844 18.0149ZM30.2857 29.3469C32.1066 29.3677 33.6279 28.8043 34.8008 27.7243C35.4655 27.1118 35.4968 26.3135 34.8676 25.6687C34.277 25.0635 33.678 24.4656 33.0739 23.875C32.4478 23.2625 31.6913 23.2646 31.0704 23.8719C30.6614 24.2725 30.2649 24.6857 29.8558 25.0854C29.2266 25.6989 28.4816 25.7542 27.7762 25.2419C26.089 24.0169 24.6323 22.5602 23.4104 20.8709C22.9106 20.1801 22.967 19.4319 23.5638 18.8226C23.9739 18.4041 24.3965 17.9993 24.8055 17.5809C25.3972 16.9736 25.4003 16.215 24.8055 15.6045C24.2066 14.99 23.5982 14.3837 22.9836 13.7837C22.3659 13.1806 21.5802 13.1942 20.9844 13.8192C19.8794 14.9764 19.3994 16.3934 19.3284 17.9607C19.223 20.2709 20.015 22.3077 21.4915 24.0211C22.5558 25.2555 23.7641 26.3845 25.0142 27.4353C26.5523 28.7291 28.3835 29.3646 30.2889 29.3458L30.2857 29.3469Z" fill="#787878"/>
</svg>
