<svg width="41" height="41" viewBox="0 0 41 41" fill="none" xmlns="http://www.w3.org/2000/svg">
<path d="M21.1962 0.478516C21.4184 0.542166 21.6417 0.599557 21.8619 0.669468C23.4688 1.17554 24.5926 2.66351 24.6365 4.34869C24.649 4.81721 24.6479 5.28572 24.6396 5.75423C24.6323 6.18413 24.3599 6.4763 23.9853 6.47943C23.6139 6.48152 23.3269 6.18726 23.3144 5.76362C23.3008 5.29511 23.3196 4.8266 23.305 4.35809C23.2612 2.9682 22.0884 1.83397 20.6953 1.80684C20.4627 1.80266 20.351 1.88509 20.2529 2.08753C19.8564 2.90664 19.4317 3.71114 19.0383 4.5313C18.623 5.39632 17.9594 5.81475 16.9931 5.81058C14.1038 5.7991 11.2145 5.79701 8.32516 5.81058C7.35997 5.81475 6.69006 5.40467 6.27164 4.54278C5.88034 3.73619 5.4567 2.9442 5.07793 2.13239C4.94958 1.85796 4.78785 1.79327 4.50821 1.81101C3.15797 1.89657 2.06339 2.98698 1.99139 4.34139C1.98304 4.49687 1.98617 4.65338 1.98617 4.8099C1.98617 15.2612 1.98617 25.7114 1.98617 36.1626C1.98617 38.0607 3.06406 39.1407 4.96002 39.1407C10.0876 39.1407 15.2162 39.1407 20.3437 39.1407C22.1291 39.1407 23.1276 38.2443 23.3144 36.4778C23.3572 36.075 23.6337 35.8005 23.9916 35.8058C24.3693 35.811 24.6365 36.1094 24.6417 36.5331C24.6699 38.6001 22.9043 40.4168 20.7819 40.4617C19.2992 40.493 17.8144 40.4711 16.3306 40.4711C12.5689 40.4711 8.80828 40.4711 5.04662 40.4711C2.68006 40.4711 1.28601 39.3859 0.703757 37.0924C0.698539 37.0704 0.671414 37.0537 0.655762 37.035C0.655762 25.9962 0.655762 14.9565 0.655762 3.91775C0.682892 3.83531 0.718372 3.75392 0.737154 3.67045C1.00845 2.48404 1.66165 1.56893 2.73015 0.990853C3.15275 0.762336 3.63691 0.647556 4.0929 0.481646C9.79434 0.481646 15.4968 0.481646 21.1983 0.481646L21.1962 0.478516ZM6.40416 1.8277C6.81424 2.63847 7.18259 3.42315 7.61353 4.17235C7.70849 4.33722 8.02465 4.45721 8.23961 4.4593C11.178 4.47808 14.1163 4.46869 17.0547 4.476C17.4304 4.476 17.6631 4.31426 17.8206 3.98975C18.1044 3.40645 18.3997 2.82838 18.6888 2.24613C18.7535 2.1157 18.8098 1.98214 18.8797 1.82875H6.4052L6.40416 1.8277Z" fill="#253E96"/>
<path d="M27.3068 34.4646C24.2213 34.4646 21.1369 34.472 18.0514 34.4615C16.0145 34.4542 14.4066 33.1259 14.0549 31.1527C13.9756 30.7093 13.9965 30.2449 13.9934 29.791C13.9861 28.7236 13.9798 27.6561 13.9986 26.5886C14.0038 26.2996 13.9047 26.1525 13.6532 26.0189C11.3993 24.8304 9.15695 23.62 6.90204 22.4336C6.36257 22.1498 5.99006 21.7689 5.98901 21.1418C5.98901 20.5136 6.36257 20.1328 6.90099 19.849C9.15486 18.6615 11.3983 17.4521 13.6522 16.2626C13.9036 16.1301 14.0038 15.9861 13.9996 15.695C13.9819 14.4585 13.9881 13.222 13.9934 11.9855C14.0038 9.51144 15.6963 7.81687 18.1661 7.81582C24.2714 7.81269 30.3767 7.81269 36.4819 7.81582C38.9403 7.81687 40.6453 9.53127 40.6464 11.999C40.6485 18.0918 40.6485 24.1835 40.6464 30.2762C40.6464 32.7628 38.9424 34.4615 36.4475 34.4636C33.4017 34.4667 30.3548 34.4636 27.3089 34.4636L27.3068 34.4646ZM7.33403 21.1345C7.48742 21.2201 7.59698 21.2837 7.70967 21.3442C10.0376 22.588 12.3604 23.8391 14.6977 25.0652C15.1474 25.301 15.3426 25.5963 15.3332 26.1076C15.3081 27.4996 15.3227 28.8926 15.3259 30.2856C15.33 32.0334 16.4298 33.1311 18.1808 33.1311C24.2724 33.1322 30.3641 33.1322 36.4558 33.1311C38.2015 33.1311 39.3139 32.0209 39.3149 30.2804C39.317 24.1887 39.317 18.097 39.3149 12.0053C39.3149 10.2617 38.2016 9.14519 36.4642 9.14519C30.36 9.14414 24.2547 9.14414 18.1505 9.14519C16.4486 9.14519 15.3332 10.2513 15.3269 11.9448C15.3217 13.3639 15.3133 14.783 15.3321 16.201C15.3384 16.6769 15.1641 16.9722 14.7394 17.1923C13.217 17.9833 11.7082 18.8013 10.1941 19.6079C9.25504 20.1088 8.31488 20.6096 7.33507 21.1324L7.33403 21.1345Z" fill="#253E96"/>
<path d="M12.6557 36.476C14.3732 36.476 16.0897 36.475 17.8072 36.476C18.3508 36.476 18.6357 36.7046 18.6378 37.1313C18.6409 37.5602 18.3498 37.8054 17.8176 37.8065C14.3701 37.8085 10.9225 37.8085 7.47489 37.8065C6.95003 37.8065 6.65369 37.5498 6.66204 37.1219C6.67038 36.7067 6.94795 36.4771 7.46446 36.4771C9.19451 36.475 10.9246 36.4771 12.6546 36.4771L12.6557 36.476Z" fill="#253E96"/>
<path d="M17.9844 17.8072C18.0116 16.0761 18.5657 14.2365 19.9868 12.7234C21.0658 11.5746 22.7562 11.5245 23.8988 12.6128C24.5488 13.2327 25.1843 13.8681 25.802 14.5192C26.8444 15.6211 26.8288 17.1863 25.7791 18.2799C25.3919 18.6837 24.9954 19.0791 24.5906 19.4663C24.4205 19.629 24.3892 19.7543 24.5415 19.9598C25.6643 21.4791 26.9822 22.798 28.5046 23.9176C28.6893 24.0533 28.8166 24.0449 28.972 23.8832C29.3331 23.5076 29.7035 23.1424 30.0739 22.7761C31.2405 21.6231 32.8808 21.6137 34.0485 22.7594C34.6432 23.3427 35.2349 23.9291 35.8161 24.526C36.9639 25.704 36.9294 27.3558 35.719 28.4755C33.9952 30.0709 31.9115 30.5853 29.6252 30.4392C27.4298 30.2984 25.5172 29.4375 23.856 28.033C22.1937 26.6265 20.6286 25.1187 19.4578 23.2561C18.4707 21.6846 17.9897 19.9671 17.9834 17.8093L17.9844 17.8072ZM30.2857 29.1391C32.1066 29.16 33.6279 28.5965 34.8008 27.5165C35.4655 26.904 35.4968 26.1058 34.8676 25.4609C34.277 24.8557 33.678 24.2578 33.0739 23.6672C32.4478 23.0547 31.6913 23.0568 31.0704 23.6641C30.6614 24.0648 30.2649 24.478 29.8558 24.8776C29.2266 25.4912 28.4816 25.5465 27.7762 25.0341C26.089 23.8091 24.6323 22.3525 23.4104 20.6631C22.9106 19.9723 22.967 19.2242 23.5638 18.6148C23.9739 18.1964 24.3965 17.7915 24.8055 17.3731C25.3972 16.7658 25.4003 16.0072 24.8055 15.3968C24.2066 14.7822 23.5982 14.1759 22.9836 13.576C22.3659 12.9728 21.5802 12.9864 20.9844 13.6114C19.8794 14.7686 19.3994 16.1856 19.3284 17.7529C19.223 20.0631 20.015 22.0999 21.4915 23.8133C22.5558 25.0477 23.7641 26.1767 25.0142 27.2275C26.5523 28.5214 28.3835 29.1568 30.2889 29.1381L30.2857 29.1391Z" fill="#253E96"/>
</svg>
