<svg width="41" height="41" viewBox="0 0 41 41" fill="none" xmlns="http://www.w3.org/2000/svg">
<path d="M15.3936 0.491017C16.2606 0.648299 17.1526 0.724201 17.9914 0.976165C23.5894 2.65384 27.0058 6.36288 28.2132 12.0915C28.2242 12.1424 28.2336 12.1933 28.2445 12.2441C28.2609 12.32 28.2782 12.3951 28.2868 12.4311C29.2312 12.6972 30.1851 12.8772 31.0693 13.2309C36.4967 15.4031 39.6103 19.4016 40.2324 25.2242C40.6072 28.7298 39.6205 31.9192 37.5531 34.7683C37.395 34.9866 37.3778 35.1744 37.4451 35.4123C37.762 36.5289 38.2918 37.5337 39.0085 38.4429C39.0813 38.5353 39.1572 38.6245 39.2276 38.7176C39.6392 39.2653 39.489 39.8154 38.8387 40.0455C36.6501 40.8194 34.564 40.5799 32.5991 39.3537C32.3487 39.1972 32.1687 39.1753 31.8964 39.2927C24.3586 42.5502 15.7825 38.8498 13.0109 31.1344C12.7049 30.283 12.521 29.3879 12.2941 28.5639C11.19 28.2204 10.0632 27.9144 8.97395 27.5083C8.52401 27.3408 8.2251 27.3573 7.81429 27.603C5.96916 28.7047 4.00431 28.9035 1.96043 28.2305C1.08872 27.9434 0.933008 27.4152 1.50736 26.7094C2.28125 25.7586 2.85247 24.7054 3.18817 23.5238C3.25781 23.2797 3.22103 23.0942 3.0661 22.883C1.53631 20.8039 0.644266 18.4767 0.390737 15.9062C0.379782 15.792 0.34457 15.6801 0.320312 15.5666C0.320312 14.8898 0.320312 14.2129 0.320312 13.5352C0.396997 13.036 0.469769 12.536 0.551149 12.0383C1.42363 6.72126 5.80327 2.07166 11.0695 0.890091C11.8262 0.720289 12.5985 0.621694 13.3638 0.490234C14.0406 0.490234 14.7175 0.490234 15.3943 0.490234L15.3936 0.491017ZM3.39083 26.9762C3.50038 26.9919 3.6741 27.0294 3.85016 27.0388C5.17023 27.1116 6.40032 26.8056 7.43634 25.9816C7.99583 25.5372 8.44185 25.5489 9.06002 25.8463C11.4255 26.9864 13.9295 27.3213 16.5117 26.869C23.2271 25.6929 27.6842 19.4963 26.7335 12.7027C25.7444 5.63594 18.8037 0.798539 11.8246 2.31345C2.91116 4.24779 -1.06393 14.601 4.322 21.9267C4.82515 22.6114 4.9613 23.2171 4.68352 23.9698C4.64283 24.0794 4.6264 24.1983 4.57945 24.3048C4.1882 25.1921 3.79147 26.0771 3.39083 26.9762ZM26.4667 21.7382C26.6905 21.7382 26.8438 21.7382 26.9972 21.7382C28.5458 21.7382 30.0951 21.7397 31.6437 21.7382C31.9864 21.7382 32.2971 21.8563 32.3949 22.1811C32.4653 22.4135 32.4379 22.721 32.3417 22.9463C32.2141 23.246 31.8956 23.3039 31.5764 23.3032C29.6374 23.2985 27.6975 23.3071 25.7585 23.2946C25.4823 23.293 25.3078 23.3806 25.1349 23.5896C24.2937 24.6107 23.3116 25.4793 22.2154 26.2195C22.1481 26.2649 22.0878 26.322 21.9579 26.4261H22.4697C25.4502 26.4261 28.4307 26.4261 31.4113 26.4261C31.5412 26.4261 31.6726 26.4183 31.801 26.4347C32.1993 26.484 32.4919 26.815 32.4935 27.2039C32.495 27.592 32.2039 27.9262 31.8057 27.9778C31.6648 27.9958 31.52 27.988 31.3768 27.988C27.6412 27.988 23.9063 27.9942 20.1707 27.9841C19.2333 27.9817 18.3005 27.9676 17.3991 28.2869C17.2418 28.3424 17.0697 28.3636 16.9022 28.3816C15.935 28.4856 14.9671 28.5835 13.9772 28.686C13.9858 28.7595 13.989 28.8753 14.0132 28.9864C14.7777 32.4482 16.6135 35.1956 19.648 37.0313C23.5511 39.3929 27.6224 39.5595 31.7603 37.6299C32.2446 37.4038 32.5991 37.4476 33.049 37.7465C33.6477 38.1432 34.3081 38.4766 34.9842 38.7168C35.7252 38.9797 36.5179 39.011 37.2902 38.831C36.9803 38.2356 36.647 37.6894 36.4052 37.1048C36.1579 36.5078 35.9928 35.8755 35.8058 35.255C35.6845 34.8544 35.7807 34.5101 36.046 34.1674C38.0891 31.5335 39.0469 28.5435 38.665 25.2273C38.0578 19.9627 35.1845 16.4195 30.2266 14.5728C29.6647 14.3631 29.0638 14.2575 28.4354 14.0908C28.484 16.8523 27.8556 19.3547 26.4651 21.7382H26.4667Z" fill="#253E96"/>
<path d="M27.0325 31.1118C28.5403 31.1118 30.0482 31.1017 31.5553 31.1228C31.7947 31.1259 32.0678 31.2214 32.2611 31.363C32.5052 31.5422 32.5585 31.8419 32.4489 32.1416C32.33 32.4671 32.0897 32.6486 31.7462 32.6682C31.4739 32.6839 31.2008 32.6745 30.9277 32.6745C28.1851 32.6745 25.4424 32.6745 22.7005 32.6745C22.584 32.6745 22.4666 32.6792 22.35 32.6721C21.8844 32.644 21.555 32.3051 21.5667 31.8716C21.5784 31.4522 21.9016 31.1236 22.3539 31.1173C23.2765 31.1048 24.1998 31.1126 25.1224 31.1126C25.7593 31.1126 26.3963 31.1126 27.0332 31.1126L27.0325 31.1118Z" fill="#253E96"/>
<path d="M19.2014 31.1141C19.6317 31.1031 19.9987 31.4615 19.9987 31.8919C19.9987 32.3074 19.6544 32.6595 19.2397 32.6705C18.8093 32.6814 18.4431 32.323 18.4431 31.8911C18.4431 31.4748 18.7851 31.1242 19.2014 31.1133V31.1141Z" fill="#253E96"/>
<path d="M17.0807 22.8174C16.8209 22.6265 16.8412 22.4442 17.1331 22.3041C17.1691 22.2869 17.2105 22.2313 17.2105 22.1938C17.2152 21.6155 17.2137 21.0372 17.2137 20.448H16.1002V22.2603C16.1307 22.2697 16.1573 22.2791 16.1847 22.2869C16.3623 22.3378 16.4414 22.4426 16.4124 22.5889C16.3827 22.7353 16.2692 22.8049 16.0877 22.7877C15.8169 22.7626 15.583 22.5342 15.5806 22.2564C15.5736 21.4269 15.5642 20.5967 15.5861 19.768C15.597 19.3549 15.8427 19.0638 16.216 18.8869C16.2723 18.8603 16.331 18.8392 16.3952 18.8134C16.3952 18.1764 16.3991 17.5403 16.3889 16.9041C16.3881 16.8454 16.2997 16.7875 16.2269 16.6975C16.1025 17.059 15.9953 17.3681 15.8897 17.6772C15.6745 18.3048 15.4609 18.9331 15.2426 19.5599C15.2175 19.6319 15.1792 19.7313 15.1221 19.7524C15.0383 19.7845 14.9233 19.7821 14.838 19.75C14.7222 19.7054 14.705 19.5865 14.7371 19.473C14.7762 19.3384 14.8247 19.207 14.8748 19.0567H13.0829C13.3763 19.923 13.6674 20.7829 13.9726 21.6844C14.0086 21.5967 14.0305 21.5482 14.0477 21.4981C14.1353 21.2462 14.2159 20.9926 14.309 20.743C14.3638 20.5959 14.4828 20.5474 14.6244 20.5967C14.7645 20.6452 14.8294 20.7587 14.7864 20.9066C14.7371 21.0748 14.676 21.2407 14.6189 21.4066C14.4984 21.7611 14.374 22.114 14.2574 22.47C14.2105 22.6124 14.158 22.7439 13.9812 22.7454C13.8043 22.747 13.7496 22.6179 13.701 22.4747C13.0766 20.6264 12.4498 18.779 11.8238 16.9315C11.8043 16.8728 11.7808 16.8157 11.7565 16.7515C11.6133 16.7695 11.557 16.8321 11.5586 16.9831C11.5648 18.0739 11.5633 19.1647 11.5601 20.2555C11.5601 20.3674 11.5828 20.4332 11.6963 20.4887C12.057 20.6656 12.2284 21.0592 12.1337 21.4481C12.0445 21.8166 11.6916 22.0905 11.3082 22.0897C10.9161 22.0889 10.5742 21.815 10.4819 21.4277C10.3926 21.0552 10.5758 20.6703 10.924 20.4793C10.978 20.4496 11.0468 20.3823 11.0468 20.3322C11.0539 19.2586 11.0523 18.185 11.0523 17.1005C11.0233 17.1036 11.0014 17.1005 10.985 17.1083C10.5531 17.3235 10.1156 17.5277 9.6931 17.7594C9.19386 18.034 8.94033 18.4761 8.93642 19.0434C8.9286 20.1515 8.93407 21.2595 8.93407 22.3675C8.93407 22.4246 8.93877 22.4817 8.93016 22.5373C8.90825 22.6742 8.82218 22.747 8.68446 22.7493C8.54674 22.7525 8.45753 22.6828 8.42936 22.5475C8.41919 22.4982 8.4231 22.4457 8.4231 22.3949C8.4231 21.3041 8.42232 20.2133 8.4231 19.1225C8.4231 18.2555 8.81357 17.6263 9.58589 17.2343C9.89342 17.0778 10.2017 16.9229 10.5202 16.7625C10.431 16.5848 10.3402 16.4221 10.2643 16.2531C10.0311 15.7272 9.91689 15.1756 9.91767 14.5996C9.91924 12.8555 9.91611 11.1113 9.92002 9.36708C9.92159 8.58615 10.1493 7.86938 10.5711 7.21286C10.6399 7.10488 10.7229 7.02506 10.8606 7.04697C11.057 7.07827 11.1329 7.27859 11.0124 7.46952C10.7925 7.81773 10.6157 8.18551 10.5312 8.58928C10.4842 8.8162 10.438 9.0486 10.4365 9.27866C10.4286 11.1136 10.4247 12.9486 10.4365 14.7843C10.4404 15.4095 10.6454 15.9854 10.9936 16.5324C11.1298 16.4659 11.2604 16.4017 11.3903 16.3376C11.69 16.1881 11.9897 16.0394 12.2886 15.8884C12.4866 15.7883 12.593 15.6474 12.5844 15.4033C12.5664 14.8986 12.5829 14.3923 12.5743 13.8868C12.5735 13.8234 12.5265 13.7365 12.4733 13.7021C11.5554 13.1012 11.0922 12.2545 11.0828 11.159C11.0797 10.8069 11.0812 10.4548 11.0844 10.1026C11.0867 9.89605 11.1728 9.79902 11.3661 9.7951C12.3583 9.77163 13.0038 9.24344 13.4233 8.38739C13.4827 8.26532 13.5289 8.13699 13.5782 8.00945C13.6486 7.82791 13.7723 7.71914 13.9726 7.7121C14.1721 7.70505 14.3083 7.79191 14.392 7.99536C14.6283 8.57284 14.9875 9.05095 15.5125 9.39603C15.8341 9.60731 16.1839 9.74894 16.5579 9.83579C16.8428 9.90231 16.8827 9.95082 16.8788 10.2427C16.8725 10.702 16.8975 11.166 16.8436 11.6207C16.7387 12.5065 16.2747 13.188 15.5282 13.6708C15.4155 13.7436 15.3826 13.8179 15.3842 13.9439C15.3905 14.4322 15.3952 14.9212 15.3826 15.4095C15.3779 15.6177 15.4515 15.764 15.6283 15.8555C16.0658 16.0825 16.5071 16.3031 16.9578 16.5324C17.209 16.1592 17.3733 15.7632 17.4508 15.3367C17.4985 15.0754 17.5235 14.807 17.5251 14.5417C17.5314 12.8547 17.5314 11.1668 17.5275 9.47976C17.5243 7.68706 16.3467 6.25743 14.5845 5.928C13.6619 5.75585 12.802 5.95148 12.014 6.46167C11.9803 6.48358 11.949 6.50783 11.9146 6.52818C11.7659 6.61817 11.6243 6.59469 11.5421 6.46714C11.4647 6.34586 11.4936 6.20735 11.6274 6.11111C12.0226 5.8255 12.4577 5.62126 12.9295 5.49841C15.2739 4.88806 17.6049 6.40767 17.9915 8.79899C18.022 8.98913 18.0353 9.18319 18.0353 9.37569C18.0384 11.1253 18.0384 12.8758 18.0369 14.6255C18.0369 15.3446 17.8545 16.0167 17.4938 16.6396C17.4742 16.6733 17.4602 16.7093 17.4359 16.7585C17.7254 16.9057 18.0048 17.0551 18.2896 17.1913C19.1441 17.5989 19.5479 18.2727 19.5361 19.2187C19.5236 20.2923 19.5338 21.3667 19.533 22.4403C19.533 22.6335 19.4602 22.7313 19.3116 22.7493C19.1402 22.7697 19.0252 22.6641 19.0236 22.4763C19.0205 22.0443 19.0228 21.6124 19.0228 21.1812C19.0228 20.4879 19.0244 19.7946 19.0228 19.1021C19.0212 18.4558 18.7325 17.9847 18.1503 17.6975C17.7442 17.4972 17.3389 17.2961 16.9163 17.0872V18.8204C16.9805 18.847 17.0501 18.8705 17.1151 18.9042C17.5079 19.1084 17.7168 19.437 17.7215 19.8768C17.7301 20.6491 17.7223 21.4222 17.7246 22.1946C17.7254 22.5099 17.547 22.6914 17.2849 22.8182H17.0807V22.8174ZM11.593 10.2983C11.593 10.6269 11.5891 10.9438 11.593 11.2607C11.6079 12.393 12.4553 13.3922 13.5524 13.5746C14.7285 13.7702 15.838 13.1231 16.2332 12.0213C16.4335 11.4634 16.3459 10.8898 16.3678 10.317C15.2793 10.0259 14.4875 9.38899 13.9945 8.36783C13.5195 9.42968 12.7894 10.1511 11.5922 10.2975L11.593 10.2983ZM12.2307 16.4964C12.2339 16.523 12.2323 16.5465 12.2393 16.5668C12.4491 17.1897 12.658 17.8134 12.8763 18.4331C12.8927 18.4793 12.9819 18.5278 13.0375 18.5278C13.6674 18.5348 14.2981 18.5293 14.928 18.534C15.0329 18.5348 15.0751 18.4957 15.1064 18.401C15.2535 17.9542 15.4077 17.5097 15.5587 17.0645C15.6221 16.8783 15.6847 16.692 15.7488 16.5035C15.6158 16.4307 15.4953 16.3681 15.3787 16.2992C15.0376 16.0989 14.8576 15.8133 14.8732 15.4033C14.8881 15.012 14.8764 14.62 14.8764 14.228V13.9799C14.2676 14.1685 13.683 14.1599 13.0884 13.983C13.0884 14.4846 13.079 14.9619 13.0915 15.4377C13.1009 15.8125 12.9397 16.0801 12.6322 16.2711C12.503 16.3516 12.3661 16.4197 12.2307 16.4941V16.4964ZM16.1017 19.9136H17.2074C17.2074 19.5419 16.9562 19.2899 16.6166 19.3056C16.3021 19.3197 16.0689 19.5935 16.1025 19.9136H16.1017ZM10.9725 21.2329C10.9701 21.4183 11.1149 21.5725 11.298 21.5787C11.4827 21.585 11.6493 21.4222 11.6478 21.236C11.6462 21.0537 11.4936 20.9042 11.309 20.9034C11.1196 20.9027 10.9748 21.0451 10.9717 21.2329H10.9725Z" fill="#253E96"/>
<path d="M13.9438 12.9273C13.6855 12.918 13.4304 12.8241 13.2176 12.6269C13.0924 12.5103 13.0807 12.3647 13.184 12.2528C13.2833 12.1448 13.4171 12.1394 13.547 12.2395C13.8553 12.4774 14.0995 12.4782 14.407 12.2427C14.5432 12.1386 14.6911 12.1441 14.7842 12.2567C14.8757 12.3671 14.8546 12.5181 14.7325 12.6339C14.5416 12.8147 14.2466 12.9289 13.9445 12.9273H13.9438Z" fill="#253E96"/>
</svg>
