<svg width="41" height="41" viewBox="0 0 41 41" fill="none" xmlns="http://www.w3.org/2000/svg">
<path d="M15.3936 0.684132C16.2606 0.841414 17.1526 0.917316 17.9914 1.16928C23.5894 2.84695 27.0058 6.55599 28.2132 12.2847C28.2242 12.3355 28.2336 12.3864 28.2445 12.4372C28.2609 12.5131 28.2782 12.5883 28.2868 12.6243C29.2312 12.8903 30.1851 13.0703 31.0693 13.424C36.4967 15.5962 39.6103 19.5947 40.2324 25.4173C40.6072 28.9229 39.6205 32.1124 37.5531 34.9614C37.395 35.1797 37.3778 35.3675 37.4451 35.6054C37.762 36.722 38.2918 37.7268 39.0085 38.636C39.0813 38.7284 39.1572 38.8176 39.2276 38.9107C39.6392 39.4584 39.489 40.0085 38.8387 40.2386C36.6501 41.0125 34.564 40.773 32.5991 39.5469C32.3487 39.3904 32.1687 39.3685 31.8964 39.4858C24.3586 42.7434 15.7825 39.0429 13.0109 31.3275C12.7049 30.4762 12.521 29.581 12.2941 28.757C11.19 28.4135 10.0632 28.1075 8.97395 27.7014C8.52401 27.534 8.2251 27.5504 7.81429 27.7961C5.96916 28.8979 4.00431 29.0966 1.96043 28.4237C1.08872 28.1365 0.933008 27.6083 1.50736 26.9025C2.28125 25.9518 2.85247 24.8985 3.18817 23.7169C3.25781 23.4728 3.22103 23.2873 3.0661 23.0761C1.53631 20.997 0.644266 18.6698 0.390737 16.0993C0.379782 15.9851 0.34457 15.8732 0.320312 15.7597C0.320312 15.0829 0.320312 14.406 0.320312 13.7284C0.396997 13.2291 0.469769 12.7291 0.551149 12.2314C1.42363 6.91438 5.80327 2.26478 11.0695 1.08321C11.8262 0.913404 12.5985 0.814809 13.3638 0.68335C14.0406 0.68335 14.7175 0.68335 15.3943 0.68335L15.3936 0.684132ZM3.39083 27.1693C3.50038 27.185 3.6741 27.2225 3.85016 27.2319C5.17023 27.3047 6.40032 26.9987 7.43634 26.1748C7.99583 25.7303 8.44185 25.742 9.06002 26.0394C11.4255 27.1795 13.9295 27.5144 16.5117 27.0621C23.2271 25.886 27.6842 19.6894 26.7335 12.8958C25.7444 5.82905 18.8037 0.991654 11.8246 2.50657C2.91116 4.4409 -1.06393 14.7941 4.322 22.1199C4.82515 22.8046 4.9613 23.4102 4.68352 24.163C4.64283 24.2725 4.6264 24.3915 4.57945 24.4979C4.1882 25.3852 3.79147 26.2702 3.39083 27.1693ZM26.4667 21.9313C26.6905 21.9313 26.8438 21.9313 26.9972 21.9313C28.5458 21.9313 30.0951 21.9328 31.6437 21.9313C31.9864 21.9313 32.2971 22.0494 32.3949 22.3742C32.4653 22.6066 32.4379 22.9141 32.3417 23.1395C32.2141 23.4392 31.8956 23.4971 31.5764 23.4963C29.6374 23.4916 27.6975 23.5002 25.7585 23.4877C25.4823 23.4861 25.3078 23.5737 25.1349 23.7827C24.2937 24.8038 23.3116 25.6724 22.2154 26.4126C22.1481 26.458 22.0878 26.5152 21.9579 26.6192H22.4697C25.4502 26.6192 28.4307 26.6192 31.4113 26.6192C31.5412 26.6192 31.6726 26.6114 31.801 26.6278C32.1993 26.6771 32.4919 27.0081 32.4935 27.397C32.495 27.7851 32.2039 28.1193 31.8057 28.1709C31.6648 28.1889 31.52 28.1811 31.3768 28.1811C27.6412 28.1811 23.9063 28.1873 20.1707 28.1772C19.2333 28.1748 18.3005 28.1607 17.3991 28.48C17.2418 28.5356 17.0697 28.5567 16.9022 28.5747C15.935 28.6788 14.9671 28.7766 13.9772 28.8791C13.9858 28.9526 13.989 29.0684 14.0132 29.1796C14.7777 32.6413 16.6135 35.3887 19.648 37.2244C23.5511 39.586 27.6224 39.7527 31.7603 37.823C32.2446 37.5969 32.5991 37.6407 33.049 37.9396C33.6477 38.3363 34.3081 38.6697 34.9842 38.9099C35.7252 39.1728 36.5179 39.2041 37.2902 39.0242C36.9803 38.4287 36.647 37.8825 36.4052 37.298C36.1579 36.7009 35.9928 36.0687 35.8058 35.4481C35.6845 35.0475 35.7807 34.7032 36.046 34.3605C38.0891 31.7266 39.0469 28.7367 38.665 25.4204C38.0578 20.1558 35.1845 16.6126 30.2266 14.766C29.6647 14.5562 29.0638 14.4506 28.4354 14.2839C28.484 17.0454 27.8556 19.5478 26.4651 21.9313H26.4667Z" fill="#787878"/>
<path d="M27.0325 31.3057C28.5403 31.3057 30.0482 31.2955 31.5553 31.3166C31.7947 31.3198 32.0678 31.4152 32.2611 31.5569C32.5052 31.736 32.5585 32.0357 32.4489 32.3354C32.33 32.661 32.0897 32.8425 31.7462 32.8621C31.4739 32.8777 31.2008 32.8683 30.9277 32.8683C28.1851 32.8683 25.4424 32.8683 22.7005 32.8683C22.584 32.8683 22.4666 32.873 22.35 32.866C21.8844 32.8378 21.555 32.499 21.5667 32.0655C21.5784 31.6461 21.9016 31.3174 22.3539 31.3111C23.2765 31.2986 24.1998 31.3065 25.1224 31.3065C25.7593 31.3065 26.3963 31.3065 27.0332 31.3065L27.0325 31.3057Z" fill="#787878"/>
<path d="M19.2014 31.3079C19.6317 31.297 19.9987 31.6553 19.9987 32.0857C19.9987 32.5012 19.6544 32.8533 19.2397 32.8643C18.8093 32.8753 18.4431 32.5169 18.4431 32.0849C18.4431 31.6686 18.7851 31.3181 19.2014 31.3071V31.3079Z" fill="#787878"/>
<path d="M17.0807 23.0113C16.8209 22.8203 16.8412 22.638 17.1331 22.498C17.1691 22.4807 17.2105 22.4252 17.2105 22.3876C17.2152 21.8094 17.2137 21.2311 17.2137 20.6419H16.1002V22.4541C16.1307 22.4635 16.1573 22.4729 16.1847 22.4807C16.3623 22.5316 16.4414 22.6365 16.4124 22.7828C16.3827 22.9291 16.2692 22.9988 16.0877 22.9815C15.8169 22.9565 15.583 22.728 15.5806 22.4502C15.5736 21.6208 15.5642 20.7905 15.5861 19.9619C15.597 19.5487 15.8427 19.2576 16.216 19.0808C16.2723 19.0542 16.331 19.0331 16.3952 19.0072C16.3952 18.3703 16.3991 17.7341 16.3889 17.0979C16.3881 17.0393 16.2997 16.9813 16.2269 16.8914C16.1025 17.2529 15.9953 17.562 15.8897 17.871C15.6745 18.4986 15.4609 19.127 15.2426 19.7537C15.2175 19.8257 15.1792 19.9251 15.1221 19.9462C15.0383 19.9783 14.9233 19.976 14.838 19.9439C14.7222 19.8993 14.705 19.7803 14.7371 19.6669C14.7762 19.5323 14.8247 19.4008 14.8748 19.2506H13.0829C13.3763 20.1168 13.6674 20.9768 13.9726 21.8782C14.0086 21.7906 14.0305 21.7421 14.0477 21.692C14.1353 21.44 14.2159 21.1865 14.309 20.9369C14.3638 20.7898 14.4828 20.7412 14.6244 20.7905C14.7645 20.8391 14.8294 20.9525 14.7864 21.1004C14.7371 21.2687 14.676 21.4345 14.6189 21.6004C14.4984 21.9549 14.374 22.3078 14.2574 22.6638C14.2105 22.8063 14.158 22.9377 13.9812 22.9393C13.8043 22.9408 13.7496 22.8117 13.701 22.6685C13.0766 20.8203 12.4498 18.9728 11.8238 17.1253C11.8043 17.0666 11.7808 17.0095 11.7565 16.9454C11.6133 16.9634 11.557 17.0259 11.5586 17.177C11.5648 18.2678 11.5633 19.3586 11.5601 20.4494C11.5601 20.5613 11.5828 20.627 11.6963 20.6826C12.057 20.8594 12.2284 21.253 12.1337 21.6419C12.0445 22.0105 11.6916 22.2843 11.3082 22.2836C10.9161 22.2828 10.5742 22.0089 10.4819 21.6216C10.3926 21.2491 10.5758 20.8641 10.924 20.6732C10.978 20.6434 11.0468 20.5761 11.0468 20.5261C11.0539 19.4525 11.0523 18.3789 11.0523 17.2943C11.0233 17.2975 11.0014 17.2943 10.985 17.3022C10.5531 17.5174 10.1156 17.7216 9.6931 17.9532C9.19386 18.2279 8.94033 18.67 8.93642 19.2373C8.9286 20.3453 8.93407 21.4533 8.93407 22.5613C8.93407 22.6185 8.93877 22.6756 8.93016 22.7311C8.90825 22.8681 8.82218 22.9408 8.68446 22.9432C8.54674 22.9463 8.45753 22.8767 8.42936 22.7413C8.41919 22.692 8.4231 22.6396 8.4231 22.5887C8.4231 21.4979 8.42232 20.4071 8.4231 19.3163C8.4231 18.4493 8.81357 17.8202 9.58589 17.4282C9.89342 17.2717 10.2017 17.1167 10.5202 16.9563C10.431 16.7787 10.3402 16.6159 10.2643 16.4469C10.0311 15.9211 9.91689 15.3694 9.91767 14.7935C9.91924 13.0493 9.91611 11.3051 9.92002 9.56093C9.92159 8.77999 10.1493 8.06323 10.5711 7.40671C10.6399 7.29873 10.7229 7.21891 10.8606 7.24082C11.057 7.27212 11.1329 7.47244 11.0124 7.66337C10.7925 8.01158 10.6157 8.37936 10.5312 8.78312C10.4842 9.01005 10.438 9.24245 10.4365 9.4725C10.4286 11.3075 10.4247 13.1424 10.4365 14.9782C10.4404 15.6034 10.6454 16.1793 10.9936 16.7263C11.1298 16.6597 11.2604 16.5956 11.3903 16.5314C11.69 16.382 11.9897 16.2333 12.2886 16.0823C12.4866 15.9821 12.593 15.8412 12.5844 15.5971C12.5664 15.0924 12.5829 14.5861 12.5743 14.0806C12.5735 14.0172 12.5265 13.9304 12.4733 13.896C11.5554 13.295 11.0922 12.4483 11.0828 11.3528C11.0797 11.0007 11.0812 10.6486 11.0844 10.2965C11.0867 10.0899 11.1728 9.99286 11.3661 9.98895C12.3583 9.96548 13.0038 9.43729 13.4233 8.58124C13.4827 8.45917 13.5289 8.33084 13.5782 8.20329C13.6486 8.02175 13.7723 7.91299 13.9726 7.90594C14.1721 7.8989 14.3083 7.98576 14.392 8.18921C14.6283 8.76669 14.9875 9.2448 15.5125 9.58988C15.8341 9.80115 16.1839 9.94278 16.5579 10.0296C16.8428 10.0962 16.8827 10.1447 16.8788 10.4365C16.8725 10.8959 16.8975 11.3599 16.8436 11.8145C16.7387 12.7003 16.2747 13.3819 15.5282 13.8647C15.4155 13.9374 15.3826 14.0118 15.3842 14.1378C15.3905 14.626 15.3952 15.1151 15.3826 15.6034C15.3779 15.8115 15.4515 15.9578 15.6283 16.0494C16.0658 16.2763 16.5071 16.497 16.9578 16.7263C17.209 16.353 17.3733 15.9571 17.4508 15.5306C17.4985 15.2692 17.5235 15.0008 17.5251 14.7356C17.5314 13.0485 17.5314 11.3607 17.5275 9.67361C17.5243 7.8809 16.3467 6.45128 14.5845 6.12185C13.6619 5.9497 12.802 6.14533 12.014 6.65551C11.9803 6.67742 11.949 6.70168 11.9146 6.72203C11.7659 6.81201 11.6243 6.78854 11.5421 6.66099C11.4647 6.5397 11.4936 6.4012 11.6274 6.30495C12.0226 6.01934 12.4577 5.81511 12.9295 5.69226C15.2739 5.08191 17.6049 6.60152 17.9915 8.99283C18.022 9.18298 18.0353 9.37704 18.0353 9.56953C18.0384 11.3192 18.0384 13.0696 18.0369 14.8193C18.0369 15.5384 17.8545 16.2106 17.4938 16.8335C17.4742 16.8671 17.4602 16.9031 17.4359 16.9524C17.7254 17.0995 18.0048 17.249 18.2896 17.3851C19.1441 17.7928 19.5479 18.4665 19.5361 19.4126C19.5236 20.4862 19.5338 21.5605 19.533 22.6341C19.533 22.8274 19.4602 22.9252 19.3116 22.9432C19.1402 22.9635 19.0252 22.8579 19.0236 22.6701C19.0205 22.2382 19.0228 21.8062 19.0228 21.3751C19.0228 20.6818 19.0244 19.9885 19.0228 19.296C19.0212 18.6496 18.7325 18.1786 18.1503 17.8914C17.7442 17.6911 17.3389 17.49 16.9163 17.281V19.0143C16.9805 19.0409 17.0501 19.0644 17.1151 19.098C17.5079 19.3022 17.7168 19.6309 17.7215 20.0706C17.7301 20.843 17.7223 21.6161 17.7246 22.3884C17.7254 22.7038 17.547 22.8853 17.2849 23.0121H17.0807V23.0113ZM11.593 10.4921C11.593 10.8207 11.5891 11.1377 11.593 11.4546C11.6079 12.5868 12.4553 13.5861 13.5524 13.7684C14.7285 13.964 15.838 13.3169 16.2332 12.2152C16.4335 11.6572 16.3459 11.0837 16.3678 10.5109C15.2793 10.2198 14.4875 9.58284 13.9945 8.56168C13.5195 9.62353 12.7894 10.345 11.5922 10.4913L11.593 10.4921ZM12.2307 16.6903C12.2339 16.7169 12.2323 16.7403 12.2393 16.7607C12.4491 17.3836 12.658 18.0072 12.8763 18.6269C12.8927 18.6731 12.9819 18.7216 13.0375 18.7216C13.6674 18.7287 14.2981 18.7232 14.928 18.7279C15.0329 18.7287 15.0751 18.6895 15.1064 18.5949C15.2535 18.1481 15.4077 17.7036 15.5587 17.2584C15.6221 17.0721 15.6847 16.8859 15.7488 16.6973C15.6158 16.6245 15.4953 16.5619 15.3787 16.4931C15.0376 16.2928 14.8576 16.0071 14.8732 15.5971C14.8881 15.2059 14.8764 14.8138 14.8764 14.4218V14.1737C14.2676 14.3623 13.683 14.3537 13.0884 14.1769C13.0884 14.6785 13.079 15.1558 13.0915 15.6315C13.1009 16.0064 12.9397 16.274 12.6322 16.4649C12.503 16.5455 12.3661 16.6136 12.2307 16.6879V16.6903ZM16.1017 20.1074H17.2074C17.2074 19.7357 16.9562 19.4838 16.6166 19.4994C16.3021 19.5135 16.0689 19.7874 16.1025 20.1074H16.1017ZM10.9725 21.4267C10.9701 21.6122 11.1149 21.7663 11.298 21.7726C11.4827 21.7788 11.6493 21.6161 11.6478 21.4298C11.6462 21.2475 11.4936 21.0981 11.309 21.0973C11.1196 21.0965 10.9748 21.2389 10.9717 21.4267H10.9725Z" fill="#787878"/>
<path d="M13.9438 13.1207C13.6855 13.1113 13.4304 13.0174 13.2176 12.8202C13.0924 12.7036 13.0807 12.5581 13.184 12.4462C13.2833 12.3382 13.4171 12.3327 13.547 12.4329C13.8553 12.6708 14.0995 12.6716 14.407 12.436C14.5432 12.3319 14.6911 12.3374 14.7842 12.4501C14.8757 12.5604 14.8546 12.7115 14.7325 12.8273C14.5416 13.008 14.2466 13.1223 13.9445 13.1207H13.9438Z" fill="#787878"/>
</svg>
