<svg width="47" height="41" viewBox="0 0 47 41" fill="none" xmlns="http://www.w3.org/2000/svg">
<g clip-path="url(#clip0_778_24183)">
<path d="M0.445044 36.428C0.674688 36.1398 0.964136 36.0333 1.33731 36.0465C2.03581 36.0716 2.73551 36.0537 3.48066 36.0537C3.49023 35.8647 3.50458 35.7068 3.50458 35.5501C3.50697 34.4749 3.49501 33.4008 3.50817 32.3255C3.53328 30.3425 4.41598 28.8569 6.17898 27.9503C7.43724 27.3032 8.71583 26.6897 10.0207 26.1467C10.614 25.8991 10.614 25.386 10.8113 24.9494C10.8341 24.898 10.7121 24.7532 10.6295 24.6875C9.15479 23.5297 8.21827 22.0298 7.74822 20.2213C7.70396 20.0491 7.55206 19.8613 7.39777 19.7692C6.23161 19.0707 5.86202 17.5816 6.55813 16.4095C6.69329 16.1834 6.76027 15.8952 6.78419 15.6285C6.85356 14.8582 6.80691 14.07 6.94566 13.3141C7.25305 11.6252 8.17641 10.2761 9.5471 9.27138C12.0851 7.41269 14.9198 6.70342 18.0404 7.2273C18.1576 7.24644 18.2724 7.28112 18.386 7.31581C19.5617 7.6842 20.4732 8.29299 20.509 9.68402C20.7459 9.73066 20.9671 9.75937 21.1788 9.81917C22.1967 10.1062 22.9083 10.9973 22.9263 12.0546C22.9466 13.2483 22.9239 14.4432 22.9442 15.6368C22.9478 15.8557 23.0256 16.1045 23.1476 16.2851C23.9573 17.4836 23.6104 19.0349 22.3641 19.78C22.2206 19.8649 22.0878 20.0479 22.046 20.2094C21.5807 22.019 20.6394 23.5153 19.1754 24.6851C19.075 24.7652 19.014 24.9829 19.0403 25.1156C19.1491 25.6682 19.4433 26.0175 20.0163 26.2507C21.2291 26.7447 22.3964 27.3475 23.5745 27.9228C24.3089 28.2816 24.9297 28.79 25.4057 29.4633C25.6748 29.8437 25.6569 30.1846 25.3663 30.419C25.0708 30.657 24.6761 30.59 24.4022 30.2133C23.6427 29.1643 22.455 28.7935 21.3152 28.1788C21.3152 28.7804 21.3008 29.2971 21.3271 29.8102C21.3319 29.9131 21.4671 30.0554 21.5747 30.1008C22.412 30.4513 22.8868 31.0756 22.9669 31.9691C23.0136 32.4882 23.0016 33.0133 22.9837 33.5347C22.9705 33.9115 22.7493 34.1471 22.3629 34.1711C22.0149 34.1926 21.7553 33.9055 21.7434 33.4977C21.7314 33.0802 21.7517 32.6616 21.735 32.2442C21.7087 31.5792 21.3295 31.2108 20.6956 31.2108C20.0521 31.2108 19.6957 31.5612 19.6682 32.2442C19.6527 32.6461 19.6718 33.0503 19.6586 33.4534C19.6431 33.8995 19.3883 34.1782 19.0271 34.1758C18.6647 34.1734 18.4255 33.8948 18.4111 33.4438C18.4016 33.1161 18.4183 32.7872 18.4064 32.4583C18.3645 31.2586 18.8573 30.4166 20.0617 30.0171C20.0617 29.2899 20.0713 28.5603 20.0509 27.8307C20.0474 27.7207 19.9242 27.5879 19.8213 27.515C19.6909 27.4217 19.5175 27.3918 19.3764 27.3116C19.1168 27.1633 18.9374 27.2076 18.7221 27.4336C17.672 28.5364 16.6027 29.62 15.537 30.7073C15.0346 31.2204 14.7643 31.2228 14.2692 30.718C13.2035 29.6308 12.1342 28.5472 11.0805 27.448C10.8759 27.2351 10.7145 27.1717 10.4298 27.3009C9.74086 27.6154 9.73368 27.6011 9.73368 28.3582C9.73368 28.955 9.74445 29.553 9.7289 30.1499C9.72292 30.4011 9.79947 30.5422 10.0279 30.6762C10.791 31.1259 11.1092 31.9846 10.852 32.7956C10.5972 33.6005 9.85329 34.1268 9.01963 34.0933C8.1776 34.0586 7.47073 33.4498 7.29012 32.6018C7.13105 31.8579 7.47671 31.0697 8.18598 30.6654C8.41801 30.5338 8.49217 30.3927 8.48499 30.1415C8.46825 29.5447 8.47662 28.9478 8.47184 28.351C8.47184 28.3271 8.44552 28.302 8.40725 28.2362C6.95881 28.9443 5.36685 29.4693 4.8968 31.3029C4.84895 31.4895 4.79513 31.6832 4.79394 31.8734C4.78556 33.2441 4.78915 34.6136 4.78915 36.0525H5.35967C10.8221 36.0525 16.2845 36.0525 21.747 36.0525C22.4227 36.0525 22.7385 36.257 22.7289 36.6864C22.7194 37.1158 22.4108 37.3071 21.7254 37.3071C15.2631 37.3071 8.80075 37.3071 2.33841 37.3071C2.14585 37.3071 1.95328 37.3071 1.72962 37.3071V39.2268C1.93534 39.2268 2.12551 39.2268 2.31569 39.2268C8.71822 39.2268 15.1208 39.2268 21.5233 39.2292C21.7159 39.2292 21.9563 39.1909 22.089 39.2878C22.2816 39.429 22.4873 39.6634 22.5196 39.8835C22.5627 40.1789 22.3438 40.4121 22.0173 40.4648C21.8857 40.4863 21.7494 40.4815 21.6154 40.4815C14.8696 40.4815 8.12378 40.4803 1.37797 40.4875C0.998822 40.4875 0.672296 40.4325 0.443848 40.1011V36.4292L0.445044 36.428ZM15.0059 24.8812C15.098 24.8764 15.3229 24.8776 15.5454 24.8513C15.7666 24.825 15.9891 24.7867 16.2032 24.7269C18.7807 24.0212 20.2351 22.2547 20.8547 19.7334C20.9791 19.225 21.0927 18.8315 21.6943 18.6784C22.2577 18.5349 22.4849 17.7838 22.2302 17.218C21.9694 16.6379 21.442 16.4657 20.8595 16.7707C20.3153 17.0554 19.9493 16.8927 19.795 16.2887C19.6263 15.6249 19.4708 14.9563 19.3034 14.2913C19.0654 13.3476 18.7233 13.082 17.7677 13.2411C15.7475 13.5772 13.719 13.771 11.6701 13.7793C10.7599 13.7829 10.077 14.4731 9.99443 15.3857C9.9705 15.6524 9.98845 15.9227 9.97529 16.1906C9.94419 16.8437 9.52437 17.0769 8.93711 16.7707C8.36658 16.4741 7.85347 16.6272 7.58555 17.1762C7.30328 17.7539 7.52216 18.5193 8.10106 18.6772C8.66679 18.8315 8.87132 19.1676 8.92873 19.6879C8.94907 19.8637 9.00289 20.0384 9.05193 20.2094C9.85449 22.9843 12.2095 24.8716 15.0047 24.88L15.0059 24.8812ZM21.6656 15.3665C21.6656 14.2004 21.6884 13.0713 21.6549 11.9434C21.6405 11.4674 21.1896 11.0631 20.7136 10.9985C20.4935 10.9686 20.2674 10.9841 20.0438 10.9794C19.4505 10.9662 19.2472 10.7605 19.24 10.1624C19.2388 10.0129 19.2304 9.86343 19.24 9.71512C19.2687 9.29171 19.0726 8.9903 18.7137 8.8073C18.4506 8.67334 18.1707 8.55732 17.8861 8.48556C16.7211 8.19133 15.5466 8.25592 14.384 8.49154C12.4607 8.88265 10.7109 9.629 9.38204 11.1408C8.32233 12.3465 7.93002 13.7674 8.07474 15.3522H8.69909C8.72301 15.2409 8.75052 15.1429 8.76607 15.0424C8.98734 13.6538 10.1009 12.5665 11.5074 12.539C13.5982 12.4984 15.6662 12.2974 17.733 11.9852C19.2089 11.7628 20.1478 12.4708 20.5054 13.936C20.6215 14.4121 20.7435 14.8857 20.8643 15.3665H21.6644H21.6656ZM11.8806 25.4637C11.8579 25.8273 11.7036 26.2579 11.8423 26.399C12.8674 27.4348 13.951 28.4132 14.9258 29.3246C15.7642 28.534 16.7235 27.6417 17.666 26.7327C18.197 26.2196 18.1851 26.2065 17.7844 25.5199C15.8611 26.3512 13.9259 26.3488 11.8794 25.4637H11.8806ZM9.67747 32.2442C9.67269 31.9213 9.43347 31.6797 9.11173 31.6737C8.77803 31.6677 8.49217 31.9356 8.5137 32.2609C8.53762 32.6054 8.74095 32.8099 9.08542 32.8362C9.41194 32.8614 9.68225 32.5779 9.67747 32.2442Z" fill="#253E96"/>
<path d="M28.7285 17.9816C28.7285 17.4804 28.7093 17.0044 28.7321 16.5308C28.8541 13.9652 30.9962 11.8434 33.5642 11.8123C34.826 11.7967 36.1202 11.7561 37.3449 12.0001C39.5254 12.4343 41.0623 14.4795 41.1066 16.7006C41.1149 17.1168 41.1066 17.5343 41.1066 17.9421C42.9437 18.4983 43.6494 19.2351 43.5956 20.5185C43.5429 21.7863 42.7284 22.5805 41.1472 22.8831C41.1077 23.2383 41.0874 23.6067 41.0252 23.9679C40.798 25.2776 40.1437 26.3373 39.0732 27.1159C38.785 27.3253 38.6773 27.5346 38.6845 27.8826C38.706 28.8526 38.7013 28.8311 39.6007 29.2378C40.9307 29.8382 42.262 30.441 43.5633 31.1C45.3992 32.0282 46.3047 33.552 46.2951 35.6164C46.2891 36.9596 46.2951 38.3027 46.2927 39.6459C46.2927 40.2762 46.0941 40.4796 45.4674 40.4796C38.4238 40.482 31.3802 40.482 24.3365 40.4796C23.7205 40.4796 23.534 40.2894 23.5316 39.677C23.528 38.2585 23.5208 36.8412 23.534 35.4226C23.5507 33.5221 24.3975 32.0784 26.0732 31.2077C27.591 30.4183 29.165 29.7341 30.7235 29.0249C30.9998 28.8993 31.1158 28.7737 31.1409 28.4484C31.1948 27.7606 31.0082 27.2954 30.4281 26.8361C29.3265 25.9653 28.7763 24.7418 28.7273 23.3256C28.7153 22.9871 28.6459 22.8424 28.2668 22.8005C27.1305 22.675 26.2502 21.6428 26.2311 20.4897C26.212 19.2937 27.0492 18.2567 28.1926 18.0617C28.3517 18.0342 28.5108 18.0139 28.7261 17.9804L28.7285 17.9816ZM45.0416 39.207C45.0416 37.9726 45.0368 36.7813 45.0428 35.5901C45.0512 34.0352 44.3718 32.8929 42.9796 32.2088C41.7106 31.5844 40.4224 30.9996 39.1414 30.4003C38.9309 30.3023 38.7132 30.2209 38.4884 30.1264C38.0458 30.9816 37.376 31.283 36.4778 31.2495C35.3308 31.2077 34.1813 31.2328 33.0319 31.2412C32.3765 31.246 31.8909 30.9589 31.5201 30.4386C31.4531 30.3441 31.3885 30.2484 31.2617 30.0642C29.6267 30.8692 27.9714 31.6167 26.3842 32.4887C25.3209 33.0735 24.8126 34.0974 24.7946 35.321C24.7755 36.529 24.7886 37.7382 24.7898 38.9462C24.7898 39.0299 24.8161 39.1137 24.8293 39.201H28.4665C28.4665 39.018 28.4665 38.8577 28.4665 38.6974C28.4665 37.4595 28.4629 36.2204 28.4689 34.9825C28.4713 34.5615 28.7105 34.2971 29.0646 34.2828C29.4306 34.2684 29.7081 34.5483 29.7164 34.9801C29.7296 35.6367 29.72 36.2934 29.7212 36.95C29.7212 37.6916 29.7212 38.4343 29.7212 39.1974H40.1138V38.7321C40.1138 37.5241 40.1126 36.3149 40.1138 35.1069C40.1138 34.583 40.3339 34.2923 40.7238 34.284C41.1269 34.2756 41.3649 34.583 41.3661 35.126C41.3685 35.9907 41.3661 36.8567 41.3661 37.7215C41.3661 38.2094 41.3661 38.6974 41.3661 39.2046H45.0416V39.207ZM29.9652 19.9443C29.9652 19.9443 29.9712 19.9443 29.9748 19.9443C29.9748 21.0639 29.9389 22.1834 29.9831 23.3005C30.0597 25.2417 31.6242 26.7834 33.563 26.8504C34.472 26.8827 35.3834 26.8827 36.2924 26.848C38.23 26.7763 39.8232 25.1616 39.8471 23.2228C39.8746 21.0603 39.871 18.8954 39.8471 16.7329C39.828 14.946 38.5386 13.4043 36.7648 13.1411C35.8439 13.0048 34.8918 13.0562 33.9541 13.0538C31.5703 13.0466 29.9808 14.6386 29.9664 17.0343C29.9604 18.0043 29.9664 18.9743 29.9664 19.9431L29.9652 19.9443ZM32.41 28.0513C32.41 28.4627 32.3753 28.922 32.4207 29.3741C32.4602 29.7712 32.6946 29.9985 33.1455 29.9925C34.3213 29.9745 35.4994 29.9733 36.6751 29.9925C37.1033 29.9997 37.3521 29.7903 37.3964 29.4208C37.4526 28.9471 37.4095 28.4615 37.4095 28.0501H32.4112L32.41 28.0513ZM28.6794 21.5459V19.3152C27.9702 19.3116 27.4894 19.7721 27.487 20.4276C27.4846 21.0842 27.9714 21.5566 28.6794 21.5459ZM41.146 19.3212V21.5554C41.8577 21.5447 42.3505 21.0627 42.3433 20.4204C42.3349 19.7721 41.823 19.2973 41.146 19.3212Z" fill="#253E96"/>
<path d="M30.6757 8.73393C30.6757 9.45277 30.6721 10.0939 30.6769 10.7338C30.6793 11.0651 30.6302 11.3736 30.287 11.5172C29.9461 11.6607 29.6925 11.4909 29.4557 11.2505C28.7333 10.5161 27.9917 9.80202 27.2801 9.05807C27.0409 8.80809 26.7957 8.7124 26.4572 8.72676C25.9058 8.74948 25.3532 8.7435 24.8018 8.73035C23.6895 8.70403 22.9874 8.00792 22.9766 6.89678C22.9635 5.35983 22.9623 3.82289 22.9766 2.28595C22.9874 1.18796 23.6823 0.49185 24.7755 0.490654C29.5347 0.482282 34.2938 0.482282 39.0529 0.490654C40.1378 0.493046 40.8315 1.21069 40.8375 2.3015C40.8446 3.77864 40.8411 5.25578 40.8387 6.73292C40.8375 8.05457 40.1557 8.73035 38.8185 8.73154C36.2972 8.73393 33.7759 8.73154 31.2546 8.73154C31.0788 8.73154 30.903 8.73154 30.6733 8.73154L30.6757 8.73393ZM29.2189 9.45157C29.2871 9.40253 29.354 9.35349 29.4222 9.30565C29.4222 9.02697 29.4222 8.74948 29.4222 8.4708C29.4234 7.60246 29.5478 7.47567 30.3994 7.47448C33.2197 7.47448 36.0412 7.47448 38.8616 7.47448C39.4429 7.47448 39.5852 7.33573 39.5852 6.77239C39.5876 5.3096 39.5888 3.84681 39.5852 2.38403C39.584 1.88168 39.4512 1.74533 38.9441 1.74533C34.2579 1.74174 29.5717 1.74174 24.8855 1.74533C24.3653 1.74533 24.2337 1.86852 24.2313 2.37206C24.2241 3.86475 24.2241 5.35744 24.2313 6.85013C24.2337 7.31181 24.394 7.45893 24.8568 7.47448C24.9908 7.47926 25.126 7.47328 25.2599 7.47567C25.9895 7.49242 26.7945 7.32377 27.426 7.58093C28.042 7.8321 28.4857 8.51266 28.9892 9.01979C29.0993 9.13103 29.1435 9.30685 29.2189 9.45277V9.45157Z" fill="#253E96"/>
<path d="M14.7535 23.0851C14.0311 23.066 13.3517 22.6485 12.8231 21.9728C12.6138 21.706 12.6449 21.3998 12.8948 21.1654C13.1424 20.9322 13.4355 20.931 13.7082 21.1319C13.8385 21.2276 13.939 21.364 14.061 21.4716C14.61 21.9536 15.1985 21.95 15.7427 21.462C15.8527 21.3628 15.9424 21.2384 16.0596 21.1487C16.3443 20.931 16.6493 20.9226 16.91 21.1738C17.1564 21.4118 17.1624 21.7013 16.9722 21.9859C16.5703 22.5923 15.6542 23.0803 14.7535 23.0839V23.0851Z" fill="#253E96"/>
<path d="M13.6137 18.283C13.6161 18.643 13.4534 18.8966 13.0934 18.954C12.7071 19.0162 12.4547 18.8093 12.3805 18.4397C12.3291 18.1802 12.2681 17.9625 11.9595 17.9649C11.6509 17.9673 11.5923 18.1933 11.5433 18.4481C11.4763 18.8045 11.2383 18.9863 10.8711 18.9612C10.535 18.9373 10.303 18.6442 10.309 18.2747C10.3221 17.4099 11.0888 16.6935 11.9906 16.7042C12.8709 16.715 13.6125 17.4374 13.6137 18.2842V18.283Z" fill="#253E96"/>
<path d="M17.818 16.7022C18.6732 16.6974 19.3609 17.2978 19.4721 18.1494C19.5283 18.5776 19.325 18.9005 18.9614 18.958C18.6074 19.0142 18.3825 18.8049 18.233 18.3982C18.1696 18.226 17.9675 18.1052 17.8275 17.9616C17.6948 18.1099 17.5046 18.2367 17.44 18.4114C17.2917 18.8096 17.0453 19.0309 16.6937 18.9544C16.3085 18.8706 16.1746 18.6027 16.1913 18.2248C16.2284 17.3899 16.9532 16.707 17.818 16.7022Z" fill="#253E96"/>
<path d="M27.9641 3.99115C28.1279 3.99115 28.293 3.97919 28.4557 3.99354C28.7798 4.02225 28.9795 4.20405 29.0154 4.52818C29.0537 4.87265 28.8958 5.14535 28.5585 5.1896C28.165 5.24223 27.7548 5.23625 27.3613 5.1896C27.0407 5.15133 26.8781 4.88341 26.9008 4.56885C26.9247 4.23754 27.1209 4.01866 27.4725 3.99234C27.6352 3.98038 27.8002 3.98995 27.9641 3.98995V3.99115Z" fill="#253E96"/>
<path d="M31.9292 3.99356C32.093 3.99356 32.2581 3.97801 32.4196 3.99595C32.7425 4.03183 32.9339 4.22201 32.9614 4.54734C32.9901 4.89419 32.8202 5.15254 32.4853 5.1968C32.1062 5.24584 31.7115 5.24345 31.3323 5.1968C30.9926 5.15494 30.8228 4.88941 30.8515 4.54973C30.8778 4.23516 31.0644 4.02824 31.3933 3.99595C31.5703 3.9792 31.7498 3.99236 31.9292 3.99236V3.99356Z" fill="#253E96"/>
<path d="M35.8545 3.98972C36.0183 3.98972 36.1834 3.97776 36.3461 3.99211C36.6702 4.01962 36.8699 4.20023 36.9058 4.52556C36.9441 4.86883 36.7898 5.14272 36.4513 5.18818C36.059 5.2408 35.6488 5.23602 35.2552 5.18818C34.9347 5.1499 34.7768 4.88796 34.7972 4.56861C34.8187 4.23013 35.0136 4.01962 35.3641 3.99091C35.5268 3.97776 35.6918 3.98852 35.8557 3.98852L35.8545 3.98972Z" fill="#253E96"/>
</g>
<defs>
<clipPath id="clip0_778_24183">
<rect width="45.8512" height="40" fill="white" transform="translate(0.445068 0.486328)"/>
</clipPath>
</defs>
</svg>
