<svg width="47" height="41" viewBox="0 0 47 41" fill="none" xmlns="http://www.w3.org/2000/svg">
<g clip-path="url(#clip0_778_22095)">
<path d="M0.445044 36.584C0.674688 36.2958 0.964136 36.1893 1.33731 36.2025C2.03581 36.2276 2.73551 36.2097 3.48066 36.2097C3.49023 36.0207 3.50458 35.8628 3.50458 35.7061C3.50697 34.6309 3.49501 33.5568 3.50817 32.4815C3.53328 30.4985 4.41598 29.0129 6.17898 28.1063C7.43724 27.4593 8.71583 26.8457 10.0207 26.3027C10.614 26.0551 10.614 25.542 10.8113 25.1054C10.8341 25.054 10.7121 24.9092 10.6295 24.8435C9.15479 23.6857 8.21827 22.1858 7.74822 20.3774C7.70396 20.2051 7.55206 20.0173 7.39777 19.9252C6.23161 19.2267 5.86202 17.7376 6.55813 16.5655C6.69329 16.3394 6.76027 16.0512 6.78419 15.7845C6.85356 15.0142 6.80691 14.226 6.94566 13.4701C7.25305 11.7812 8.17641 10.4321 9.5471 9.42738C12.0851 7.5687 14.9198 6.85943 18.0404 7.38331C18.1576 7.40244 18.2724 7.43713 18.386 7.47181C19.5617 7.8402 20.4732 8.449 20.509 9.84002C20.7459 9.88667 20.9671 9.91538 21.1788 9.97518C22.1967 10.2622 22.9083 11.1533 22.9263 12.2106C22.9466 13.4043 22.9239 14.5992 22.9442 15.7928C22.9478 16.0117 23.0256 16.2605 23.1476 16.4411C23.9573 17.6396 23.6104 19.1909 22.3641 19.936C22.2206 20.0209 22.0878 20.2039 22.046 20.3654C21.5807 22.175 20.6394 23.6713 19.1754 24.8411C19.075 24.9212 19.014 25.1389 19.0403 25.2717C19.1491 25.8242 19.4433 26.1735 20.0163 26.4067C21.2291 26.9007 22.3964 27.5035 23.5745 28.0788C24.3089 28.4376 24.9297 28.946 25.4057 29.6194C25.6748 29.9997 25.6569 30.3406 25.3663 30.575C25.0708 30.813 24.6761 30.746 24.4022 30.3693C23.6427 29.3203 22.455 28.9496 21.3152 28.3348C21.3152 28.9364 21.3008 29.4531 21.3271 29.9662C21.3319 30.0691 21.4671 30.2114 21.5747 30.2569C22.412 30.6073 22.8868 31.2316 22.9669 32.1251C23.0136 32.6442 23.0016 33.1693 22.9837 33.6908C22.9705 34.0675 22.7493 34.3031 22.3629 34.3271C22.0149 34.3486 21.7553 34.0615 21.7434 33.6537C21.7314 33.2362 21.7517 32.8176 21.735 32.4002C21.7087 31.7352 21.3295 31.3668 20.6956 31.3668C20.0521 31.3668 19.6957 31.7172 19.6682 32.4002C19.6527 32.8021 19.6718 33.2063 19.6586 33.6094C19.6431 34.0556 19.3883 34.3342 19.0271 34.3318C18.6647 34.3295 18.4255 34.0508 18.4111 33.5999C18.4016 33.2721 18.4183 32.9432 18.4064 32.6143C18.3645 31.4146 18.8573 30.5726 20.0617 30.1731C20.0617 29.4459 20.0713 28.7163 20.0509 27.9867C20.0474 27.8767 19.9242 27.7439 19.8213 27.671C19.6909 27.5777 19.5175 27.5478 19.3764 27.4676C19.1168 27.3193 18.9374 27.3636 18.7221 27.5896C17.672 28.6924 16.6027 29.776 15.537 30.8633C15.0346 31.3764 14.7643 31.3788 14.2692 30.874C13.2035 29.7868 12.1342 28.7032 11.0805 27.604C10.8759 27.3911 10.7145 27.3277 10.4298 27.4569C9.74086 27.7714 9.73368 27.7571 9.73368 28.5142C9.73368 29.111 9.74445 29.7091 9.7289 30.3059C9.72292 30.5571 9.79947 30.6982 10.0279 30.8322C10.791 31.2819 11.1092 32.1407 10.852 32.9516C10.5972 33.7565 9.85329 34.2828 9.01963 34.2493C8.1776 34.2146 7.47073 33.6058 7.29012 32.7578C7.13105 32.0139 7.47671 31.2257 8.18598 30.8214C8.41801 30.6898 8.49217 30.5487 8.48499 30.2975C8.46825 29.7007 8.47662 29.1038 8.47184 28.507C8.47184 28.4831 8.44552 28.458 8.40725 28.3922C6.95881 29.1003 5.36685 29.6253 4.8968 31.4589C4.84895 31.6455 4.79513 31.8392 4.79394 32.0294C4.78556 33.4001 4.78915 34.7696 4.78915 36.2085H5.35967C10.8221 36.2085 16.2845 36.2085 21.747 36.2085C22.4227 36.2085 22.7385 36.413 22.7289 36.8424C22.7194 37.2718 22.4108 37.4631 21.7254 37.4631C15.2631 37.4631 8.80075 37.4631 2.33841 37.4631C2.14585 37.4631 1.95328 37.4631 1.72962 37.4631V39.3828C1.93534 39.3828 2.12551 39.3828 2.31569 39.3828C8.71822 39.3828 15.1208 39.3828 21.5233 39.3852C21.7159 39.3852 21.9563 39.3469 22.089 39.4438C22.2816 39.585 22.4873 39.8194 22.5196 40.0395C22.5627 40.3349 22.3438 40.5681 22.0173 40.6208C21.8857 40.6423 21.7494 40.6375 21.6154 40.6375C14.8696 40.6375 8.12378 40.6363 1.37797 40.6435C0.998822 40.6435 0.672296 40.5885 0.443848 40.2572V36.5852L0.445044 36.584ZM15.0059 25.0372C15.098 25.0324 15.3229 25.0336 15.5454 25.0073C15.7666 24.981 15.9891 24.9427 16.2032 24.8829C18.7807 24.1773 20.2351 22.4107 20.8547 19.8894C20.9791 19.381 21.0927 18.9875 21.6943 18.8344C22.2577 18.6909 22.4849 17.9398 22.2302 17.374C21.9694 16.7939 21.442 16.6217 20.8595 16.9267C20.3153 17.2114 19.9493 17.0487 19.795 16.4447C19.6263 15.7809 19.4708 15.1123 19.3034 14.4473C19.0654 13.5036 18.7233 13.238 17.7677 13.3971C15.7475 13.7332 13.719 13.927 11.6701 13.9353C10.7599 13.9389 10.077 14.6291 9.99443 15.5417C9.9705 15.8084 9.98845 16.0787 9.97529 16.3466C9.94419 16.9997 9.52437 17.2329 8.93711 16.9267C8.36658 16.6301 7.85347 16.7832 7.58555 17.3322C7.30328 17.9099 7.52216 18.6754 8.10106 18.8332C8.66679 18.9875 8.87132 19.3236 8.92873 19.8439C8.94907 20.0197 9.00289 20.1944 9.05193 20.3654C9.85449 23.1403 12.2095 25.0277 15.0047 25.036L15.0059 25.0372ZM21.6656 15.5225C21.6656 14.3564 21.6884 13.2273 21.6549 12.0994C21.6405 11.6234 21.1896 11.2191 20.7136 11.1545C20.4935 11.1246 20.2674 11.1401 20.0438 11.1354C19.4505 11.1222 19.2472 10.9165 19.24 10.3184C19.2388 10.1689 19.2304 10.0194 19.24 9.87112C19.2687 9.44772 19.0726 9.14631 18.7137 8.96331C18.4506 8.82935 18.1707 8.71333 17.8861 8.64157C16.7211 8.34733 15.5466 8.41192 14.384 8.64755C12.4607 9.03866 10.7109 9.78501 9.38204 11.2968C8.32233 12.5025 7.93002 13.9234 8.07474 15.5082H8.69909C8.72301 15.3969 8.75052 15.2989 8.76607 15.1984C8.98734 13.8098 10.1009 12.7225 11.5074 12.695C13.5982 12.6544 15.6662 12.4534 17.733 12.1413C19.2089 11.9188 20.1478 12.6269 20.5054 14.092C20.6215 14.5681 20.7435 15.0417 20.8643 15.5225H21.6644H21.6656ZM11.8806 25.6197C11.8579 25.9833 11.7036 26.4139 11.8423 26.555C12.8674 27.5908 13.951 28.5692 14.9258 29.4806C15.7642 28.69 16.7235 27.7977 17.666 26.8887C18.197 26.3756 18.1851 26.3625 17.7844 25.6759C15.8611 26.5072 13.9259 26.5048 11.8794 25.6197H11.8806ZM9.67747 32.4002C9.67269 32.0773 9.43347 31.8357 9.11173 31.8297C8.77803 31.8237 8.49217 32.0916 8.5137 32.4169C8.53762 32.7614 8.74095 32.9659 9.08542 32.9923C9.41194 33.0174 9.68225 32.7339 9.67747 32.4002Z" fill="#787878"/>
<path d="M28.7285 18.1376C28.7285 17.6365 28.7093 17.1604 28.7321 16.6868C28.8541 14.1212 30.9962 11.9994 33.5642 11.9683C34.826 11.9528 36.1202 11.9121 37.3449 12.1561C39.5254 12.5903 41.0623 14.6355 41.1066 16.8566C41.1149 17.2729 41.1066 17.6903 41.1066 18.0981C42.9437 18.6543 43.6494 19.3911 43.5956 20.6745C43.5429 21.9423 42.7284 22.7365 41.1472 23.0391C41.1077 23.3943 41.0874 23.7627 41.0252 24.1239C40.798 25.4336 40.1437 26.4933 39.0732 27.272C38.785 27.4813 38.6773 27.6906 38.6845 28.0386C38.706 29.0086 38.7013 28.9871 39.6007 29.3938C40.9307 29.9942 42.262 30.597 43.5633 31.256C45.3992 32.1842 46.3047 33.708 46.2951 35.7724C46.2891 37.1156 46.2951 38.4587 46.2927 39.8019C46.2927 40.4323 46.0941 40.6356 45.4674 40.6356C38.4238 40.638 31.3802 40.638 24.3365 40.6356C23.7205 40.6356 23.534 40.4454 23.5316 39.833C23.528 38.4145 23.5208 36.9972 23.534 35.5786C23.5507 33.6781 24.3975 32.2344 26.0732 31.3637C27.591 30.5743 29.165 29.8901 30.7235 29.1809C30.9998 29.0553 31.1158 28.9297 31.1409 28.6044C31.1948 27.9166 31.0082 27.4514 30.4281 26.9921C29.3265 26.1213 28.7763 24.8978 28.7273 23.4816C28.7153 23.1431 28.6459 22.9984 28.2668 22.9566C27.1305 22.831 26.2502 21.7988 26.2311 20.6458C26.212 19.4497 27.0492 18.4127 28.1926 18.2177C28.3517 18.1902 28.5108 18.1699 28.7261 18.1364L28.7285 18.1376ZM45.0416 39.363C45.0416 38.1286 45.0368 36.9374 45.0428 35.7461C45.0512 34.1912 44.3718 33.0489 42.9796 32.3648C41.7106 31.7405 40.4224 31.1556 39.1414 30.5563C38.9309 30.4583 38.7132 30.3769 38.4884 30.2824C38.0458 31.1376 37.376 31.439 36.4778 31.4056C35.3308 31.3637 34.1813 31.3888 33.0319 31.3972C32.3765 31.402 31.8909 31.1149 31.5201 30.5946C31.4531 30.5001 31.3885 30.4044 31.2617 30.2203C29.6267 31.0252 27.9714 31.7727 26.3842 32.6447C25.3209 33.2296 24.8126 34.2534 24.7946 35.477C24.7755 36.685 24.7886 37.8942 24.7898 39.1022C24.7898 39.186 24.8161 39.2697 24.8293 39.357H28.4665C28.4665 39.174 28.4665 39.0137 28.4665 38.8535C28.4665 37.6155 28.4629 36.3764 28.4689 35.1385C28.4713 34.7175 28.7105 34.4531 29.0646 34.4388C29.4306 34.4244 29.7081 34.7043 29.7164 35.1361C29.7296 35.7927 29.72 36.4494 29.7212 37.106C29.7212 37.8476 29.7212 38.5903 29.7212 39.3534H40.1138V38.8881C40.1138 37.6801 40.1126 36.4709 40.1138 35.2629C40.1138 34.739 40.3339 34.4483 40.7238 34.44C41.1269 34.4316 41.3649 34.739 41.3661 35.282C41.3685 36.1468 41.3661 37.0127 41.3661 37.8775C41.3661 38.3655 41.3661 38.8534 41.3661 39.3606H45.0416V39.363ZM29.9652 20.1003C29.9652 20.1003 29.9712 20.1003 29.9748 20.1003C29.9748 21.2199 29.9389 22.3394 29.9831 23.4565C30.0597 25.3977 31.6242 26.9394 33.563 27.0064C34.472 27.0387 35.3834 27.0387 36.2924 27.004C38.23 26.9323 39.8232 25.3176 39.8471 23.3788C39.8746 21.2163 39.871 19.0514 39.8471 16.8889C39.828 15.102 38.5386 13.5603 36.7648 13.2971C35.8439 13.1608 34.8918 13.2122 33.9541 13.2098C31.5703 13.2026 29.9808 14.7946 29.9664 17.1903C29.9604 18.1603 29.9664 19.1303 29.9664 20.0992L29.9652 20.1003ZM32.41 28.2073C32.41 28.6187 32.3753 29.078 32.4207 29.5301C32.4602 29.9272 32.6946 30.1545 33.1455 30.1485C34.3213 30.1305 35.4994 30.1294 36.6751 30.1485C37.1033 30.1557 37.3521 29.9464 37.3964 29.5768C37.4526 29.1031 37.4095 28.6175 37.4095 28.2061H32.4112L32.41 28.2073ZM28.6794 21.7019V19.4712C27.9702 19.4676 27.4894 19.9281 27.487 20.5836C27.4846 21.2402 27.9714 21.7126 28.6794 21.7019ZM41.146 19.4772V21.7114C41.8577 21.7007 42.3505 21.2187 42.3433 20.5764C42.3349 19.9281 41.823 19.4533 41.146 19.4772Z" fill="#787878"/>
<path d="M30.6757 8.88994C30.6757 9.60877 30.6721 10.2499 30.6769 10.8898C30.6793 11.2211 30.6302 11.5297 30.287 11.6732C29.9461 11.8167 29.6925 11.6469 29.4557 11.4065C28.7333 10.6721 27.9917 9.95802 27.2801 9.21407C27.0409 8.9641 26.7957 8.86841 26.4572 8.88276C25.9058 8.90549 25.3532 8.89951 24.8018 8.88635C23.6895 8.86004 22.9874 8.16393 22.9766 7.05278C22.9635 5.51584 22.9623 3.9789 22.9766 2.44195C22.9874 1.34397 23.6823 0.647856 24.7755 0.64666C29.5347 0.638288 34.2938 0.638288 39.0529 0.64666C40.1378 0.649052 40.8315 1.36669 40.8375 2.4575C40.8446 3.93464 40.8411 5.41178 40.8387 6.88892C40.8375 8.21058 40.1557 8.88635 38.8185 8.88755C36.2972 8.88994 33.7759 8.88755 31.2546 8.88755C31.0788 8.88755 30.903 8.88755 30.6733 8.88755L30.6757 8.88994ZM29.2189 9.60758C29.2871 9.55854 29.354 9.5095 29.4222 9.46166C29.4222 9.18297 29.4222 8.90549 29.4222 8.62681C29.4234 7.75846 29.5478 7.63168 30.3994 7.63048C33.2197 7.63048 36.0412 7.63048 38.8616 7.63048C39.4429 7.63048 39.5852 7.49174 39.5852 6.92839C39.5876 5.46561 39.5888 4.00282 39.5852 2.54003C39.584 2.03768 39.4512 1.90133 38.9441 1.90133C34.2579 1.89774 29.5717 1.89774 24.8855 1.90133C24.3653 1.90133 24.2337 2.02453 24.2313 2.52807C24.2241 4.02076 24.2241 5.51345 24.2313 7.00614C24.2337 7.46782 24.394 7.61493 24.8568 7.63048C24.9908 7.63527 25.126 7.62929 25.2599 7.63168C25.9895 7.64842 26.7945 7.47978 27.426 7.73693C28.042 7.98811 28.4857 8.66867 28.9892 9.1758C29.0993 9.28703 29.1435 9.46285 29.2189 9.60877V9.60758Z" fill="#787878"/>
<path d="M14.7535 23.2411C14.0311 23.222 13.3517 22.8045 12.8231 22.1288C12.6138 21.862 12.6449 21.5558 12.8948 21.3214C13.1424 21.0882 13.4355 21.087 13.7082 21.2879C13.8385 21.3836 13.939 21.52 14.061 21.6276C14.61 22.1096 15.1985 22.106 15.7427 21.618C15.8527 21.5188 15.9424 21.3944 16.0596 21.3047C16.3443 21.087 16.6493 21.0786 16.91 21.3298C17.1564 21.5678 17.1624 21.8573 16.9722 22.1419C16.5703 22.7483 15.6542 23.2363 14.7535 23.2399V23.2411Z" fill="#787878"/>
<path d="M13.6137 18.439C13.6161 18.799 13.4534 19.0526 13.0934 19.11C12.7071 19.1722 12.4547 18.9653 12.3805 18.5957C12.3291 18.3362 12.2681 18.1185 11.9595 18.1209C11.6509 18.1233 11.5923 18.3493 11.5433 18.6041C11.4763 18.9605 11.2383 19.1423 10.8711 19.1172C10.535 19.0933 10.303 18.8002 10.309 18.4307C10.3221 17.5659 11.0888 16.8495 11.9906 16.8602C12.8709 16.871 13.6125 17.5934 13.6137 18.4402V18.439Z" fill="#787878"/>
<path d="M17.818 16.8582C18.6732 16.8534 19.3609 17.4538 19.4721 18.3054C19.5283 18.7336 19.325 19.0566 18.9614 19.114C18.6074 19.1702 18.3825 18.9609 18.233 18.5542C18.1696 18.382 17.9675 18.2612 17.8275 18.1176C17.6948 18.266 17.5046 18.3927 17.44 18.5674C17.2917 18.9656 17.0453 19.1869 16.6937 19.1104C16.3085 19.0266 16.1746 18.7587 16.1913 18.3808C16.2284 17.5459 16.9532 16.863 17.818 16.8582Z" fill="#787878"/>
<path d="M27.9641 4.14715C28.1279 4.14715 28.293 4.13519 28.4557 4.14955C28.7798 4.17825 28.9795 4.36005 29.0154 4.68419C29.0537 5.02865 28.8958 5.30136 28.5585 5.34561C28.165 5.39824 27.7548 5.39226 27.3613 5.34561C27.0407 5.30734 26.8781 5.03942 26.9008 4.72485C26.9247 4.39354 27.1209 4.17466 27.4725 4.14835C27.6352 4.13639 27.8002 4.14596 27.9641 4.14596V4.14715Z" fill="#787878"/>
<path d="M31.9292 4.14956C32.093 4.14956 32.2581 4.13401 32.4196 4.15196C32.7425 4.18784 32.9339 4.37801 32.9614 4.70334C32.9901 5.0502 32.8202 5.30855 32.4853 5.3528C32.1062 5.40184 31.7115 5.39945 31.3323 5.3528C30.9926 5.31094 30.8228 5.04542 30.8515 4.70573C30.8778 4.39117 31.0644 4.18425 31.3933 4.15196C31.5703 4.13521 31.7498 4.14837 31.9292 4.14837V4.14956Z" fill="#787878"/>
<path d="M35.8545 4.14572C36.0183 4.14572 36.1834 4.13376 36.3461 4.14812C36.6702 4.17563 36.8699 4.35623 36.9058 4.68156C36.9441 5.02483 36.7898 5.29873 36.4513 5.34418C36.059 5.39681 35.6488 5.39202 35.2552 5.34418C34.9347 5.30591 34.7768 5.04397 34.7972 4.72462C34.8187 4.38613 35.0136 4.17563 35.3641 4.14692C35.5268 4.13376 35.6918 4.14453 35.8557 4.14453L35.8545 4.14572Z" fill="#787878"/>
</g>
<defs>
<clipPath id="clip0_778_22095">
<rect width="45.8512" height="40" fill="white" transform="translate(0.445068 0.642334)"/>
</clipPath>
</defs>
</svg>
