<svg width="41" height="41" viewBox="0 0 41 41" fill="none" xmlns="http://www.w3.org/2000/svg">
<g clip-path="url(#clip0_778_24201)">
<path d="M0.0407715 38.5312C0.168097 37.7641 0.290204 36.9949 0.424835 36.2289C0.734799 34.4724 1.70331 33.2274 3.37941 32.6022C4.61822 32.1399 5.88313 31.7454 7.14699 31.3509C7.43921 31.2601 7.60098 31.1401 7.6876 30.8416C8.032 29.6602 8.0414 29.6633 7.11359 28.8451C7.01549 28.7595 6.92574 28.6624 6.82033 28.5883C5.72449 27.8139 5.2298 26.764 5.36965 25.4261C5.39679 25.1631 5.29973 25.0451 5.05134 24.9481C4.01499 24.5421 3.38254 23.5924 3.37941 22.4945C3.37628 21.3788 4.01604 20.4228 5.06804 20.0127C5.29973 19.9229 5.37383 19.8133 5.37278 19.5649C5.3707 18.394 5.31747 17.2167 5.42183 16.0541C5.62013 13.8353 6.85581 12.2928 8.78865 11.2637C8.9692 11.1677 9.14871 11.054 9.29691 10.9141C10.83 9.4697 13.2075 9.45718 14.7552 10.8838C14.9243 11.0394 15.1226 11.1688 15.325 11.2794C17.4927 12.4639 18.6825 14.2496 18.7065 16.7544C18.7159 17.7041 18.7148 18.6549 18.7033 19.6046C18.7012 19.8185 18.7649 19.9156 18.9695 19.9949C20.0517 20.4176 20.7113 21.3767 20.7103 22.4861C20.7082 23.5924 20.0507 24.5494 18.9642 24.9752C18.7482 25.0598 18.6919 25.1662 18.7054 25.3729C18.72 25.5931 18.7086 25.8154 18.7086 26.0366C18.7065 26.8924 18.385 27.6042 17.739 28.1667C17.2683 28.5769 16.7882 28.9787 16.3332 29.4055C16.2341 29.4984 16.1777 29.6883 16.1819 29.8313C16.2111 30.8009 16.5972 31.3519 17.667 31.5638C18.7993 31.7871 19.8816 32.2923 20.9639 32.7295C22.3958 33.3098 23.2745 34.3952 23.5667 35.9075C23.7661 36.9386 23.9205 37.9822 24.0186 39.028C24.1001 39.9046 23.5052 40.4807 22.6191 40.4807C15.564 40.4828 8.51 40.4807 1.45492 40.4839C0.729581 40.4839 0.30899 40.0883 0.0407715 39.4663C0.0407715 39.1543 0.0407715 38.8412 0.0407715 38.5291L0.0407715 38.5312ZM6.70031 19.8352C6.70031 19.9918 6.70031 20.1076 6.70031 20.2224C6.69405 20.9332 6.57298 21.049 5.86017 21.1816C5.61595 21.2264 5.35817 21.3402 5.16718 21.4967C4.73094 21.8516 4.61405 22.3431 4.77268 22.8723C4.9428 23.44 5.36026 23.7364 5.94366 23.8168C6.55628 23.9013 6.69613 24.0641 6.70031 24.6767C6.70344 25.0932 6.7097 25.5096 6.69926 25.926C6.6857 26.4562 6.87355 26.8778 7.28162 27.2253C8.12385 27.9423 8.95459 28.6729 9.78116 29.4055C10.089 29.6779 10.4334 29.8188 10.8446 29.8157C11.6378 29.8115 12.432 29.8115 13.2252 29.8157C13.6354 29.8178 13.9819 29.6852 14.2908 29.4118C15.1382 28.6614 15.994 27.9204 16.8498 27.1794C17.2067 26.8705 17.3831 26.4864 17.3789 26.0137C17.3748 25.5064 17.3716 24.9982 17.3821 24.491C17.3904 24.1153 17.5898 23.8888 17.9686 23.8303C18.097 23.8105 18.2274 23.798 18.3537 23.7688C18.935 23.632 19.34 23.1321 19.3598 22.5341C19.3796 21.934 19.0123 21.3945 18.4549 21.217C18.3568 21.1857 18.2514 21.1763 18.1481 21.1617C17.5355 21.0772 17.381 20.8987 17.3779 20.2652C17.3779 20.1275 17.3779 19.9897 17.3779 19.8332H6.70031V19.8352ZM8.21986 39.1397C8.14785 38.9727 8.09984 38.8547 8.04557 38.7389C7.49557 37.5752 6.95183 36.4095 6.3893 35.252C6.13569 34.7313 6.12317 34.2345 6.39765 33.7231C6.54585 33.4465 6.66691 33.1554 6.8005 32.8715C6.77441 32.8433 6.74936 32.8151 6.72327 32.7859C5.90713 33.0792 5.0983 33.3944 4.27382 33.6615C2.6906 34.176 1.8442 35.2719 1.63651 36.8989C1.54258 37.6389 1.44553 38.3778 1.34847 39.124H4.71528C4.71528 38.9142 4.71111 38.7337 4.71528 38.5542C4.72781 38.1043 4.96785 37.834 5.35713 37.8257C5.75789 37.8173 6.02611 38.1002 6.04385 38.5604C6.05116 38.7493 6.04489 38.9393 6.04489 39.1407H8.21882L8.21986 39.1397ZM18.0396 39.1376C18.0396 38.8902 18.025 38.6815 18.0427 38.4759C18.0792 38.0668 18.3548 37.8142 18.7273 37.8257C19.0853 37.8372 19.3347 38.0856 19.3619 38.4822C19.3765 38.6971 19.365 38.9153 19.365 39.124H22.7026C22.6212 37.9238 22.4907 36.7674 22.1035 35.6497C21.8802 35.0047 21.493 34.4975 20.8825 34.1959C20.2667 33.8922 19.6395 33.6062 19.0008 33.3557C18.456 33.1418 17.8862 32.9884 17.2349 32.7786C17.4134 33.1543 17.5292 33.4298 17.6722 33.6897C17.9655 34.2251 17.9488 34.7386 17.6785 35.2865C17.1097 36.4387 16.5743 37.6076 16.0253 38.7702C15.9721 38.8819 15.9272 38.9977 15.8677 39.1376H18.0385H18.0396ZM12.0344 11.1583C10.5629 11.1625 9.37727 12.347 9.37623 13.8155C9.37414 15.2776 10.567 16.4809 12.0271 16.4903C13.4934 16.4997 14.7229 15.2693 14.7114 13.804C14.6999 12.3397 13.5007 11.1552 12.0344 11.1583ZM17.3549 17.1458C16.4261 17.1458 15.5181 17.1364 14.6112 17.1531C14.4024 17.1572 14.1749 17.2167 13.9892 17.3138C12.8756 17.8951 11.7109 18.0443 10.5733 17.5069C9.90223 17.1896 9.24681 17.127 8.54548 17.1426C8.03827 17.1531 7.53001 17.1426 7.0228 17.1468C6.92365 17.1468 6.82554 17.1687 6.7264 17.1812V18.4493H17.3539V17.1458H17.3549ZM13.2482 33.8076C13.2242 32.4144 14.4828 32.2756 15.277 31.6974C15.1601 31.3258 15.0526 30.9825 14.9326 30.5995C14.0424 31.306 13.0165 31.1442 12.025 31.1484C11.0356 31.1526 10.017 31.2904 9.14141 30.6057C9.02034 31.0044 8.91598 31.3488 8.80639 31.7109C9.65071 32.262 10.8436 32.4655 10.8238 33.8066H13.2482V33.8076ZM13.5227 39.1532C13.769 39.1532 13.9558 39.1814 14.128 39.1438C14.2543 39.1167 14.4202 39.0311 14.4713 38.9247C15.1476 37.5199 15.8093 36.1089 16.4668 34.6947C16.5117 34.5987 16.5398 34.4557 16.5012 34.3681C16.2956 33.8963 16.065 33.4351 15.8302 32.9414C15.4952 33.122 15.1841 33.2576 14.9118 33.4476C14.7625 33.5509 14.6154 33.7315 14.5736 33.9037C14.4014 34.6238 14.2668 35.3522 14.1238 36.0786C13.9255 37.0837 13.7303 38.0908 13.5237 39.1532H13.5227ZM10.518 39.123C10.5232 39.0843 10.5284 39.0708 10.5253 39.0593C10.1757 37.2913 9.82708 35.5224 9.46911 33.7555C9.45137 33.6667 9.37414 33.5655 9.29587 33.5196C8.96399 33.3234 8.62167 33.146 8.25222 32.9445C8.0414 33.3839 7.82432 33.7826 7.66255 34.2021C7.59785 34.3681 7.59576 34.6092 7.66777 34.7688C8.23969 36.0327 8.83666 37.2861 9.42528 38.5427C9.63262 38.9852 9.99685 39.179 10.518 39.124V39.123ZM11.117 35.179C11.3779 36.4616 11.6305 37.7172 11.8925 38.9695C11.906 39.0363 11.9927 39.0885 12.0448 39.148C12.0991 39.0718 12.1857 39.0019 12.2035 38.9174C12.3673 38.1304 12.5218 37.3425 12.6763 36.5535C12.765 36.1016 12.8474 35.6497 12.9372 35.179H11.1181H11.117ZM7.94121 13.542C7.37242 14.1578 6.96018 14.8904 6.80467 15.7848H8.44112C8.27518 15.0397 8.11132 14.3049 7.94121 13.542ZM15.636 15.7942H17.284C17.1055 14.9082 16.7329 14.1609 16.1401 13.5619C15.9721 14.306 15.8072 15.0376 15.636 15.7942Z" fill="#787878"/>
<path d="M29.0241 0.486328C29.9894 1.20853 30.9548 1.92865 31.9191 2.65295C32.1571 2.83141 32.3888 3.02031 32.7019 3.26557C32.7019 2.97126 32.6967 2.74688 32.7019 2.52353C32.7228 1.73767 33.2373 1.18557 34.0179 1.16574C34.9155 1.14278 35.8151 1.14278 36.7126 1.1647C37.5173 1.18453 38.0235 1.72514 38.0287 2.5538C38.0391 4.07753 38.0381 5.60022 38.0266 7.12395C38.0245 7.38486 38.0986 7.56019 38.3115 7.71257C38.6497 7.95469 38.9627 8.2323 39.2967 8.47965C39.8154 8.86371 40.1442 9.3417 40.0085 10.0117C39.8718 10.6859 39.424 11.0596 38.706 11.1597V11.6273C38.706 15.8196 38.706 20.012 38.706 24.2043C38.706 24.9526 38.5015 25.1593 37.7584 25.1593C32.681 25.1593 27.6026 25.1593 22.5252 25.1593C22.4084 25.1593 22.2894 25.1645 22.1746 25.1447C21.801 25.082 21.5703 24.794 21.5954 24.4329C21.6194 24.0885 21.8646 23.8401 22.2414 23.8338C23.1264 23.8203 24.0124 23.8276 24.8975 23.8255C25.0373 23.8255 25.1772 23.8255 25.364 23.8255V23.3266C25.364 21.3479 25.3629 19.3681 25.364 17.3893C25.365 15.9647 26.1665 15.1621 27.5849 15.159C28.3666 15.158 29.1472 15.1548 29.9289 15.159C31.2189 15.1674 32.0339 15.9887 32.0392 17.3016C32.0475 19.3065 32.0413 21.3113 32.0413 23.3172C32.0413 23.4706 32.0413 23.623 32.0413 23.7994H37.3534V11.1848H20.0361C20.0361 11.4958 20.0393 11.8152 20.0361 12.1345C20.0299 12.6344 19.7846 12.9214 19.3682 12.9204C18.9507 12.9193 18.7128 12.6365 18.7065 12.1303C18.7034 11.8444 18.7044 11.5574 18.7024 11.2714C18.7024 11.2464 18.6909 11.2213 18.6794 11.1764C18.645 11.1618 18.6001 11.1347 18.5531 11.1263C17.9478 11.0262 17.5658 10.6692 17.4187 10.0858C17.2715 9.4993 17.4594 9.00461 17.9311 8.62889C19.46 7.41512 20.9932 6.20658 22.5252 4.99594C24.2201 3.6559 25.9129 2.31376 27.6141 0.981019C27.8583 0.792118 28.137 0.650181 28.3989 0.486328C28.6076 0.486328 28.8153 0.486328 29.0241 0.486328ZM38.7331 9.77795C38.5943 9.64854 38.5192 9.56713 38.4336 9.4993C35.2912 7.01541 32.1446 4.53674 29.0094 2.04346C28.7684 1.85247 28.6348 1.88899 28.4208 2.05911C25.6468 4.25391 22.8655 6.43931 20.0862 8.62785C19.6322 8.98582 19.1814 9.34692 18.6387 9.77795H38.7331ZM30.6615 23.8036C30.6824 23.7336 30.7023 23.6982 30.7023 23.6616C30.7043 21.5034 30.7116 19.3461 30.7002 17.1879C30.6981 16.7151 30.4361 16.497 29.9435 16.4938C29.1639 16.4876 28.3833 16.4907 27.6037 16.4928C26.9075 16.4938 26.7009 16.7005 26.6999 17.4029C26.6988 19.4046 26.6999 21.4063 26.6999 23.4091C26.6999 23.5343 26.7134 23.6606 26.7218 23.8046H30.6615V23.8036ZM34.0336 2.51205C34.0336 2.69365 34.0555 2.83872 34.0305 2.97439C33.8416 3.97525 34.2235 4.66511 35.0939 5.18067C35.6429 5.50629 36.1146 5.96236 36.674 6.40278V2.51205H34.0336Z" fill="#787878"/>
<path d="M12.6971 13.8722C12.6689 14.2416 12.3506 14.5067 11.9749 14.4733C11.6253 14.4431 11.355 14.132 11.3748 13.7824C11.3957 13.4213 11.7276 13.126 12.0834 13.1531C12.4477 13.1802 12.7253 13.5059 12.6971 13.8722Z" fill="#787878"/>
</g>
<defs>
<clipPath id="clip0_778_24201">
<rect width="40" height="40" fill="white" transform="translate(0.0407715 0.486328)"/>
</clipPath>
</defs>
</svg>
