<svg width="41" height="41" viewBox="0 0 41 41" fill="none" xmlns="http://www.w3.org/2000/svg">
<g clip-path="url(#clip0_778_22113)">
<path d="M0.0407715 38.6872C0.168097 37.9201 0.290204 37.151 0.424835 36.3849C0.734799 34.6285 1.70331 33.3834 3.37941 32.7582C4.61822 32.2959 5.88313 31.9014 7.14699 31.5069C7.43921 31.4161 7.60098 31.2961 7.6876 30.9976C8.032 29.8162 8.0414 29.8193 7.11359 29.0011C7.01549 28.9155 6.92574 28.8184 6.82033 28.7443C5.72449 27.97 5.2298 26.92 5.36965 25.5821C5.39679 25.3191 5.29973 25.2012 5.05134 25.1041C4.01499 24.6981 3.38254 23.7484 3.37941 22.6505C3.37628 21.5348 4.01604 20.5788 5.06804 20.1687C5.29973 20.0789 5.37383 19.9693 5.37278 19.7209C5.3707 18.55 5.31747 17.3727 5.42183 16.2101C5.62013 13.9913 6.85581 12.4488 8.78865 11.4197C8.9692 11.3237 9.14871 11.21 9.29691 11.0701C10.83 9.62571 13.2075 9.61318 14.7552 11.0399C14.9243 11.1954 15.1226 11.3248 15.325 11.4354C17.4927 12.6199 18.6825 14.4056 18.7065 16.9104C18.7159 17.8601 18.7148 18.8109 18.7033 19.7606C18.7012 19.9745 18.7649 20.0716 18.9695 20.1509C20.0517 20.5736 20.7113 21.5327 20.7103 22.6421C20.7082 23.7484 20.0507 24.7054 18.9642 25.1312C18.7482 25.2158 18.6919 25.3222 18.7054 25.5289C18.72 25.7491 18.7086 25.9714 18.7086 26.1926C18.7065 27.0484 18.385 27.7602 17.739 28.3227C17.2683 28.7329 16.7882 29.1347 16.3332 29.5615C16.2341 29.6544 16.1777 29.8444 16.1819 29.9873C16.2111 30.9569 16.5972 31.5079 17.667 31.7198C18.7993 31.9431 19.8816 32.4483 20.9639 32.8856C22.3958 33.4658 23.2745 34.5512 23.5667 36.0635C23.7661 37.0946 23.9205 38.1382 24.0186 39.184C24.1001 40.0607 23.5052 40.6367 22.6191 40.6367C15.564 40.6388 8.51 40.6367 1.45492 40.6399C0.729581 40.6399 0.30899 40.2443 0.0407715 39.6223C0.0407715 39.3103 0.0407715 38.9972 0.0407715 38.6851L0.0407715 38.6872ZM6.70031 19.9912C6.70031 20.1478 6.70031 20.2636 6.70031 20.3784C6.69405 21.0892 6.57298 21.205 5.86017 21.3376C5.61595 21.3824 5.35817 21.4962 5.16718 21.6527C4.73094 22.0076 4.61405 22.4991 4.77268 23.0283C4.9428 23.596 5.36026 23.8924 5.94366 23.9728C6.55628 24.0573 6.69613 24.2201 6.70031 24.8327C6.70344 25.2492 6.7097 25.6656 6.69926 26.082C6.6857 26.6122 6.87355 27.0338 7.28162 27.3813C8.12385 28.0983 8.95459 28.8289 9.78116 29.5615C10.089 29.8339 10.4334 29.9748 10.8446 29.9717C11.6378 29.9675 12.432 29.9675 13.2252 29.9717C13.6354 29.9738 13.9819 29.8412 14.2908 29.5678C15.1382 28.8174 15.994 28.0764 16.8498 27.3354C17.2067 27.0265 17.3831 26.6424 17.3789 26.1697C17.3748 25.6624 17.3716 25.1542 17.3821 24.647C17.3904 24.2713 17.5898 24.0448 17.9686 23.9863C18.097 23.9665 18.2274 23.954 18.3537 23.9248C18.935 23.788 19.34 23.2881 19.3598 22.6901C19.3796 22.09 19.0123 21.5505 18.4549 21.373C18.3568 21.3417 18.2514 21.3323 18.1481 21.3177C17.5355 21.2332 17.381 21.0547 17.3779 20.4212C17.3779 20.2835 17.3779 20.1457 17.3779 19.9892H6.70031V19.9912ZM8.21986 39.2957C8.14785 39.1287 8.09984 39.0107 8.04557 38.8949C7.49557 37.7312 6.95183 36.5655 6.3893 35.4081C6.13569 34.8873 6.12317 34.3905 6.39765 33.8791C6.54585 33.6025 6.66691 33.3114 6.8005 33.0275C6.77441 32.9993 6.74936 32.9711 6.72327 32.9419C5.90713 33.2352 5.0983 33.5504 4.27382 33.8175C2.6906 34.3321 1.8442 35.4279 1.63651 37.0549C1.54258 37.7949 1.44553 38.5338 1.34847 39.28H4.71528C4.71528 39.0702 4.71111 38.8897 4.71528 38.7102C4.72781 38.2604 4.96785 37.99 5.35713 37.9817C5.75789 37.9734 6.02611 38.2562 6.04385 38.7164C6.05116 38.9053 6.04489 39.0953 6.04489 39.2967H8.21882L8.21986 39.2957ZM18.0396 39.2936C18.0396 39.0462 18.025 38.8375 18.0427 38.6319C18.0792 38.2228 18.3548 37.9702 18.7273 37.9817C19.0853 37.9932 19.3347 38.2416 19.3619 38.6382C19.3765 38.8531 19.365 39.0713 19.365 39.28H22.7026C22.6212 38.0798 22.4907 36.9234 22.1035 35.8057C21.8802 35.1607 21.493 34.6535 20.8825 34.3519C20.2667 34.0482 19.6395 33.7622 19.0008 33.5117C18.456 33.2978 17.8862 33.1444 17.2349 32.9346C17.4134 33.3103 17.5292 33.5858 17.6722 33.8457C17.9655 34.3811 17.9488 34.8946 17.6785 35.4425C17.1097 36.5947 16.5743 37.7636 16.0253 38.9262C15.9721 39.0379 15.9272 39.1537 15.8677 39.2936H18.0385H18.0396ZM12.0344 11.3143C10.5629 11.3185 9.37727 12.5031 9.37623 13.9715C9.37414 15.4336 10.567 16.637 12.0271 16.6463C13.4934 16.6557 14.7229 15.4253 14.7114 13.96C14.6999 12.4957 13.5007 11.3112 12.0344 11.3143ZM17.3549 17.3018C16.4261 17.3018 15.5181 17.2924 14.6112 17.3091C14.4024 17.3132 14.1749 17.3727 13.9892 17.4698C12.8756 18.0511 11.7109 18.2003 10.5733 17.6629C9.90223 17.3456 9.24681 17.283 8.54548 17.2986C8.03827 17.3091 7.53001 17.2986 7.0228 17.3028C6.92365 17.3028 6.82554 17.3247 6.7264 17.3372V18.6053H17.3539V17.3018H17.3549ZM13.2482 33.9636C13.2242 32.5704 14.4828 32.4316 15.277 31.8534C15.1601 31.4818 15.0526 31.1385 14.9326 30.7555C14.0424 31.462 13.0165 31.3002 12.025 31.3044C11.0356 31.3086 10.017 31.4464 9.14141 30.7617C9.02034 31.1604 8.91598 31.5048 8.80639 31.8669C9.65071 32.418 10.8436 32.6215 10.8238 33.9626H13.2482V33.9636ZM13.5227 39.3092C13.769 39.3092 13.9558 39.3374 14.128 39.2998C14.2543 39.2727 14.4202 39.1871 14.4713 39.0807C15.1476 37.6759 15.8093 36.2649 16.4668 34.8507C16.5117 34.7547 16.5398 34.6117 16.5012 34.5241C16.2956 34.0524 16.065 33.5911 15.8302 33.0974C15.4952 33.278 15.1841 33.4136 14.9118 33.6036C14.7625 33.7069 14.6154 33.8875 14.5736 34.0597C14.4014 34.7798 14.2668 35.5082 14.1238 36.2346C13.9255 37.2397 13.7303 38.2468 13.5237 39.3092H13.5227ZM10.518 39.279C10.5232 39.2403 10.5284 39.2268 10.5253 39.2153C10.1757 37.4474 9.82708 35.6784 9.46911 33.9115C9.45137 33.8228 9.37414 33.7215 9.29587 33.6756C8.96399 33.4794 8.62167 33.302 8.25222 33.1005C8.0414 33.5399 7.82432 33.9386 7.66255 34.3581C7.59785 34.5241 7.59576 34.7652 7.66777 34.9248C8.23969 36.1887 8.83666 37.4421 9.42528 38.6987C9.63262 39.1412 9.99685 39.335 10.518 39.28V39.279ZM11.117 35.335C11.3779 36.6176 11.6305 37.8732 11.8925 39.1255C11.906 39.1923 11.9927 39.2445 12.0448 39.304C12.0991 39.2278 12.1857 39.1579 12.2035 39.0734C12.3673 38.2864 12.5218 37.4985 12.6763 36.7095C12.765 36.2576 12.8474 35.8057 12.9372 35.335H11.1181H11.117ZM7.94121 13.698C7.37242 14.3138 6.96018 15.0464 6.80467 15.9408H8.44112C8.27518 15.1957 8.11132 14.4609 7.94121 13.698ZM15.636 15.9502H17.284C17.1055 15.0642 16.7329 14.3169 16.1401 13.7179C15.9721 14.462 15.8072 15.1936 15.636 15.9502Z" fill="#253E96"/>
<path d="M29.0241 0.642334C29.9894 1.36454 30.9548 2.08466 31.9191 2.80895C32.1571 2.98742 32.3888 3.17632 32.7019 3.42158C32.7019 3.12727 32.6967 2.90288 32.7019 2.67954C32.7228 1.89367 33.2373 1.34158 34.0179 1.32175C34.9155 1.29879 35.8151 1.29879 36.7126 1.32071C37.5173 1.34054 38.0235 1.88115 38.0287 2.70981C38.0391 4.23354 38.0381 5.75622 38.0266 7.27995C38.0245 7.54086 38.0986 7.7162 38.3115 7.86857C38.6497 8.1107 38.9627 8.38831 39.2967 8.63565C39.8154 9.01972 40.1442 9.49771 40.0085 10.1677C39.8718 10.8419 39.424 11.2156 38.706 11.3158V11.7833C38.706 15.9757 38.706 20.168 38.706 24.3603C38.706 25.1086 38.5015 25.3153 37.7584 25.3153C32.681 25.3153 27.6026 25.3153 22.5252 25.3153C22.4084 25.3153 22.2894 25.3205 22.1746 25.3007C21.801 25.2381 21.5703 24.95 21.5954 24.5889C21.6194 24.2445 21.8646 23.9961 22.2414 23.9898C23.1264 23.9763 24.0124 23.9836 24.8975 23.9815C25.0373 23.9815 25.1772 23.9815 25.364 23.9815V23.4826C25.364 21.5039 25.3629 19.5241 25.364 17.5453C25.365 16.1207 26.1665 15.3182 27.5849 15.315C28.3666 15.314 29.1472 15.3108 29.9289 15.315C31.2189 15.3234 32.0339 16.1447 32.0392 17.4576C32.0475 19.4625 32.0413 21.4673 32.0413 23.4732C32.0413 23.6267 32.0413 23.779 32.0413 23.9554H37.3534V11.3408H20.0361C20.0361 11.6518 20.0393 11.9712 20.0361 12.2905C20.0299 12.7904 19.7846 13.0774 19.3682 13.0764C18.9507 13.0753 18.7128 12.7925 18.7065 12.2863C18.7034 12.0004 18.7044 11.7134 18.7024 11.4274C18.7024 11.4024 18.6909 11.3773 18.6794 11.3324C18.645 11.3178 18.6001 11.2907 18.5531 11.2824C17.9478 11.1822 17.5658 10.8252 17.4187 10.2418C17.2715 9.6553 17.4594 9.16061 17.9311 8.7849C19.46 7.57113 20.9932 6.36258 22.5252 5.15195C24.2201 3.8119 25.9129 2.46977 27.6141 1.13702C27.8583 0.948124 28.137 0.806187 28.3989 0.642334C28.6076 0.642334 28.8153 0.642334 29.0241 0.642334ZM38.7331 9.93396C38.5943 9.80454 38.5192 9.72314 38.4336 9.6553C35.2912 7.17141 32.1446 4.69274 29.0094 2.19946C28.7684 2.00847 28.6348 2.045 28.4208 2.21512C25.6468 4.40991 22.8655 6.59532 20.0862 8.78385C19.6322 9.14183 19.1814 9.50293 18.6387 9.93396H38.7331ZM30.6615 23.9596C30.6824 23.8897 30.7023 23.8542 30.7023 23.8176C30.7043 21.6594 30.7116 19.5021 30.7002 17.3439C30.6981 16.8711 30.4361 16.653 29.9435 16.6498C29.1639 16.6436 28.3833 16.6467 27.6037 16.6488C26.9075 16.6498 26.7009 16.8565 26.6999 17.5589C26.6988 19.5606 26.6999 21.5623 26.6999 23.5651C26.6999 23.6903 26.7134 23.8166 26.7218 23.9606H30.6615V23.9596ZM34.0336 2.66806C34.0336 2.84966 34.0555 2.99472 34.0305 3.1304C33.8416 4.13126 34.2235 4.82111 35.0939 5.33667C35.6429 5.66229 36.1146 6.11837 36.674 6.55879V2.66806H34.0336Z" fill="#253E96"/>
<path d="M12.6971 14.0282C12.6689 14.3976 12.3506 14.6627 11.9749 14.6293C11.6253 14.5991 11.355 14.288 11.3748 13.9384C11.3957 13.5773 11.7276 13.282 12.0834 13.3091C12.4477 13.3362 12.7253 13.6619 12.6971 14.0282Z" fill="#253E96"/>
</g>
<defs>
<clipPath id="clip0_778_22113">
<rect width="40" height="40" fill="white" transform="translate(0.0407715 0.642334)"/>
</clipPath>
</defs>
</svg>
