<svg width="41" height="41" viewBox="0 0 41 41" fill="none" xmlns="http://www.w3.org/2000/svg">
<path d="M0.0515137 3.00787C0.0619458 2.99952 0.0775969 2.99326 0.0807266 2.98283C0.723343 1.06646 1.61424 0.431147 3.65892 0.431147C8.81342 0.431147 13.9679 0.469747 19.1214 0.41237C21.1796 0.38942 22.5702 1.88433 22.5629 3.83617C22.5254 14.8838 22.5452 25.9324 22.5452 36.9799C22.5452 38.8202 21.7273 39.8874 19.9518 40.3673C19.9288 40.3735 19.91 40.3965 19.8902 40.4121H2.70752C2.60841 40.3829 2.51036 40.3526 2.41125 40.3255C1.36178 40.0386 0.634671 39.3918 0.238252 38.3779C0.168357 38.1995 0.114106 38.0159 0.0515137 37.8354C0.0515137 26.2266 0.0515137 14.6167 0.0515137 3.00787ZM21.2954 29.3051V28.9295C21.2954 20.4973 21.2954 12.066 21.2944 3.63379C21.2944 2.44662 20.5255 1.68091 19.3384 1.67986C13.9898 1.67778 8.64025 1.67778 3.29173 1.67986C2.05657 1.67986 1.30128 2.43828 1.30128 3.67761C1.30128 12.1224 1.30128 20.5672 1.30128 29.0119C1.30128 29.1194 1.31379 29.2258 1.32631 29.4261C2.87652 26.503 5.24669 24.7003 8.27617 23.6498C8.19062 23.5789 8.15412 23.5445 8.11343 23.5173C6.26174 22.2551 5.35519 20.4993 5.3604 18.2617C5.36562 15.8289 5.3604 13.3951 5.36249 10.9623C5.36458 9.02196 6.76978 7.61781 8.71119 7.61572C10.4294 7.61364 12.1465 7.61364 13.8646 7.61572C15.8342 7.61781 17.2321 9.01362 17.2332 10.9822C17.2352 13.441 17.2394 15.9009 17.2321 18.3597C17.2248 20.5025 16.3412 22.1977 14.597 23.4443C14.5219 23.4975 14.4561 23.5632 14.3789 23.629C17.4606 24.5699 19.619 26.575 21.2954 29.3051ZM16.3037 25.8594C16.4747 26.6981 16.6427 27.469 16.7846 28.2452C16.8347 28.5185 16.9181 28.6791 17.2102 28.8012C18.3327 29.2696 18.8543 30.559 18.4287 31.6971C18.0062 32.8269 16.8002 33.4414 15.6454 33.1138C14.4728 32.781 13.7614 31.6053 14.0169 30.4182C14.2058 29.5408 14.7691 28.9921 15.5995 28.6677C15.4295 27.4669 15.1728 26.3048 14.6418 25.2199C14.5928 25.1187 14.4718 25.0164 14.3633 24.9862C12.7036 24.5251 11.0271 24.2883 9.31937 24.7035C9.18584 24.7358 9.00538 24.8287 8.96365 24.9382C8.6173 25.8406 8.29808 26.7544 7.96634 27.6756C9.19315 28.0991 9.94635 28.8753 10.0173 30.0802C10.1049 31.5459 10.0475 33.0199 10.0413 34.4898C10.0402 34.8153 9.84203 35.0365 9.52385 35.0824C9.25575 35.121 8.9553 35.1575 8.71328 35.0709C8.50463 34.9968 8.2866 34.7777 8.2021 34.5691C8.09674 34.3114 8.25844 34.0663 8.51611 33.9275C8.60374 33.8806 8.69971 33.8482 8.79673 33.8076C8.79673 32.6235 8.81342 31.452 8.79047 30.2815C8.77482 29.4876 8.11552 28.8763 7.31642 28.8523C6.45368 28.8262 5.7203 29.3896 5.69214 30.1991C5.64936 31.4061 5.68066 32.6162 5.68066 33.8169C6.15324 33.9974 6.34624 34.2405 6.28991 34.5722C6.23044 34.928 5.96337 35.097 5.45846 35.099C5.38022 35.099 5.30198 35.099 5.22374 35.099C4.63745 35.0938 4.42569 34.8852 4.42465 34.2968C4.42256 33.0345 4.42256 31.7723 4.42465 30.51C4.42673 29.0672 5.14028 28.1137 6.52984 27.6818C6.61642 27.6547 6.73744 27.5932 6.75935 27.5222C6.97947 26.8076 7.18288 26.0878 7.40404 25.3242C7.26738 25.3763 7.17037 25.4035 7.08379 25.4483C3.98337 27.0371 2.05969 29.5408 1.48384 32.9699C1.25746 34.3166 1.33258 35.7166 1.3065 37.0937C1.28146 38.4342 2.03048 39.1592 3.38144 39.1603C8.24905 39.1603 13.1177 39.1603 17.9853 39.1603C18.4934 39.1603 19.0014 39.1707 19.5084 39.1561C20.5182 39.1269 21.2923 38.3246 21.2954 37.3159C21.2985 36.3916 21.2985 35.4683 21.2954 34.5441C21.2902 32.5411 20.7529 30.6936 19.6544 29.0171C18.8001 27.7131 17.6995 26.6658 16.3037 25.8573V25.8594ZM6.68111 15.1185C6.68111 16.5018 6.5601 17.8632 6.70823 19.1953C6.96278 21.4747 9.07735 23.2451 11.3161 23.2305C13.5538 23.2159 15.6318 21.456 15.8895 19.1974C16.0397 17.8736 15.9531 16.5237 15.9709 15.1852C15.9709 15.1665 15.9396 15.1466 15.9166 15.1195H6.68006L6.68111 15.1185ZM15.9636 13.8468C15.973 13.7665 15.9823 13.7279 15.9823 13.6903C15.9834 12.741 15.9917 11.7906 15.9823 10.8413C15.9709 9.73239 15.104 8.87175 13.9877 8.86653C12.1924 8.85923 10.397 8.85818 8.6006 8.86653C7.4875 8.87175 6.62373 9.73656 6.6133 10.8486C6.60495 11.7593 6.61121 12.6701 6.6133 13.5808C6.6133 13.6674 6.62999 13.754 6.63938 13.8468H15.9646H15.9636ZM17.351 30.8939C17.3531 30.317 16.8952 29.8507 16.3183 29.8423C15.7205 29.834 15.2458 30.2961 15.2427 30.8918C15.2396 31.4624 15.7038 31.9381 16.2755 31.9506C16.8586 31.9632 17.3479 31.4812 17.351 30.8939Z" fill="#253E96"/>
<path d="M32.4338 19.7965C30.2357 19.7965 28.0366 19.7975 25.8386 19.7965C24.5649 19.7965 23.797 19.0287 23.796 17.757C23.7939 14.5314 23.7939 11.3058 23.796 8.08021C23.796 6.83254 24.5701 6.0543 25.8115 6.0543C28.843 6.05221 31.8736 6.05221 34.9051 6.0543C36.1445 6.0543 36.9143 6.83358 36.9164 8.08543C36.9185 9.90687 36.9081 11.7273 36.9196 13.5487C36.9331 15.6821 37.8271 17.3543 39.5985 18.5499C39.8875 18.7449 40.116 18.964 39.996 19.3479C39.8791 19.7224 39.5829 19.8017 39.2251 19.8007C36.9613 19.7954 34.6975 19.7975 32.4338 19.7975V19.7965ZM37.6091 18.5478C37.533 18.4445 37.5058 18.4028 37.4735 18.3662C36.2467 16.9652 35.6541 15.3316 35.6635 13.4705C35.6729 11.7012 35.6667 9.93086 35.6656 8.16054C35.6656 7.49706 35.4705 7.30302 34.805 7.30302C31.8506 7.30302 28.8963 7.30302 25.9408 7.30302C25.2231 7.30302 25.0437 7.4835 25.0437 8.20122C25.0437 11.3507 25.0437 14.5001 25.0437 17.6485C25.0437 18.3662 25.2252 18.5467 25.9408 18.5478C29.3511 18.5478 32.7613 18.5478 36.1716 18.5478H37.6091Z" fill="#253E96"/>
<path d="M31.3781 33.5407C29.1404 33.5407 26.9028 33.5376 24.6661 33.5438C24.2999 33.5438 23.9807 33.4885 23.8639 33.0859C23.7544 32.7041 23.9766 32.4881 24.2676 32.2889C26.0181 31.0933 26.8965 29.4252 26.9163 27.3096C26.9257 26.2956 26.9142 25.2806 26.9195 24.2666C26.9247 23.0971 27.7123 22.3001 28.8744 22.2981C31.9446 22.2939 35.0147 22.2939 38.0839 22.2981C39.247 22.2991 40.0357 23.0951 40.0378 24.2676C40.042 26.6993 40.042 29.1321 40.0378 31.5638C40.0357 32.7531 39.245 33.5386 38.0505 33.5407C35.8264 33.5438 33.6012 33.5407 31.3771 33.5407H31.3781ZM26.2278 32.2638C26.33 32.2805 26.3551 32.2889 26.3812 32.2889C30.2723 32.2899 34.1645 32.292 38.0557 32.2889C38.5617 32.2889 38.788 32.0541 38.7891 31.5398C38.7922 29.1321 38.7922 26.7254 38.7891 24.3177C38.7891 23.7617 38.5669 23.5457 38.0015 23.5447C34.9824 23.5426 31.9623 23.5426 28.9433 23.5447C28.3862 23.5447 28.1713 23.7658 28.1692 24.3302C28.1661 25.3578 28.2151 26.3895 28.1525 27.4129C28.1077 28.1578 27.9741 28.9089 27.7811 29.6308C27.5172 30.6208 26.9466 31.4626 26.2278 32.2617V32.2638Z" fill="#253E96"/>
<path d="M11.2984 4.17854C10.7132 4.17854 10.1269 4.18272 9.54163 4.1775C9.08158 4.17333 8.80305 3.93339 8.802 3.55366C8.802 3.17289 9.07845 2.93191 9.54059 2.93086C10.7121 2.92669 11.8836 2.92669 13.0541 2.93086C13.5131 2.93191 13.7938 3.17498 13.7938 3.55366C13.7938 3.9313 13.5131 4.17437 13.0552 4.1775C12.4699 4.18272 11.8836 4.17854 11.2984 4.17854Z" fill="#253E96"/>
<path d="M32.7102 10.9088C32.7196 11.5003 32.4942 12.001 32.1228 12.4434C31.9309 12.6729 31.7285 12.894 31.5272 13.1152C31.1902 13.4845 31.0003 13.9101 30.9795 14.4161C30.9607 14.8532 30.7103 15.114 30.3473 15.1088C29.9686 15.1035 29.7235 14.8125 29.7339 14.3608C29.7506 13.6608 29.9884 13.0369 30.4276 12.4945C30.6811 12.1815 30.9649 11.8925 31.2152 11.5765C31.5292 11.18 31.5449 10.7043 31.2841 10.3079C31.0358 9.93132 30.5559 9.72998 30.1303 9.82595C29.6682 9.93027 29.3291 10.2964 29.2603 10.7659C29.2488 10.8431 29.2488 10.9224 29.2321 10.9985C29.1518 11.3689 28.8847 11.5681 28.5311 11.5264C28.2045 11.4888 27.9907 11.2405 27.998 10.8712C28.0168 9.95948 28.4382 9.27305 29.2311 8.84221C30.0416 8.40197 30.8637 8.4437 31.6377 8.94131C32.3471 9.39615 32.683 10.0742 32.7102 10.9098V10.9088Z" fill="#253E96"/>
<path d="M30.337 15.9036C30.7084 15.8921 31.0412 16.2072 31.0516 16.5817C31.0621 16.9552 30.7501 17.2838 30.3735 17.2942C29.998 17.3046 29.6714 16.9948 29.66 16.6182C29.6485 16.2448 29.9615 15.9151 30.337 15.9036Z" fill="#253E96"/>
<path d="M30.9838 28.5394C30.6458 28.5415 30.361 28.2598 30.3589 27.9208C30.3568 27.5807 30.6364 27.298 30.9765 27.2959C31.3155 27.2938 31.5993 27.5745 31.6024 27.9135C31.6045 28.2515 31.3228 28.5373 30.9838 28.5394Z" fill="#253E96"/>
<path d="M34.1007 27.9345C34.0913 28.2725 33.7992 28.55 33.4622 28.5406C33.1232 28.5312 32.8478 28.2402 32.8572 27.9022C32.8666 27.5621 33.1555 27.2877 33.4946 27.2971C33.8336 27.3065 34.109 27.5965 34.0996 27.9345H34.1007Z" fill="#253E96"/>
<path d="M35.9745 28.5394C35.6355 28.5373 35.3549 28.2525 35.3569 27.9135C35.359 27.5734 35.6428 27.2938 35.9818 27.2959C36.3209 27.298 36.6015 27.5828 36.5994 27.9218C36.5973 28.2598 36.3115 28.5425 35.9735 28.5394H35.9745Z" fill="#253E96"/>
</svg>
