<svg width="41" height="41" viewBox="0 0 41 41" fill="none" xmlns="http://www.w3.org/2000/svg">
<path d="M0.0515137 3.32012C0.0619458 3.31178 0.0775969 3.30552 0.0807266 3.29509C0.723343 1.37871 1.61424 0.743403 3.65892 0.743403C8.81342 0.743403 13.9679 0.782002 19.1214 0.724626C21.1796 0.701675 22.5702 2.19659 22.5629 4.14843C22.5254 15.196 22.5452 26.2446 22.5452 37.2922C22.5452 39.1324 21.7273 40.1996 19.9518 40.6795C19.9288 40.6858 19.91 40.7087 19.8902 40.7244H2.70752C2.60841 40.6952 2.51036 40.6649 2.41125 40.6378C1.36178 40.3509 0.634671 39.7041 0.238252 38.6901C0.168357 38.5117 0.114106 38.3281 0.0515137 38.1476C0.0515137 26.5388 0.0515137 14.9289 0.0515137 3.32012ZM21.2954 29.6173V29.2418C21.2954 20.8095 21.2954 12.3783 21.2944 3.94605C21.2944 2.75888 20.5255 1.99316 19.3384 1.99212C13.9898 1.99003 8.64025 1.99003 3.29173 1.99212C2.05657 1.99212 1.30128 2.75054 1.30128 3.98987C1.30128 12.4346 1.30128 20.8794 1.30128 29.3242C1.30128 29.4316 1.31379 29.538 1.32631 29.7383C2.87652 26.8153 5.24669 25.0126 8.27617 23.9621C8.19062 23.8912 8.15412 23.8567 8.11343 23.8296C6.26174 22.5673 5.35519 20.8116 5.3604 18.5739C5.36562 16.1412 5.3604 13.7073 5.36249 11.2746C5.36458 9.33422 6.76978 7.93007 8.71119 7.92798C10.4294 7.92589 12.1465 7.92589 13.8646 7.92798C15.8342 7.93007 17.2321 9.32587 17.2332 11.2944C17.2352 13.7533 17.2394 16.2131 17.2321 18.672C17.2248 20.8147 16.3412 22.5099 14.597 23.7566C14.5219 23.8098 14.4561 23.8755 14.3789 23.9412C17.4606 24.8822 19.619 26.8872 21.2954 29.6173ZM16.3037 26.1716C16.4747 27.0103 16.6427 27.7813 16.7846 28.5574C16.8347 28.8307 16.9181 28.9914 17.2102 29.1135C18.3327 29.5819 18.8543 30.8713 18.4287 32.0094C18.0062 33.1392 16.8002 33.7536 15.6454 33.4261C14.4728 33.0933 13.7614 31.9176 14.0169 30.7304C14.2058 29.8531 14.7691 29.3044 15.5995 28.9799C15.4295 27.7792 15.1728 26.6171 14.6418 25.5321C14.5928 25.4309 14.4718 25.3287 14.3633 25.2984C12.7036 24.8373 11.0271 24.6005 9.31937 25.0157C9.18584 25.0481 9.00538 25.1409 8.96365 25.2505C8.6173 26.1528 8.29808 27.0667 7.96634 27.9878C9.19315 28.4114 9.94635 29.1875 10.0173 30.3924C10.1049 31.8581 10.0475 33.3322 10.0413 34.8021C10.0402 35.1275 9.84203 35.3487 9.52385 35.3946C9.25575 35.4332 8.9553 35.4697 8.71328 35.3831C8.50463 35.3091 8.2866 35.09 8.2021 34.8814C8.09674 34.6237 8.25844 34.3785 8.51611 34.2398C8.60374 34.1928 8.69971 34.1605 8.79673 34.1198C8.79673 32.9358 8.81342 31.7642 8.79047 30.5938C8.77482 29.7999 8.11552 29.1886 7.31642 29.1646C6.45368 29.1385 5.7203 29.7018 5.69214 30.5114C5.64936 31.7183 5.68066 32.9285 5.68066 34.1292C6.15324 34.3097 6.34624 34.5527 6.28991 34.8845C6.23044 35.2402 5.96337 35.4092 5.45846 35.4113C5.38022 35.4113 5.30198 35.4113 5.22374 35.4113C4.63745 35.4061 4.42569 35.1974 4.42465 34.6091C4.42256 33.3468 4.42256 32.0845 4.42465 30.8222C4.42673 29.3795 5.14028 28.426 6.52984 27.9941C6.61642 27.967 6.73744 27.9054 6.75935 27.8345C6.97947 27.1199 7.18288 26.4001 7.40404 25.6364C7.26738 25.6886 7.17037 25.7157 7.08379 25.7606C3.98337 27.3494 2.05969 29.8531 1.48384 33.2821C1.25746 34.6289 1.33258 36.0289 1.3065 37.4059C1.28146 38.7464 2.03048 39.4715 3.38144 39.4725C8.24905 39.4725 13.1177 39.4725 17.9853 39.4725C18.4934 39.4725 19.0014 39.4829 19.5084 39.4683C20.5182 39.4391 21.2923 38.6369 21.2954 37.6281C21.2985 36.7038 21.2985 35.7806 21.2954 34.8563C21.2902 32.8534 20.7529 31.0058 19.6544 29.3294C18.8001 28.0254 17.6995 26.978 16.3037 26.1695V26.1716ZM6.68111 15.4307C6.68111 16.814 6.5601 18.1754 6.70823 19.5076C6.96278 21.787 9.07735 23.5573 11.3161 23.5427C13.5538 23.5281 15.6318 21.7682 15.8895 19.5097C16.0397 18.1858 15.9531 16.8359 15.9709 15.4975C15.9709 15.4787 15.9396 15.4589 15.9166 15.4318H6.68006L6.68111 15.4307ZM15.9636 14.1591C15.973 14.0787 15.9823 14.0401 15.9823 14.0026C15.9834 13.0533 15.9917 12.1029 15.9823 11.1536C15.9709 10.0446 15.104 9.184 13.9877 9.17878C12.1924 9.17148 10.397 9.17044 8.6006 9.17878C7.4875 9.184 6.62373 10.0488 6.6133 11.1609C6.60495 12.0716 6.61121 12.9823 6.6133 13.893C6.6133 13.9796 6.62999 14.0662 6.63938 14.1591H15.9646H15.9636ZM17.351 31.2061C17.3531 30.6292 16.8952 30.1629 16.3183 30.1546C15.7205 30.1462 15.2458 30.6084 15.2427 31.204C15.2396 31.7747 15.7038 32.2504 16.2755 32.2629C16.8586 32.2754 17.3479 31.7935 17.351 31.2061Z" fill="#787878"/>
<path d="M32.4338 20.1087C30.2357 20.1087 28.0366 20.1098 25.8386 20.1087C24.5649 20.1087 23.797 19.3409 23.796 18.0693C23.7939 14.8437 23.7939 11.6181 23.796 8.39247C23.796 7.14479 24.5701 6.36656 25.8115 6.36656C28.843 6.36447 31.8736 6.36447 34.9051 6.36656C36.1445 6.36656 36.9143 7.14583 36.9164 8.39769C36.9185 10.2191 36.9081 12.0395 36.9196 13.861C36.9331 15.9943 37.8271 17.6666 39.5985 18.8621C39.8875 19.0572 40.116 19.2763 39.996 19.6602C39.8791 20.0347 39.5829 20.114 39.2251 20.1129C36.9613 20.1077 34.6975 20.1098 32.4338 20.1098V20.1087ZM37.6091 18.86C37.533 18.7567 37.5058 18.715 37.4735 18.6785C36.2467 17.2775 35.6541 15.6438 35.6635 13.7827C35.6729 12.0134 35.6667 10.2431 35.6656 8.47279C35.6656 7.80931 35.4705 7.61528 34.805 7.61528C31.8506 7.61528 28.8963 7.61528 25.9408 7.61528C25.2231 7.61528 25.0437 7.79575 25.0437 8.51348C25.0437 11.6629 25.0437 14.8124 25.0437 17.9608C25.0437 18.6785 25.2252 18.859 25.9408 18.86C29.3511 18.86 32.7613 18.86 36.1716 18.86H37.6091Z" fill="#787878"/>
<path d="M31.3781 33.853C29.1404 33.853 26.9028 33.8498 24.6661 33.8561C24.2999 33.8561 23.9807 33.8008 23.8639 33.3981C23.7544 33.0163 23.9766 32.8004 24.2676 32.6011C26.0181 31.4056 26.8965 29.7375 26.9163 27.6219C26.9257 26.6079 26.9142 25.5928 26.9195 24.5788C26.9247 23.4094 27.7123 22.6124 28.8744 22.6103C31.9446 22.6061 35.0147 22.6061 38.0839 22.6103C39.247 22.6114 40.0357 23.4073 40.0378 24.5799C40.042 27.0116 40.042 29.4444 40.0378 31.8761C40.0357 33.0653 39.245 33.8509 38.0505 33.853C35.8264 33.8561 33.6012 33.853 31.3771 33.853H31.3781ZM26.2278 32.5761C26.33 32.5928 26.3551 32.6011 26.3812 32.6011C30.2723 32.6022 34.1645 32.6042 38.0557 32.6011C38.5617 32.6011 38.788 32.3664 38.7891 31.8521C38.7922 29.4444 38.7922 27.0377 38.7891 24.63C38.7891 24.0739 38.5669 23.858 38.0015 23.8569C34.9824 23.8549 31.9623 23.8549 28.9433 23.8569C28.3862 23.8569 28.1713 24.0781 28.1692 24.6425C28.1661 25.67 28.2151 26.7018 28.1525 27.7252C28.1077 28.47 27.9741 29.2211 27.7811 29.943C27.5172 30.933 26.9466 31.7749 26.2278 32.574V32.5761Z" fill="#787878"/>
<path d="M11.2984 4.4908C10.7132 4.4908 10.1269 4.49497 9.54163 4.48976C9.08158 4.48558 8.80305 4.24565 8.802 3.86592C8.802 3.48515 9.07845 3.24416 9.54059 3.24312C10.7121 3.23895 11.8836 3.23895 13.0541 3.24312C13.5131 3.24416 13.7938 3.48723 13.7938 3.86592C13.7938 4.24356 13.5131 4.48663 13.0552 4.48976C12.4699 4.49497 11.8836 4.4908 11.2984 4.4908Z" fill="#787878"/>
<path d="M32.7102 11.2213C32.7196 11.8128 32.4942 12.3135 32.1228 12.7559C31.9309 12.9854 31.7285 13.2065 31.5272 13.4277C31.1902 13.797 31.0003 14.2226 30.9795 14.7286C30.9607 15.1657 30.7103 15.4265 30.3473 15.4213C29.9686 15.416 29.7235 15.125 29.7339 14.6733C29.7506 13.9733 29.9884 13.3494 30.4276 12.807C30.6811 12.494 30.9649 12.205 31.2152 11.889C31.5292 11.4925 31.5449 11.0168 31.2841 10.6204C31.0358 10.2438 30.5559 10.0425 30.1303 10.1385C29.6682 10.2428 29.3291 10.6089 29.2603 11.0784C29.2488 11.1556 29.2488 11.2349 29.2321 11.311C29.1518 11.6814 28.8847 11.8806 28.5311 11.8389C28.2045 11.8013 27.9907 11.553 27.998 11.1837C28.0168 10.272 28.4382 9.58555 29.2311 9.15471C30.0416 8.71447 30.8637 8.7562 31.6377 9.25381C32.3471 9.70865 32.683 10.3867 32.7102 11.2223V11.2213Z" fill="#787878"/>
<path d="M30.337 16.2161C30.7084 16.2046 31.0412 16.5197 31.0516 16.8942C31.0621 17.2677 30.7501 17.5963 30.3735 17.6067C29.998 17.6171 29.6714 17.3073 29.66 16.9307C29.6485 16.5573 29.9615 16.2276 30.337 16.2161Z" fill="#787878"/>
<path d="M30.9838 28.8514C30.6458 28.8535 30.361 28.5719 30.3589 28.2328C30.3568 27.8927 30.6364 27.61 30.9765 27.6079C31.3155 27.6058 31.5993 27.8865 31.6024 28.2255C31.6045 28.5635 31.3228 28.8493 30.9838 28.8514Z" fill="#787878"/>
<path d="M34.1007 28.2468C34.0913 28.5848 33.7992 28.8623 33.4622 28.8529C33.1232 28.8435 32.8478 28.5524 32.8572 28.2144C32.8666 27.8743 33.1555 27.6 33.4946 27.6094C33.8336 27.6188 34.109 27.9088 34.0996 28.2468H34.1007Z" fill="#787878"/>
<path d="M35.9745 28.8514C35.6355 28.8493 35.3549 28.5645 35.3569 28.2255C35.359 27.8854 35.6428 27.6058 35.9818 27.6079C36.3209 27.61 36.6015 27.8948 36.5994 28.2338C36.5973 28.5718 36.3115 28.8546 35.9735 28.8514H35.9745Z" fill="#787878"/>
</svg>
