<svg width="88" height="54" viewBox="0 0 88 54" fill="none" xmlns="http://www.w3.org/2000/svg">
<g clip-path="url(#clip0_712_11165)">
<path d="M83.4067 46.4602H3.90383C1.83262 46.4602 0.153809 48.1377 0.153809 50.2074C0.153809 52.277 1.83262 53.9546 3.90383 53.9546H83.4067C85.478 53.9546 87.1568 52.277 87.1568 50.2074C87.1568 48.1377 85.478 46.4602 83.4067 46.4602Z" fill="#D1E0FF"/>
<path d="M32.0807 7.17822H34.9013V2.89742H32.0807V7.17822Z" fill="#C4BCB5"/>
<path d="M30.7648 0.95166H36.2113C37.2882 0.95166 38.1586 1.82138 38.1586 2.89748C38.1586 3.97358 37.2882 4.8433 36.2113 4.8433H30.7648C29.6878 4.8433 28.8175 3.97358 28.8175 2.89748C28.8175 1.82138 29.6878 0.95166 30.7648 0.95166Z" fill="#D92A1A"/>
<path d="M31.1424 4.84326L35.7923 4.84326V0.951622L31.1424 0.951622V4.84326Z" fill="white"/>
<path opacity="0.14" d="M34.9013 6.12868L32.0777 4.84326H34.9013V6.12868Z" fill="black"/>
<path d="M2.94199 29.4697C2.99214 26.9638 4.74766 24.8116 7.19359 24.2603L17.1691 22.0108C18.6827 21.6688 19.9956 20.7371 20.8188 19.4252L25.7077 11.6154H25.2356C24.976 11.6154 24.7665 11.4061 24.7665 11.1466V6.72724C24.7665 6.4678 24.976 6.25848 25.2356 6.25848H39.4184V5.48605C39.4184 5.25314 39.6073 5.06445 39.8403 5.06445H79.1315C79.9518 5.06445 80.6186 5.7278 80.6186 6.55035V10.33C80.6186 11.123 80.7454 11.9131 80.9992 12.6679L82.9642 18.5555C83.5926 20.4394 83.9142 22.4147 83.9142 24.4018V40.1865C83.9142 42.3269 82.1793 44.0604 80.0373 44.0604H72.6848C72.6848 39.9949 69.3862 36.7017 65.3205 36.7017C61.2547 36.7017 57.9561 39.9978 57.9561 44.0604H25.5484C25.5484 39.9949 22.2498 36.7017 18.184 36.7017C14.1183 36.7017 10.8197 39.9978 10.8197 44.0604H5.86293C4.10446 44.0604 2.6912 42.6188 2.7266 40.8616L2.95084 29.4786L2.94199 29.4697Z" fill="white"/>
<path d="M23.7427 7.30803L24.7665 6.89233V10.9756L23.7427 10.5599C23.483 10.4538 23.3149 10.2032 23.3149 9.9231V7.94779C23.3149 7.66771 23.486 7.41417 23.7427 7.31098V7.30803Z" fill="#D92A1A"/>
<path opacity="0.14" d="M39.4332 6.25562V11.6125H37.1466L39.4332 6.25562Z" fill="black"/>
<path d="M2.90658 31.3538H4.26969C4.83913 31.3538 5.2994 31.8137 5.2994 32.3827V36.3068C5.2994 36.8758 4.83913 37.3357 4.26969 37.3357H2.78856L2.90658 31.3538Z" fill="#FFC547"/>
<path d="M83.9113 30.0121H2.93314L2.94494 29.4726C2.96854 28.2226 3.41996 27.058 4.16937 26.1382H83.9142V30.0121H83.9113Z" fill="#D92A1A"/>
<path d="M65.3175 50.8503C69.0523 50.8503 72.0799 47.8249 72.0799 44.093C72.0799 40.361 69.0523 37.3357 65.3175 37.3357C61.5827 37.3357 58.5551 40.361 58.5551 44.093C58.5551 47.8249 61.5827 50.8503 65.3175 50.8503Z" fill="#2B2928"/>
<path d="M65.3175 49.3055C68.1984 49.3055 70.5339 46.9718 70.5339 44.0931C70.5339 41.2143 68.1984 38.8806 65.3175 38.8806C62.4366 38.8806 60.1011 41.2143 60.1011 44.0931C60.1011 46.9718 62.4366 49.3055 65.3175 49.3055Z" fill="#171515"/>
<path d="M65.3175 47.7607C67.3446 47.7607 68.9879 46.1187 68.9879 44.0931C68.9879 42.0676 67.3446 40.4255 65.3175 40.4255C63.2904 40.4255 61.6471 42.0676 61.6471 44.0931C61.6471 46.1187 63.2904 47.7607 65.3175 47.7607Z" fill="#B0A8A2"/>
<path d="M65.3175 46.2156C66.4907 46.2156 67.4418 45.2653 67.4418 44.0929C67.4418 42.9206 66.4907 41.9702 65.3175 41.9702C64.1443 41.9702 63.1932 42.9206 63.1932 44.0929C63.1932 45.2653 64.1443 46.2156 65.3175 46.2156Z" fill="#C4C0BC"/>
<path d="M18.1781 50.8503C21.9129 50.8503 24.9406 47.8249 24.9406 44.093C24.9406 40.361 21.9129 37.3357 18.1781 37.3357C14.4433 37.3357 11.4157 40.361 11.4157 44.093C11.4157 47.8249 14.4433 50.8503 18.1781 50.8503Z" fill="#2B2928"/>
<path d="M18.1781 49.3055C21.0591 49.3055 23.3945 46.9718 23.3945 44.0931C23.3945 41.2143 21.0591 38.8806 18.1781 38.8806C15.2972 38.8806 12.9617 41.2143 12.9617 44.0931C12.9617 46.9718 15.2972 49.3055 18.1781 49.3055Z" fill="#171515"/>
<path d="M18.1781 47.7607C20.2051 47.7607 21.8485 46.1185 21.8485 44.0931C21.8485 42.0677 20.2051 40.4255 18.1781 40.4255C16.1512 40.4255 14.5078 42.0677 14.5078 44.0931C14.5078 46.1185 16.1512 47.7607 18.1781 47.7607Z" fill="#B0A8A2"/>
<path d="M18.1781 46.2156C19.3514 46.2156 20.3025 45.2653 20.3025 44.0929C20.3025 42.9206 19.3514 41.9702 18.1781 41.9702C17.0049 41.9702 16.0538 42.9206 16.0538 44.0929C16.0538 45.2653 17.0049 46.2156 18.1781 46.2156Z" fill="#C4C0BC"/>
<path d="M82.9199 32.4475H83.9142V37.6776H82.9199C82.3711 37.6776 81.9256 37.2325 81.9256 36.6841V33.4411C81.9256 32.8927 82.3711 32.4475 82.9199 32.4475Z" fill="#FFC547"/>
<path d="M23.7073 23.1488H38.076C38.7369 23.1488 39.2739 22.6122 39.2739 21.9518V14.6904C39.2739 14.03 38.7369 13.4934 38.076 13.4934H28.3985C27.7937 13.4934 27.236 13.8089 26.9233 14.3248L22.6805 21.3327C22.1966 22.1317 22.772 23.1517 23.7073 23.1517V23.1488Z" fill="#D1E0FF"/>
<path d="M54.6487 13.4934H43.1331C42.1749 13.4934 41.3982 14.2695 41.3982 15.227V21.4182C41.3982 22.3756 42.1749 23.1517 43.1331 23.1517H54.6487C55.6068 23.1517 56.3835 22.3756 56.3835 21.4182V15.227C56.3835 14.2695 55.6068 13.4934 54.6487 13.4934Z" fill="#D1E0FF"/>
<path d="M80.2143 34.3049H78.5355C78.0532 34.3049 77.6622 34.695 77.6622 35.1761C77.6622 35.6573 78.0532 36.0473 78.5355 36.0473H80.2143C80.6967 36.0473 81.0877 35.6573 81.0877 35.1761C81.0877 34.695 80.6967 34.3049 80.2143 34.3049Z" fill="#D92A1A"/>
<path d="M57.9532 44.0929H25.5425C25.5425 44.0929 25.5425 44.0663 25.5425 44.0516C25.5425 42.604 25.1205 41.2538 24.3977 40.1128H59.095C58.3721 41.2508 57.9502 42.6011 57.9502 44.0516C57.9502 44.0663 57.9502 44.0781 57.9502 44.0929H57.9532Z" fill="#4A4A4A"/>
<path d="M2.81807 40.1157H11.9586C11.2357 41.2537 10.8138 42.604 10.8138 44.0545C10.8138 44.0693 10.8138 44.0811 10.8138 44.0958H2.81807C2.11291 44.0958 1.54347 43.5239 1.54347 42.8222V41.3923C1.54347 40.6877 2.11586 40.1187 2.81807 40.1187V40.1157Z" fill="#4A4A4A"/>
<path d="M72.6818 44.0516C72.6818 42.604 72.2599 41.2538 71.5371 40.1128H83.7342C84.4394 40.1128 85.0088 40.6847 85.0088 41.3864V42.8163C85.0088 43.5209 84.4364 44.0899 83.7342 44.0899H72.6818C72.6818 44.0899 72.6818 44.0634 72.6818 44.0487V44.0516Z" fill="#4A4A4A"/>
<path opacity="0.14" d="M50.0194 11.0081H55.0971C55.5664 11.0081 55.9469 10.6279 55.9469 10.159V7.70901C55.9469 7.24007 55.5664 6.85992 55.0971 6.85992L50.0194 6.85992C49.5501 6.85992 49.1697 7.24007 49.1697 7.70901V10.159C49.1697 10.6279 49.5501 11.0081 50.0194 11.0081Z" fill="black"/>
<path opacity="0.14" d="M67.849 11.0081H72.9267C73.396 11.0081 73.7765 10.6279 73.7765 10.159V7.70901C73.7765 7.24007 73.396 6.85992 72.9267 6.85992L67.849 6.85992C67.3797 6.85992 66.9993 7.24007 66.9993 7.70901V10.159C66.9993 10.6279 67.3797 11.0081 67.849 11.0081Z" fill="black"/>
<path opacity="0.14" d="M58.8059 11.0081H63.8836C64.3529 11.0081 64.7333 10.6279 64.7333 10.159V7.70901C64.7333 7.24007 64.3529 6.85992 63.8836 6.85992L58.8059 6.85992C58.3366 6.85992 57.9561 7.24007 57.9561 7.70901V10.159C57.9561 10.6279 58.3366 11.0081 58.8059 11.0081Z" fill="black"/>
<path d="M66.8075 16.7305L68.1204 14.932L70.0618 16.3472V13.9739H72.2865V16.3472L74.2308 14.932L75.5408 16.7305L73.0654 18.5348L75.5408 20.3391L74.2308 22.1345L72.2865 20.7223V23.1487H70.0618V20.7223L68.1204 22.1345L66.8075 20.3391L69.2859 18.5348L66.8075 16.7305Z" fill="#D92A1A"/>
</g>
<defs>
<clipPath id="clip0_712_11165">
<rect width="87" height="53" fill="white" transform="translate(0.153809 0.95166)"/>
</clipPath>
</defs>
</svg>
