<svg width="41" height="41" viewBox="0 0 41 41" fill="none" xmlns="http://www.w3.org/2000/svg">
<g clip-path="url(#clip0_712_11154)">
<path d="M0.14209 38.4191C0.269415 37.6521 0.391522 36.8829 0.526153 36.1168C0.836118 34.3604 1.80463 33.1153 3.48073 32.4902C4.71954 32.0278 5.98445 31.6333 7.24831 31.2388C7.54053 31.148 7.7023 31.028 7.78892 30.7295C8.13332 29.5481 8.14272 29.5512 7.21491 28.733C7.11681 28.6474 7.02705 28.5504 6.92164 28.4763C5.82581 27.7019 5.33112 26.652 5.47097 25.314C5.49811 25.051 5.40105 24.9331 5.15266 24.836C4.11631 24.43 3.48386 23.4803 3.48073 22.3824C3.4776 21.2667 4.11736 20.3108 5.16936 19.9006C5.40105 19.8108 5.47514 19.7013 5.4741 19.4529C5.47201 18.2819 5.41879 17.1047 5.52315 15.942C5.72145 13.7232 6.95713 12.1807 8.88997 11.1517C9.07052 11.0557 9.25003 10.9419 9.39823 10.8021C10.9314 9.35764 13.3088 9.34512 14.8565 10.7718C15.0256 10.9273 15.2239 11.0567 15.4264 11.1673C17.594 12.3519 18.7838 14.1376 18.8078 16.6423C18.8172 17.592 18.8161 18.5428 18.8047 19.4925C18.8026 19.7065 18.8662 19.8035 19.0708 19.8829C20.153 20.3055 20.8126 21.2647 20.8116 22.3741C20.8095 23.4803 20.152 24.4374 19.0656 24.8632C18.8495 24.9477 18.7932 25.0541 18.8067 25.2608C18.8214 25.481 18.8099 25.7033 18.8099 25.9246C18.8078 26.7803 18.4863 27.4921 17.8403 28.0546C17.3696 28.4648 16.8896 28.8666 16.4345 29.2935C16.3354 29.3863 16.279 29.5763 16.2832 29.7193C16.3124 30.6888 16.6986 31.2399 17.7683 31.4517C18.9007 31.6751 19.9829 32.1802 21.0652 32.6175C22.4971 33.1978 23.3758 34.2832 23.6681 35.7954C23.8674 36.8265 24.0219 37.8702 24.12 38.9159C24.2014 39.7926 23.6065 40.3687 22.7204 40.3687C15.6654 40.3708 8.61132 40.3687 1.55624 40.3718C0.830899 40.3718 0.410308 39.9763 0.14209 39.3543C0.14209 39.0422 0.14209 38.7291 0.14209 38.4171L0.14209 38.4191ZM6.80163 19.7232C6.80163 19.8797 6.80163 19.9956 6.80163 20.1104C6.79536 20.8211 6.6743 20.9369 5.96149 21.0695C5.71727 21.1144 5.45949 21.2281 5.2685 21.3847C4.83226 21.7395 4.71537 22.2311 4.874 22.7602C5.04412 23.328 5.46158 23.6243 6.04498 23.7047C6.6576 23.7892 6.79745 23.9521 6.80163 24.5647C6.80476 24.9811 6.81102 25.3975 6.80058 25.8139C6.78701 26.3441 6.97487 26.7657 7.38294 27.1133C8.22516 27.8303 9.05591 28.5608 9.88248 29.2935C10.1904 29.5659 10.5348 29.7067 10.946 29.7036C11.7391 29.6994 12.5334 29.6994 13.3265 29.7036C13.7367 29.7057 14.0832 29.5732 14.3921 29.2997C15.2395 28.5493 16.0953 27.8083 16.9511 27.0674C17.3081 26.7584 17.4844 26.3744 17.4803 25.9016C17.4761 25.3944 17.473 24.8861 17.4834 24.3789C17.4917 24.0032 17.6911 23.7767 18.0699 23.7183C18.1983 23.6984 18.3287 23.6859 18.455 23.6567C19.0363 23.52 19.4413 23.0201 19.4611 22.4221C19.4809 21.822 19.1136 21.2824 18.5563 21.105C18.4582 21.0737 18.3528 21.0643 18.2494 21.0497C17.6368 20.9651 17.4823 20.7867 17.4792 20.1532C17.4792 20.0154 17.4792 19.8776 17.4792 19.7211H6.80163V19.7232ZM8.32118 39.0276C8.24917 38.8606 8.20116 38.7427 8.14689 38.6268C7.59689 37.4632 7.05314 36.2974 6.49062 35.14C6.23701 34.6192 6.22449 34.1224 6.49897 33.611C6.64716 33.3345 6.76823 33.0433 6.90182 32.7594C6.87572 32.7312 6.85068 32.7031 6.82459 32.6738C6.00845 32.9671 5.19962 33.2823 4.37514 33.5495C2.79192 34.064 1.94552 35.1598 1.73783 36.7869C1.6439 37.5268 1.54684 38.2657 1.44978 39.0119H4.8166C4.8166 38.8022 4.81243 38.6216 4.8166 38.4421C4.82913 37.9923 5.06916 37.722 5.45845 37.7136C5.85921 37.7053 6.12743 37.9881 6.14517 38.4484C6.15247 38.6373 6.14621 38.8272 6.14621 39.0286H8.32014L8.32118 39.0276ZM18.1409 39.0255C18.1409 38.7782 18.1263 38.5694 18.144 38.3638C18.1805 37.9547 18.4561 37.7022 18.8287 37.7136C19.1866 37.7251 19.4361 37.9735 19.4632 38.3701C19.4778 38.5851 19.4663 38.8032 19.4663 39.0119H22.8039C22.7225 37.8117 22.5921 36.6554 22.2049 35.5376C21.9815 34.8926 21.5943 34.3854 20.9838 34.0838C20.368 33.7801 19.7408 33.4942 19.1021 33.2437C18.5573 33.0297 17.9875 32.8763 17.3362 32.6665C17.5147 33.0423 17.6305 33.3178 17.7735 33.5776C18.0668 34.113 18.0501 34.6265 17.7798 35.1744C17.211 36.3266 16.6756 37.4955 16.1266 38.6581C16.0734 38.7698 16.0285 38.8857 15.9691 39.0255H18.1398H18.1409ZM12.1357 11.0463C10.6642 11.0504 9.47859 12.235 9.47755 13.7034C9.47546 15.1656 10.6684 16.3689 12.1284 16.3783C13.5947 16.3877 14.8242 15.1572 14.8127 13.6919C14.8012 12.2277 13.6021 11.0431 12.1357 11.0463ZM17.4563 17.0337C16.5274 17.0337 15.6194 17.0243 14.7125 17.041C14.5038 17.0452 14.2763 17.1047 14.0905 17.2017C12.9769 17.783 11.8122 17.9323 10.6746 17.3948C10.0035 17.0775 9.34813 17.0149 8.6468 17.0306C8.13959 17.041 7.63133 17.0306 7.12411 17.0347C7.02497 17.0347 6.92686 17.0567 6.82772 17.0692V18.3372H17.4552V17.0337H17.4563ZM13.3495 33.6956C13.3255 32.3023 14.5841 32.1635 15.3783 31.5853C15.2615 31.2138 15.154 30.8704 15.0339 30.4874C14.1437 31.1939 13.1178 31.0322 12.1263 31.0364C11.137 31.0405 10.1183 31.1783 9.24272 30.4937C9.12166 30.8923 9.0173 31.2367 8.90771 31.5989C9.75203 32.1499 10.9449 32.3534 10.9251 33.6945H13.3495V33.6956ZM13.624 39.0412C13.8703 39.0412 14.0571 39.0693 14.2293 39.0318C14.3556 39.0046 14.5215 38.9191 14.5726 38.8126C15.2489 37.4078 15.9106 35.9968 16.5681 34.5827C16.613 34.4867 16.6412 34.3437 16.6025 34.256C16.3969 33.7843 16.1663 33.323 15.9315 32.8293C15.5965 33.0099 15.2855 33.1456 15.0131 33.3355C14.8638 33.4388 14.7167 33.6194 14.6749 33.7916C14.5027 34.5117 14.3681 35.2402 14.2251 35.9666C14.0268 36.9716 13.8317 37.9787 13.625 39.0412H13.624ZM10.6193 39.0109C10.6245 38.9723 10.6297 38.9587 10.6266 38.9472C10.277 37.1793 9.9284 35.4103 9.57043 33.6434C9.55269 33.5547 9.47546 33.4534 9.39718 33.4075C9.0653 33.2113 8.72299 33.0339 8.35353 32.8325C8.14272 33.2719 7.92564 33.6705 7.76387 34.0901C7.69916 34.256 7.69708 34.4971 7.76909 34.6568C8.34101 35.9206 8.93798 37.1741 9.5266 38.4306C9.73394 38.8731 10.0982 39.0669 10.6193 39.0119V39.0109ZM11.2184 35.0669C11.4793 36.3496 11.7318 37.6051 11.9938 38.8575C12.0074 38.9243 12.094 38.9765 12.1462 39.0359C12.2004 38.9598 12.2871 38.8898 12.3048 38.8053C12.4686 38.0184 12.6231 37.2304 12.7776 36.4414C12.8663 35.9895 12.9487 35.5376 13.0385 35.0669H11.2194H11.2184ZM8.04253 13.43C7.47374 14.0457 7.06149 14.7784 6.90599 15.6728H8.54243C8.37649 14.9276 8.21264 14.1929 8.04253 13.43ZM15.7374 15.6822H17.3853C17.2068 14.7961 16.8342 14.0489 16.2414 13.4498C16.0734 14.1939 15.9085 14.9255 15.7374 15.6822Z" fill="#ED1C24"/>
<path d="M29.1253 0.373779C30.0907 1.09599 31.0561 1.8161 32.0204 2.5404C32.2584 2.71886 32.49 2.90776 32.8031 3.15302C32.8031 2.85871 32.7979 2.63433 32.8031 2.41099C32.824 1.62512 33.3385 1.07303 34.1192 1.0532C35.0167 1.03024 35.9164 1.03024 36.8139 1.05215C37.6185 1.07198 38.1247 1.61259 38.1299 2.44125C38.1404 3.96498 38.1393 5.48767 38.1278 7.0114C38.1258 7.27231 38.1999 7.44764 38.4128 7.60002C38.7509 7.84214 39.064 8.11975 39.398 8.3671C39.9167 8.75116 40.2454 9.22916 40.1097 9.89918C39.973 10.5734 39.5253 10.947 38.8073 11.0472V11.5148C38.8073 15.7071 38.8073 19.8994 38.8073 24.0918C38.8073 24.8401 38.6027 25.0467 37.8596 25.0467C32.7823 25.0467 27.7039 25.0467 22.6265 25.0467C22.5096 25.0467 22.3906 25.0519 22.2758 25.0321C21.9022 24.9695 21.6716 24.6814 21.6966 24.3203C21.7206 23.9759 21.9659 23.7276 22.3426 23.7213C23.2276 23.7077 24.1137 23.715 24.9987 23.7129C25.1386 23.7129 25.2784 23.7129 25.4652 23.7129V23.2141C25.4652 21.2353 25.4642 19.2555 25.4652 17.2767C25.4663 15.8522 26.2678 15.0496 27.6861 15.0465C28.4678 15.0454 29.2485 15.0423 30.0302 15.0465C31.3201 15.0548 32.1352 15.8762 32.1404 17.1891C32.1488 19.1939 32.1425 21.1988 32.1425 23.2047C32.1425 23.3581 32.1425 23.5105 32.1425 23.6868H37.4547V11.0722H20.1374C20.1374 11.3833 20.1405 11.7026 20.1374 12.022C20.1311 12.5219 19.8859 12.8089 19.4695 12.8078C19.052 12.8068 18.814 12.524 18.8078 12.0178C18.8047 11.7318 18.8057 11.4448 18.8036 11.1589C18.8036 11.1338 18.7921 11.1088 18.7807 11.0639C18.7462 11.0493 18.7013 11.0221 18.6544 11.0138C18.0491 10.9136 17.6671 10.5567 17.5199 9.97328C17.3728 9.38675 17.5606 8.89206 18.0324 8.51634C19.5613 7.30258 21.0944 6.09403 22.6265 4.88339C24.3214 3.54335 26.0142 2.20121 27.7153 0.86847C27.9596 0.679569 28.2382 0.537632 28.5002 0.373779C28.7089 0.373779 28.9166 0.373779 29.1253 0.373779ZM38.8344 9.6654C38.6956 9.53599 38.6205 9.45458 38.5349 9.38675C35.3924 6.90286 32.2458 4.42419 29.1107 1.93091C28.8696 1.73992 28.736 1.77645 28.5221 1.94656C25.7481 4.14136 22.9667 6.32676 20.1875 8.5153C19.7335 8.87327 19.2826 9.23437 18.7399 9.6654H38.8344ZM30.7628 23.691C30.7837 23.6211 30.8035 23.5856 30.8035 23.5491C30.8056 21.3908 30.8129 19.2336 30.8014 17.0753C30.7993 16.6025 30.5374 16.3844 30.0448 16.3813C29.2652 16.375 28.4845 16.3782 27.7049 16.3803C27.0088 16.3813 26.8022 16.5879 26.8011 17.2903C26.8001 19.292 26.8011 21.2938 26.8011 23.2965C26.8011 23.4218 26.8147 23.548 26.823 23.6921H30.7628V23.691ZM34.1348 2.39951C34.1348 2.5811 34.1568 2.72617 34.1317 2.86184C33.9428 3.8627 34.3248 4.55256 35.1952 5.06812C35.7442 5.39374 36.2159 5.84981 36.7753 6.29024V2.39951H34.1348Z" fill="#ED1C24"/>
<path d="M12.7984 13.7596C12.7702 14.1291 12.4519 14.3942 12.0762 14.3608C11.7266 14.3305 11.4563 14.0195 11.4761 13.6699C11.497 13.3088 11.8289 13.0134 12.1848 13.0406C12.549 13.0677 12.8266 13.3933 12.7984 13.7596Z" fill="#ED1C24"/>
</g>
<defs>
<clipPath id="clip0_712_11154">
<rect width="40" height="40" fill="white" transform="translate(0.14209 0.373779)"/>
</clipPath>
</defs>
</svg>
