<svg width="53" height="41" viewBox="0 0 53 41" fill="none" xmlns="http://www.w3.org/2000/svg">
<g clip-path="url(#clip0_712_11205)">
<path d="M47.1766 34.8776C46.3318 39.0536 42.5332 40.7693 39.4167 39.8505C36.4062 38.9622 33.9328 35.4945 35.5876 31.3997C35.3553 31.3997 35.1506 31.3997 34.9445 31.3997C29.8366 31.3997 24.7301 31.3997 19.6221 31.3997C18.892 31.3997 18.5393 31.1297 18.5189 30.5679C18.5001 30.086 18.7962 29.7275 19.2737 29.6709C19.4523 29.6506 19.6352 29.6607 19.8166 29.6607C25.3223 29.6607 30.828 29.6651 36.3336 29.6462C36.6399 29.6462 37.0057 29.5112 37.2423 29.3167C39.4951 27.4617 42.7291 27.4602 45.0095 29.3167C45.249 29.5112 45.6119 29.6404 45.9196 29.6462C47.4902 29.6796 49.0622 29.6607 50.6893 29.6607C50.6893 28.3689 50.595 27.1147 50.714 25.8824C50.8505 24.4817 50.4687 23.4148 49.3336 22.5642C47.7659 21.3884 46.9284 19.7816 46.4784 17.8728C46.0023 15.8523 45.3114 13.8825 44.709 11.8925C44.6248 11.6167 44.5261 11.3423 44.4085 11.0796C44.2474 10.7225 43.9847 10.5251 43.5608 10.5251C40.2281 10.5338 36.8954 10.5295 33.5641 10.5309C33.4959 10.5309 33.4262 10.5454 33.2999 10.5614V11.2088C33.2999 16.353 33.2999 21.4987 33.2999 26.643C33.2999 26.8419 33.3188 27.048 33.2782 27.2396C33.1824 27.6866 32.8862 27.9232 32.4276 27.9218C31.9674 27.9203 31.6742 27.6808 31.5828 27.2338C31.5436 27.0422 31.5624 26.8375 31.5624 26.6372C31.5624 19.9529 31.5624 13.2685 31.5624 6.5842C31.5624 5.54055 31.3345 5.31411 30.2865 5.31411C21.2856 5.31411 12.2846 5.31411 3.28215 5.31411C2.22979 5.31411 2.00189 5.5391 2.00189 6.5784C2.00189 14.0596 2.00189 21.5408 2.00189 29.0235V29.6607C3.74809 29.6607 5.44494 29.6651 7.14179 29.652C7.28113 29.652 7.43935 29.5403 7.55692 29.443C11.2395 26.3861 16.481 28.1729 17.529 32.844C17.5479 32.9281 17.5667 33.0138 17.5943 33.1415H18.2548C22.9098 33.1415 27.5635 33.1415 32.2185 33.1415C32.9385 33.1415 33.2985 33.4246 33.3014 33.9892C33.3043 34.474 33.059 34.7774 32.5814 34.8616C32.3884 34.8964 32.1837 34.879 31.9848 34.879C27.4023 34.879 22.8198 34.879 18.2388 34.879H17.5987C17.2517 36.6934 16.3634 38.1508 14.7986 39.1494C13.6969 39.8534 12.4849 40.1568 11.1814 40.0857C8.42059 39.9347 6.40295 38.0956 5.50735 34.8805C4.20387 34.8805 2.88588 34.8805 1.56788 34.8805C0.498102 34.8776 0.264404 34.6439 0.264404 33.5712C0.264404 24.5499 0.264404 15.5286 0.264404 6.50727C0.264404 4.62173 1.30661 3.57227 3.17909 3.57227C12.2526 3.57227 21.3262 3.57227 30.3998 3.57227C32.2418 3.57227 33.297 4.62753 33.3014 6.46808C33.3014 7.22433 33.3014 7.98058 33.3014 8.79054H36.7793C36.7793 8.50168 36.7764 8.2375 36.7793 7.97478C36.7981 6.48695 37.9303 5.32282 39.3674 5.31266C40.8291 5.3025 41.9743 6.46808 41.9946 7.98929C41.9975 8.2375 41.9946 8.48717 41.9946 8.79054C42.5273 8.79054 43.0122 8.80651 43.4955 8.78764C44.7177 8.73683 45.5698 9.316 46.0009 10.409C46.432 11.4991 46.747 12.6357 47.0895 13.7592C47.644 15.575 48.1724 17.3982 48.7341 19.2126C48.8154 19.4753 48.9765 19.738 49.1667 19.9354C50.0869 20.8847 51.0217 21.8195 51.9681 22.7427C52.2875 23.0548 52.4355 23.393 52.4341 23.8459C52.421 27.1423 52.4283 30.4402 52.4254 33.7367C52.4254 34.5858 52.1336 34.8761 51.283 34.8776C49.9099 34.8805 48.5367 34.8776 47.1752 34.8776H47.1766ZM7.22017 34.0008C7.22017 36.406 9.15942 38.3525 11.5617 38.3554C13.9655 38.3583 15.9091 36.4176 15.912 34.011C15.9149 31.6029 13.9785 29.6622 11.5704 29.6607C9.16232 29.6607 7.22017 31.5956 7.22017 34.0008ZM41.1281 29.6607C38.7214 29.6607 36.7807 31.6014 36.7807 34.0052C36.7807 36.4075 38.7258 38.354 41.1266 38.3554C43.5289 38.3554 45.4711 36.4133 45.4725 34.0066C45.4725 31.5985 43.5362 29.6607 41.1281 29.6607ZM5.50735 33.1154C5.68444 32.5188 5.84411 31.9875 6.00668 31.4418H2.03238V33.1154H5.50735ZM47.1781 33.0965H50.6603V31.4244H46.6802C46.8471 31.9846 47.0053 32.5174 47.1781 33.0965ZM40.2586 8.76586C40.2092 8.15332 40.4691 7.4769 39.7796 7.17498C39.5212 7.06176 39.0698 7.11111 38.8404 7.27368C38.3179 7.64673 38.5516 8.23751 38.54 8.76441H40.26L40.2586 8.76586Z" fill="#ED1C24"/>
<path d="M19.3913 14.8769C20.2346 14.8769 21.0257 14.8725 21.8183 14.8769C22.5615 14.8827 22.8648 15.1875 22.8677 15.9394C22.8735 16.9715 22.8735 18.0035 22.8677 19.037C22.8634 19.7787 22.5527 20.085 21.8052 20.0923C21.0272 20.0981 20.2506 20.0923 19.3913 20.0923C19.3913 20.8848 19.3928 21.6541 19.3913 22.4249C19.3884 23.2798 19.1024 23.5672 18.2547 23.5701C17.2401 23.573 16.227 23.5759 15.2123 23.5701C14.4982 23.5658 14.1832 23.2537 14.1774 22.5454C14.1701 21.7514 14.1759 20.9574 14.1759 20.0937C13.3877 20.0937 12.6344 20.0952 11.881 20.0937C10.9825 20.0908 10.701 19.8179 10.6995 18.9397C10.6966 17.9251 10.6937 16.9105 10.701 15.8973C10.7068 15.189 11.0203 14.8827 11.7373 14.8783C12.5299 14.8725 13.3224 14.8783 14.1759 14.8783C14.1759 14.0611 14.173 13.2889 14.1759 12.5152C14.1788 11.6922 14.4662 11.4034 15.2835 11.4005C16.2981 11.3976 17.3112 11.3961 18.3259 11.4005C19.0749 11.4034 19.3855 11.7082 19.3913 12.4485C19.3971 13.241 19.3928 14.0321 19.3928 14.8769H19.3913ZM21.107 16.6158C20.3014 16.6158 19.5437 16.6187 18.7875 16.6158C17.9412 16.6129 17.6553 16.3226 17.6524 15.4706C17.6495 14.7012 17.6524 13.9319 17.6524 13.1655H15.9134C15.9134 13.9639 15.9163 14.7375 15.9134 15.5098C15.9091 16.3168 15.61 16.6115 14.7928 16.6158C14.0221 16.6202 13.2498 16.6158 12.4733 16.6158V18.3548C13.2673 18.3548 14.025 18.3533 14.7827 18.3548C15.6289 18.3577 15.9105 18.6451 15.9134 19.5015C15.9163 20.2708 15.9134 21.0401 15.9134 21.8051H17.6524C17.6524 20.9879 17.648 20.1968 17.6524 19.4057C17.6582 18.6639 17.9659 18.3606 18.7149 18.3548C19.5045 18.349 20.2942 18.3548 21.107 18.3548V16.6158Z" fill="#ED1C24"/>
<path d="M40.1468 20.9603C38.8071 20.9603 37.4673 20.9632 36.1275 20.9603C35.3466 20.9574 35.0418 20.6555 35.0403 19.876C35.0374 17.7031 35.0374 15.5301 35.0403 13.3572C35.0403 12.5704 35.3379 12.2685 36.1159 12.2671C38.1437 12.2627 40.1715 12.2714 42.1993 12.2613C42.7494 12.2584 43.0789 12.4935 43.2357 13.0204C43.8962 15.2369 44.5726 17.4505 45.2287 19.6684C45.4696 20.4828 45.0879 20.956 44.2198 20.9589C42.8627 20.9632 41.504 20.9589 40.1468 20.9589V20.9603ZM36.7996 19.188H43.2633C42.8902 17.9339 42.5346 16.7247 42.1674 15.5185C42.0164 15.0221 41.9743 14.3457 41.6318 14.096C41.2848 13.8434 40.6273 14.0089 40.1047 14.006C39.0088 14.0002 37.9129 14.0046 36.7981 14.0046V19.188H36.7996Z" fill="#ED1C24"/>
<path d="M40.2513 1.87405C40.2513 2.18178 40.2717 2.49096 40.247 2.79723C40.2063 3.29075 39.8652 3.58542 39.3804 3.58251C38.8971 3.57961 38.5487 3.27914 38.5284 2.78562C38.5037 2.15275 38.5022 1.51698 38.5313 0.885557C38.553 0.400743 38.9232 0.0930176 39.3978 0.0930176C39.8754 0.0930176 40.2092 0.394937 40.247 0.897169C40.2717 1.22086 40.2513 1.54891 40.2513 1.87405Z" fill="#ED1C24"/>
<path d="M36.7894 22.7079C37.0972 22.7079 37.4063 22.6876 37.7126 22.7137C38.2018 22.7544 38.4572 23.0607 38.4993 23.531C38.54 23.9853 38.2105 24.399 37.7387 24.4251C37.0899 24.4614 36.4353 24.4599 35.7864 24.4251C35.3031 24.399 35.0127 24.0158 35.0389 23.5295C35.0665 23.0432 35.3321 22.7558 35.8154 22.7137C36.1391 22.6847 36.4657 22.7079 36.7923 22.7094L36.7894 22.7079Z" fill="#ED1C24"/>
<path d="M35.2493 1.27319C35.3582 1.35883 35.6413 1.49818 35.7966 1.72607C36.1232 2.19927 36.3961 2.71167 36.6646 3.22261C36.9157 3.70016 36.788 4.13708 36.3598 4.394C35.9272 4.65237 35.4743 4.56238 35.1884 4.1095C34.8603 3.5913 34.5512 3.06004 34.2768 2.51281C33.9662 1.8959 34.3726 1.27755 35.2493 1.27464V1.27319Z" fill="#ED1C24"/>
<path d="M43.5492 1.27026C44.365 1.27607 44.7961 1.88572 44.5131 2.46633C44.23 3.0484 43.9005 3.61014 43.5478 4.15302C43.2749 4.57396 42.8264 4.64073 42.4098 4.38962C41.999 4.14286 41.8553 3.71465 42.0875 3.26903C42.3793 2.71019 42.6885 2.15715 43.0397 1.6375C43.1733 1.44009 43.4491 1.33849 43.5478 1.27026H43.5492Z" fill="#ED1C24"/>
<path d="M14.1716 34.0052C14.1716 35.4408 12.9712 36.6296 11.5385 36.6151C10.1305 36.602 8.96056 35.4176 8.95911 34.0067C8.95766 32.5711 10.1523 31.3896 11.5922 31.3997C13.006 31.4113 14.173 32.59 14.1716 34.0052ZM12.4312 34.0081C12.4341 33.5291 12.061 33.1503 11.582 33.1416C11.1016 33.1343 10.7155 33.4986 10.701 33.9762C10.685 34.4726 11.0827 34.8791 11.5777 34.8733C12.0509 34.8674 12.4283 34.4842 12.4312 34.0081Z" fill="#ED1C24"/>
<path d="M41.1411 31.3997C42.5564 31.4055 43.7278 32.5783 43.7321 33.9936C43.7365 35.4306 42.5448 36.6238 41.1106 36.6151C39.6809 36.6078 38.5008 35.4001 38.5182 33.9631C38.5356 32.5551 39.723 31.3939 41.1411 31.3997ZM41.1252 34.8732C41.5998 34.8747 41.9816 34.4987 41.9917 34.0212C42.0019 33.5422 41.6347 33.156 41.1556 33.1415C40.6534 33.1256 40.2528 33.5189 40.26 34.0168C40.2673 34.4929 40.6491 34.8703 41.1237 34.8732H41.1252Z" fill="#ED1C24"/>
</g>
<defs>
<clipPath id="clip0_712_11205">
<rect width="52.1711" height="40" fill="white" transform="translate(0.264404 0.0930176)"/>
</clipPath>
</defs>
</svg>
