<svg width="25" height="41" viewBox="0 0 25 41" fill="none" xmlns="http://www.w3.org/2000/svg">
<g clip-path="url(#clip0_765_21322)">
<path d="M24.1126 0.714111V7.87059C23.9373 7.87059 23.7929 7.87059 23.6382 7.87059C22.308 7.87059 20.9778 7.84997 19.6578 7.91184C18.606 7.95309 17.6573 8.3037 17.1005 9.29364C16.9355 9.58238 16.7808 9.91236 16.7602 10.232C16.6777 11.2942 16.6571 12.3563 16.6055 13.4494H23.2258V20.9358H16.6674V40.7038H6.68543V20.9668H0.199219V13.4803H6.65449C6.68543 12.6863 6.71636 11.9335 6.75761 11.1807C6.87104 9.33489 7.17009 7.5303 7.98473 5.85977C9.33559 3.09617 11.6145 1.57 14.5637 0.951286C15.0587 0.848166 15.564 0.786295 16.059 0.714111C18.7401 0.714111 21.4315 0.714111 24.1126 0.714111ZM8.34565 19.3168V39.0745H14.9968V19.3065H21.5552V15.0993H15.0072C14.9968 14.9961 14.9762 14.9343 14.9865 14.8724C14.9968 13.439 14.9865 12.0057 15.0381 10.5723C15.1206 8.48931 16.5024 6.80847 18.5338 6.43724C19.6372 6.231 20.7818 6.28256 21.9162 6.22069C22.0915 6.22069 22.2668 6.22069 22.4421 6.22069V2.38464C22.3699 2.38464 22.3183 2.36402 22.2668 2.36402C20.3384 2.36402 18.4101 2.32277 16.4818 2.36402C12.3467 2.44652 9.45934 4.93169 8.68594 8.9946C8.33534 10.8404 8.3044 12.6966 8.32502 14.563C8.32502 14.728 8.32502 14.893 8.32502 15.1199H1.84913V19.3168H8.34565Z" fill="#253E96"/>
</g>
<defs>
<clipPath id="clip0_765_21322">
<rect width="23.9134" height="40" fill="white" transform="translate(0.199219 0.714111)"/>
</clipPath>
</defs>
</svg>
