<svg width="25" height="41" viewBox="0 0 25 41" fill="none" xmlns="http://www.w3.org/2000/svg">
<g clip-path="url(#clip0_312_8825)">
<path d="M24.554 0.30957V7.46605C24.3787 7.46605 24.2343 7.46605 24.0797 7.46605C22.7494 7.46605 21.4192 7.44543 20.0992 7.5073C19.0474 7.54855 18.0987 7.89916 17.5419 8.8891C17.3769 9.17784 17.2222 9.50782 17.2016 9.82749C17.1191 10.8896 17.0985 11.9517 17.0469 13.0448H23.6672V20.5313H17.1088V40.2993H7.12683V20.5622H0.640625V13.0757H7.0959C7.12683 12.2817 7.15777 11.529 7.19902 10.7762C7.31245 8.93035 7.61149 7.12576 8.42614 5.45523C9.777 2.69163 12.0559 1.16546 15.0052 0.546745C15.5001 0.443625 16.0054 0.381754 16.5004 0.30957C19.1815 0.30957 21.8729 0.30957 24.554 0.30957ZM8.78706 18.9123V38.67H15.4383V18.902H21.9966V14.6947H15.4486C15.4383 14.5916 15.4176 14.5297 15.4279 14.4679C15.4383 13.0345 15.4279 11.6011 15.4795 10.1678C15.562 8.08477 16.9438 6.40392 18.9752 6.0327C20.0786 5.82646 21.2232 5.87802 22.3576 5.81614C22.5329 5.81614 22.7082 5.81614 22.8835 5.81614V1.9801C22.8113 1.9801 22.7597 1.95948 22.7082 1.95948C20.7798 1.95948 18.8515 1.91823 16.9232 1.95948C12.7881 2.04198 9.90074 4.52715 9.12735 8.59005C8.77674 10.4359 8.74581 12.292 8.76643 14.1585C8.76643 14.3235 8.76643 14.4885 8.76643 14.7153H2.29053V18.9123H8.78706Z" fill="white"/>
</g>
<defs>
<clipPath id="clip0_312_8825">
<rect width="23.9134" height="40" fill="white" transform="translate(0.640625 0.30957)"/>
</clipPath>
</defs>
</svg>
