<svg width="41" height="41" viewBox="0 0 41 41" fill="none" xmlns="http://www.w3.org/2000/svg">
<g clip-path="url(#clip0_765_21318)">
<path d="M40.1132 10.7872V30.6205C40.0897 30.7593 40.0594 30.8963 40.0437 31.0361C39.9273 32.1168 39.6847 33.173 39.2191 34.1509C37.2138 38.365 33.8663 40.6183 29.1954 40.675C23.1432 40.7483 17.09 40.6955 11.0378 40.6916C9.14206 40.6906 7.33433 40.2799 5.69778 39.3156C2.03243 37.1572 0.154267 33.9211 0.131768 29.6689C0.099487 23.6955 0.116117 17.723 0.131768 11.7495C0.133724 10.9985 0.173831 10.2298 0.336214 9.50118C1.32127 5.09249 4.00939 2.26615 8.36145 1.04467C8.95816 0.877433 9.58519 0.821688 10.1985 0.714111C16.8112 0.714111 23.4239 0.714111 30.0366 0.714111C30.4592 0.778657 30.8877 0.818754 31.3034 0.912639C35.721 1.91506 38.5598 4.59274 39.7825 8.95547C39.9488 9.55008 40.0046 10.175 40.1122 10.7862L40.1132 10.7872ZM2.46773 20.6823C2.46773 23.6749 2.45697 26.6675 2.47654 29.6601C2.48045 30.3193 2.52056 30.995 2.66533 31.6356C3.57605 35.6648 6.93913 38.3425 11.0779 38.3494C17.1037 38.3582 23.1295 38.3582 29.1553 38.3425C29.8136 38.3406 30.4886 38.2829 31.1264 38.1284C35.1898 37.1445 37.7665 33.8439 37.7694 29.665C37.7723 23.6925 37.7762 17.7201 37.7616 11.7486C37.7596 11.0894 37.7156 10.4146 37.5708 9.77404C36.6679 5.77511 33.3264 3.07787 29.2365 3.06515C23.1588 3.04559 17.0812 3.05929 11.0026 3.06124C9.7779 3.06124 8.5884 3.2764 7.48498 3.81428C4.20308 5.41326 2.52154 8.06063 2.47556 11.7046C2.43741 14.6971 2.46773 17.6897 2.46773 20.6823Z" fill="#253E96"/>
<path d="M31.0505 20.6932C31.0632 26.6931 26.1429 31.6221 20.1278 31.6348C14.1265 31.6475 9.19634 26.7283 9.18362 20.7148C9.1709 14.7149 14.0913 9.78593 20.1063 9.77322C26.1076 9.7605 31.0378 14.6797 31.0505 20.6932ZM28.7058 20.6864C28.6891 15.9569 24.8037 12.091 20.0907 12.1164C15.3708 12.1419 11.5313 15.9912 11.5284 20.7011C11.5264 25.4227 15.4041 29.2974 20.1249 29.2896C24.8526 29.2828 28.7224 25.4022 28.7058 20.6864Z" fill="#253E96"/>
<path d="M31.3014 12.347C29.5357 12.3372 28.0743 10.8634 28.086 9.10598C28.0977 7.34564 29.5905 5.86499 31.3288 5.88846C33.0984 5.91291 34.5667 7.39356 34.5461 9.13337C34.5256 10.9025 33.0573 12.3577 31.3014 12.348V12.347ZM32.1935 9.10501C32.1837 8.63851 31.7729 8.23755 31.3092 8.24048C30.8436 8.24341 30.4357 8.65123 30.4327 9.11479C30.4298 9.59106 30.8641 10.0165 31.3386 9.99887C31.8052 9.98225 32.2033 9.56563 32.1935 9.10403V9.10501Z" fill="#253E96"/>
</g>
<defs>
<clipPath id="clip0_765_21318">
<rect width="40" height="40" fill="white" transform="translate(0.113281 0.714111)"/>
</clipPath>
</defs>
</svg>
