<svg width="41" height="41" viewBox="0 0 41 41" fill="none" xmlns="http://www.w3.org/2000/svg">
<g clip-path="url(#clip0_312_8821)">
<path d="M40.5546 10.3827V30.2159C40.5311 30.3548 40.5008 30.4917 40.4851 30.6316C40.3687 31.7122 40.1261 32.7684 39.6605 33.7464C37.6552 37.9605 34.3077 40.2137 29.6368 40.2705C23.5846 40.3438 17.5314 40.291 11.4792 40.2871C9.58347 40.2861 7.77574 39.8754 6.13919 38.9111C2.47384 36.7527 0.595673 33.5166 0.573174 29.2644C0.540893 23.2909 0.557523 17.3184 0.573174 11.345C0.575131 10.5939 0.615237 9.82523 0.77762 9.09664C1.76268 4.68795 4.4508 1.86161 8.80286 0.640125C9.39957 0.472892 10.0266 0.417147 10.6399 0.30957C17.2526 0.30957 23.8653 0.30957 30.478 0.30957C30.9006 0.374116 31.3291 0.414213 31.7448 0.508098C36.1624 1.51052 39.0012 4.1882 40.224 8.55093C40.3902 9.14554 40.446 9.77046 40.5536 10.3817L40.5546 10.3827ZM2.90914 20.2778C2.90914 23.2704 2.89838 26.263 2.91794 29.2556C2.92186 29.9147 2.96196 30.5905 3.10674 31.2311C4.01745 35.2603 7.38054 37.938 11.5193 37.9448C17.5451 37.9536 23.5709 37.9536 29.5967 37.938C30.255 37.936 30.93 37.8783 31.5678 37.7238C35.6313 36.74 38.2079 33.4393 38.2108 29.2605C38.2137 23.288 38.2176 17.3155 38.203 11.344C38.201 10.6849 38.157 10.0101 38.0122 9.3695C37.1093 5.37057 33.7678 2.67333 29.6779 2.66061C23.6002 2.64105 17.5226 2.65475 11.444 2.6567C10.2193 2.6567 9.0298 2.87185 7.92638 3.40974C4.64449 5.00872 2.96294 7.65609 2.91697 11.3C2.87882 14.2926 2.90914 17.2852 2.90914 20.2778Z" fill="white"/>
<path d="M31.4919 20.2887C31.5047 26.2886 26.5843 31.2175 20.5692 31.2302C14.5679 31.243 9.63774 26.3238 9.62502 20.3102C9.61231 14.3104 14.5327 9.38139 20.5477 9.36868C26.549 9.35596 31.4792 14.2752 31.4919 20.2887ZM29.1472 20.2819C29.1305 15.5524 25.2451 11.6865 20.5321 11.7119C15.8122 11.7373 11.9727 15.5866 11.9698 20.2965C11.9678 25.0182 15.8455 28.8929 20.5663 28.8851C25.294 28.8782 29.1638 24.9976 29.1472 20.2819Z" fill="white"/>
<path d="M31.7428 11.9427C29.9771 11.9329 28.5157 10.4591 28.5274 8.70169C28.5392 6.94134 30.0319 5.46069 31.7702 5.48416C33.5398 5.50861 35.0081 6.98926 34.9875 8.72907C34.967 10.4982 33.4987 11.9534 31.7428 11.9437V11.9427ZM32.6349 8.70071C32.6251 8.23422 32.2143 7.83325 31.7506 7.83618C31.285 7.83912 30.8771 8.24693 30.8741 8.71049C30.8712 9.18676 31.3055 9.61218 31.78 9.59458C32.2466 9.57795 32.6447 9.16133 32.6349 8.69973V8.70071Z" fill="white"/>
</g>
<defs>
<clipPath id="clip0_312_8821">
<rect width="40" height="40" fill="white" transform="translate(0.554688 0.30957)"/>
</clipPath>
</defs>
</svg>
