<svg width="44" height="41" viewBox="0 0 44 41" fill="none" xmlns="http://www.w3.org/2000/svg">
<g clip-path="url(#clip0_312_8819)">
<path d="M43.2463 31.7775C42.7509 32.9758 41.6903 33.4381 40.5711 33.7725C39.7226 34.0262 38.8448 34.1897 37.9744 34.3627C37.7152 34.4141 37.5888 34.5032 37.5407 34.7673C37.4676 35.1636 37.3484 35.5515 37.2586 35.9446C37.0454 36.8839 36.5208 37.2372 35.5626 37.1051C34.7381 36.9919 33.9126 36.8619 33.0829 36.8074C31.6 36.7109 30.2311 37.0359 28.9939 37.9312C27.6208 38.924 26.1223 39.6892 24.4368 40.0016C22.3792 40.3822 20.3029 40.5101 18.3017 39.7951C17.3634 39.4597 16.518 38.8537 15.6423 38.3484C15.125 38.0497 14.6569 37.6618 14.125 37.3965C12.6077 36.6407 11.0078 36.5673 9.36933 36.9122C8.92208 37.0066 8.46856 37.1009 8.014 37.1261C7.31387 37.1659 6.8614 36.7917 6.6942 36.1061C6.58552 35.6595 6.46535 35.215 6.38802 34.7621C6.33473 34.4539 6.20202 34.3312 5.88539 34.2746C4.53111 34.0356 3.18101 33.7672 1.93749 33.1382C1.44844 32.8908 1.01269 32.5826 0.745179 32.0731C0.296886 31.2177 0.652176 30.421 1.59892 30.1862C2.00228 30.0866 2.40982 29.9964 2.80586 29.8685C4.80176 29.2269 6.40997 28.0067 7.6911 26.3797C8.39332 25.4875 8.95238 24.4832 9.57519 23.5282C9.59818 23.4936 9.61489 23.4548 9.63475 23.4181C10.2481 22.2241 10.0412 21.6077 8.804 21.0804C8.06416 20.7648 7.27938 20.5499 6.55731 20.2019C6.06722 19.966 5.5928 19.6326 5.21348 19.2437C4.53424 18.5476 4.62725 17.537 5.38799 16.9269C6.23128 16.2518 7.15399 16.0819 8.19687 16.4971C8.71413 16.7026 9.28782 16.8063 9.84479 16.8598C10.3391 16.907 10.3391 16.8273 10.3171 16.3325C10.2398 14.564 10.1405 12.7954 10.1248 11.0259C10.082 6.11235 13.8157 1.8792 18.3258 0.791038C21.9466 -0.0822187 25.4692 0.147365 28.6961 2.16435C31.2657 3.77039 33.0076 6.05574 33.5792 9.09065C33.7757 10.1358 33.7903 11.2271 33.7872 12.2975C33.783 13.7872 33.6837 15.2758 33.6231 16.8315C33.8802 16.8315 34.1571 16.885 34.4048 16.82C34.9272 16.6826 35.4309 16.4772 35.9461 16.3115C36.8792 16.0107 37.7131 16.2612 38.4331 16.863C39.2043 17.5056 39.2524 18.4721 38.5961 19.2343C38.0339 19.8874 37.2795 20.2417 36.501 20.5562C35.8343 20.8256 35.1477 21.0615 34.5124 21.3917C33.8645 21.7293 33.7015 22.1937 33.9794 22.8688C35.363 26.2298 37.5261 28.8317 41.0623 30.0624C41.3496 30.162 41.6495 30.2417 41.9505 30.2836C42.6109 30.3759 43.0414 30.7229 43.2452 31.3571V31.7754L43.2463 31.7775ZM41.5388 31.7461C41.5283 31.7073 41.5179 31.6685 41.5074 31.6287C41.3204 31.5762 41.1333 31.5259 40.9473 31.4725C40.7477 31.4148 40.545 31.3634 40.3506 31.2921C36.4884 29.8633 34.0881 26.9982 32.5781 23.2798C32.2584 22.4935 32.2636 21.6601 32.8373 20.9839C33.1968 20.5604 33.6586 20.1851 34.1456 19.9199C34.7506 19.5917 35.4382 19.4219 36.0715 19.141C36.5365 18.9344 36.9858 18.6808 37.4153 18.4061C37.6975 18.2258 37.6483 17.9889 37.3777 17.8096C37.036 17.5832 36.6723 17.4878 36.27 17.6324C35.944 17.7498 35.6169 17.8683 35.2888 17.9805C34.6754 18.188 34.0578 18.2992 33.4078 18.1377C32.5123 17.9165 32.1351 17.5087 32.1643 16.778C32.2354 15.0504 32.3556 13.3217 32.3409 11.5951C32.3315 10.4902 32.2699 9.34015 31.9595 8.29078C31.3148 6.10606 29.8654 4.46752 27.9238 3.31646C25.0961 1.64018 22.0406 1.39068 18.9026 2.14338C15.5639 2.9443 13.3016 5.03991 12.0518 8.22788C11.5972 9.38733 11.5554 10.6285 11.5847 11.8551C11.6233 13.5135 11.7048 15.172 11.8156 16.8273C11.8564 17.428 11.6265 17.8075 11.1144 18.0109C10.7466 18.1566 10.3453 18.2656 9.95242 18.295C9.17601 18.3526 8.43617 18.1377 7.73813 17.8054C7.38075 17.6356 7.04009 17.6534 6.69525 17.8012C6.23128 18.0004 6.17276 18.275 6.59597 18.5329C7.09965 18.8401 7.65035 19.0749 8.19373 19.3077C8.75384 19.5467 9.35783 19.6945 9.89599 19.9733C11.3851 20.7449 11.8355 21.9746 11.2356 23.545C10.6714 25.021 9.77896 26.301 8.77265 27.4972C7.39747 29.1336 5.74537 30.4032 3.71812 31.1349C3.26147 31.2995 2.79437 31.4326 2.33145 31.5804C2.32622 31.6161 2.31995 31.6517 2.31473 31.6874C2.78287 31.8855 3.23639 32.1444 3.72335 32.2702C4.71607 32.5281 5.72447 32.7252 6.73077 32.9265C7.20101 33.0208 7.50614 33.2829 7.66707 33.7211C7.75798 33.9685 7.82695 34.2243 7.89487 34.4801C8.00564 34.89 8.107 35.303 8.21672 35.7266C8.61172 35.6437 8.95029 35.5672 9.28991 35.5022C11.8919 35.0032 14.3214 35.2863 16.4448 37.0464C16.8492 37.3819 17.3122 37.6502 17.7688 37.9144C19.8274 39.1043 22.0323 38.9942 24.2539 38.5895C25.6374 38.3369 26.8057 37.6073 27.9291 36.7906C28.833 36.1323 29.7975 35.5704 30.9313 35.4163C32.0651 35.2632 33.2009 35.2234 34.3347 35.4456C34.806 35.5379 35.2857 35.5903 35.7622 35.6605C35.9565 34.9843 36.1237 34.3679 36.3118 33.7589C36.4414 33.3406 36.7267 33.1047 37.1718 33.0093C38.2032 32.7902 39.2315 32.5554 40.2493 32.2807C40.6944 32.1612 41.1093 31.9274 41.5367 31.7461H41.5388Z" fill="white"/>
</g>
<defs>
<clipPath id="clip0_312_8819">
<rect width="42.6923" height="40" fill="white" transform="translate(0.554688 0.310059)"/>
</clipPath>
</defs>
</svg>
