<svg width="43" height="41" viewBox="0 0 43 41" fill="none" xmlns="http://www.w3.org/2000/svg">
<g clip-path="url(#clip0_765_21316)">
<path d="M42.8068 32.1821C42.3115 33.3803 41.2508 33.8426 40.1317 34.177C39.2832 34.4307 38.4054 34.5943 37.5349 34.7672C37.2758 34.8186 37.1493 34.9077 37.1013 35.1719C37.0281 35.5682 36.909 35.956 36.8191 36.3492C36.6059 37.2885 36.0814 37.6417 35.1231 37.5097C34.2986 37.3964 33.4731 37.2664 32.6434 37.2119C31.1606 37.1155 29.7917 37.4405 28.5544 38.3357C27.1813 39.3285 25.6829 40.0938 23.9973 40.4062C21.9398 40.7867 19.8634 40.9146 17.8623 40.1997C16.9239 39.8642 16.0785 39.2583 15.2028 38.753C14.6856 38.4542 14.2174 38.0663 13.6855 37.8011C12.1682 37.0452 10.5684 36.9719 8.92987 37.3168C8.48263 37.4111 8.02911 37.5055 7.57455 37.5306C6.87441 37.5705 6.42194 37.1962 6.25475 36.5106C6.14607 36.064 6.0259 35.6195 5.94857 35.1666C5.89528 34.8584 5.76257 34.7358 5.44594 34.6792C4.09166 34.4402 2.74155 34.1718 1.49804 33.5428C1.00899 33.2954 0.573238 32.9872 0.305726 32.4777C-0.142567 31.6222 0.212723 30.8255 1.15947 30.5907C1.56283 30.4911 1.97036 30.4009 2.36641 30.273C4.3623 29.6315 5.97052 28.4112 7.25165 26.7842C7.95387 25.8921 8.51293 24.8878 9.13573 23.9328C9.15872 23.8982 9.17544 23.8594 9.1953 23.8227C9.80869 22.6286 9.60179 22.0122 8.36454 21.4849C7.6247 21.1694 6.83993 20.9545 6.11786 20.6064C5.62776 20.3705 5.15335 20.0372 4.77402 19.6482C4.09479 18.9522 4.18779 17.9416 4.94853 17.3314C5.79182 16.6563 6.71453 16.4865 7.75742 16.9016C8.27468 17.1071 8.84837 17.2109 9.40534 17.2643C9.89961 17.3115 9.89961 17.2318 9.87766 16.737C9.80033 14.9685 9.70106 13.2 9.68539 11.4304C9.64254 6.51689 13.3762 2.28374 17.8863 1.19558C21.5072 0.322322 25.0297 0.551906 28.2566 2.56889C30.8262 4.17493 32.5682 6.46028 33.1398 9.49519C33.3362 10.5404 33.3509 11.6317 33.3477 12.702C33.3435 14.1917 33.2443 15.6803 33.1837 17.236C33.4407 17.236 33.7176 17.2895 33.9653 17.2245C34.4878 17.0872 34.9915 16.8817 35.5066 16.7161C36.4398 16.4152 37.2737 16.6658 37.9937 17.2675C38.7649 17.9101 38.8129 18.8767 38.1567 19.6388C37.5945 20.2919 36.84 20.6463 36.0615 20.9608C35.3948 21.2302 34.7083 21.466 34.0729 21.7963C33.425 22.1338 33.262 22.5982 33.54 23.2734C34.9235 26.6343 37.0866 29.2363 40.6228 30.467C40.9102 30.5666 41.2101 30.6463 41.511 30.6882C42.1715 30.7804 42.602 31.1274 42.8058 31.7617V32.18L42.8068 32.1821ZM41.0993 32.1506C41.0889 32.1118 41.0784 32.073 41.068 32.0332C40.8809 31.9808 40.6939 31.9305 40.5079 31.877C40.3083 31.8193 40.1055 31.768 39.9112 31.6967C36.049 30.2678 33.6487 27.4027 32.1387 23.6843C31.8189 22.8981 31.8242 22.0646 32.3978 21.3885C32.7573 20.9649 33.2192 20.5896 33.7061 20.3244C34.3112 19.9963 34.9988 19.8265 35.632 19.5455C36.097 19.339 36.5464 19.0853 36.9759 18.8106C37.258 18.6303 37.2089 18.3934 36.9382 18.2141C36.5965 17.9877 36.2329 17.8923 35.8306 18.037C35.5045 18.1544 35.1775 18.2728 34.8493 18.385C34.2359 18.5926 33.6184 18.7037 32.9684 18.5423C32.0729 18.3211 31.6956 17.9133 31.7249 17.1826C31.7959 15.4549 31.9161 13.7262 31.9015 11.9996C31.8921 10.8947 31.8304 9.74469 31.5201 8.69532C30.8753 6.5106 29.4259 4.87207 27.4844 3.721C24.6567 2.04472 21.6012 1.79522 18.4631 2.54792C15.1245 3.34884 12.8621 5.44445 11.6123 8.63242C11.1578 9.79187 11.116 11.0331 11.1452 12.2596C11.1839 13.9181 11.2654 15.5765 11.3762 17.2318C11.4169 17.8325 11.187 18.212 10.675 18.4154C10.3071 18.5611 9.90588 18.6702 9.51297 18.6995C8.73655 18.7572 7.99671 18.5423 7.29867 18.2099C6.94129 18.0401 6.60063 18.0579 6.25579 18.2057C5.79183 18.4049 5.73331 18.6796 6.15652 18.9375C6.6602 19.2446 7.2109 19.4795 7.75428 19.7122C8.31439 19.9512 8.91838 20.099 9.45654 20.3779C10.9456 21.1495 11.396 22.3791 10.7962 23.9495C10.2319 25.4256 9.3395 26.7056 8.3332 27.9017C6.95801 29.5382 5.30591 30.8077 3.27867 31.5394C2.82202 31.704 2.35491 31.8372 1.89199 31.985C1.88677 32.0206 1.8805 32.0563 1.87527 32.0919C2.34342 32.29 2.79694 32.549 3.28389 32.6748C4.27662 32.9327 5.28501 33.1297 6.29132 33.331C6.76156 33.4254 7.06669 33.6875 7.22762 34.1257C7.31853 34.3731 7.3875 34.6289 7.45542 34.8846C7.56619 35.2945 7.66755 35.7076 7.77727 36.1311C8.17227 36.0483 8.51084 35.9718 8.85046 35.9068C11.4524 35.4078 13.882 35.6908 16.0054 37.451C16.4098 37.7864 16.8727 38.0548 17.3294 38.319C19.3879 39.5088 21.5928 39.3987 23.8144 38.9941C25.198 38.7414 26.3663 38.0118 27.4896 37.1952C28.3935 36.5368 29.358 35.9749 30.4918 35.8208C31.6256 35.6677 32.7615 35.6279 33.8953 35.8502C34.3666 35.9424 34.8462 35.9948 35.3227 36.0651C35.5171 35.3889 35.6843 34.7725 35.8724 34.1634C36.0019 33.7451 36.2872 33.5092 36.7324 33.4138C37.7638 33.1947 38.792 32.9599 39.8098 32.6853C40.255 32.5657 40.6698 32.332 41.0972 32.1506H41.0993Z" fill="#253E96"/>
</g>
<defs>
<clipPath id="clip0_765_21316">
<rect width="42.6923" height="40" fill="white" transform="translate(0.113281 0.7146)"/>
</clipPath>
</defs>
</svg>
