<svg width="24" height="25" viewBox="0 0 24 25" fill="none" xmlns="http://www.w3.org/2000/svg">
<path d="M10.3333 18.7021L9.53333 19.3021C9.72805 19.5618 10.0367 19.7108 10.3611 19.7018C10.6855 19.6928 10.9854 19.5269 11.1654 19.2568L10.3333 18.7021ZM6.8 12.3244C6.46863 11.8825 5.84183 11.793 5.4 12.1244C4.95817 12.4557 4.86863 13.0825 5.2 13.5244L6.8 12.3244ZM19.832 6.25685C20.1384 5.79732 20.0142 5.17645 19.5547 4.8701C19.0952 4.56375 18.4743 4.68792 18.1679 5.14745L19.832 6.25685ZM11.1333 18.1021L6.8 12.3244L5.2 13.5244L9.53333 19.3021L11.1333 18.1021ZM18.1679 5.14745L9.50128 18.1474L11.1654 19.2568L19.832 6.25685L18.1679 5.14745Z" fill="#253E96"/>
</svg>
