<svg width="41" height="41" viewBox="0 0 41 41" fill="none" xmlns="http://www.w3.org/2000/svg">
<g clip-path="url(#clip0_312_8816)">
<path d="M40.6408 21.483C40.5384 22.2402 40.4684 23.0027 40.3283 23.7545C39.2964 29.3645 36.3892 33.7646 31.6849 36.9657C28.9555 38.8249 25.9163 39.8946 22.6346 40.2099C18.48 40.6087 14.5543 39.8138 10.9035 37.7633C10.494 37.5342 10.1545 37.4911 9.70455 37.6366C7.36318 38.383 5.01372 39.097 2.66158 39.8057C2.4137 39.8811 2.11463 39.9081 1.87214 39.8407C1.4626 39.7222 1.33327 39.3207 1.47607 38.8033C2.16582 36.2974 2.85287 33.7889 3.55879 31.2884C3.63962 30.9973 3.6019 30.7764 3.45101 30.5258C2.05535 28.2085 1.16622 25.7053 0.824044 23.0324C0.128907 17.5625 1.40332 12.5804 4.75507 8.19101C7.7323 4.28667 11.6579 1.80772 16.4619 0.764942C17.3241 0.579021 18.2105 0.50627 19.0835 0.379628C19.2128 0.360766 19.3368 0.333821 19.4634 0.30957C20.2448 0.30957 21.0261 0.30957 21.8075 0.30957C21.9072 0.331126 22.0069 0.366155 22.1092 0.374239C25.2374 0.595188 28.1661 1.48977 30.8362 3.12533C36.0174 6.30216 39.2074 10.8801 40.3283 16.87C40.4684 17.6191 40.5384 18.3816 40.6408 19.1388V21.483ZM3.29205 37.9842C3.46718 37.9438 3.59112 37.9195 3.70967 37.8845C5.60917 37.2998 7.52214 36.7501 9.40548 36.1088C10.2084 35.834 10.8254 35.9445 11.5582 36.3567C15.9581 38.833 20.6408 39.4419 25.5068 38.1082C33.1668 36.0064 38.5312 29.4237 39.0593 21.5154C39.3556 17.0829 38.2402 12.9819 35.5324 9.45204C30.8254 3.31395 24.5584 0.845778 16.9523 2.25231C11.7415 3.21695 7.72422 6.14857 4.92481 10.6511C2.29784 14.8815 1.59462 19.481 2.62116 24.3392C3.05495 26.3897 3.85247 28.3082 4.98139 30.0785C5.22927 30.4692 5.29393 30.8491 5.15922 31.2964C4.87093 32.2557 4.61496 33.223 4.34553 34.1876C3.99796 35.4352 3.65309 36.6828 3.29205 37.9815V37.9842Z" fill="white"/>
<path d="M26.0353 32.4417C22.3764 32.3151 19.1513 31.019 16.2846 28.8095C12.8304 26.15 10.2978 22.7711 8.58147 18.7644C7.35555 15.9082 7.68156 13.1733 9.1823 10.538C9.6107 9.78626 10.1792 9.11264 10.6992 8.41476C10.8097 8.26656 10.9821 8.10489 11.1519 8.06447C11.9655 7.87316 12.7954 7.71957 13.6199 7.92436C13.9189 7.9998 14.2584 8.22075 14.4228 8.47404C15.4574 10.0665 16.3762 11.729 17.0309 13.5209C17.3219 14.3184 17.1333 15.0729 16.6941 15.7519C16.3708 16.2504 15.999 16.73 15.584 17.1557C15.293 17.4575 15.2445 17.7432 15.4439 18.053C15.9343 18.8156 16.3842 19.6212 16.9824 20.2895C18.7256 22.2349 20.8164 23.76 23.0904 25.0318C23.7478 25.4009 23.861 25.3983 24.3541 24.8405C25.0438 24.0618 25.7039 23.2588 26.3425 22.4397C26.9083 21.7149 27.5738 21.4831 28.4306 21.8334C28.7889 21.9816 29.123 22.1891 29.4544 22.3939C30.8178 23.2319 32.173 24.0779 33.5336 24.9186C34.0563 25.242 34.1506 25.4683 34.0321 26.088C33.76 27.4973 33.2911 28.823 32.3751 29.9547C31.1707 31.4393 29.5514 32.1184 27.7058 32.3312C27.1508 32.3959 26.5904 32.404 26.0326 32.4363L26.0353 32.4417ZM26.2751 30.8735C27.4849 30.8816 28.665 30.7442 29.7589 30.1756C31.3512 29.3484 32.0652 27.9176 32.4263 26.2551C32.4424 26.177 32.3562 26.0369 32.2781 25.9884C30.8932 25.1126 29.5002 24.2477 28.11 23.3801C27.8513 23.2184 27.6843 23.2453 27.4741 23.5121C26.814 24.3474 26.1808 25.2258 25.4075 25.9452C24.1331 27.1308 23.6778 27.0446 22.4815 26.4222C19.6309 24.9402 17.1333 23.0082 15.1152 20.4916C14.5252 19.7586 14.0698 18.9422 13.8192 18.0207C13.6495 17.3983 13.6953 16.8647 14.2072 16.3851C14.6114 16.0052 14.9509 15.5498 15.2877 15.1052C15.6298 14.6525 15.743 14.1568 15.4574 13.6125C14.7973 12.3595 14.1345 11.1066 13.5067 9.83746C13.3019 9.4225 13.0136 9.35514 12.6014 9.3767C12.0329 9.40903 11.5829 9.57879 11.2947 10.1096C10.8851 10.8614 10.3759 11.5673 10.031 12.346C9.20386 14.2133 9.12033 16.1238 9.93941 18.0261C11.6341 21.9654 14.1102 25.312 17.5697 27.8772C20.1455 29.7876 23.0419 30.8385 26.2751 30.8762V30.8735Z" fill="white"/>
</g>
<defs>
<clipPath id="clip0_312_8816">
<rect width="40" height="40" fill="white" transform="translate(0.640625 0.30957)"/>
</clipPath>
</defs>
</svg>
