<svg width="41" height="41" viewBox="0 0 41 41" fill="none" xmlns="http://www.w3.org/2000/svg">
<g clip-path="url(#clip0_765_21313)">
<path d="M40.1994 21.8876C40.097 22.6447 40.027 23.4073 39.8869 24.159C38.855 29.769 35.9478 34.1691 31.2435 37.3702C28.5141 39.2294 25.4749 40.2992 22.1932 40.6144C18.0386 41.0132 14.1129 40.2183 10.4621 38.1678C10.0526 37.9388 9.7131 37.8957 9.26314 38.0412C6.92177 38.7875 4.57232 39.5016 2.22017 40.2102C1.97229 40.2857 1.67322 40.3126 1.43073 40.2453C1.02119 40.1267 0.891866 39.7252 1.03466 39.2079C1.72441 36.702 2.41147 34.1934 3.11738 31.6929C3.19821 31.4019 3.16049 31.1809 3.00961 30.9303C1.61395 28.6131 0.724817 26.1099 0.382637 23.4369C-0.312499 17.9671 0.961918 12.9849 4.31366 8.59555C7.2909 4.69121 11.2165 2.21226 16.0205 1.16948C16.8827 0.983562 17.7691 0.910811 18.6421 0.784169C18.7714 0.765307 18.8954 0.738362 19.022 0.714111C19.8034 0.714111 20.5847 0.714111 21.3661 0.714111C21.4658 0.735667 21.5654 0.770696 21.6678 0.77878C24.7959 0.999729 27.7247 1.89431 30.3948 3.52987C35.576 6.7067 38.766 11.2847 39.8869 17.2746C40.027 18.0236 40.097 18.7862 40.1994 19.5433V21.8876ZM2.85064 38.3888C3.02577 38.3483 3.14971 38.3241 3.26826 38.2891C5.16776 37.7043 7.08074 37.1547 8.96407 36.5134C9.76698 36.2385 10.384 36.349 11.1168 36.7613C15.5167 39.2375 20.1994 39.8465 25.0654 38.5127C32.7254 36.411 38.0898 29.8283 38.6179 21.9199C38.9142 17.4874 37.7988 13.3864 35.091 9.85658C30.384 3.71849 24.117 1.25032 16.5109 2.65685C11.3001 3.62149 7.28281 6.55311 4.48341 11.0556C1.85643 15.286 1.15322 19.8855 2.17975 24.7438C2.61354 26.7943 3.41106 28.7128 4.53999 30.4831C4.78786 30.8738 4.85253 31.2537 4.71781 31.701C4.42952 32.6602 4.17356 33.6276 3.90412 34.5922C3.55656 35.8397 3.21168 37.0873 2.85064 38.3861V38.3888Z" fill="#253E96"/>
<path d="M25.592 32.8462C21.9331 32.7196 18.708 31.4235 15.8412 29.214C12.3871 26.5546 9.85439 23.1756 8.13811 19.1689C6.91219 16.3127 7.2382 13.5778 8.73894 10.9426C9.16734 10.1908 9.73584 9.51718 10.2559 8.8193C10.3663 8.6711 10.5388 8.50943 10.7085 8.46901C11.5222 8.2777 12.352 8.12412 13.1765 8.3289C13.4756 8.40434 13.8151 8.62529 13.9794 8.87858C15.014 10.471 15.9328 12.1335 16.5875 13.9254C16.8785 14.723 16.6899 15.4774 16.2507 16.1565C15.9274 16.6549 15.5556 17.1346 15.1407 17.5603C14.8497 17.8621 14.8012 18.1477 15.0006 18.4576C15.4909 19.2201 15.9409 20.0258 16.539 20.694C18.2823 22.6394 20.3731 24.1645 22.6471 25.4363C23.3045 25.8055 23.4176 25.8028 23.9107 25.245C24.6005 24.4663 25.2606 23.6634 25.8991 22.8442C26.4649 22.1194 27.1304 21.8877 27.9872 22.238C28.3456 22.3862 28.6797 22.5936 29.0111 22.7984C30.3744 23.6364 31.7296 24.4825 33.0903 25.3232C33.613 25.6465 33.7073 25.8729 33.5887 26.4926C33.3166 27.9018 32.8478 29.2275 31.9317 30.3592C30.7274 31.8439 29.1081 32.5229 27.2624 32.7358C26.7074 32.8004 26.147 32.8085 25.5893 32.8409L25.592 32.8462ZM25.8318 31.278C27.0415 31.2861 28.2216 31.1487 29.3155 30.5802C30.9079 29.7529 31.6219 28.3222 31.9829 26.6597C31.9991 26.5815 31.9129 26.4414 31.8347 26.3929C30.4498 25.5172 29.0569 24.6522 27.6666 23.7846C27.4079 23.6229 27.2409 23.6499 27.0307 23.9166C26.3706 24.7519 25.7375 25.6303 24.9642 26.3498C23.6898 27.5354 23.2344 27.4491 22.0381 26.8267C19.1875 25.3447 16.6899 23.4128 14.6719 20.8961C14.0818 20.1632 13.6265 19.3468 13.3759 18.4252C13.2061 17.8028 13.2519 17.2693 13.7639 16.7897C14.168 16.4097 14.5075 15.9544 14.8443 15.5098C15.1865 15.0571 15.2996 14.5613 15.014 14.017C14.3539 12.7641 13.6911 11.5111 13.0633 10.242C12.8586 9.82705 12.5703 9.75968 12.158 9.78124C11.5895 9.81357 11.1396 9.98333 10.8513 10.5141C10.4418 11.2659 9.93253 11.9719 9.58766 12.7506C8.7605 14.6179 8.67697 16.5283 9.49605 18.4306C11.1908 22.37 13.6669 25.7166 17.1264 28.2817C19.7022 30.1922 22.5986 31.243 25.8318 31.2807V31.278Z" fill="#253E96"/>
</g>
<defs>
<clipPath id="clip0_765_21313">
<rect width="40" height="40" fill="white" transform="translate(0.199219 0.714111)"/>
</clipPath>
</defs>
</svg>
