<svg width="190" height="59" viewBox="0 0 190 59" fill="none" xmlns="http://www.w3.org/2000/svg">
<g clip-path="url(#clip0_33552_4015)">
<path opacity="0.1" d="M32.2302 54.9827C36.3829 54.9827 39.7494 54.6019 39.7494 54.1322C39.7494 53.6625 36.3829 53.2817 32.2302 53.2817C28.0774 53.2817 24.7109 53.6625 24.7109 54.1322C24.7109 54.6019 28.0774 54.9827 32.2302 54.9827Z" fill="black"/>
<path d="M51.2708 25.3344C51.261 25.222 51.2577 25.1129 51.248 25.0038C51.2545 24.7856 51.261 24.5705 51.2675 24.3523C51.2382 24.1373 51.2903 23.9126 51.2154 23.7008C51.2056 23.6141 51.2024 23.5307 51.1926 23.444C51.2089 23.0685 51.1503 22.7027 51.0754 22.3368C51.0754 22.3368 51.0754 22.3368 51.0721 22.3368C51.0754 22.3368 51.0786 22.3368 51.0819 22.3368C51.0754 22.1603 51.0656 21.9838 51.0005 21.8169C51.0233 21.6564 50.9581 21.5088 50.9223 21.3579C50.9223 21.3579 50.9191 21.3515 50.9158 21.3515C50.8832 21.1076 50.8474 20.8669 50.753 20.6358V20.6294C50.7562 20.6294 50.7595 20.6358 50.7627 20.6358C50.7367 20.4336 50.7041 20.2378 50.6129 20.0549C50.6097 20.0549 50.6064 20.0485 50.6032 20.0453C50.5901 19.888 50.5478 19.7372 50.4697 19.5992L50.4762 19.6056C50.4762 19.6056 50.4729 19.5992 50.4697 19.596C50.4599 19.4098 50.3817 19.2429 50.3166 19.0728C50.2808 18.9862 50.2417 18.8995 50.2059 18.8129C50.1994 18.6235 50.1147 18.4566 50.03 18.2929C49.9551 18.1228 49.8802 17.9463 49.8053 17.7762C49.763 17.5355 49.6393 17.3365 49.5318 17.1247V17.1343C49.5318 17.1343 49.5285 17.1311 49.5253 17.1279H49.5318C49.5318 17.1279 49.5253 17.1215 49.522 17.1215C49.522 17.1215 49.522 17.1215 49.522 17.1247C49.522 17.1247 49.5188 17.1215 49.5155 17.1183C49.5155 17.1183 49.5155 17.1183 49.5188 17.1183C49.4797 16.9771 49.4243 16.8455 49.3299 16.7332C49.3299 16.73 49.3234 16.7268 49.3201 16.7203C49.3266 16.7235 49.3299 16.73 49.3364 16.7332C49.2973 16.5887 49.2322 16.4572 49.1378 16.3416C49.0401 16.0849 48.8968 15.8538 48.7405 15.6259C48.7405 15.6259 48.7405 15.6259 48.7339 15.6259C48.4409 15.0707 48.0989 14.5508 47.7114 14.0565C47.7114 14.0565 47.7082 14.0565 47.7049 14.0533C47.7049 14.0533 47.7082 14.0533 47.7114 14.0533C47.6886 14.0148 47.6691 13.9763 47.6463 13.941C44.253 9.47671 39.7493 6.91561 34.1156 6.28977C33.9104 6.26731 33.6987 6.27694 33.4936 6.24805C33.5164 6.1614 33.5359 6.07154 33.5359 5.97846V4.41227H34.9916C35.5647 4.41227 36.0271 3.95654 36.0271 3.39168C36.0271 2.82683 35.5614 2.37109 34.9916 2.37109H30.0091C29.436 2.37109 28.9736 2.82683 28.9736 3.39168C28.9736 3.95654 29.4392 4.41227 30.0091 4.41227H31.4615V5.97846C31.4615 6.04265 31.468 6.10684 31.4811 6.16782H31.341C31.0252 6.29298 30.6832 6.25768 30.3543 6.30582H30.3511C30.3511 6.30582 30.3511 6.30582 30.3543 6.30582C30.3543 6.30582 30.3543 6.30582 30.3511 6.2994V6.30582C30.3511 6.30582 30.3511 6.30582 30.3478 6.30582C29.5207 6.37001 28.7065 6.50801 27.9022 6.70058H27.8957C27.8957 6.70058 27.8957 6.70058 27.8989 6.70058C27.8989 6.70058 27.8989 6.70379 27.8989 6.707C27.8989 6.707 27.8957 6.707 27.8924 6.70379C27.7589 6.7423 27.6221 6.78081 27.4886 6.81933C27.1239 6.86105 26.7852 6.98622 26.4433 7.10175C26.4433 7.10175 26.4465 7.10175 26.4498 7.10175C26.4465 7.10175 26.4433 7.10175 26.44 7.10175C25.5477 7.37776 24.675 7.68266 23.8544 8.13197C23.0598 8.45933 22.3303 8.90544 21.6237 9.38364C20.8714 9.89072 20.1159 10.3946 19.4776 11.0461C18.8263 11.6013 18.2206 12.1983 17.6931 12.8691C17.6312 12.93 17.5596 12.9782 17.5042 13.0456C16.7976 13.9474 16.117 14.8653 15.5764 15.8795C14.3454 18.0137 13.6388 20.3084 13.3327 22.738C13.3033 22.9787 13.3327 23.229 13.2024 23.4505V26.2523C13.2512 26.2651 13.2643 26.3036 13.2675 26.3485C13.4955 28.6465 14.1891 30.816 15.1302 32.915C15.8955 34.616 16.778 36.2592 17.8234 37.8157C17.8299 37.8157 17.8364 37.8093 17.8429 37.8061C17.8396 37.8125 17.8331 37.8157 17.8299 37.8222C18.6082 39.1123 19.4809 40.3383 20.4155 41.5258C20.4285 41.5675 20.4351 41.6093 20.4611 41.6446C21.7051 43.2428 22.9979 44.8026 24.3591 46.3046C25.5022 47.5691 26.6582 48.8208 27.8989 49.9954C28.2734 50.3677 28.6479 50.7368 29.0257 51.1059C29.4197 51.568 29.9114 51.9307 30.3478 52.3447C30.5497 52.6047 30.8265 52.7876 31.074 53.0026C31.1294 52.993 31.1815 52.977 31.2173 52.9288C31.3182 53.115 31.5983 53.0989 31.6765 53.3139C31.6993 53.3364 31.722 53.3589 31.7416 53.3781C31.8035 53.4199 31.8784 53.4423 31.9337 53.4905C32.064 53.6028 32.1812 53.6285 32.2984 53.5771C32.2073 53.6253 32.1031 53.6413 31.9728 53.5996C31.9109 53.6124 31.8425 53.6188 31.8718 53.7119C31.963 53.866 32.1031 53.9526 32.2724 54.004C32.4255 53.8884 32.5557 53.7472 32.712 53.6253C33.08 53.3396 33.4578 53.054 33.7313 52.6721C34.3728 52.0944 35.0241 51.5263 35.6526 50.9294C36.2193 50.3902 36.7533 49.8221 37.3004 49.2637C37.9875 48.6411 38.6225 47.9671 39.225 47.2642C39.225 47.2642 39.2217 47.2642 39.2185 47.2642C39.6777 46.8502 40.0717 46.3688 40.4755 45.9066C40.7425 45.6018 41.0551 45.329 41.2538 44.9663C41.8237 44.2987 42.4164 43.644 42.9667 42.9604C45.0639 40.3415 46.9787 37.6039 48.519 34.6224C49.141 33.4124 49.7239 32.1897 50.131 30.8898C50.131 30.8898 50.131 30.8802 50.1342 30.8738C50.1342 30.8802 50.1342 30.8834 50.1342 30.8898C50.4664 30.0522 50.7269 29.1953 50.867 28.3063C50.9386 28.226 50.9321 28.1233 50.9321 28.0271C50.9321 28.0271 50.9321 28.0206 50.9321 28.0174C51.0656 27.6804 51.0037 27.3082 51.1177 26.968C51.1177 26.968 51.1177 26.968 51.121 26.968C51.2382 26.4512 51.1991 25.9249 51.248 25.4018C51.248 25.4018 51.248 25.3953 51.248 25.3921C51.248 25.3921 51.2512 25.3986 51.2512 25.4018C51.261 25.3825 51.2642 25.36 51.274 25.3408L51.2708 25.3344ZM33.6955 28.2068C33.4675 28.2902 33.2298 28.3255 33.0018 28.3223C32.9953 28.3223 32.9921 28.3223 32.9856 28.3223L23.4636 28.2164L31.0903 25.8832C31.0903 25.8736 31.0968 25.8639 31.1001 25.8511L30.6051 14.5829L34.7473 25.5943C34.7962 25.7035 34.8353 25.8158 34.8646 25.9281C35.1348 26.862 34.6333 27.857 33.6955 28.2036V28.2068Z" fill="white"/>
<path d="M13.049 20.6777L13.043 20.6837H13.049V20.6777Z" fill="white"/>
<path d="M12.7042 22.767C12.8019 22.0641 12.9256 21.3709 13.0428 20.6841C12.2255 21.8459 11.991 23.8357 11.8444 25.2125C11.6849 26.7306 11.7435 28.2743 12.0236 29.7795C12.3785 31.6827 13.0949 33.5185 14.1142 35.1745C14.6287 36.0154 15.2214 36.8081 15.889 37.5431C16.1919 37.8801 16.4915 38.2138 16.8366 38.5091C17.1851 38.8044 17.7485 39.0515 18.035 39.3917C17.8852 39.2152 17.7419 39.0354 17.5987 38.8557C14.0621 34.3882 11.8998 28.4412 12.7074 22.767H12.7042Z" fill="white"/>
<path d="M11.0922 25.2606C11.1737 24.7856 11.2681 24.3106 11.3658 23.8452C10.7861 24.6187 10.5842 25.9731 10.4572 26.9102C10.3172 27.9436 10.3237 28.9963 10.4865 30.0265C10.6949 31.3328 11.1443 32.5973 11.8054 33.7462C12.1376 34.3271 12.5284 34.8791 12.968 35.3926C13.1699 35.6301 13.3653 35.8644 13.5965 36.0698C13.8277 36.2752 14.2087 36.4582 14.3976 36.6957C14.2999 36.5737 14.2054 36.4485 14.111 36.3234C11.7891 33.207 10.4344 29.1118 11.0955 25.2574L11.0922 25.2606Z" fill="white"/>
<path d="M51.4563 17.2244C50.7855 15.4047 49.7727 13.7069 48.4929 12.2402C47.8449 11.4957 47.1285 10.8088 46.3502 10.1926C45.9919 9.91021 45.6435 9.63099 45.2527 9.3967C44.8619 9.16242 44.2595 9.00515 43.9241 8.71631C44.0967 8.86715 44.2725 9.01799 44.4419 9.17204C48.6753 13.0041 51.7983 18.521 51.9481 24.2498C51.9643 24.9591 51.9611 25.6684 51.9578 26.3648H51.9643C52.5766 25.0875 52.4756 23.0848 52.3909 21.7016C52.2933 20.1771 51.9839 18.6622 51.4531 17.2244H51.4563Z" fill="white"/>
<path d="M53.4755 19.8046C53.4429 18.7615 53.2573 17.7217 52.9284 16.7332C52.5083 15.4783 51.8537 14.3036 51.0103 13.2766C50.5837 12.7535 50.105 12.2753 49.5905 11.8388C49.3528 11.6366 49.1248 11.4409 48.861 11.274C48.5973 11.1039 48.1902 10.9883 47.9688 10.7861C48.086 10.892 48.2 10.998 48.3139 11.1071C51.1243 13.803 53.1433 17.6254 53.1335 21.5344C53.1335 22.019 53.1173 22.4972 53.101 22.9722C53.5406 22.1121 53.5146 20.7513 53.4852 19.8078L53.4755 19.8046Z" fill="white"/>
<path opacity="0.4" d="M25.6812 7.84644C24.4275 8.31822 23.1802 9.02429 22.0046 9.85873C21.9851 9.87157 21.9655 9.88441 21.946 9.89725C21.8548 9.96143 21.7636 10.0256 21.6757 10.093C21.591 10.1572 21.5064 10.2214 21.4217 10.2856C21.3826 10.3145 21.3436 10.3434 21.3045 10.3754C21.298 10.3819 21.2882 10.3883 21.2784 10.3947C21.1579 10.4878 21.0374 10.5841 20.9202 10.6803C20.8551 10.7317 20.79 10.7863 20.7281 10.8408C20.702 10.8633 20.676 10.8825 20.6499 10.905C20.6402 10.9114 20.6336 10.9178 20.6239 10.9275C20.4773 11.0526 20.334 11.1778 20.1908 11.3062C20.1419 11.3511 20.0898 11.396 20.041 11.441C20.0344 11.4474 20.0247 11.4538 20.0182 11.4602C20.0084 11.4699 19.9986 11.4763 19.9889 11.4859C19.7837 11.6753 19.5818 11.8646 19.3831 12.0604C19.3571 12.0861 19.3343 12.1117 19.3115 12.1342C19.1519 12.2915 18.9924 12.4551 18.8361 12.6188C18.8068 12.6477 18.7807 12.6798 18.7546 12.7087C18.7123 12.7536 18.67 12.8018 18.6244 12.8499C18.5169 12.9686 18.4062 13.0842 18.2987 13.2061C18.2499 13.2639 18.201 13.3217 18.1522 13.3762C18.1522 13.3762 18.1489 13.3794 18.1457 13.3827C18.0936 13.4436 18.0415 13.5078 17.9894 13.5688C17.921 13.649 17.8526 13.7293 17.7842 13.8127C17.7516 13.8512 17.7223 13.8897 17.693 13.9315C17.693 13.9315 17.6898 13.9379 17.6865 13.9379C17.6767 13.9507 17.6637 13.9668 17.654 13.9796C17.6312 14.0085 17.6084 14.0374 17.5856 14.0663C17.5204 14.1497 17.4553 14.2331 17.3902 14.3166C17.3609 14.3551 17.3283 14.3968 17.299 14.4353C17.2632 14.4867 17.2274 14.5348 17.1915 14.5862C17.1785 14.6022 17.1687 14.6183 17.1557 14.6343C16.3058 15.7929 15.5893 17.0253 15.1106 18.2642C14.8143 19.0376 14.4821 20.9087 14.6873 20.8541C14.8078 20.8221 15.5763 19.304 15.9638 18.5915C17.0841 16.5375 18.5169 14.5862 20.2331 12.8948C21.7408 11.4121 23.4798 10.1059 25.3067 9.06922C26.2185 8.55251 28.2506 7.64425 28.3059 7.42601C28.345 7.28158 26.4628 7.54475 25.6779 7.84323L25.6812 7.84644Z" fill="#C9C9C9"/>
<path fill-rule="evenodd" clip-rule="evenodd" d="M60.2782 6.74874C59.5487 1.56235 56.9598 1.34732 52.6287 1.04242C52.3193 0.596315 51.7006 0.275374 51.0493 0.365238C50.157 0.487195 49.5318 1.29917 49.6425 2.09832C49.7565 2.89746 50.5706 3.43985 51.4629 3.31468C51.8667 3.26012 52.1793 3.13495 52.391 2.86215C56.6472 3.17347 57.8098 3.26012 58.3373 7.01191C58.7509 9.96777 57.774 14.1625 55.8298 17.3558C55.426 17.4104 55.045 17.6254 54.8464 17.9752C53.8108 19.4163 52.0816 21.1975 49.8151 21.5088C47.5486 21.8201 45.4742 20.5556 44.0772 19.4451C43.7092 19.1691 43.3672 19.0568 42.9602 19.1114C40.2085 16.5599 38.1113 12.7792 37.6944 9.82335C37.1669 6.07156 38.1829 5.68964 42.1884 4.24862C42.5466 4.44439 42.8788 4.47969 43.2044 4.43476C44.0967 4.3128 44.7317 3.57464 44.621 2.7755C44.5103 1.97636 43.6799 1.36336 42.7908 1.48211C42.1428 1.57197 41.7129 2.03413 41.4524 2.55726C37.3655 4.01112 34.9362 4.90975 35.6624 10.0961C36.1346 13.4468 38.3816 17.6928 41.5013 20.5235C41.5566 20.9215 41.6902 21.313 42.0614 21.5858C44.2953 23.3927 46.7312 24.2817 49.0433 24.2913L49.8509 30.0394C50.6585 35.7842 49.2843 40.8519 44.8489 41.497C44.6373 41.5258 44.2953 41.6061 44.0837 41.6125C43.6082 42.4309 42.7876 43.2268 42.3642 43.8655C42.9765 43.9265 43.237 43.888 43.8622 43.7885C50.3817 42.755 53.1107 36.7502 52.1239 29.7345L51.3163 23.9864C53.5373 23.3574 55.6344 21.8522 57.3636 19.5029C57.6437 19.1402 57.673 18.7294 57.533 18.3411C59.7474 14.7049 60.7471 10.0961 60.2782 6.74553V6.74874Z" fill="#ED1C24"/>
<path opacity="0.3" d="M49.9454 35.9189C49.9226 35.9253 49.8868 36.0761 49.8477 36.2655C49.8054 36.0665 49.7533 35.9092 49.7174 35.9189C49.6979 35.9221 49.6653 36.044 49.636 36.1981C49.61 36.2976 49.5839 36.442 49.5546 36.5832C49.5448 36.6314 49.5351 36.6795 49.5253 36.7309C49.5155 36.7822 49.5025 36.8368 49.4927 36.8881C49.4732 36.9684 49.4537 37.055 49.4341 37.1385C49.4146 37.2187 49.395 37.2989 49.3723 37.3792C49.3625 37.408 49.356 37.4369 49.3495 37.469C49.1703 38.0467 48.9098 38.5955 48.5646 39.0898C48.252 39.5327 47.871 39.9338 47.4379 40.2805C47.4151 40.2997 47.389 40.3158 47.3663 40.335C47.2979 40.3896 47.2262 40.4377 47.1578 40.4891C47.1057 40.5212 47.0504 40.5565 46.995 40.5918C46.8908 40.656 46.7833 40.7201 46.6954 40.7779C46.6629 40.7972 46.6368 40.8132 46.6075 40.8325C46.5749 40.8517 46.5456 40.871 46.5131 40.8902C46.4251 40.9416 46.3405 40.9929 46.2721 41.0347C46.093 41.1406 45.9529 41.2304 45.9594 41.269C45.9594 41.2882 46.0604 41.2882 46.1972 41.2754C46.2688 41.3171 46.9657 41.2144 47.2392 41.1053C48.0697 40.7683 48.7796 40.1392 49.2811 39.43C49.7826 38.7175 50.1278 37.8413 50.1571 36.9555C50.1668 36.6474 50.0235 35.8996 49.9454 35.9221V35.9189Z" fill="white"/>
<path d="M30.8623 52.8199L31.95 53.8148L32.2821 53.6607L32.6664 53.221L31.608 52.3545L30.8623 52.8199Z" fill="white"/>
</g>
<path d="M98.7777 18.6156C98.6384 18.7493 98.5715 18.9165 98.5715 19.1004V20.5936H100.198C100.382 20.5936 100.561 20.5267 100.706 20.4042C100.862 20.2704 100.945 20.1033 100.945 19.9083V18.415H99.3181C99.1176 18.415 98.9393 18.4763 98.7777 18.6156Z" fill="white"/>
<path d="M84.3467 19.4075C82.8256 17.9532 80.9646 17.2178 78.8083 17.2178C76.6521 17.2178 74.7967 17.9532 73.27 19.4075C71.7545 20.8561 70.9856 22.6335 70.9856 24.6951C70.9856 26.7566 71.7545 28.5284 73.27 29.9771C74.7911 31.4202 76.6521 32.1557 78.8083 32.1557C79.0535 32.1557 79.3154 32.1445 79.594 32.1222L81.9118 33.777L83.9678 32.8187L82.0901 31.4592C83.4329 30.8351 84.5083 29.9715 85.2883 28.885C86.1909 27.637 86.6422 26.2217 86.6422 24.6951C86.6422 22.6391 85.8678 20.8561 84.3467 19.4075ZM78.8083 19.2515C80.3406 19.2515 81.6722 19.7752 82.7699 20.8116C83.8954 21.8869 84.447 23.1573 84.447 24.6895C84.447 26.2217 83.9009 27.4809 82.7699 28.5563C82.0177 29.2751 81.1039 29.7598 80.0508 29.9994L79.7834 29.7988L79.7723 29.7877C79.3209 29.4756 78.8083 29.4422 78.3403 29.6762L77.6271 30.005C76.5574 29.7765 75.6213 29.2862 74.8524 28.5507C73.7269 27.4754 73.1809 26.2106 73.1809 24.6839C73.1809 23.1573 73.7269 21.8813 74.8468 20.806C75.9389 19.7696 77.2761 19.2459 78.8083 19.2459V19.2515Z" fill="white"/>
<path d="M94.9386 28.1661C94.9386 28.7678 94.6768 29.2804 94.1474 29.7373C93.6293 30.183 93.061 30.4003 92.4146 30.4003C91.8073 30.4003 91.2947 30.1886 90.8601 29.7484C90.4255 29.3083 90.2194 28.8403 90.2194 28.3165L90.2082 21.6081H88.0129L88.0241 28.2719C88.0464 29.4253 88.4977 30.4171 89.3557 31.2194C90.2026 32.0161 91.2278 32.4229 92.4202 32.4229C93.3228 32.4229 94.1642 32.1332 94.9498 31.5481V32.1554H97.1451V21.6025H94.9498V28.1605H94.9386V28.1661Z" fill="white"/>
<path d="M100.85 21.5913H98.655V32.1498H100.85V21.5913Z" fill="white"/>
<path d="M107.202 23.3631C108.25 23.3631 109.074 23.7308 109.732 24.4886L109.827 24.5944H112.362L112.128 24.1431C111.738 23.3798 111.086 22.7168 110.2 22.1819C109.292 21.6191 108.283 21.335 107.208 21.335C105.665 21.335 104.327 21.8643 103.23 22.9118C102.143 23.9704 101.592 25.2575 101.592 26.7507C101.592 28.2439 102.143 29.5199 103.23 30.5785C104.322 31.6204 105.665 32.1553 107.208 32.1553C108.283 32.1553 109.286 31.8711 110.194 31.314C111.08 30.7791 111.732 30.116 112.128 29.3527L112.362 28.9014H109.827L109.732 29.0073C109.08 29.765 108.25 30.1328 107.202 30.1328C106.244 30.1328 105.458 29.804 104.784 29.1354C104.11 28.4668 103.781 27.6868 103.781 26.7507C103.781 25.8147 104.11 25.0235 104.784 24.3549C105.453 23.6862 106.244 23.3631 107.202 23.3631Z" fill="white"/>
<path d="M123.009 21.5913H119.967L115.538 25.8816V17.2119H112.507L113.014 19.2178H113.337V32.1498H115.532V27.8651L119.984 32.1498H123.043L117.543 26.8622L123.015 21.5857L123.009 21.5913Z" fill="white"/>
<path d="M131.869 17.2116H127.188L127.695 19.2676H128.046V32.1495H131.88C134.025 32.1384 135.886 31.4029 137.396 29.9598C138.922 28.5111 139.691 26.7393 139.691 24.6834C139.691 22.6274 138.922 20.8556 137.407 19.3958C135.886 17.9527 134.03 17.2116 131.874 17.2061L131.869 17.2116ZM137.446 24.6889C137.446 26.2156 136.9 27.4748 135.769 28.5446C134.693 29.5754 133.378 30.0991 131.863 30.1047H130.242V19.2732H131.874C133.384 19.2732 134.699 19.8081 135.774 20.8333C136.9 21.8975 137.451 23.1623 137.451 24.6889H137.446Z" fill="white"/>
<path d="M146.065 21.3296C144.522 21.3296 143.184 21.8589 142.087 22.9064C141 23.965 140.449 25.2521 140.449 26.7398C140.449 28.2274 141 29.5089 142.087 30.5676C143.179 31.6095 144.522 32.1444 146.065 32.1444C147.608 32.1444 148.935 31.6151 150.021 30.5676C151.113 29.5089 151.67 28.2219 151.67 26.7398C151.67 25.2577 151.119 23.9539 150.021 22.9064C148.929 21.8645 147.597 21.3296 146.065 21.3296ZM146.065 30.1163C145.107 30.1163 144.321 29.7931 143.647 29.1189C142.973 28.4503 142.644 27.6703 142.644 26.7342C142.644 25.7981 142.973 25.007 143.647 24.3383C144.316 23.6697 145.107 23.3466 146.065 23.3466C147.023 23.3466 147.798 23.6697 148.472 24.3383C149.141 25.007 149.464 25.7926 149.464 26.7342C149.464 27.6758 149.141 28.4503 148.472 29.1189C147.798 29.7875 147.012 30.1163 146.065 30.1163Z" fill="white"/>
<path d="M158.117 23.3631C159.165 23.3631 159.989 23.7308 160.647 24.4886L160.741 24.5944H163.277L163.043 24.1431C162.653 23.3798 162.001 22.7168 161.115 22.1819C160.207 21.6191 159.198 21.335 158.123 21.335C156.579 21.335 155.242 21.8643 154.144 22.9118C153.058 23.9704 152.506 25.2575 152.506 26.7507C152.506 28.2439 153.058 29.5199 154.144 30.5785C155.237 31.6204 156.579 32.1553 158.123 32.1553C159.198 32.1553 160.207 31.8711 161.109 31.314C161.995 30.7791 162.647 30.116 163.043 29.3527L163.277 28.9014H160.741L160.647 29.0073C159.995 29.765 159.165 30.1328 158.117 30.1328C157.159 30.1328 156.373 29.804 155.699 29.1354C155.025 28.4668 154.702 27.6868 154.702 26.7507C154.702 25.8147 155.03 25.0235 155.705 24.3549C156.373 23.6862 157.164 23.3631 158.123 23.3631H158.117Z" fill="white"/>
<path d="M168.163 18.8334H165.979V21.597H163.377L164.134 23.653H165.973L165.962 29.3083C165.962 29.3807 165.962 29.4588 165.973 29.52C165.995 29.7429 166.04 29.9658 166.107 30.1775C166.313 30.8127 166.72 31.3197 167.322 31.6763C167.862 31.9995 168.687 32.1555 169.829 32.1555H170.676V30.0995H169.506C169.372 30.0995 169.26 30.0995 169.177 30.0884C168.943 30.0661 168.759 30.0159 168.642 29.9491C168.414 29.8153 168.274 29.6092 168.202 29.325C168.185 29.2303 168.168 29.13 168.163 29.0353V23.653H170.681V21.597H168.163V18.8223V18.8334Z" fill="white"/>
<path d="M176.743 21.3296C175.2 21.3296 173.863 21.8589 172.765 22.9064C171.679 23.965 171.127 25.2521 171.127 26.7398C171.127 28.2274 171.679 29.5089 172.765 30.5676C173.863 31.6095 175.2 32.1444 176.743 32.1444C178.287 32.1444 179.613 31.6151 180.699 30.5676C181.797 29.5089 182.348 28.2219 182.348 26.7398C182.348 25.2577 181.797 23.9539 180.699 22.9064C179.607 21.8645 178.281 21.3296 176.743 21.3296ZM176.743 30.1163C175.785 30.1163 174.999 29.7931 174.325 29.1189C173.651 28.4503 173.328 27.6703 173.328 26.7342C173.328 25.7981 173.657 25.007 174.331 24.3383C174.999 23.6697 175.791 23.3466 176.749 23.3466C177.707 23.3466 178.482 23.6697 179.156 24.3383C179.824 25.007 180.148 25.7926 180.148 26.7342C180.148 27.6758 179.819 28.4503 179.156 29.1189C178.482 29.7875 177.696 30.1163 176.749 30.1163H176.743Z" fill="white"/>
<path d="M189.135 21.6973C188.773 21.5747 188.349 21.5078 187.887 21.5078C186.984 21.5078 186.143 21.831 185.357 22.4662V21.5914H183.173V32.1499H185.357V26.0767C185.374 25.4303 185.647 24.8787 186.182 24.3996C186.7 23.9204 187.257 23.6975 187.887 23.6975C188.199 23.6975 188.439 23.7421 188.606 23.8257L188.974 24.0095L189.386 21.7864L189.13 21.7028L189.135 21.6973Z" fill="white"/>
<path d="M101.614 38.0783H102.427V45.2158H101.641V39.8223L99.3236 45.2158H98.499L96.1811 39.8223V45.2158H95.3955V38.7637H95.1949L95.0222 38.0728H96.1979L98.9057 44.3911L101.608 38.0728L101.614 38.0783Z" fill="white"/>
<path d="M107.392 44.0176L107.865 44.6193C107.375 45.0149 106.773 45.2155 106.071 45.2155C105.993 45.2155 105.915 45.2155 105.837 45.2155C105.09 45.1653 104.466 44.8979 103.97 44.4076C103.452 43.9061 103.19 43.3044 103.19 42.5968C103.19 41.8891 103.452 41.2595 103.965 40.7414C104.478 40.2343 105.102 39.978 105.831 39.978C106.561 39.978 107.18 40.2343 107.698 40.7414C108.211 41.2484 108.472 41.8724 108.472 42.5968C108.472 42.6748 108.445 42.7361 108.383 42.7862C108.333 42.8363 108.266 42.8642 108.183 42.8642H103.998C104.087 43.3601 104.305 43.7501 104.645 44.0454C104.99 44.3407 105.391 44.4856 105.837 44.4856C106.439 44.4856 106.957 44.3296 107.392 44.0176ZM105.826 40.7024C105.419 40.7024 105.051 40.8194 104.734 41.0589C104.416 41.2874 104.188 41.6273 104.043 42.0786H107.62C107.475 41.6328 107.236 41.293 106.924 41.0589C106.6 40.8194 106.233 40.7024 105.837 40.7024H105.826Z" fill="white"/>
<path d="M113.231 38.0781H114.356L114.189 38.769H114.022V45.2211H113.236V44.5469C112.696 44.9927 112.116 45.2211 111.515 45.2211C110.818 45.2211 110.228 44.9815 109.743 44.4968C109.258 44.012 109.013 43.4326 109.013 42.7473C109.013 42.0619 109.258 41.4769 109.743 40.9922C110.228 40.5074 110.824 40.2678 111.515 40.2678C112.116 40.2678 112.696 40.4963 113.236 40.942V38.0893L113.231 38.0781ZM111.509 44.5191C111.983 44.5191 112.389 44.3464 112.724 44.0009C113.052 43.6555 113.225 43.2376 113.225 42.7473C113.225 42.2569 113.058 41.8391 112.724 41.4936C112.384 41.1426 111.977 40.9699 111.509 40.9699C111.041 40.9699 110.629 41.1426 110.294 41.4936C109.96 41.8391 109.787 42.2569 109.787 42.7473C109.787 43.2376 109.955 43.6555 110.294 44.0009C110.629 44.3464 111.035 44.5191 111.509 44.5191Z" fill="white"/>
<path d="M114.991 39.4488V38.8582C114.991 38.808 115.008 38.7635 115.047 38.7245C115.092 38.6855 115.142 38.6743 115.209 38.6743H115.866V39.2649C115.866 39.3151 115.85 39.3596 115.805 39.3931C115.76 39.4321 115.705 39.4488 115.649 39.4488H114.991ZM115.816 45.2156H115.03V40.2623H115.816V45.2156Z" fill="white"/>
<path d="M120.519 43.9066H121.46C121.276 44.2631 120.976 44.564 120.552 44.8203C120.123 45.0822 119.649 45.2159 119.142 45.2159C118.413 45.2159 117.783 44.9708 117.265 44.4749C116.752 43.9734 116.496 43.3772 116.496 42.6752C116.496 41.9732 116.752 41.3714 117.265 40.87C117.783 40.3741 118.413 40.1289 119.142 40.1289C119.649 40.1289 120.117 40.2626 120.552 40.5245C120.97 40.7808 121.276 41.0873 121.46 41.4383H120.519C120.162 41.026 119.705 40.8254 119.142 40.8254C118.63 40.8254 118.19 41.0037 117.827 41.3658C117.465 41.7224 117.281 42.157 117.281 42.6696C117.281 43.1822 117.465 43.6057 117.827 43.9678C118.184 44.3244 118.624 44.5083 119.142 44.5083C119.711 44.5083 120.168 44.3021 120.519 43.8954V43.9066Z" fill="white"/>
<path d="M127.166 40.9475H126.999V45.2155H126.213V44.5413C125.667 44.9871 125.088 45.2155 124.486 45.2155C123.795 45.2155 123.204 44.9759 122.714 44.4912C122.224 44.0064 121.979 43.427 121.979 42.7416C121.979 42.0563 122.224 41.4713 122.714 40.9865C123.199 40.5018 123.789 40.2622 124.486 40.2622C125.088 40.2622 125.667 40.4906 126.213 40.9364V40.2622H127.339L127.166 40.9475ZM124.491 44.519C124.971 44.519 125.372 44.3463 125.706 44.0009C126.04 43.6554 126.213 43.2375 126.213 42.7472C126.213 42.2569 126.046 41.839 125.706 41.4936C125.372 41.1425 124.965 40.9698 124.491 40.9698C124.018 40.9698 123.611 41.1425 123.277 41.4936C122.942 41.839 122.77 42.2569 122.77 42.7472C122.77 43.2375 122.937 43.6554 123.277 44.0009C123.617 44.3463 124.023 44.519 124.491 44.519Z" fill="white"/>
<path d="M128.124 38.0783H129.278V45.2158H128.498V38.7637H128.297L128.124 38.0728V38.0783Z" fill="white"/>
<path d="M135.919 41.8278C136.142 41.9783 136.32 42.1621 136.454 42.3794C136.588 42.5967 136.655 42.8697 136.655 43.1985C136.655 43.5272 136.593 43.8114 136.476 44.0677C136.359 44.3184 136.192 44.5301 135.992 44.7029C135.785 44.87 135.54 45.0037 135.262 45.0929C134.983 45.1765 134.677 45.221 134.353 45.221C134.03 45.221 133.713 45.1709 133.423 45.0595C133.133 44.9536 132.888 44.8031 132.676 44.6081C132.47 44.4131 132.303 44.168 132.175 43.8838C132.136 43.8002 132.108 43.7278 132.091 43.6721L132.699 43.2821C132.799 43.5551 132.966 43.8281 133.206 44.1011C133.468 44.402 133.869 44.5524 134.415 44.5524C134.844 44.5524 135.195 44.441 135.473 44.2181C135.752 43.9897 135.891 43.6832 135.891 43.2932C135.891 43.0592 135.847 42.8753 135.769 42.7249C135.68 42.58 135.568 42.4519 135.423 42.3516C135.289 42.2457 135.133 42.1677 134.972 42.1064C134.816 42.0507 134.654 42.0006 134.493 41.9504C134.181 41.8501 133.885 41.7443 133.607 41.644C133.334 41.5381 133.094 41.4155 132.882 41.2595C132.682 41.1146 132.515 40.9252 132.403 40.7023C132.292 40.4795 132.231 40.1953 132.231 39.8554C132.231 39.588 132.281 39.3428 132.392 39.1311C132.498 38.9138 132.643 38.7244 132.827 38.5683C133.016 38.4068 133.245 38.2786 133.507 38.195C133.768 38.1115 134.047 38.0669 134.359 38.0669C134.671 38.0669 134.955 38.117 135.223 38.2062C135.485 38.3065 135.702 38.4458 135.891 38.6241C136.081 38.8024 136.226 39.0197 136.337 39.276C136.354 39.3261 136.37 39.3595 136.382 39.3763L135.78 39.7551C135.73 39.5601 135.596 39.3428 135.373 39.1088C135.133 38.8581 134.799 38.7299 134.387 38.7299C133.975 38.7299 133.651 38.8302 133.401 39.0252C133.144 39.2202 133.016 39.4988 133.016 39.8499C133.016 40.0504 133.055 40.2287 133.133 40.368C133.211 40.5073 133.317 40.6188 133.445 40.719C133.573 40.8082 133.713 40.8918 133.874 40.9531C134.036 41.0143 134.203 41.0701 134.376 41.1146C134.638 41.2038 134.911 41.2985 135.189 41.4044C135.457 41.5102 135.702 41.644 135.93 41.8V41.8167L135.919 41.8278Z" fill="white"/>
<path d="M141.385 44.0176L141.859 44.6193C141.368 45.0149 140.767 45.2155 140.064 45.2155C139.986 45.2155 139.908 45.2155 139.836 45.2155C139.089 45.1653 138.465 44.8979 137.969 44.4076C137.451 43.9061 137.189 43.3044 137.189 42.5968C137.189 41.8891 137.446 41.2595 137.964 40.7414C138.477 40.2343 139.106 39.978 139.83 39.978C140.555 39.978 141.179 40.2343 141.697 40.7414C142.21 41.2484 142.471 41.8724 142.471 42.5968C142.471 42.6748 142.444 42.7361 142.382 42.7862C142.332 42.8363 142.265 42.8642 142.182 42.8642H137.997C138.087 43.3601 138.304 43.7501 138.644 44.0454C138.989 44.3407 139.39 44.4856 139.836 44.4856C140.438 44.4856 140.956 44.3296 141.391 44.0176H141.385ZM139.819 40.7024C139.413 40.7024 139.045 40.8194 138.722 41.0589C138.404 41.2874 138.176 41.6273 138.025 42.0786H141.602C141.457 41.6328 141.218 41.293 140.906 41.0589C140.583 40.8194 140.215 40.7024 139.819 40.7024Z" fill="white"/>
<path d="M145.19 40.2178C145.408 40.2178 145.597 40.2456 145.764 40.3013L145.625 41.0758C145.519 41.0257 145.374 40.9978 145.196 40.9978C144.845 40.9978 144.527 41.1315 144.243 41.3878C143.948 41.6553 143.792 41.9729 143.781 42.335V45.2156H143.001V40.2623H143.781V40.8975C144.21 40.4462 144.683 40.2178 145.196 40.2178H145.19Z" fill="white"/>
<path d="M150.834 40.2622H151.609L149.414 45.2155H148.483L146.288 40.2622H147.062L148.951 44.5302L150.834 40.2622Z" fill="white"/>
<path d="M152.244 39.4488V38.8582C152.244 38.808 152.261 38.7635 152.3 38.7245C152.344 38.6855 152.395 38.6743 152.461 38.6743H153.119V39.2649C153.119 39.3151 153.102 39.3596 153.058 39.3931C153.007 39.4321 152.957 39.4488 152.902 39.4488H152.244ZM153.069 45.2156H152.283V40.2623H153.069V45.2156Z" fill="white"/>
<path d="M157.766 43.9066H158.702C158.518 44.2631 158.217 44.564 157.794 44.8203C157.365 45.0822 156.891 45.2159 156.384 45.2159C155.654 45.2159 155.025 44.9708 154.512 44.4749C153.999 43.9734 153.743 43.3772 153.743 42.6752C153.743 41.9732 153.999 41.3714 154.512 40.87C155.03 40.3741 155.66 40.1289 156.384 40.1289C156.891 40.1289 157.359 40.2626 157.794 40.5245C158.212 40.7808 158.518 41.0873 158.702 41.4383H157.766C157.415 41.026 156.952 40.8254 156.39 40.8254C155.877 40.8254 155.437 41.0037 155.075 41.3658C154.713 41.7224 154.529 42.157 154.529 42.6696C154.529 43.1822 154.713 43.6057 155.075 43.9678C155.431 44.3244 155.872 44.5083 156.39 44.5083C156.958 44.5083 157.415 44.3021 157.766 43.8954V43.9066Z" fill="white"/>
<path d="M163.438 44.0176L163.911 44.6193C163.421 45.0149 162.819 45.2155 162.117 45.2155C162.039 45.2155 161.961 45.2155 161.889 45.2155C161.142 45.1653 160.518 44.8979 160.022 44.4076C159.504 43.9061 159.242 43.3044 159.242 42.5968C159.242 41.8891 159.504 41.2595 160.017 40.7414C160.529 40.2343 161.159 39.978 161.883 39.978C162.608 39.978 163.232 40.2343 163.75 40.7414C164.262 41.2484 164.524 41.8724 164.524 42.5968C164.524 42.6748 164.496 42.7361 164.435 42.7862C164.385 42.8363 164.318 42.8642 164.234 42.8642H160.05C160.139 43.3601 160.357 43.7501 160.696 44.0454C161.042 44.3407 161.443 44.4856 161.889 44.4856C162.491 44.4856 163.009 44.3296 163.443 44.0176H163.438ZM161.872 40.7024C161.465 40.7024 161.098 40.8194 160.774 41.0589C160.457 41.2874 160.228 41.6273 160.084 42.0786H163.661C163.516 41.6328 163.276 41.293 162.964 41.0589C162.641 40.8194 162.273 40.7024 161.878 40.7024H161.872Z" fill="white"/>
<path d="M167.127 42.2516C167.717 42.3797 168.146 42.5859 168.408 42.8701C168.581 43.0483 168.687 43.2545 168.72 43.4885C168.731 43.5498 168.737 43.6111 168.737 43.6724C168.737 43.8395 168.698 44.0123 168.62 44.185C168.497 44.4691 168.297 44.6976 168.012 44.8815C167.734 45.0653 167.422 45.1712 167.076 45.1991C166.987 45.1991 166.898 45.2102 166.815 45.2102C166.363 45.2102 165.979 45.1099 165.661 44.9093C165.55 44.8369 165.444 44.7533 165.355 44.653C165.288 44.5862 165.232 44.5137 165.182 44.4301C165.11 44.3131 165.059 44.2073 165.043 44.1237L165.851 43.8618V43.9454C165.878 44.0234 165.923 44.0958 165.984 44.1627C166.157 44.3689 166.43 44.4691 166.803 44.4691C166.865 44.4691 166.932 44.4692 167.004 44.458C167.21 44.4469 167.394 44.38 167.556 44.2574C167.689 44.1627 167.79 44.0457 167.851 43.912C167.868 43.873 167.879 43.834 167.89 43.8005C167.901 43.7504 167.907 43.7002 167.907 43.6612C167.907 43.5442 167.862 43.4272 167.773 43.3325C167.622 43.1709 167.338 43.0484 166.926 42.9592L166.742 42.9146L166.553 42.8701C166.413 42.8311 166.291 42.7976 166.185 42.7586C165.917 42.6528 165.695 42.5135 165.527 42.3407C165.344 42.1513 165.232 41.9229 165.188 41.6443C165.171 41.5663 165.171 41.4827 165.171 41.4103C165.171 41.2097 165.215 41.0202 165.293 40.8419C165.516 40.3349 165.945 40.0507 166.581 39.995C166.659 39.995 166.737 39.9839 166.809 39.9839C167.283 39.9839 167.667 40.1065 167.979 40.3572C168.207 40.5355 168.369 40.7695 168.469 41.0481C168.503 41.1372 168.525 41.2264 168.542 41.3211C168.553 41.3545 168.564 41.3768 168.586 41.3935L167.723 41.4437C167.712 41.3824 167.7 41.3322 167.678 41.2821C167.622 41.1205 167.539 40.9924 167.422 40.8977C167.271 40.7806 167.065 40.7249 166.792 40.7249C166.748 40.7249 166.692 40.7249 166.636 40.7249C166.347 40.7472 166.152 40.8754 166.046 41.1038C166.007 41.193 165.99 41.2932 165.99 41.3991C165.99 41.4437 165.99 41.4827 166.001 41.5273C166.018 41.6666 166.068 41.7836 166.14 41.8616C166.28 42.0064 166.603 42.1346 167.11 42.246L167.121 42.2572L167.127 42.2516Z" fill="white"/>
<defs>
<clipPath id="clip0_33552_4015">
<rect width="69.3632" height="58.4111" fill="white" transform="translate(0.690918 0.44043)"/>
</clipPath>
</defs>
</svg>
