<svg width="469" height="300" viewBox="0 0 469 300" fill="none" xmlns="http://www.w3.org/2000/svg">
<g clip-path="url(#clip0_33552_3768)">
<path d="M452.717 291.736C455.761 285.937 463.169 268.85 467.33 233.721C472.658 188.732 448.389 159.134 442.467 143.15C436.545 127.165 455.493 93.4202 428.26 60.2697C401.035 27.1192 355.456 27.7136 330 40.7331C304.543 53.7527 271.99 67.3739 245.946 42.5092C219.902 17.6445 201.686 5.79209 159.768 0.65242C115.871 -4.72647 46.0609 23.2119 51.0044 82.3941C55.8826 140.772 14.7183 133.059 3.25118 188.732C-10.3398 254.7 23.9819 286.14 27.7077 291.736H452.71H452.717Z" fill="#C6DAFA"/>
<path d="M373.554 180.526H41.891V294.077H373.554V180.526Z" fill="#65BFCE"/>
<path d="M379.44 294.077H372.669V180.526H42.7753V294.077H36.0125V173.756H379.44V294.077Z" fill="#91D3E2"/>
<path d="M376.054 231.532H39.3975V238.302H376.054V231.532Z" fill="#91D3E2"/>
<path d="M150.191 177.141H143.421V291.736H150.191V177.141Z" fill="#91D3E2"/>
<path d="M272.031 177.141H265.261V291.736H272.031V177.141Z" fill="#91D3E2"/>
<path d="M61.962 293.715C61.962 293.715 28.1187 220.1 40.8109 196.409C53.503 172.719 106.801 178.642 118.653 200.643C130.497 222.644 148.263 293.722 148.263 293.722H61.962V293.715Z" fill="#0055AA"/>
<path d="M118.645 200.636C116.906 197.41 114.275 194.532 111.005 192.038C101.14 188.058 81.2213 182.368 68.8336 194.756C55.1122 208.479 83.5046 269.445 97.8784 293.715H148.256C148.256 293.715 130.489 222.637 118.645 200.636Z" fill="#1A78C6"/>
<path d="M420.691 293.715C420.691 293.715 454.534 220.1 441.842 196.409C429.15 172.719 375.852 178.642 364.008 200.643C352.163 222.644 334.397 293.722 334.397 293.722H420.698L420.691 293.715Z" fill="#1A78C6"/>
<path d="M376.33 188.957C370.886 192.045 366.515 195.982 364.008 200.636C352.163 222.637 334.397 293.715 334.397 293.715H390.189C401.852 268.575 424.496 215.678 416.443 199.954C410.688 188.725 392.197 187.602 376.337 188.957H376.33Z" fill="#0055AA"/>
<path d="M249.749 250.546C249.749 250.546 256.382 251.989 259.846 251.989C263.311 251.989 273.22 246.733 275.155 248.669C277.091 250.604 267.631 253.141 269.654 255.157C271.676 257.179 288.398 257.897 286.811 259.484C285.223 261.072 275.851 260.347 275.851 260.347C275.851 260.347 287.528 261.5 287.528 263.087C287.528 264.675 275.989 263.667 275.989 263.667C275.989 263.667 286.173 265.124 284.788 266.516C283.397 267.908 275.148 266.516 275.148 266.516C275.148 266.516 282.44 267.603 280.606 269.437C280.026 270.017 268.639 269.582 263.587 267.277C258.542 264.972 256.331 262.377 255.417 262.377C254.504 262.377 244.842 260.644 244.842 260.644L249.742 250.546H249.749Z" fill="#B56167"/>
<path d="M185.535 168.362C185.535 168.362 193.522 221.767 204.714 229.226C215.899 236.686 251.59 246.805 251.59 246.805C251.59 246.805 253.721 259.593 245.197 266.516C245.197 266.516 204.714 258.527 190.333 248.4C175.952 238.28 158.904 177.018 161.035 170.624C163.166 164.23 185.535 168.362 185.535 168.362Z" fill="#F0EDF2"/>
<path d="M194.987 158.17C194.69 158.17 194.508 158.134 194.487 158.126L194.82 156.575C194.863 156.575 195.871 156.749 197.002 155.625C199.321 153.327 202.518 145.404 197.864 118.133L199.423 117.864C203.997 144.628 201.191 153.828 198.031 156.836C196.828 157.981 195.639 158.163 194.994 158.163L194.987 158.17Z" fill="#39657D"/>
<path d="M214.587 123.635C215.181 117.292 215.167 110.506 214.609 104.664C213.427 92.3183 200.307 89.4186 200.307 89.4186C200.307 89.4186 177.605 79.0813 168.066 98.5163C158.527 117.951 167.203 131.181 166.515 135.596C165.826 140.011 161.078 152.276 161.078 152.276L181.476 162.962C181.476 162.962 183.288 154.893 183.846 151.305C184.404 147.717 188.485 146.941 188.485 146.941C195.951 149.804 204.482 151.754 210.281 141.257C211.477 139.09 212.434 136.212 213.173 132.921C214.29 132.856 216.595 132.609 217.414 131.79C218.276 130.927 215.725 125.795 214.58 123.62L214.587 123.635Z" fill="#F4B3BD"/>
<path d="M210.955 136.14L204.49 134.306C204.49 134.306 204.736 140.409 206.751 140.409C208.766 140.409 210.962 136.14 210.962 136.14H210.955Z" fill="white"/>
<path d="M209.795 121.996C210.94 121.996 211.868 121.068 211.868 119.923C211.868 118.778 210.94 117.85 209.795 117.85C208.65 117.85 207.722 118.778 207.722 119.923C207.722 121.068 208.65 121.996 209.795 121.996Z" fill="#39657D"/>
<path d="M204.49 115.363C204.49 115.363 208.853 114.523 213.362 115.363C213.362 115.363 214.224 111.869 210.745 111.869C207.266 111.869 204.49 115.363 204.49 115.363Z" fill="#39657D"/>
<path d="M216.102 85.0691C220.451 84.3152 224.677 86.8234 225.952 91.0497C226.822 93.9276 227.366 97.226 226.88 100.365C225.583 108.643 216.718 110.601 209.592 109.02C203.786 107.73 198.908 103.526 198.908 103.526C198.908 103.526 199.068 111.811 194.755 114.95C190.442 118.089 192.073 121.953 190.145 121.656C188.209 121.351 191.21 113.544 186.252 112.196C181.352 110.862 180.091 119.909 183.36 122.772L182.244 126.331C182.244 126.331 177.366 133.436 171.668 133.675C165.978 133.914 163.101 131.181 159.773 119.916C156.446 108.651 155.25 95.6964 161.412 87.0409C167.573 78.3926 175.169 81.836 175.387 80.4586C175.604 79.0813 183.527 71.7451 194.834 77.5445C201.815 81.1183 208.179 86.4392 216.102 85.0764V85.0691Z" fill="#0055AA"/>
<g style="mix-blend-mode:multiply" opacity="0.5">
<path d="M180.946 135.647C178.685 138.372 183.853 151.319 183.853 151.319C184.411 147.731 188.492 146.955 188.492 146.955C188.492 146.955 179.062 139.728 180.946 135.647Z" fill="#F7BFC5"/>
</g>
<g style="mix-blend-mode:multiply" opacity="0.5">
<path d="M226.757 100.981C210.781 107.165 192.312 96.8925 189.34 93.5434C188.717 98.6033 188.608 103.359 182.36 109.948C172.197 120.22 162.847 114.776 157.512 109.6C157.99 113.08 158.78 116.567 159.774 119.909C163.101 131.174 165.978 133.907 171.668 133.668C177.358 133.428 182.244 126.324 182.244 126.324L183.36 122.765C180.091 119.901 181.36 110.854 186.252 112.188C191.21 113.544 188.217 121.344 190.145 121.648C192.08 121.953 190.449 118.089 194.755 114.943C199.06 111.797 198.908 103.518 198.908 103.518C198.908 103.518 203.786 107.723 209.593 109.013C216.529 110.557 225.126 108.738 226.764 100.981H226.757Z" fill="#0055AA"/>
</g>
<path d="M231.657 239.984C229.765 239.984 227.801 239.788 225.749 239.368C198.473 233.771 194.284 165.557 193.899 157.974C185.498 154.995 184.556 121.88 184.469 118.024L186.049 117.988C186.267 128.354 188.26 155.488 194.784 156.575L195.414 156.684L195.443 157.322C195.472 158.068 198.988 232.264 226.061 237.817C245.806 241.869 257.128 224.435 267.109 209.045C270.864 203.26 274.409 197.801 278.062 194.14C291.203 180.997 299.423 180.802 299.764 180.794V182.375C299.699 182.375 291.783 182.65 279.178 195.257C275.641 198.794 272.14 204.188 268.436 209.9C259.643 223.441 248.916 239.977 231.65 239.977L231.657 239.984Z" fill="#39657D"/>
<path d="M187.173 118.002C187.173 119.06 186.317 119.916 185.259 119.916C184.201 119.916 183.346 119.06 183.346 118.002C183.346 116.944 184.201 116.088 185.259 116.088C186.317 116.088 187.173 116.944 187.173 118.002Z" fill="white"/>
<path d="M157.367 150.442C157.367 150.442 176.8 155.27 190.652 174.981C202.366 191.654 202.598 293.584 202.598 293.584L116.942 294.027C116.942 294.027 125.133 270.539 128.641 248.248C132.454 223.985 133.07 186.55 139.304 171.668C148.799 148.985 157.374 150.449 157.374 150.449L157.367 150.442Z" fill="white"/>
<path d="M170.494 278.187C161.919 278.97 152.96 271.17 152.568 277.404C152.358 280.761 150.568 287.626 149.995 293.853L202.598 293.584C202.598 293.584 201.416 193.974 189.703 177.308C184.933 170.515 171.502 164.419 166.558 161.512C154.555 164.107 151.699 163.81 146.726 172.98C146.726 172.98 142.442 180.381 157.635 203.76C172.828 227.139 190.754 241.166 194.646 248.183C198.546 255.2 197.372 266.886 189.579 268.836C181.787 270.786 158.019 244.674 159.578 252.083C161.136 259.484 179.062 277.412 170.487 278.187H170.494Z" fill="#F0EDF2"/>
<path d="M157.367 150.442C157.367 150.442 167.421 156.771 173.814 169.029C180.207 181.28 177.54 182.346 177.54 182.346L190.326 186.072L179.671 192.466L201.626 256.171C201.626 256.171 199.908 199.389 195.117 183.941C190.326 168.493 163.159 144.52 163.159 144.52L157.367 150.442Z" fill="#F0EDF2"/>
<path d="M242.203 269.59C242.203 269.59 240.529 269.343 243.733 274.715C246.937 280.087 250.786 282.508 251.945 281.928C253.105 281.348 255.388 277.919 253.33 273.685C251.271 269.452 242.203 269.59 242.203 269.59Z" fill="#253E96"/>
<path d="M253.939 279.441C253.939 279.441 249.082 281.812 248.285 282.493C247.488 283.182 245.842 286.393 241.044 289.083C236.861 291.431 233.462 294.056 232.324 292.722C231.179 291.395 235.644 288.786 236.927 287.676C238.21 286.567 238.572 284.581 238.572 284.581C238.572 284.581 235.774 284.364 232.222 285.342C228.671 286.321 224.691 292.214 223.227 291.627C220.994 290.728 227.221 283.914 227.221 283.914C227.221 283.914 220.864 290.315 219.878 289.17C218.885 288.017 225.329 281.246 225.329 281.246C225.329 281.246 228.808 277.883 232.396 276.491C235.977 275.106 240.181 274.867 244.784 273.555C249.387 272.243 255.309 266.103 255.309 266.103C255.309 266.103 264.362 271.793 262.536 274.36C261.658 275.599 253.953 279.434 253.953 279.434L253.939 279.441Z" fill="#DF9296"/>
<path d="M313.116 165.267C313.116 165.267 299.394 169.696 293.726 190.914C288.058 212.14 284.76 233.25 279.881 239.788C275.003 246.327 242.196 269.597 242.196 269.597C242.196 269.597 246.995 271.119 250.431 275.114C253.866 279.108 251.938 281.935 251.938 281.935C251.938 281.935 290.689 266.705 299.336 249.988C307.984 233.271 314.239 185.398 314.928 176.126C315.624 166.854 313.108 165.267 313.108 165.267H313.116Z" fill="#253E96"/>
<g style="mix-blend-mode:multiply">
<path d="M299.343 249.981C305.802 237.505 310.919 207.667 313.391 189.479C307.259 189.537 301.706 190.632 301.706 190.632C301.706 190.632 301.221 228.842 295.763 240.528C291.16 250.387 260.317 269.713 250.778 275.52C253.729 279.289 251.953 281.921 251.953 281.921C251.953 281.921 290.703 266.69 299.351 249.973L299.343 249.981Z" fill="#253E96"/>
</g>
<path d="M325.032 160.011C325.032 160.011 329.331 157.938 330.686 156.575C332.041 155.212 331.425 138.438 331.425 138.438H352.772C352.772 138.438 350.873 154.806 352.772 156.705C354.671 158.605 356.744 158.438 356.744 158.438C356.744 158.438 360.912 170.675 346.625 175.901C332.339 181.128 322.386 172.139 322.386 166.412C322.386 160.685 325.039 160.004 325.039 160.004L325.032 160.011Z" fill="#F7BFC5"/>
<g style="mix-blend-mode:multiply" opacity="0.5">
<path d="M352.714 138.923C352.751 138.619 352.765 138.438 352.765 138.438H331.418C331.418 138.438 331.81 149.152 331.273 154.147C337.906 153.197 349.554 149.957 352.707 138.916L352.714 138.923Z" fill="#F7BFC5"/>
</g>
<path d="M325.032 160.011C325.032 160.011 319.386 172.574 336.572 173.857C353.758 175.147 356.744 158.438 356.744 158.438C356.744 158.438 373.344 159.939 379.766 174.118C386.195 188.305 377.809 294.07 377.809 294.07H285.811C285.811 294.07 299.344 259.426 299.336 238.425C299.336 217.425 300.786 183.498 305.635 170.885C307.382 166.332 325.025 160.004 325.025 160.004L325.032 160.011Z" fill="#253E96"/>
<g style="mix-blend-mode:multiply">
<path d="M363.232 192.074V231.184C363.232 245.878 345.045 249.176 346.488 254.011C347.93 258.846 357.469 261.862 355.44 268.133C353.403 274.403 331.295 274.592 331.295 287.082C331.295 289.373 331.976 291.736 333.194 294.07H377.823C377.823 294.07 383.651 220.498 381.861 187.848C375.728 186.007 369.313 186.964 363.246 192.067L363.232 192.074Z" fill="#253E96"/>
</g>
<path d="M326.228 159.46C326.228 159.46 323.735 158.01 321.662 161.33C319.589 164.651 318.132 175.242 332.875 176.902C347.619 178.562 354.468 171.088 355.918 168.391C357.368 165.694 359.238 160.917 358.825 159.047C358.412 157.177 355.034 158.054 355.034 158.054C355.034 158.054 356.027 172.929 337.55 173.139C319.074 173.35 326.221 159.467 326.221 159.467L326.228 159.46Z" fill="white"/>
<path d="M333.81 261.456C333.81 261.456 324.445 262.558 318.632 261.84C312.818 261.123 311.659 260.681 304.251 263.087C296.843 265.501 283.382 273.968 286.253 275.237C289.123 276.498 297.872 270.619 297.872 270.619C297.872 270.619 287.768 277.687 288.811 279.028C289.855 280.369 300.221 273.635 300.221 273.635C300.221 273.635 292.479 281.152 294.864 281.449C297.249 281.747 303.613 275.57 303.613 275.57C303.613 275.57 297.843 281.819 300.083 282.095C302.315 282.37 307.397 276.795 307.397 276.795C307.397 276.795 314.993 276.527 317.508 274.57C320.023 272.613 321.756 271.793 323.546 272.011C325.337 272.236 336.913 273.04 336.913 273.04L333.81 261.456Z" fill="#DF9296"/>
<path d="M369.081 162.592C369.081 162.592 382.194 167.369 389.348 189.755C396.604 212.466 400.562 260.014 392.726 268.553C384.89 277.093 330.338 277.223 330.338 277.223C330.338 277.223 327.772 267.509 327.468 260.347C327.468 260.347 372.416 253.924 374.808 251.315C377.2 248.712 361.949 194.974 361.398 182.194C360.847 169.413 369.081 162.592 369.081 162.592Z" fill="#253E96"/>
<g style="mix-blend-mode:multiply">
<path d="M376.511 167.76C376.613 168.261 376.729 168.768 376.874 169.305C376.874 169.305 387.949 221.644 389.544 240.535C391.146 259.426 389.124 265.037 370.973 268.14C357.948 270.365 338.601 270.191 328.707 269.909C329.49 274.004 330.338 277.223 330.338 277.223C330.338 277.223 384.89 277.093 392.726 268.553C400.562 260.013 396.604 212.466 389.348 189.754C385.767 178.54 380.686 171.748 376.511 167.76Z" fill="#253E96"/>
</g>
<path d="M327.468 260.738C327.279 260.738 327.112 260.601 327.076 260.405C327.04 260.188 327.185 259.985 327.402 259.948C327.787 259.883 365.74 253.518 374.192 251.264C380.505 249.582 385.253 252.656 387.406 254.497C386.739 253.141 385.369 251.17 382.665 249.712C381.505 249.089 381.005 248.589 381.041 248.089C381.056 247.922 381.143 247.61 381.614 247.429C383.049 246.893 387.63 247.791 389.428 249.596C389.58 249.749 389.58 250.002 389.428 250.155C389.276 250.307 389.022 250.307 388.87 250.155C387.145 248.429 382.622 247.762 381.86 248.176C381.94 248.292 382.201 248.56 383.042 249.017C387.906 251.648 388.732 255.744 388.768 255.918C388.805 256.092 388.71 256.273 388.551 256.345C388.391 256.425 388.196 256.382 388.08 256.244C388.029 256.179 382.6 249.843 374.395 252.032C365.907 254.294 327.917 260.666 327.533 260.731C327.511 260.731 327.489 260.731 327.468 260.731V260.738Z" fill="#253E96"/>
<path d="M365.167 203.477C364.993 203.477 364.841 203.368 364.79 203.194C357.745 179.388 362.391 172.11 362.594 171.813C362.717 171.632 362.964 171.588 363.145 171.704C363.326 171.827 363.377 172.074 363.254 172.255C363.21 172.327 358.644 179.62 365.551 202.97C365.617 203.18 365.493 203.397 365.283 203.463C365.247 203.477 365.211 203.477 365.174 203.477H365.167Z" fill="#253E96"/>
<path d="M315.087 99.7705C315.087 99.7705 308.245 122.584 316.109 141.265C320.763 152.312 329.584 150.544 337.768 148.289C346.77 145.81 357.382 137.705 362.369 123.816C367.356 109.927 367.777 94.5655 352.047 87.9905C336.318 81.4155 318.864 89.6941 315.087 99.7705Z" fill="#F7BFC5"/>
<path d="M320.313 124.019C320.35 125.106 319.494 126.012 318.414 126.041C317.327 126.078 316.421 125.222 316.392 124.142C316.356 123.055 317.211 122.149 318.291 122.12C319.378 122.083 320.284 122.939 320.313 124.019Z" fill="#482320"/>
<path d="M313.188 119.923C313.188 119.923 317.298 118.995 321.589 119.662C321.589 119.662 322.307 116.328 319.009 116.429C315.711 116.531 313.188 119.923 313.188 119.923Z" fill="#482320"/>
<path d="M331.983 124.476C332.02 125.563 332.926 126.411 334.006 126.375C335.093 126.339 335.941 125.433 335.905 124.352C335.869 123.272 334.963 122.417 333.883 122.453C332.795 122.489 331.947 123.396 331.983 124.476Z" fill="#482320"/>
<path d="M338.833 119.938C338.833 119.938 334.673 119.271 330.432 120.199C330.432 120.199 329.512 116.915 332.81 116.813C336.108 116.712 338.833 119.938 338.833 119.938Z" fill="#482320"/>
<path d="M321.234 132.399C321.234 132.399 324.575 133.414 327.816 132.399C327.816 132.399 326.395 133.929 323.829 133.929C321.263 133.929 321.227 132.399 321.227 132.399H321.234Z" fill="#B56167"/>
<path d="M321.908 137.017L331.317 136.553C331.317 136.553 327.707 142.512 324.525 141.025C321.35 139.532 321.908 137.017 321.908 137.017Z" fill="white"/>
<path d="M344.313 103.141C344.313 103.141 331.65 110.644 317.233 103.591C317.233 103.591 312.84 105.824 312.84 111.297C312.84 115.581 304.678 104.961 307.266 95.044C309.854 85.1271 335.506 78.7478 344.61 80.0527C353.715 81.3648 354.867 86.3957 356.462 89.1142C356.462 89.1142 363.667 89.8173 365.747 98.4148C367.646 106.251 368.009 121.569 359.738 133.008C358.607 134.574 356.114 134.03 355.831 132.116C355.679 131.08 355.606 127.361 356.259 127.491C359.658 128.151 364.384 119.981 361.449 116.726C357.31 112.13 353.91 117.864 353.91 121.569C353.91 125.273 350.482 118.256 350.206 114.399C349.931 110.543 345.14 110.064 344.313 103.141Z" fill="#482320"/>
<path d="M311.304 170.066H307.462V193.125H311.304C315.551 193.125 318.987 187.964 318.987 181.599C318.987 175.234 315.544 170.073 311.304 170.073V170.066Z" fill="#E4DFE8"/>
<path d="M307.462 193.118C311.705 193.118 315.145 187.958 315.145 181.592C315.145 175.226 311.705 170.066 307.462 170.066C303.219 170.066 299.779 175.226 299.779 181.592C299.779 187.958 303.219 193.118 307.462 193.118Z" fill="#B1A9B9"/>
<path d="M305.882 174.002H300.822V189.189H305.882C308.68 189.189 310.941 185.789 310.941 181.599C310.941 177.409 308.673 174.009 305.882 174.009V174.002Z" fill="#E4DFE8"/>
<path d="M300.815 189.182C303.609 189.182 305.875 185.784 305.875 181.592C305.875 177.4 303.609 174.002 300.815 174.002C298.021 174.002 295.756 177.4 295.756 181.592C295.756 185.784 298.021 189.182 300.815 189.182Z" fill="#B1A9B9"/>
<path d="M266.964 193.684C266.964 193.684 274.96 192.495 278.461 189.537C281.962 186.579 286.796 178.236 291.102 176.626C295.408 175.01 306.433 170.443 306.701 172.588C306.969 174.734 297.553 179.047 297.553 179.047C297.553 179.047 309.39 175.278 308.854 177.975C308.317 180.664 297.829 183.353 297.829 183.353C297.829 183.353 309.934 183.622 307.513 185.506C305.092 187.391 298.097 186.855 298.097 186.855C298.097 186.855 306.976 189.008 304.823 190.081C302.671 191.154 297.56 190.349 297.56 190.349C297.56 190.349 290.297 198.685 281.962 198.417L270.937 204.333L266.972 193.684H266.964Z" fill="#B56167"/>
<path d="M148.031 167.405C146.045 171.153 146.139 175.662 147.995 179.482C154.446 192.748 184.143 228.248 201.51 229.763C216.522 231.075 275.018 209.516 275.018 209.516C275.018 209.516 276.605 194.597 268.624 192.466L205.236 205.253C205.236 205.253 176.184 168.732 170.132 162.679C165.232 157.778 152.699 158.598 148.024 167.398L148.031 167.405Z" fill="white"/>
<path d="M266.965 205.065C261.593 207.95 206.374 219.585 201.634 224.326C199.039 226.921 199.901 228.675 201.213 229.726C201.315 229.734 201.416 229.755 201.51 229.763C216.522 231.075 275.018 209.516 275.018 209.516C275.018 209.516 276.032 199.969 272.35 195.061C271.966 197.888 270.755 203.02 266.957 205.058L266.965 205.065Z" fill="#F0EDF2"/>
<path d="M83.8598 245.399H81.0619V238.81C81.0619 237.034 79.6194 235.584 77.8363 235.584H60.4254C58.6495 235.584 57.1998 237.034 57.1998 238.81V245.399H54.4019V238.81C54.4019 235.49 57.1055 232.786 60.4254 232.786H77.8363C81.1561 232.786 83.8598 235.49 83.8598 238.81V245.399Z" fill="#B1A9B9"/>
<path d="M90.6662 243.826H30.0469V288.046H90.6662V243.826Z" fill="white"/>
<path d="M90.6662 288.046H108.483V243.826H90.6662V288.046Z" fill="#B1A9B9"/>
<path d="M60.3601 280.616C68.4667 280.616 75.0384 274.043 75.0384 265.936C75.0384 257.829 68.4667 251.257 60.3601 251.257C52.2536 251.257 45.6819 257.829 45.6819 265.936C45.6819 274.043 52.2536 280.616 60.3601 280.616Z" fill="#ED1C24"/>
<path d="M65.2456 256.034H55.8153V275.846H65.2456V256.034Z" fill="white"/>
<path d="M70.4283 270.655V261.224H50.6182V270.655H70.4283Z" fill="white"/>
<path d="M122.444 222.224C127.626 222.224 131.83 226.428 131.83 231.611V288.046H113.057V231.611C113.057 226.428 117.261 222.224 122.444 222.224Z" fill="#B1A9B9"/>
<path d="M125.872 222.224C131.055 222.224 135.259 226.428 135.259 231.611V288.046H116.485V231.611C116.485 226.428 120.689 222.224 125.872 222.224Z" fill="#E4DFE8"/>
<path d="M129.707 227.682H122.444V288.046H129.707V227.682Z" fill="white"/>
<path d="M124.183 228.893H123.785V288.046H124.183V228.893Z" fill="#39657D"/>
<path d="M127.967 230.19H124.944V230.589H127.967V230.19Z" fill="#39657D"/>
<path d="M126.764 231.278H124.944V231.676H126.764V231.278Z" fill="#39657D"/>
<path d="M126.764 232.358H124.944V232.757H126.764V232.358Z" fill="#39657D"/>
<path d="M126.764 233.438H124.944V233.837H126.764V233.438Z" fill="#39657D"/>
<path d="M126.764 234.518H124.944V234.917H126.764V234.518Z" fill="#39657D"/>
<path d="M127.967 235.635H124.944V236.033H127.967V235.635Z" fill="#39657D"/>
<path d="M126.764 236.715H124.944V237.113H126.764V236.715Z" fill="#39657D"/>
<path d="M126.764 237.795H124.944V238.194H126.764V237.795Z" fill="#39657D"/>
<path d="M126.764 238.882H124.944V239.281H126.764V238.882Z" fill="#39657D"/>
<path d="M126.764 239.962H124.944V240.361H126.764V239.962Z" fill="#39657D"/>
<path d="M127.967 241.071H124.944V241.47H127.967V241.071Z" fill="#39657D"/>
<path d="M126.764 242.159H124.944V242.558H126.764V242.159Z" fill="#39657D"/>
<path d="M126.764 243.239H124.944V243.638H126.764V243.239Z" fill="#39657D"/>
<path d="M126.764 244.319H124.944V244.718H126.764V244.319Z" fill="#39657D"/>
<path d="M126.764 245.399H124.944V245.798H126.764V245.399Z" fill="#39657D"/>
<path d="M127.967 246.516H124.944V246.914H127.967V246.516Z" fill="#39657D"/>
<path d="M126.764 247.596H124.944V247.994H126.764V247.596Z" fill="#39657D"/>
<path d="M126.764 248.676H124.944V249.075H126.764V248.676Z" fill="#39657D"/>
<path d="M126.764 249.763H124.944V250.162H126.764V249.763Z" fill="#39657D"/>
<path d="M126.764 250.843H124.944V251.242H126.764V250.843Z" fill="#39657D"/>
<path d="M127.967 251.952H124.944V252.351H127.967V251.952Z" fill="#39657D"/>
<path d="M126.764 253.033H124.944V253.431H126.764V253.033Z" fill="#39657D"/>
<path d="M126.764 254.12H124.944V254.519H126.764V254.12Z" fill="#39657D"/>
<path d="M126.764 255.2H124.944V255.599H126.764V255.2Z" fill="#39657D"/>
<path d="M126.764 256.28H124.944V256.679H126.764V256.28Z" fill="#39657D"/>
<path d="M127.967 257.397H124.944V257.795H127.967V257.397Z" fill="#39657D"/>
<path d="M126.764 258.477H124.944V258.875H126.764V258.477Z" fill="#39657D"/>
<path d="M126.764 259.557H124.944V259.956H126.764V259.557Z" fill="#39657D"/>
<path d="M126.764 260.637H124.944V261.036H126.764V260.637Z" fill="#39657D"/>
<path d="M126.764 261.724H124.944V262.123H126.764V261.724Z" fill="#39657D"/>
<path d="M127.967 262.833H124.944V263.232H127.967V262.833Z" fill="#39657D"/>
<path d="M126.764 263.914H124.944V264.312H126.764V263.914Z" fill="#39657D"/>
<path d="M126.764 265.001H124.944V265.4H126.764V265.001Z" fill="#39657D"/>
<path d="M126.764 266.081H124.944V266.48H126.764V266.081Z" fill="#39657D"/>
<path d="M126.764 267.161H124.944V267.56H126.764V267.161Z" fill="#39657D"/>
<path d="M127.967 268.278H124.944V268.676H127.967V268.278Z" fill="#39657D"/>
<path d="M126.764 269.358H124.944V269.756H126.764V269.358Z" fill="#39657D"/>
<path d="M126.764 270.438H124.944V270.837H126.764V270.438Z" fill="#39657D"/>
<path d="M126.764 271.518H124.944V271.917H126.764V271.518Z" fill="#39657D"/>
<path d="M126.764 272.605H124.944V273.004H126.764V272.605Z" fill="#39657D"/>
<path d="M127.967 273.714H124.944V274.113H127.967V273.714Z" fill="#39657D"/>
<path d="M126.764 274.795H124.944V275.193H126.764V274.795Z" fill="#39657D"/>
<path d="M126.764 275.882H124.944V276.281H126.764V275.882Z" fill="#39657D"/>
<path d="M126.764 276.962H124.944V277.361H126.764V276.962Z" fill="#39657D"/>
<path d="M126.764 278.042H124.944V278.441H126.764V278.042Z" fill="#39657D"/>
<path d="M127.967 279.159H124.944V279.557H127.967V279.159Z" fill="#39657D"/>
<path d="M126.764 280.239H124.944V280.637H126.764V280.239Z" fill="#39657D"/>
<path d="M126.764 281.319H124.944V281.718H126.764V281.319Z" fill="#39657D"/>
<path d="M126.764 282.399H124.944V282.798H126.764V282.399Z" fill="#39657D"/>
<path d="M126.764 283.486H124.944V283.885H126.764V283.486Z" fill="#39657D"/>
<path d="M166.101 280.63H113.057V288.046H166.101V280.63Z" fill="#0055AA"/>
<path d="M155.54 280.63H113.057V288.046H155.54V280.63Z" fill="#1A78C6"/>
<path d="M461.304 288.046H13.4333C10.1352 288.046 7.45325 290.721 7.45325 294.027C7.45325 297.332 10.1279 300.007 13.4333 300.007H461.304C464.602 300.007 467.284 297.332 467.284 294.027C467.284 290.721 464.609 288.046 461.304 288.046Z" fill="#482320"/>
<path d="M130.83 70.0488H68.3263V155.538H130.83V70.0488Z" fill="#253E96" fill-opacity="0.5"/>
<path d="M127.133 75.0942H72.0157V150.486H127.133V75.0942Z" fill="white"/>
<path d="M108.758 71.7234C107.432 71.5277 106.598 70.1866 106.997 68.9034C107.439 67.4971 106.388 66.0618 104.917 66.0618H94.2252C92.7465 66.0618 91.6955 67.4971 92.1449 68.9034C92.5508 70.1866 91.71 71.5204 90.3835 71.7234L86.2518 72.3396V76.6166H112.883V72.3396L108.751 71.7234H108.758Z" fill="#253E96"/>
<path d="M91.2824 83.8368H78.2786V96.8418H91.2824V83.8368Z" fill="#75DECB"/>
<path d="M79.3948 87.8673H81.1054L84.7804 92.0646L90.6082 84.7864L84.7804 93.6884L79.3948 87.8673Z" fill="white"/>
<path d="M120.871 85.5693H93.5511V86.0405H120.871V85.5693Z" fill="#091143"/>
<path d="M93.5511 90.5712V90.1001H120.871V90.5712" fill="#091143"/>
<path d="M120.871 94.6308H93.5511V95.102H120.871V94.6308Z" fill="#091143"/>
<path d="M91.2824 99.8719H78.2786V112.877H91.2824V99.8719Z" fill="#75DECB"/>
<path d="M79.3948 103.91H81.1054L84.7804 108.107L90.6082 100.822L84.7804 109.731L79.3948 103.91Z" fill="white"/>
<path d="M120.871 101.612H93.5511V102.083H120.871V101.612Z" fill="#091143"/>
<path d="M120.871 106.142V106.614H93.5511V106.142" fill="#091143"/>
<path d="M120.871 110.673H93.5511V111.144H120.871V110.673Z" fill="#091143"/>
<path d="M91.2824 115.914H78.2786V128.919H91.2824V115.914Z" fill="#75DECB"/>
<path d="M79.3948 119.952H81.1054L84.7804 124.149L90.6082 116.864L84.7804 125.773L79.3948 119.952Z" fill="white"/>
<path d="M120.871 117.654H93.5511V118.125H120.871V117.654Z" fill="#091143"/>
<path d="M120.871 122.185V122.656H93.5511V122.185" fill="#091143"/>
<path d="M120.871 126.716H93.5511V127.187H120.871V126.716Z" fill="#091143"/>
<path d="M91.2824 131.957H78.2786V144.962H91.2824V131.957Z" fill="#75DECB"/>
<path d="M79.3948 135.987H81.1054L84.7804 140.185L90.6082 132.906L84.7804 141.816L79.3948 135.987Z" fill="white"/>
<path d="M120.871 133.689H93.5511V134.161H120.871V133.689Z" fill="#091143"/>
<path d="M120.871 138.22V138.699H93.5511V138.22" fill="#091143"/>
<path d="M120.871 142.751H93.5511V143.222H120.871V142.751Z" fill="#091143"/>
<path d="M399.221 55.3113C395.872 48.4898 387.116 46.46 381.114 51.114L379.78 52.1434L378.447 51.114C372.445 46.46 363.681 48.497 360.34 55.3113C358.303 59.465 358.839 64.4307 361.717 68.0553L379.78 83.7208L397.844 68.0553C400.721 64.4307 401.258 59.4723 399.221 55.3113Z" fill="#ED1C24"/>
<path d="M386.152 75.6814C385.891 75.6814 385.659 75.5002 385.594 75.2465L380.998 56.9641L375.38 72.4266C375.293 72.673 375.047 72.8253 374.793 72.8035C374.532 72.7818 374.322 72.5933 374.271 72.3396L371.945 60.2479L369.444 66.3807C369.357 66.5982 369.147 66.7432 368.908 66.7432H350.772C350.453 66.7432 350.192 66.4822 350.192 66.1633C350.192 65.8443 350.453 65.5833 350.772 65.5833H368.516L371.604 58.0079C371.698 57.7687 371.937 57.6237 372.198 57.6527C372.452 57.6745 372.662 57.8702 372.706 58.1167L375.004 70.0706L380.549 54.8038C380.636 54.5646 380.868 54.4123 381.121 54.4268C381.375 54.4413 381.592 54.6153 381.65 54.8618L386.144 72.7528L389.53 59.349C389.595 59.0953 389.819 58.9141 390.088 58.9141C390.349 58.9141 390.581 59.0881 390.646 59.3418L392.327 65.5978H408.76C409.079 65.5978 409.34 65.8588 409.34 66.1778C409.34 66.4967 409.079 66.7577 408.76 66.7577H391.885C391.624 66.7577 391.392 66.5837 391.327 66.33L390.109 61.7848L386.703 75.261C386.637 75.5147 386.405 75.6959 386.144 75.6959L386.152 75.6814Z" fill="white"/>
<path d="M421.572 134.13C423.968 123.86 417.585 113.593 407.316 111.197C397.047 108.802 386.781 115.185 384.385 125.455C381.99 135.725 388.373 145.992 398.642 148.388C408.911 150.783 419.177 144.4 421.572 134.13Z" fill="#75DECB"/>
<path d="M409.354 116.915H397.083V142.686H409.354V116.915Z" fill="white"/>
<path d="M416.095 135.937V123.664H390.327V135.937H416.095Z" fill="white"/>
<path d="M176.236 44.8532C178.193 32.6783 169.91 21.2225 157.736 19.2658C145.563 17.3092 134.108 25.5927 132.151 37.7676C130.195 49.9425 138.478 61.3984 150.651 63.355C162.825 65.3117 174.28 57.0281 176.236 44.8532Z" fill="#75DECB"/>
<path d="M149.234 23.2771C145.806 23.2771 143.022 26.0608 143.022 29.4897V38.3772H155.446V29.4897C155.446 26.0608 152.663 23.2771 149.234 23.2771Z" fill="#253E96"/>
<path d="M149.234 53.4699C145.806 53.4699 143.022 50.6863 143.022 47.2574V38.3699H155.446V47.2574C155.446 50.6863 152.663 53.4699 149.234 53.4699Z" fill="white"/>
<path d="M167.957 36.5359C165.58 34.0567 161.651 33.9769 159.172 36.3474L152.757 42.4947L161.354 51.4692L167.769 45.3219C170.248 42.9442 170.327 39.0151 167.957 36.5359Z" fill="#253E96"/>
<path d="M146.161 57.4353C143.783 54.956 143.87 51.027 146.349 48.6493L152.764 42.502L161.361 51.4764L154.946 57.6237C152.467 60.0015 148.538 59.9145 146.161 57.4353Z" fill="white"/>
<path d="M266.189 118.198C278.19 118.198 287.92 108.468 287.92 96.4648C287.92 84.462 278.19 74.7318 266.189 74.7318C254.187 74.7318 244.458 84.462 244.458 96.4648C244.458 108.468 254.187 118.198 266.189 118.198Z" fill="#253E96"/>
<path d="M291.027 71.3471L275.712 86.6635L275.994 86.9454L291.309 71.6291L291.027 71.3471Z" fill="#75DECB"/>
<path d="M253.8 119.002L243.651 108.853L241.068 111.436L251.216 121.585L253.8 119.002Z" fill="white"/>
<path d="M278.985 86.6092L276.033 83.6567L247.249 112.444L250.201 115.397L278.985 86.6092Z" fill="#B1A9B9"/>
<path d="M278.249 90.6755L271.975 84.4014L252.601 103.777L258.875 110.052L278.249 90.6755Z" fill="white"/>
<path d="M259.757 109.173L253.483 102.899L252.607 103.775L258.881 110.049L259.757 109.173Z" fill="#B1A9B9"/>
<path d="M260.818 111.98L250.67 101.83L248.086 104.414L258.235 114.563L260.818 111.98Z" fill="white"/>
<path d="M271.78 86.5149L271.462 86.8327L273.892 89.2624L274.209 88.9446L271.78 86.5149Z" fill="#39657D"/>
<path d="M270.911 87.3861L270.593 87.7039L272.059 89.1699L272.377 88.8521L270.911 87.3861Z" fill="#39657D"/>
<path d="M270.041 88.2538L269.723 88.5716L271.189 90.0377L271.507 89.7199L270.041 88.2538Z" fill="#39657D"/>
<path d="M269.171 89.1289L268.853 89.4467L270.319 90.9127L270.637 90.5949L269.171 89.1289Z" fill="#39657D"/>
<path d="M268.301 89.9894L267.984 90.3072L269.45 91.7732L269.767 91.4554L268.301 89.9894Z" fill="#39657D"/>
<path d="M267.414 90.8969L267.096 91.2147L269.526 93.6444L269.843 93.3266L267.414 90.8969Z" fill="#39657D"/>
<path d="M266.547 91.7629L266.229 92.0807L267.695 93.5467L268.013 93.2289L266.547 91.7629Z" fill="#39657D"/>
<path d="M265.67 92.6307L265.352 92.9485L266.818 94.4145L267.136 94.0967L265.67 92.6307Z" fill="#39657D"/>
<path d="M264.8 93.4984L264.483 93.8163L265.948 95.2823L266.266 94.9645L264.8 93.4984Z" fill="#39657D"/>
<path d="M263.931 94.3662L263.613 94.684L265.079 96.15L265.396 95.8322L263.931 94.3662Z" fill="#39657D"/>
<path d="M263.036 95.2665L262.718 95.5843L265.148 98.014L265.465 97.6962L263.036 95.2665Z" fill="#39657D"/>
<path d="M262.164 96.1304L261.846 96.4482L263.312 97.9142L263.63 97.5964L262.164 96.1304Z" fill="#39657D"/>
<path d="M261.294 97.0054L260.976 97.3232L262.442 98.7892L262.76 98.4714L261.294 97.0054Z" fill="#39657D"/>
<path d="M260.424 97.8804L260.107 98.1982L261.573 99.6642L261.89 99.3464L260.424 97.8804Z" fill="#39657D"/>
<path d="M259.555 98.7409L259.237 99.0587L260.703 100.525L261.02 100.207L259.555 98.7409Z" fill="#39657D"/>
<path d="M258.665 99.6361L258.347 99.9539L260.777 102.384L261.095 102.066L258.665 99.6361Z" fill="#39657D"/>
<path d="M257.798 100.512L257.481 100.83L258.946 102.296L259.264 101.978L257.798 100.512Z" fill="#39657D"/>
<path d="M256.928 101.387L256.611 101.705L258.077 103.171L258.394 102.853L256.928 101.387Z" fill="#39657D"/>
<path d="M256.059 102.241L255.741 102.558L257.207 104.024L257.525 103.707L256.059 102.241Z" fill="#39657D"/>
<path d="M255.189 103.123L254.871 103.441L256.337 104.907L256.655 104.589L255.189 103.123Z" fill="#39657D"/>
</g>
<defs>
<clipPath id="clip0_33552_3768">
<rect width="468" height="300" fill="white" transform="translate(0.0888672)"/>
</clipPath>
</defs>
</svg>
