<svg width="15" height="21" viewBox="0 0 15 21" fill="none" xmlns="http://www.w3.org/2000/svg">
<path d="M7.61248 20.0243C7.44478 19.8863 7.25312 19.7689 7.11378 19.6069C5.4451 17.6636 3.91332 15.6186 2.6348 13.3939C1.89213 12.101 1.24138 10.7635 0.83802 9.31843C0.233716 7.14955 0.513378 5.10203 1.76843 3.23558C2.96042 1.46162 4.64279 0.398707 6.7686 0.10166C8.84749 -0.189024 10.7225 0.34243 12.3457 1.66666C13.7768 2.83429 14.629 4.35427 14.9199 6.1894C15.1462 7.6164 14.8739 8.97342 14.3811 10.3011C13.721 12.0804 12.7764 13.71 11.7292 15.2828C10.722 16.796 9.61167 18.2318 8.42408 19.6069C8.28425 19.7689 8.0926 19.8863 7.92539 20.0248H7.61297L7.61248 20.0243ZM7.7704 10.9113C9.77252 10.9089 11.4026 9.27487 11.406 7.26748C11.4094 5.26254 9.7823 3.62658 7.77724 3.61728C5.77414 3.60799 4.12649 5.2596 4.13235 7.27042C4.13822 9.27879 5.7717 10.9133 7.77089 10.9108L7.7704 10.9113Z" fill="#253E96"/>
</svg>
