<svg width="127" height="127" viewBox="0 0 127 127" fill="none" xmlns="http://www.w3.org/2000/svg">
<g clip-path="url(#clip0_270_2187)">
<path d="M112.238 6.74552C103.44 1.29069 92.8937 0.691324 83.6015 5.23846C75.6904 9.1113 69.5331 15.6611 61.6075 19.5225C50.7694 24.8044 38.8998 27.6917 27.9577 32.7489C17.0127 37.809 6.54161 45.7391 2.61782 57.1156C-2.01675 70.5524 -0.381359 86.3549 6.69185 98.6391C18.1829 118.606 40.9831 125.694 62.9279 125.438C109.308 124.893 133.195 68.8753 125.622 28.6283C123.978 19.8942 119.95 11.5289 112.241 6.74841L112.238 6.74552Z" fill="#253E96"/>
<g opacity="0.7">
<path d="M112.238 6.74552C103.44 1.29069 92.8937 0.691324 83.6015 5.23846C75.6904 9.1113 69.5331 15.6611 61.6075 19.5225C50.7694 24.8044 38.8998 27.6917 27.9577 32.7489C17.0127 37.809 6.54161 45.7391 2.61782 57.1156C-2.01675 70.5524 -0.381359 86.3549 6.69185 98.6391C18.1829 118.606 40.9831 125.694 62.9279 125.438C109.308 124.893 133.195 68.8753 125.622 28.6283C123.978 19.8942 119.95 11.5289 112.241 6.74841L112.238 6.74552Z" fill="white"/>
</g>
<path d="M22.1066 87.9168C22.0373 87.9168 21.9766 87.8678 21.9651 87.7986L21.5143 85.3176L19.2317 85.7297C19.1537 85.7412 19.0786 85.6922 19.0641 85.6144L18.5238 82.6377C18.518 82.6003 18.5238 82.5628 18.5469 82.5311C18.57 82.4994 18.6018 82.4793 18.6394 82.4706L20.922 82.0585L20.4713 79.5775C20.4655 79.54 20.4713 79.5026 20.4944 79.4709C20.5175 79.4392 20.5493 79.419 20.5868 79.4104L23.4704 78.8888C23.508 78.883 23.5485 78.8888 23.5773 78.9119C23.6091 78.9349 23.6294 78.9666 23.638 79.0041L24.0888 81.4851L26.3714 81.073C26.4089 81.0673 26.4494 81.073 26.4783 81.0961C26.5101 81.1191 26.5303 81.1508 26.539 81.1883L27.0793 84.165C27.0851 84.2024 27.0793 84.2399 27.0562 84.2716C27.033 84.3033 27.0013 84.3235 26.9637 84.3321L24.6811 84.7442L25.1318 87.2252C25.1376 87.2627 25.1318 87.3001 25.1087 87.3318C25.0856 87.3635 25.0538 87.3837 25.0163 87.3923L22.1327 87.9139C22.1327 87.9139 22.1153 87.9139 22.1066 87.9139V87.9168ZM21.6299 85.0064C21.6992 85.0064 21.7599 85.0554 21.7715 85.1245L22.2222 87.6056L24.8227 87.1359L24.3719 84.6548C24.3661 84.6174 24.3719 84.5799 24.395 84.5482C24.4182 84.5165 24.4499 84.4964 24.4875 84.4877L26.7701 84.0756L26.2818 81.3842L23.9992 81.7963C23.9616 81.8021 23.9212 81.7963 23.8923 81.7733C23.8605 81.7502 23.8403 81.7185 23.8316 81.681L23.3809 79.2L20.7804 79.6697L21.2312 82.1507C21.2369 82.1882 21.2312 82.2257 21.2081 82.2574C21.1849 82.2891 21.1532 82.3092 21.1156 82.3179L18.833 82.7299L19.3213 85.4213L21.6039 85.0093C21.6039 85.0093 21.6212 85.0093 21.6299 85.0093V85.0064Z" fill="#253E96"/>
<path d="M46.4035 45.7364C46.3862 45.7364 46.3717 45.7364 46.3544 45.7278L43.5921 44.7538C43.517 44.7279 43.4765 44.6443 43.5025 44.5694L44.3462 42.1921L42.159 41.4227C42.0839 41.3968 42.0434 41.3132 42.0694 41.2383L43.0807 38.3855C43.0923 38.351 43.1211 38.3193 43.1558 38.3048C43.1905 38.2876 43.2309 38.2876 43.2656 38.2991L45.4529 39.0685L46.2937 36.6912C46.3052 36.6566 46.3341 36.6249 46.3688 36.6105C46.4035 36.5932 46.4439 36.5932 46.4786 36.6047L49.2409 37.5787C49.2755 37.5902 49.3073 37.619 49.3218 37.6536C49.3362 37.6882 49.3391 37.7285 49.3275 37.7631L48.4838 40.1404L50.6711 40.9098C50.7462 40.9357 50.7867 41.0193 50.7607 41.0942L49.7494 43.947C49.7378 43.9816 49.7089 44.0133 49.6743 44.0277C49.6396 44.045 49.5991 44.045 49.5645 44.0334L47.3772 43.264L46.5364 45.6413C46.5248 45.6759 46.4959 45.7076 46.4613 45.722C46.441 45.7307 46.4208 45.7364 46.3977 45.7364H46.4035ZM43.8233 44.5319L46.3139 45.4108L47.1547 43.0335C47.1663 42.9989 47.1952 42.9672 47.2299 42.9528C47.2645 42.9355 47.305 42.9355 47.3396 42.9471L49.5269 43.7165L50.44 41.1374L48.2527 40.3681C48.218 40.3565 48.1862 40.3277 48.1718 40.2931C48.1573 40.2586 48.1545 40.2182 48.166 40.1836L49.0097 37.8063L46.5191 36.9275L45.6782 39.3048C45.6667 39.3393 45.6378 39.371 45.6031 39.3854C45.5685 39.4027 45.528 39.4027 45.4933 39.3912L43.3061 38.6218L42.393 41.2008L44.5803 41.9702C44.6554 41.9962 44.6959 42.0797 44.6699 42.1546L43.8262 44.5319H43.8233Z" fill="#253E96"/>
<path d="M107.196 78.7648C107.144 78.7648 107.095 78.7359 107.069 78.687L105.884 76.4566L103.833 77.5401C103.798 77.5574 103.761 77.5631 103.723 77.5516C103.685 77.5401 103.657 77.5142 103.639 77.4825L102.22 74.8083C102.183 74.7392 102.209 74.6499 102.281 74.6124L104.333 73.5289L103.151 71.3015C103.113 71.2323 103.139 71.143 103.212 71.1055L105.803 69.7368C105.838 69.7195 105.876 69.7137 105.913 69.7252C105.951 69.7368 105.98 69.7627 105.997 69.7944L107.179 72.0247L109.23 70.9413C109.265 70.924 109.302 70.9182 109.34 70.9297C109.378 70.9413 109.406 70.9672 109.424 70.9989L110.842 73.673C110.88 73.7422 110.854 73.8315 110.782 73.8689L108.73 74.9524L109.912 77.1799C109.95 77.249 109.924 77.3384 109.851 77.3758L107.262 78.7446C107.239 78.7561 107.216 78.7619 107.196 78.7619V78.7648ZM105.945 76.1223C105.997 76.1223 106.046 76.1512 106.072 76.2001L107.257 78.4305L109.591 77.1972L108.41 74.9697C108.372 74.9006 108.398 74.8112 108.47 74.7738L110.522 73.6903L109.239 71.2726L107.187 72.3561C107.153 72.3734 107.115 72.3792 107.078 72.3676C107.04 72.3561 107.011 72.3302 106.994 72.2985L105.812 70.0681L103.477 71.3015L104.659 73.5289C104.697 73.5981 104.671 73.6874 104.598 73.7249L102.547 74.8083L103.83 77.226L105.881 76.1425C105.904 76.131 105.928 76.1252 105.948 76.1252L105.945 76.1223Z" fill="#253E96"/>
<path d="M16.2614 75.1111C15.2068 75.1111 14.3486 74.2553 14.3486 73.2035C14.3486 72.1517 15.2068 71.2959 16.2614 71.2959C17.316 71.2959 18.1742 72.1517 18.1742 73.2035C18.1742 74.2553 17.316 75.1111 16.2614 75.1111ZM16.2614 71.5841C15.3657 71.5841 14.6376 72.3102 14.6376 73.2035C14.6376 74.0968 15.3657 74.823 16.2614 74.823C17.1571 74.823 17.8852 74.0968 17.8852 73.2035C17.8852 72.3102 17.1571 71.5841 16.2614 71.5841Z" fill="#253E96"/>
<path d="M43.3379 50.2374C42.9998 50.2374 42.7253 49.9637 42.7253 49.6265C42.7253 49.2894 42.9998 49.0156 43.3379 49.0156C43.676 49.0156 43.9504 49.2894 43.9504 49.6265C43.9504 49.9637 43.676 50.2374 43.3379 50.2374ZM43.3379 49.3038C43.1588 49.3038 43.0143 49.4479 43.0143 49.6265C43.0143 49.8052 43.1588 49.9493 43.3379 49.9493C43.517 49.9493 43.6615 49.8052 43.6615 49.6265C43.6615 49.4479 43.517 49.3038 43.3379 49.3038Z" fill="#253E96"/>
<path d="M20.7342 43.4109C19.7432 43.4109 18.937 42.6069 18.937 41.6185C18.937 40.6301 19.7432 39.8262 20.7342 39.8262C21.7253 39.8262 22.5314 40.6301 22.5314 41.6185C22.5314 42.6069 21.7253 43.4109 20.7342 43.4109ZM20.7342 40.1114C19.9021 40.1114 19.226 40.7857 19.226 41.6156C19.226 42.4455 19.9021 43.1198 20.7342 43.1198C21.5664 43.1198 22.2425 42.4455 22.2425 41.6156C22.2425 40.7857 21.5664 40.1114 20.7342 40.1114Z" fill="#253E96"/>
<path d="M94.2747 65.0226C93.6795 65.0226 93.1941 64.5385 93.1941 63.9449C93.1941 63.3513 93.6795 62.8672 94.2747 62.8672C94.8699 62.8672 95.3553 63.3513 95.3553 63.9449C95.3553 64.5385 94.8699 65.0226 94.2747 65.0226ZM94.2747 63.1553C93.8384 63.1553 93.483 63.5098 93.483 63.9449C93.483 64.38 93.8384 64.7345 94.2747 64.7345C94.711 64.7345 95.0664 64.38 95.0664 63.9449C95.0664 63.5098 94.711 63.1553 94.2747 63.1553Z" fill="#253E96"/>
<path d="M85.7454 35.6305C84.5116 35.6305 83.5061 34.6277 83.5061 33.3973C83.5061 32.1669 84.5116 31.1641 85.7454 31.1641C86.9791 31.1641 87.9846 32.1669 87.9846 33.3973C87.9846 34.6277 86.9791 35.6305 85.7454 35.6305ZM85.7454 31.4551C84.6705 31.4551 83.795 32.3282 83.795 33.4002C83.795 34.4721 84.6705 35.3452 85.7454 35.3452C86.8202 35.3452 87.6957 34.4721 87.6957 33.4002C87.6957 32.3282 86.8202 31.4551 85.7454 31.4551Z" fill="#253E96"/>
<path d="M72.8474 52.1767C72.9601 52.3438 76.2742 53.0008 77.9905 55.4934C79.7068 57.986 80.4927 60.078 80.4927 60.078C80.4927 60.078 83.3676 61.7839 84.8412 63.1901C86.3148 64.5963 88.0716 66.4636 89.4267 67.4433C90.7818 68.4231 93.5672 70.2817 94.2722 72.4573C94.2722 72.4573 90.0912 83.8741 88.9095 86.3984C87.7277 88.9226 84.8094 94.2795 84.8094 94.2795L79.6201 116.315H49.4405L48.4119 108.757C48.4119 108.757 39.1774 106.947 35.3027 103.575C35.3027 103.575 34.9387 95.2218 36.5538 87.7614C38.1719 80.3009 43.6617 64.8096 47.3832 60.0751C47.3832 60.0751 53.3267 57.2396 58.5709 56.3175C58.5709 56.3175 61.9746 53.6348 64.2052 53.3495C66.4358 53.0614 72.8445 52.1738 72.8445 52.1738L72.8474 52.1767Z" fill="white"/>
<path d="M48.8249 112.168C51.5034 112.678 53.838 113.119 56.5627 113.088C59.2874 113.056 62.0756 112.445 64.3091 110.886C64.7685 110.566 65.2135 110.2 65.7538 110.05C66.9385 109.719 68.1116 110.5 69.2875 110.863C70.7785 111.324 72.4139 111.105 73.8759 110.552C75.335 109.999 76.6526 109.134 77.9557 108.278C77.7621 110.929 77.6985 113.589 77.7708 116.246L79.6286 116.321L84.3875 95.438C84.3875 95.438 76.2481 104.869 72.2781 107.682L64.6703 105.728C64.6703 105.728 63.9508 106.322 62.4455 106.621C62.4455 106.621 61.7549 109.27 57.8716 109.275C53.9883 109.281 48.4204 108.762 48.4204 108.762L48.8278 112.168H48.8249Z" fill="#253E96"/>
<g opacity="0.5">
<path d="M48.8249 112.168C51.5034 112.678 53.838 113.119 56.5627 113.088C59.2874 113.056 62.0756 112.445 64.3091 110.886C64.7685 110.566 65.2135 110.2 65.7538 110.05C66.9385 109.719 68.1116 110.5 69.2875 110.863C70.7785 111.324 72.4139 111.105 73.8759 110.552C75.335 109.999 76.6526 109.134 77.9557 108.278C77.7621 110.929 77.6985 113.589 77.7708 116.246L79.6286 116.321L84.3875 95.438C84.3875 95.438 76.2481 104.869 72.2781 107.682L64.6703 105.728C64.6703 105.728 63.9508 106.322 62.4455 106.621C62.4455 106.621 61.7549 109.27 57.8716 109.275C53.9883 109.281 48.4204 108.762 48.4204 108.762L48.8278 112.168H48.8249Z" fill="white"/>
</g>
<path d="M41.0264 73.2036C41.0264 73.2036 37.484 90.3116 37.6718 96.1871C37.6718 96.1871 42.4711 94.8443 45.8228 96.1871C45.8228 96.1871 40.1191 95.5532 37.6631 98.161C35.2072 100.769 42.7658 107.621 57.8917 106.229C57.8917 106.229 60.9082 107.175 62.4396 106.621C62.4396 106.621 62.0293 109.344 57.8657 109.275C53.7195 109.111 41.5869 109.01 35.3054 103.581C35.3054 103.581 34.5166 87.8507 41.0264 73.2036Z" fill="#253E96"/>
<g opacity="0.6">
<path d="M41.0264 73.2036C41.0264 73.2036 37.484 90.3116 37.6718 96.1871C37.6718 96.1871 42.4711 94.8443 45.8228 96.1871C45.8228 96.1871 40.1191 95.5532 37.6631 98.161C35.2072 100.769 42.7658 107.621 57.8917 106.229C57.8917 106.229 60.9082 107.175 62.4396 106.621C62.4396 106.621 62.0293 109.344 57.8657 109.275C53.7195 109.111 41.5869 109.01 35.3054 103.581C35.3054 103.581 34.5166 87.8507 41.0264 73.2036Z" fill="white"/>
</g>
<path d="M48.25 76.4829C48.25 76.4829 49.296 84.0586 50.9776 85.6434C52.6592 87.2283 60.5212 86.7125 63.6244 88.4184C63.6244 88.4184 66.5485 83.3641 71.8418 80.1973L64.6646 91.47L58.4611 90.0062L50.888 88.8391L50.2523 90.2972L49.1139 90.2886C49.1139 90.2886 48.9868 82.2288 48.25 76.4829Z" fill="#253E96"/>
<g opacity="0.5">
<path d="M48.25 76.4829C48.25 76.4829 49.296 84.0586 50.9776 85.6434C52.6592 87.2283 60.5212 86.7125 63.6244 88.4184C63.6244 88.4184 66.5485 83.3641 71.8418 80.1973L64.6646 91.47L58.4611 90.0062L50.888 88.8391L50.2523 90.2972L49.1139 90.2886C49.1139 90.2886 48.9868 82.2288 48.25 76.4829Z" fill="white"/>
</g>
<path d="M77.924 61.0489C81.1687 62.9536 81.5299 65.1004 82.2002 66.6334C80.5128 66.9677 78.7677 67.325 77.3721 68.3307C75.6269 69.5899 74.6994 71.6675 73.9713 73.6875C73.2836 75.598 72.7057 77.5488 72.2434 79.5256C73.8008 76.7132 76.0516 74.284 78.7388 72.5147C80.299 71.4889 82.2234 70.6619 83.9974 71.241C82.5065 71.8692 80.822 72.7251 80.5071 74.3071C80.4551 74.5722 80.4464 74.8517 80.536 75.1024C80.8018 75.8487 81.7351 76.0504 82.4401 76.4135C83.8154 77.1195 84.5291 78.7303 84.5927 80.2719C84.6562 81.8136 84.1766 83.3178 83.7056 84.7874C83.2924 86.0725 82.8792 87.3577 82.4661 88.64C81.9373 90.2825 81.397 91.9481 80.4435 93.3889C79.49 94.8297 78.0511 96.037 76.3435 96.3223C75.6298 96.4405 74.8757 96.3915 74.2227 96.0832C73.7055 95.8382 73.2749 95.4492 72.83 95.089C70.7958 93.4465 68.3023 92.3717 65.7076 92.023C69.0651 94.2361 70.6543 98.253 72.0469 102.019C71.4113 100.91 70.4809 99.9704 69.3743 99.3221C69.0767 99.1492 68.7473 98.9907 68.4005 99.0166C67.4904 99.0886 67.2014 100.247 66.6496 100.976C65.9937 101.843 64.7888 102.149 63.7053 102.013C62.6247 101.878 61.6307 101.371 60.6599 100.872C56.5656 98.7659 52.4714 96.6595 48.3742 94.553L47.4958 97.1465C47.4958 97.1465 57.2793 104.924 72.2694 107.679C72.2694 107.679 82.0095 100.005 85.4566 93.2016C88.9065 86.3982 94.2663 72.4571 94.2663 72.4571C94.2663 72.4571 92.3044 68.7514 88.9383 66.8149C88.9383 66.8149 86.4274 65.6306 85.8987 64.1668C85.3699 62.7029 80.6515 60.1758 80.6515 60.1758C80.6515 60.1758 81.2699 61.7232 77.9153 61.046L77.924 61.0489Z" fill="#253E96"/>
<g opacity="0.6">
<path d="M77.924 61.0489C81.1687 62.9536 81.5299 65.1004 82.2002 66.6334C80.5128 66.9677 78.7677 67.325 77.3721 68.3307C75.6269 69.5899 74.6994 71.6675 73.9713 73.6875C73.2836 75.598 72.7057 77.5488 72.2434 79.5256C73.8008 76.7132 76.0516 74.284 78.7388 72.5147C80.299 71.4889 82.2234 70.6619 83.9974 71.241C82.5065 71.8692 80.822 72.7251 80.5071 74.3071C80.4551 74.5722 80.4464 74.8517 80.536 75.1024C80.8018 75.8487 81.7351 76.0504 82.4401 76.4135C83.8154 77.1195 84.5291 78.7303 84.5927 80.2719C84.6562 81.8136 84.1766 83.3178 83.7056 84.7874C83.2924 86.0725 82.8792 87.3577 82.4661 88.64C81.9373 90.2825 81.397 91.9481 80.4435 93.3889C79.49 94.8297 78.0511 96.037 76.3435 96.3223C75.6298 96.4405 74.8757 96.3915 74.2227 96.0832C73.7055 95.8382 73.2749 95.4492 72.83 95.089C70.7958 93.4465 68.3023 92.3717 65.7076 92.023C69.0651 94.2361 70.6543 98.253 72.0469 102.019C71.4113 100.91 70.4809 99.9704 69.3743 99.3221C69.0767 99.1492 68.7473 98.9907 68.4005 99.0166C67.4904 99.0886 67.2014 100.247 66.6496 100.976C65.9937 101.843 64.7888 102.149 63.7053 102.013C62.6247 101.878 61.6307 101.371 60.6599 100.872C56.5656 98.7659 52.4714 96.6595 48.3742 94.553L47.4958 97.1465C47.4958 97.1465 57.2793 104.924 72.2694 107.679C72.2694 107.679 82.0095 100.005 85.4566 93.2016C88.9065 86.3982 94.2663 72.4571 94.2663 72.4571C94.2663 72.4571 92.3044 68.7514 88.9383 66.8149C88.9383 66.8149 86.4274 65.6306 85.8987 64.1668C85.3699 62.7029 80.6515 60.1758 80.6515 60.1758C80.6515 60.1758 81.2699 61.7232 77.9153 61.046L77.924 61.0489Z" fill="white"/>
</g>
<path d="M76.8923 34.527C76.8923 34.527 77.5482 26.8994 74.2514 26.1646C70.9547 25.4298 69.1026 22.4243 69.1026 22.4243L57.4063 25.6805L55.5918 32.6943L56.7591 36.2473C56.7591 36.2473 57.0018 39.538 57.0567 41.169C57.1116 42.7971 57.0625 44.0621 58.2963 46.0273C59.53 47.9926 60.68 49.9665 63.3527 51.6752V56.1676C63.3527 56.1676 61.7 60.977 62.613 63.9277C62.613 63.9277 63.1591 64.5012 64.6702 63.6367C66.1814 62.7722 72.6305 58.4729 74.8813 53.9834L75.5806 42.5694C75.5806 42.5694 77.4384 42.8547 78.2388 41.169C79.4119 39.5179 79.3656 37.5901 78.912 36.0225C78.4584 34.4549 76.4907 35.4721 76.4907 35.4721L76.8952 34.5298L76.8923 34.527Z" fill="#999999"/>
<path d="M63.4597 45.7101C63.4597 45.7101 64.3929 44.5633 66.0803 44.667C66.0803 44.667 67.4875 42.4511 68.9668 42.8574C68.9668 42.8574 69.4234 45.2059 67.6464 46.128C65.3378 47.3296 63.4568 45.7072 63.4568 45.7072L63.4597 45.7101Z" fill="#737373"/>
<path d="M66.7159 52.7182C65.4504 52.7182 64.2108 52.3782 63.1129 51.6952C59.8103 49.6378 56.7273 44.6757 56.892 41.6817C56.9874 39.9384 56.8313 38.3045 56.6493 36.4113C56.5251 35.1088 56.3979 33.766 56.3315 32.21C56.1726 28.3746 58.9695 24.6602 58.9984 24.6228C59.0475 24.5594 59.1371 24.5479 59.2006 24.594C59.2642 24.6429 59.2758 24.7323 59.2295 24.7957C59.2006 24.8331 56.4644 28.4668 56.6204 32.1956C56.684 33.743 56.814 35.0858 56.9382 36.3825C57.1203 38.2872 57.2763 39.9326 57.181 41.6961C57.0249 44.5518 60.0992 49.4764 63.2689 51.4503C65.5226 52.8565 68.4178 52.7412 70.8246 51.1506C73.0812 49.658 74.7195 46.8426 75.3147 43.428C75.3667 43.1341 75.4072 42.8401 75.4361 42.552C75.4447 42.4742 75.5141 42.4165 75.595 42.4223C75.673 42.4309 75.7308 42.5001 75.725 42.5808C75.6961 42.8776 75.6528 43.1773 75.6008 43.477C74.9911 46.9694 73.3066 49.8539 70.9835 51.3898C69.6486 52.2715 68.1664 52.7182 66.7188 52.7182H66.7159Z" fill="#263238"/>
<path d="M63.0436 64.3166C63.0436 64.3166 63.0205 64.3166 63.0089 64.3166C62.6536 64.3051 62.5235 64.1207 62.4744 63.9708C61.9283 62.2736 62.5524 58.637 63.0523 57.0781C63.4915 55.7064 63.0523 51.6319 63.0465 51.5915C63.0378 51.5137 63.0956 51.4417 63.1736 51.4331C63.2545 51.4244 63.3239 51.482 63.3326 51.5599C63.3499 51.7299 63.7862 55.7381 63.3268 57.1674C62.85 58.6514 62.2317 62.2678 62.7489 63.8844C62.7605 63.9218 62.7922 64.0227 63.0205 64.0313C63.0321 64.0313 63.0436 64.0313 63.0552 64.0313C65.0257 64.0313 73.0091 58.1817 74.737 53.9544C74.7543 53.3119 75.0172 44.7449 75.6587 42.5002C75.6818 42.4224 75.7598 42.3791 75.8378 42.4022C75.9158 42.4252 75.9592 42.503 75.9361 42.5808C75.2917 44.8285 75.0259 53.8997 75.023 53.989C75.023 54.0063 75.0201 54.0236 75.0114 54.038C73.272 58.3431 65.0691 64.3195 63.0436 64.3195V64.3166Z" fill="#263238"/>
<path d="M64.2716 45.9036C63.4684 45.9036 62.905 45.7538 62.8905 45.748C62.8125 45.7279 62.7691 45.6472 62.7894 45.5694C62.8125 45.4945 62.8905 45.4483 62.9685 45.4685C63.1448 45.5175 67.3402 46.6384 69.0998 42.2094C69.1287 42.1345 69.2125 42.0999 69.2876 42.1288C69.3627 42.1576 69.3974 42.2411 69.3685 42.3161C68.155 45.3677 65.7828 45.9008 64.2716 45.9008V45.9036Z" fill="#263238"/>
<path d="M63.2805 52.5687C63.2805 52.5687 64.234 55.5165 66.2912 55.6923C68.3485 55.8681 73.4916 51.7561 75.2368 46.9121V44.4858C75.2368 44.4858 73.7863 50.8138 69.5591 51.9837C65.3319 53.1536 63.3498 51.6696 63.3498 51.6696L63.2776 52.5658L63.2805 52.5687Z" fill="#263238"/>
<path d="M65.8146 46.7478C64.2919 46.7478 63.3673 45.8228 63.3557 45.8113C63.3066 45.7594 63.3008 45.6816 63.3441 45.624C63.3846 45.5721 64.3092 44.3589 65.9995 44.5145C66.2162 44.1169 67.1697 42.5896 68.9784 42.7164C69.0449 42.7222 69.0998 42.7712 69.1114 42.8375C69.1171 42.8663 69.5159 45.696 67.1755 46.5086C66.6814 46.6786 66.2277 46.7478 65.8146 46.7478ZM63.6591 45.696C64.0029 45.9899 65.2367 46.8746 67.0801 46.2348C68.9409 45.5894 68.8831 43.5089 68.8397 42.9931C67.0657 42.9498 66.248 44.65 66.2162 44.7249C66.1902 44.7825 66.1324 44.8142 66.0688 44.8085C64.7426 44.6471 63.9162 45.4136 63.662 45.696H63.6591Z" fill="#263238"/>
<path d="M63.4076 42.2869C63.2921 42.2869 63.1765 42.2725 63.0696 42.2437C62.8471 42.1774 62.6766 42.0449 62.5668 41.8432C62.1536 41.0882 62.5928 40.0307 62.8818 39.3304L62.928 39.2152C62.98 39.0884 63.0349 38.9587 63.0898 38.8319C63.3556 38.2009 63.633 37.5496 63.7197 36.8897C63.8382 35.9936 63.8468 35.0542 63.8382 34.1724C63.8382 34.0917 63.9017 34.0283 63.9826 34.0283C64.0606 34.0283 64.1271 34.0917 64.1271 34.1724C64.1358 35.0657 64.1271 36.0166 64.0057 36.933C63.9133 37.6332 63.6301 38.3017 63.3556 38.9501C63.3007 39.0768 63.2487 39.2036 63.1967 39.3304L63.1505 39.4457C62.8644 40.1344 62.4744 41.0767 62.8211 41.7106C62.8933 41.8432 63.0002 41.9296 63.1505 41.9728C63.7081 42.1342 64.5894 41.6587 64.5981 41.653C64.6674 41.6155 64.7541 41.6415 64.7945 41.7106C64.8321 41.7798 64.8061 41.8691 64.7368 41.9066C64.7021 41.9239 64.0231 42.2927 63.4076 42.2927V42.2869Z" fill="#263238"/>
<path d="M65.8983 41.7627C65.7972 41.7627 65.6932 41.7541 65.5805 41.7397C65.5025 41.7281 65.4476 41.6561 65.4562 41.5783C65.4678 41.5005 65.5429 41.4429 65.618 41.4544C66.3288 41.5524 66.7391 41.2959 66.8374 40.6908C66.8489 40.613 66.9269 40.5582 67.002 40.5726C67.0801 40.5841 67.135 40.6591 67.1205 40.7369C67.0107 41.4054 66.5802 41.7627 65.8954 41.7627H65.8983Z" fill="#263238"/>
<path d="M70.9258 33.3543C70.8593 33.3543 70.7929 33.3313 70.738 33.2852C69.013 31.804 67.5221 33.2131 67.4585 33.2736C67.3429 33.3831 67.1609 33.3831 67.0511 33.2679C66.9384 33.1555 66.9413 32.974 67.054 32.8616C67.0742 32.8443 68.9841 31.0174 71.1136 32.85C71.2349 32.9538 71.2494 33.1353 71.1454 33.2564C71.0876 33.3226 71.0067 33.3572 70.9258 33.3572V33.3543Z" fill="#263238"/>
<path d="M61.4199 34.0746C61.3332 34.0746 61.2494 34.0371 61.1916 33.9651C61.1801 33.9536 60.6946 33.3513 59.9781 33.3052C59.4898 33.2764 58.9899 33.5069 58.4929 33.9939C58.3802 34.1063 58.1953 34.1034 58.0855 33.991C57.9728 33.8786 57.9757 33.6942 58.0884 33.5847C58.7096 32.9767 59.3597 32.6885 60.0214 32.7318C61.0038 32.798 61.6221 33.579 61.6481 33.6135C61.7464 33.7403 61.7233 33.919 61.5961 34.017C61.5441 34.0573 61.4806 34.0775 61.4199 34.0775V34.0746Z" fill="#263238"/>
<path d="M76.4907 42.6816C76.1295 42.6816 75.7048 42.5951 75.1963 42.3992C75.1211 42.3704 75.0836 42.2868 75.1125 42.2119C75.1414 42.137 75.2252 42.1024 75.3003 42.1283C77.3575 42.9236 77.8372 41.7796 78.4439 40.3302C78.5191 40.1515 78.5971 39.9671 78.678 39.7856C79.1778 38.6618 79.2674 37.2354 78.8918 36.319C78.7011 35.8522 78.4064 35.5353 78.0192 35.3825C76.1584 34.6477 74.6588 38.1719 74.6444 38.2094C74.6126 38.2814 74.5288 38.316 74.4566 38.2872C74.3843 38.2555 74.3468 38.1719 74.3786 38.0999C74.445 37.9443 76.0024 34.276 78.129 35.1174C78.5855 35.299 78.9409 35.6765 79.1605 36.2124C79.5708 37.2123 79.4812 38.6963 78.9438 39.9037C78.8629 40.0824 78.7878 40.2639 78.7126 40.4426C78.233 41.5866 77.7736 42.6816 76.4907 42.6816Z" fill="#263238"/>
<path d="M74.786 37.5872C74.786 37.5872 73.3008 37.0627 73.0263 34.6595C72.7519 32.2563 74.2312 29.8501 73.6851 28.1039C73.1361 26.3548 68.8107 27.2308 67.8226 24.2253C67.8226 24.2253 64.5749 26.6401 58.2934 26.1214C58.2934 26.1214 56.9643 28.3748 56.7331 29.7522C56.5106 31.0863 56.3546 33.9333 56.7562 36.2472C56.7678 36.3222 56.7822 36.3942 56.7967 36.4662C57.2503 38.8147 55.0024 33.2735 55.0573 30.9077C55.1122 28.5419 53.6877 25.5364 55.5513 23.2974C57.415 21.0584 64.2542 19.7473 65.6006 18.7071C66.9471 17.6697 69.5764 20.4562 72.59 21.4936C75.6037 22.5309 78.1232 23.7556 77.7389 28.0347C77.3546 32.3139 77.762 32.8873 77.7765 35.1407C77.7765 35.1407 76.378 34.6163 74.786 37.5901V37.5872Z" fill="#263238"/>
<path d="M69.0911 36.1924C69.0911 36.7744 68.8686 37.247 68.5941 37.247C68.3197 37.247 68.0972 36.7744 68.0972 36.1924C68.0972 35.6103 68.3197 35.1377 68.5941 35.1377C68.8686 35.1377 69.0911 35.6103 69.0911 36.1924Z" fill="#263238"/>
<path d="M61.4197 36.1924C61.4197 36.7744 61.1972 37.247 60.9228 37.247C60.6483 37.247 60.4258 36.7744 60.4258 36.1924C60.4258 35.6103 60.6483 35.1377 60.9228 35.1377C61.1972 35.1377 61.4197 35.6103 61.4197 36.1924Z" fill="#263238"/>
<path d="M69.5966 38.9821C69.5966 38.9821 69.5851 38.9821 69.5793 38.9821C68.2357 38.8207 67.1956 37.7344 67.1522 37.6883C67.0973 37.6306 67.1002 37.5384 67.158 37.4837C67.2158 37.4289 67.3083 37.4318 67.3631 37.4894C67.3718 37.5009 68.3744 38.547 69.614 38.6939C69.692 38.7026 69.7498 38.7746 69.7411 38.8553C69.7324 38.9273 69.6689 38.9821 69.5966 38.9821Z" fill="#263238"/>
<path d="M60.2264 38.9821C60.1513 38.9821 60.0877 38.9244 60.0819 38.8495C60.0761 38.7688 60.1368 38.7026 60.2148 38.6968C60.2322 38.6968 62.0149 38.5556 62.405 37.5384C62.4339 37.4635 62.5177 37.4289 62.5928 37.4548C62.6679 37.4837 62.7055 37.5672 62.6766 37.6421C62.2172 38.8293 60.316 38.9792 60.2351 38.985C60.2322 38.985 60.2293 38.985 60.2235 38.985L60.2264 38.9821Z" fill="#263238"/>
<path d="M73.4395 66.4752C73.35 66.4752 73.2517 66.4608 73.1448 66.432C72.7577 66.3311 72.356 66.1899 71.8417 65.9709C71.4372 65.8009 71.0385 65.6079 70.6513 65.4206C70.2294 65.2189 69.796 65.0085 69.3568 64.8298C68.0277 64.2823 66.1381 63.8242 64.6876 64.7434C64.6183 64.7866 64.5316 64.7664 64.4882 64.7002C64.4449 64.6339 64.4651 64.5446 64.5316 64.5013C66.0861 63.5158 68.074 63.9913 69.4638 64.5647C69.9087 64.7463 70.3479 64.9595 70.7726 65.1641C71.1569 65.3485 71.5528 65.5387 71.9515 65.7087C72.4514 65.9191 72.8414 66.0574 73.2142 66.1554C73.4164 66.2072 73.5609 66.1986 73.6418 66.1237C73.8383 65.945 73.7516 65.3773 73.6938 64.9999C73.6765 64.8846 73.6591 64.7809 73.6505 64.6915C73.6158 64.3659 73.5869 64.0403 73.558 63.7147C73.5118 63.2104 73.4627 62.6888 73.402 62.1817C73.3818 62.0174 73.3529 61.7725 73.4829 61.5737C73.5956 61.4008 73.7834 61.323 73.9712 61.2624C75.4621 60.7899 77.0542 60.8619 78.5913 60.9282C78.9987 60.9455 79.4032 60.9628 79.8077 60.9714C79.9696 60.9743 80.1256 60.9714 80.2325 60.9022C80.4521 60.7582 80.4174 60.3922 80.351 60.1098C79.7124 57.3954 77.4991 54.5801 74.838 53.0989C74.7687 53.0615 74.7427 52.9721 74.7831 52.903C74.8207 52.8338 74.9102 52.8079 74.9796 52.8482C77.7072 54.3639 79.9782 57.257 80.6312 60.0435C80.7901 60.7178 80.5879 61.0146 80.3914 61.1443C80.2152 61.2596 80.0013 61.2653 79.802 61.2624C79.3946 61.2538 78.9872 61.2365 78.5769 61.2192C77.0628 61.1529 75.4968 61.0809 74.055 61.5391C73.9278 61.5794 73.7863 61.6313 73.7198 61.7321C73.6534 61.833 73.6649 61.9886 73.6851 62.1471C73.7458 62.66 73.7949 63.1845 73.8412 63.6887C73.8701 64.0144 73.9018 64.3371 73.9336 64.6627C73.9423 64.7463 73.9567 64.8471 73.9741 64.9566C74.0492 65.4465 74.1446 66.0545 73.8325 66.3369C73.7314 66.4291 73.5956 66.4752 73.4338 66.4752H73.4395Z" fill="#263238"/>
<path d="M61.5728 64.0891C61.5121 64.0891 61.4544 64.0516 61.4341 63.9883C61.2926 63.5445 60.7782 63.3053 60.3275 63.095C59.5734 62.7463 59.2006 62.3458 59.166 61.8645C59.1255 61.3084 59.5358 60.9309 59.9317 60.5621C60.0819 60.4209 60.2408 60.2768 60.3622 60.1269C60.4402 60.0318 60.4806 59.9627 60.4922 59.8935C60.5066 59.8157 60.4922 59.7235 60.4431 59.6169C60.2466 59.1789 59.7496 58.9484 59.2671 58.7236L59.1313 58.6602C58.8712 58.5363 58.6459 58.3951 58.4638 58.2424C58.1229 57.9485 57.9495 57.6257 57.9524 57.2742C57.9553 56.8477 58.224 56.4904 58.461 56.2253C58.7788 55.868 59.1544 55.5308 59.5791 55.2196C60.7089 54.3839 62.0814 53.8134 63.2891 53.3091C63.3614 53.2774 63.448 53.312 63.4769 53.3869C63.5087 53.459 63.474 53.5454 63.3989 53.5742C62.2056 54.0727 60.8505 54.6346 59.7496 55.4501C59.3422 55.7498 58.981 56.0754 58.6777 56.4155C58.4783 56.6431 58.2471 56.9457 58.2443 57.2742C58.2443 57.5335 58.3801 57.7842 58.6545 58.0205C58.8164 58.1588 59.0215 58.2856 59.2584 58.398L59.3913 58.4614C59.8941 58.6948 60.4662 58.9599 60.7089 59.4987C60.7811 59.6601 60.8014 59.81 60.7754 59.9454C60.7493 60.0981 60.6569 60.222 60.5818 60.3114C60.4489 60.4727 60.2842 60.6255 60.1252 60.7724C59.7641 61.1067 59.4202 61.4236 59.4491 61.8415C59.4751 62.2103 59.793 62.5302 60.4228 62.8212C60.9516 63.069 61.5237 63.337 61.7057 63.8989C61.7289 63.9738 61.6884 64.0545 61.6133 64.0805C61.5988 64.0862 61.5844 64.0862 61.5699 64.0862L61.5728 64.0891Z" fill="#263238"/>
<path d="M55.8087 26.5683C55.8087 26.5683 55.7942 26.5683 55.7856 26.5683C55.7076 26.5567 55.6527 26.4818 55.6671 26.404C55.8694 25.1476 57.1551 24.3927 58.3427 24.1996C59.0043 24.093 59.6805 24.1074 60.3335 24.1218C60.842 24.1333 61.3679 24.1449 61.8764 24.0987C63.7949 23.923 65.5979 22.877 66.6988 21.3036C66.745 21.2373 66.8346 21.2229 66.901 21.269C66.9675 21.3151 66.9819 21.4045 66.9357 21.4707C65.7857 23.1132 63.9019 24.2025 61.9024 24.3869C61.3765 24.4359 60.842 24.4244 60.3248 24.41C59.6834 24.3955 59.0217 24.3811 58.386 24.4849C57.3025 24.6607 56.1294 25.3378 55.9503 26.4501C55.9387 26.5222 55.878 26.5711 55.8087 26.5711V26.5683Z" fill="white"/>
<path d="M57.1232 23.3261C57.074 23.3261 57.0249 23.3001 56.9989 23.254C56.9585 23.1849 56.9816 23.0984 57.0509 23.0552C58.1171 22.427 59.3942 22.4299 60.628 22.4328C61.9138 22.4357 63.1331 22.4357 64.1357 21.7902C64.7222 21.4127 65.1643 20.8479 65.589 20.3004C65.6382 20.237 65.7277 20.2255 65.7913 20.2745C65.8549 20.3235 65.8664 20.4128 65.8173 20.4762C65.3955 21.015 64.9187 21.6288 64.2917 22.0322C63.2169 22.7238 61.8993 22.7238 60.6251 22.7209C59.4289 22.7209 58.1922 22.7181 57.1954 23.303C57.1723 23.3174 57.1463 23.3232 57.1232 23.3232V23.3261Z" fill="white"/>
<path d="M64.6675 91.6113C64.6414 91.6113 64.6154 91.6026 64.5894 91.5882C64.523 91.545 64.5028 91.4556 64.5461 91.3894L73.4454 77.4108C73.4656 77.3676 76.3492 71.8292 83.853 70.3394C83.9281 70.325 84.0061 70.374 84.0234 70.4518C84.0379 70.5296 83.9888 70.6045 83.9108 70.6218C76.5486 72.0828 73.7257 77.5002 73.6968 77.5549L64.7888 91.545C64.7628 91.5882 64.7137 91.6113 64.6675 91.6113Z" fill="#263238"/>
<path d="M77.5281 69.1087C77.4876 69.1087 77.45 69.0943 77.4212 69.0626C77.3663 69.005 77.372 68.9127 77.4298 68.858C78.1002 68.2471 78.8167 67.7601 79.5593 67.4086C79.6315 67.374 79.7182 67.4057 79.7529 67.4777C79.7876 67.5498 79.7558 67.6362 79.6835 67.6708C78.967 68.0079 78.2735 68.4805 77.6263 69.0712C77.5974 69.0972 77.5627 69.1087 77.5281 69.1087Z" fill="#263238"/>
<path d="M72.2751 79.661C72.2751 79.661 72.2578 79.661 72.2491 79.661C72.1711 79.6466 72.1191 79.5717 72.1335 79.4939C72.1422 79.442 73.1217 74.3704 75.829 70.6676C75.8753 70.6042 75.9677 70.5898 76.0313 70.6359C76.0949 70.682 76.1093 70.7742 76.0631 70.8376C73.3933 74.4886 72.4253 79.4968 72.4167 79.5457C72.4051 79.6149 72.3444 79.6639 72.2751 79.6639V79.661Z" fill="#263238"/>
<path d="M49.1139 90.4294C49.0359 90.4294 48.9723 90.366 48.9694 90.2882C48.9665 90.1326 48.5649 74.8314 47.2589 72.529C47.2185 72.4599 47.2445 72.3705 47.3138 72.3331C47.3832 72.2927 47.4727 72.3187 47.5103 72.3878C48.851 74.7536 49.241 89.6485 49.2584 90.2825C49.2584 90.3631 49.1977 90.4294 49.1168 90.4294H49.1139Z" fill="#263238"/>
<path d="M72.2753 107.825C72.2753 107.825 72.2579 107.825 72.2493 107.825C72.099 107.8 57.002 105.108 47.2908 96.9763C47.2416 96.936 47.2243 96.8668 47.2503 96.8092L50.7522 88.784C50.7783 88.7264 50.836 88.6889 50.9025 88.6975C51.0007 88.7091 60.8362 89.9597 64.7109 91.3342C68.6289 92.7231 72.2522 100.826 72.4024 101.169C72.4342 101.241 72.4024 101.328 72.3302 101.359C72.255 101.391 72.1713 101.359 72.1395 101.287C72.1019 101.204 68.4151 92.9536 64.6155 91.6051C60.9893 90.3199 52.0583 89.1384 50.9747 88.9972L47.5595 96.8236C56.8864 104.578 71.1455 107.33 72.2319 107.529C72.6827 107.154 76.1066 104.267 81.8969 97.9878C87.9328 91.4437 93.7896 73.4799 94.119 72.4598C93.4834 70.5292 91.5995 69.1806 89.7763 67.8752C88.557 67.0021 87.4041 66.1751 86.6355 65.2011C84.7487 62.8065 80.4609 60.2304 80.4176 60.2045C80.3482 60.1641 80.328 60.0748 80.3684 60.0056C80.4089 59.9365 80.4985 59.9163 80.5678 59.9567C80.6111 59.9826 84.9452 62.5875 86.8638 65.0225C87.6063 65.9648 88.7419 66.7802 89.9467 67.6418C91.822 68.9846 93.7578 70.3736 94.4109 72.4166C94.4195 72.4454 94.4195 72.4742 94.4109 72.5031C94.3964 72.5492 92.8853 77.2778 90.6258 82.7759C88.5396 87.8561 85.3671 94.6509 82.1107 98.1837C75.8986 104.918 72.3995 107.765 72.3648 107.794C72.3388 107.814 72.3071 107.825 72.2753 107.825Z" fill="#263238"/>
<path d="M73.8209 96.0891C73.7747 96.0891 73.7313 96.0689 73.7025 96.0286C71.5181 92.9712 64.7049 91.6226 64.6356 91.6082C64.5575 91.5938 64.5055 91.516 64.52 91.4382C64.5344 91.3604 64.6124 91.3114 64.6905 91.323C64.9736 91.3777 71.6857 92.709 73.9365 95.8586C73.9827 95.922 73.9683 96.0142 73.9018 96.0603C73.8758 96.0776 73.8469 96.0862 73.818 96.0862L73.8209 96.0891Z" fill="#263238"/>
<path d="M79.6228 116.465H49.4432C49.3709 116.465 49.3103 116.413 49.2987 116.341L48.2701 108.783C48.2585 108.705 48.3134 108.63 48.3943 108.621C48.4752 108.607 48.5475 108.664 48.5561 108.745L49.5674 116.18H79.5043L84.4076 94.6657C84.425 94.5879 84.5001 94.5389 84.581 94.5562C84.659 94.5735 84.7081 94.6513 84.6908 94.7291L79.7615 116.355C79.747 116.422 79.6893 116.468 79.6199 116.468L79.6228 116.465Z" fill="#263238"/>
<path d="M59.0967 109.483C58.8193 109.483 58.6257 109.44 58.5564 109.419C49.7582 109.748 43.887 108.177 40.5093 106.803C36.8311 105.305 35.2679 103.748 35.2044 103.682C35.1813 103.659 35.1668 103.627 35.1639 103.596C35.1553 103.506 34.3376 94.5188 37.6459 82.6035C40.9514 70.691 47.2011 60.1127 47.2647 60.009C47.2762 59.9917 47.2907 59.9744 47.308 59.9629C50.0934 58.1158 56.2535 56.6779 58.0767 56.2831C58.3743 56.2197 58.5477 56.1851 58.5477 56.1851C58.6257 56.1707 58.7008 56.2197 58.7182 56.2975C58.7355 56.3753 58.6835 56.4502 58.6055 56.4675C58.6055 56.4675 58.435 56.5021 58.1374 56.5655C56.3344 56.9574 50.2523 58.3751 47.4958 60.1848C47.1346 60.8014 41.1334 71.1117 37.9233 82.6813C34.7623 94.0693 35.3835 102.763 35.4471 103.518C35.7042 103.76 37.3107 105.195 40.6422 106.547C43.9939 107.91 49.8276 109.466 58.5708 109.134C58.5911 109.134 58.6055 109.134 58.6228 109.143C58.7095 109.172 60.7263 109.803 62.3126 106.561C62.3473 106.489 62.4339 106.46 62.5062 106.495C62.5784 106.529 62.6073 106.616 62.5726 106.688C61.3851 109.114 59.8971 109.486 59.0996 109.486L59.0967 109.483Z" fill="#263238"/>
<path d="M58.5767 109.419C58.5767 109.419 58.5594 109.419 58.5507 109.419C58.3802 109.391 57.5365 108.958 57.759 103.184C57.7619 103.103 57.8313 103.048 57.9093 103.045C57.9902 103.048 58.0509 103.115 58.048 103.195C57.8341 108.693 58.6114 109.137 58.6172 109.14C58.6952 109.151 58.7385 109.224 58.727 109.304C58.7154 109.373 58.6461 109.422 58.5767 109.422V109.419Z" fill="#263238"/>
<path d="M38.3366 99.5269C38.2903 99.5269 38.247 99.5039 38.2181 99.4635C38.1719 99.3972 38.1892 99.3079 38.2557 99.2618C41.0006 97.3657 43.471 96.8787 45.0602 96.8038C46.788 96.7202 47.8513 97.0891 47.8975 97.1035C47.9727 97.1294 48.0131 97.213 47.9871 97.2879C47.9611 97.3628 47.8773 97.4032 47.8022 97.3772C47.7617 97.3628 43.5548 95.9566 38.4232 99.501C38.3972 99.5183 38.3683 99.5269 38.3423 99.5269H38.3366Z" fill="#263238"/>
<path d="M47.386 97.083C47.3485 97.083 47.3109 97.0686 47.282 97.0369C44.8434 94.4867 39.3882 96.0659 39.3333 96.0831C39.2553 96.1062 39.1773 96.063 39.1542 95.9852C39.131 95.9102 39.1744 95.8296 39.2524 95.8065C39.2668 95.8036 40.6798 95.3887 42.3845 95.3051C44.6613 95.1956 46.4267 95.7258 47.4929 96.8381C47.5478 96.8957 47.5449 96.988 47.4871 97.0427C47.4583 97.0686 47.4236 97.083 47.386 97.083Z" fill="#263238"/>
<path d="M46.7822 96.7862L47.5045 97.1464L50.2552 90.294C50.2552 90.294 47.4063 89.8301 42.8931 95.4348C42.8931 95.4348 44.8203 95.3281 46.7851 96.7862H46.7822Z" fill="#999999"/>
<path d="M47.5796 97.3484L46.6955 96.9046C44.8 95.4984 42.919 95.5819 42.8988 95.5819L42.5752 95.5992L42.7775 95.3485C47.2936 89.7439 50.1569 90.1358 50.2754 90.1559L50.4545 90.1847L47.5796 97.3484ZM46.8573 96.6654L47.4265 96.9507L50.0414 90.4354C49.3566 90.4556 46.837 90.8619 43.1906 95.2967C43.8205 95.3284 45.3201 95.5272 46.8573 96.6654Z" fill="#263238"/>
<path d="M57.9063 103.187L57.8918 106.229C57.8918 106.229 61.7867 107.382 64.6646 105.728L57.9034 103.187H57.9063Z" fill="#999999"/>
<path d="M60.8794 106.771C59.2411 106.771 57.9438 106.397 57.8513 106.368L57.7473 106.336L57.7618 102.976L65.0026 105.699L64.7367 105.852C63.5001 106.564 62.0958 106.771 60.8765 106.771H60.8794ZM58.0363 106.12C58.6459 106.278 61.8185 107.005 64.3178 105.751L58.0478 103.394L58.0363 106.12Z" fill="#263238"/>
<path d="M78.9988 61.0954C78.9988 61.1501 78.9988 61.2078 78.9815 61.2625C78.8601 61.738 75.8927 72.9098 66.3953 77.8806C66.3086 77.9267 66.219 77.9469 66.1266 77.9469C65.9185 77.9469 65.7192 77.8345 65.6152 77.6385C65.4678 77.3561 65.5747 77.0075 65.8579 76.8605C74.5174 72.3278 77.5801 61.9973 77.8459 61.0464L78.9988 61.0954Z" fill="#263238"/>
<path d="M58.5622 58.1329C57.5914 60.2739 56.3229 63.9825 56.1784 68.9676C56.1727 69.2702 56.1669 69.5785 56.1669 69.8926C56.1669 69.9704 56.1669 70.0482 56.1669 70.126C56.0802 70.1289 55.9964 70.1375 55.9097 70.1519C55.5977 70.198 55.2943 70.2931 55.0111 70.4315C55.0025 70.0079 55.0025 69.5958 55.0111 69.1895C55.1354 62.7232 57.0713 58.3231 58.1028 56.4212C58.4004 56.3578 58.5709 56.3232 58.5709 56.3232C58.331 56.5941 58.1028 56.914 58.0999 57.277C58.097 57.62 58.2935 57.9052 58.5593 58.1329H58.5622Z" fill="#263238"/>
<path d="M69.9404 75.2815C70.6194 76.2181 70.0647 77.7741 68.7009 78.7567C67.3371 79.7393 65.6815 79.7739 65.0025 78.8374C64.3235 77.9009 64.8782 76.3448 66.242 75.3622C67.6058 74.3796 69.2614 74.345 69.9404 75.2815Z" fill="white"/>
<path d="M66.5366 79.6587C65.8461 79.6587 65.2422 79.4138 64.8868 78.9239C64.5314 78.4311 64.4707 77.7741 64.7221 77.071C64.9648 76.3881 65.4762 75.7397 66.1581 75.2499C66.84 74.7571 67.6173 74.4776 68.3454 74.4632C69.0966 74.4459 69.7005 74.7081 70.0559 75.2009C70.7812 76.2008 70.2091 77.8491 68.7846 78.8778C68.0594 79.3994 67.2503 79.6616 66.5338 79.6616L66.5366 79.6587ZM68.4119 74.7456C68.3916 74.7456 68.3714 74.7456 68.3512 74.7456C67.6808 74.76 66.9643 75.0222 66.3286 75.4775C65.6929 75.9328 65.2191 76.5351 64.9937 77.1632C64.777 77.7741 64.8204 78.3361 65.1209 78.751C65.7507 79.6212 67.3197 79.5722 68.617 78.6386C69.9143 77.705 70.4547 76.2354 69.8248 75.3651C69.5358 74.9646 69.036 74.7456 68.4119 74.7456Z" fill="#263238"/>
<path d="M68.2618 74.7253C68.7414 75.388 68.3485 76.4888 67.3863 77.1804C66.4213 77.8748 65.2511 77.9008 64.7714 77.238C64.2918 76.5752 64.6847 75.4745 65.6469 74.7829C66.612 74.0884 67.7822 74.0625 68.2618 74.7253Z" fill="white"/>
<path d="M65.8519 77.8632C65.3319 77.8632 64.9071 77.6731 64.6529 77.3215C64.127 76.5953 64.5344 75.4024 65.563 74.6647C66.0542 74.3131 66.609 74.1114 67.1319 74.0999C67.6751 74.0913 68.1172 74.2785 68.3773 74.6387C68.9031 75.3649 68.4957 76.5579 67.4671 77.2956C66.9759 77.6471 66.4212 77.8488 65.8982 77.8604C65.8808 77.8604 65.8664 77.8604 65.8491 77.8604L65.8519 77.8632ZM67.1782 74.3881C67.1782 74.3881 67.1522 74.3881 67.1377 74.3881C66.6725 74.3996 66.1727 74.5782 65.7306 74.8981C64.832 75.5436 64.4535 76.555 64.8869 77.1544C65.0892 77.4368 65.4532 77.5866 65.8924 77.5751C66.3576 77.5636 66.8575 77.3849 67.2995 77.065C68.1981 76.4196 68.5766 75.4081 68.1432 74.8088C67.9467 74.535 67.6058 74.3881 67.1782 74.3881Z" fill="#263238"/>
<path d="M60.6222 86.4211C60.365 86.6113 60.0039 86.5536 59.8161 86.3001C59.6282 86.0436 59.6803 85.6892 59.9316 85.499C59.9807 85.4586 61.9195 83.8133 61.07 78.272C60.9978 77.8023 60.9054 77.3009 60.7898 76.7736C60.4228 75.0936 59.8565 72.967 58.6979 71.4052C58.0362 70.5119 57.1463 70.0652 56.1696 70.1258C56.083 70.1286 55.9992 70.1373 55.9125 70.1517C55.6004 70.1978 55.2971 70.2929 55.0139 70.4312C54.1933 70.8346 53.5288 71.5925 53.1878 72.5578L53.0838 72.8575C52.6475 74.0908 51.9251 76.131 51.4802 78.272C51.0179 80.534 50.8618 82.9056 51.6824 84.5625C52.1476 85.499 52.8815 86.1185 53.9246 86.4557C54.228 86.5536 54.3927 86.8793 54.2944 87.1818C54.2164 87.4239 53.9882 87.5795 53.7455 87.5795C53.6877 87.5795 53.627 87.5708 53.5663 87.5507C52.2314 87.1184 51.249 86.2857 50.648 85.0725C49.7234 83.2081 49.8448 80.6695 50.3129 78.272C50.7578 75.9638 51.5293 73.7854 51.9945 72.4742L52.0985 72.1774C52.6099 70.728 53.6906 69.6359 55.0139 69.1892C55.2479 69.1086 55.4906 69.048 55.7391 69.0106C55.8865 68.9904 56.0338 68.976 56.1783 68.9674C57.5132 68.9155 58.7528 69.5379 59.6282 70.7222C60.9169 72.4598 61.5295 74.7363 61.9195 76.5286C62.0553 77.1453 62.1593 77.7245 62.2374 78.272C63.1417 84.4904 60.7349 86.3404 60.6222 86.4211Z" fill="#263238"/>
<path d="M53.7455 87.7237C53.6675 87.7237 53.5924 87.7121 53.5201 87.6891C52.1477 87.2453 51.1364 86.3866 50.518 85.1389C49.7119 83.5137 49.5963 81.194 50.1713 78.2461C50.6192 75.9178 51.3964 73.7336 51.8587 72.4282L51.9627 72.1314C52.4886 70.6445 53.5837 69.5207 54.9677 69.0539C55.2133 68.9703 55.4647 68.9069 55.7189 68.8695C55.8721 68.8493 56.0223 68.8349 56.1697 68.8234C57.5681 68.7657 58.8395 69.4112 59.7439 70.6359C61.0499 72.3965 61.6682 74.6932 62.0611 76.497C62.1912 77.0935 62.301 77.6842 62.3819 78.2519C63.3036 84.5799 60.8274 86.4529 60.7089 86.5365C60.5558 86.6488 60.3651 86.6978 60.1744 86.669C59.9837 86.6402 59.8161 86.5393 59.7005 86.3837C59.4636 86.061 59.5271 85.623 59.845 85.3809C59.8594 85.3694 61.7635 83.7356 60.9285 78.2894C60.8534 77.8024 60.7609 77.301 60.6511 76.7996C60.2871 75.1312 59.7236 73.0218 58.5852 71.486C57.9495 70.6301 57.1232 70.2037 56.1812 70.2642C56.0975 70.2642 56.0194 70.2757 55.9385 70.2872C55.6409 70.3304 55.352 70.4198 55.0804 70.5552C54.2887 70.9442 53.6473 71.6905 53.3265 72.6011L53.2225 72.9008C52.7891 74.1284 52.0668 76.1685 51.6247 78.298C51.067 81.0298 51.1306 83.1131 51.8154 84.4963C52.2632 85.3953 52.9682 85.9918 53.9738 86.3174C54.1558 86.378 54.306 86.5048 54.3927 86.6748C54.4794 86.8448 54.4938 87.0407 54.4361 87.2252C54.3407 87.5191 54.0604 87.7237 53.7484 87.7237H53.7455ZM56.3344 69.1087C56.2853 69.1087 56.2333 69.1087 56.1841 69.1115C56.0454 69.1202 55.9039 69.1346 55.7594 69.1548C55.5254 69.1893 55.2913 69.247 55.0602 69.3277C53.7599 69.7657 52.7284 70.8232 52.2343 72.2265L52.1303 72.5233C51.6709 73.8229 50.8994 75.9928 50.4545 78.3009C49.8911 81.1854 50.0009 83.4416 50.7781 85.0092C51.3618 86.1849 52.3124 86.9946 53.6126 87.4153C53.8293 87.4874 54.0893 87.3577 54.1587 87.1387C54.1933 87.0292 54.1847 86.9111 54.1327 86.8073C54.0807 86.7036 53.9911 86.6287 53.8813 86.5941C52.7978 86.2454 52.0379 85.5999 51.5553 84.6288C50.8417 83.1881 50.7694 81.0413 51.3415 78.2461C51.7865 76.0994 52.5146 74.0448 52.948 72.8201L53.0549 72.5147C53.4017 71.5349 54.0922 70.7281 54.9533 70.3045C55.2538 70.1575 55.5687 70.0596 55.8952 70.0106C55.9848 69.9962 56.0743 69.9875 56.1697 69.9818C57.1896 69.9184 58.1316 70.3938 58.8193 71.3188C59.9895 72.8979 60.5644 75.0476 60.9372 76.742C61.0499 77.2491 61.1423 77.7563 61.2203 78.249C62.0814 83.8566 60.1137 85.5394 60.0299 85.6086C59.8363 85.7555 59.7988 86.0207 59.9403 86.2137C60.0097 86.3059 60.1108 86.3664 60.2235 86.3837C60.3362 86.401 60.4517 86.3722 60.5442 86.303C60.5673 86.2829 62.9973 84.4646 62.1016 78.2894C62.0207 77.7275 61.9167 77.1454 61.7866 76.5575C61.3995 74.7796 60.7927 72.5233 59.5214 70.8059C58.7066 69.7051 57.5855 69.1058 56.343 69.1058L56.3344 69.1087Z" fill="#263238"/>
<path d="M53.3353 87.4698C53.3353 87.4698 55.4301 88.3285 55.9588 87.4698C56.4876 86.6111 56.0628 86.199 55.3376 86.1299C54.6124 86.0607 53.1648 86.1299 53.1648 86.1299L53.3353 87.4698Z" fill="#263238"/>
<path d="M55.037 87.9944C54.2424 87.9944 53.3381 87.6284 53.2774 87.6025L53.1994 87.5708L53 85.9917L53.156 85.983C53.2167 85.9802 54.6209 85.9139 55.3491 85.983C55.8114 86.0263 56.1292 86.1963 56.265 86.47C56.4066 86.7524 56.343 87.1126 56.0801 87.542C55.872 87.8791 55.4704 87.9915 55.0341 87.9915L55.037 87.9944ZM53.4681 87.3662C54.072 87.5996 55.4733 87.9857 55.8374 87.3921C56.0425 87.0579 56.1032 86.7841 56.0107 86.5997C55.9212 86.421 55.6785 86.3029 55.326 86.2712C54.7567 86.2165 53.7224 86.2481 53.3294 86.2654L53.4681 87.3662Z" fill="#263238"/>
<path d="M54.2944 87.1818C54.2164 87.4239 53.9882 87.5795 53.7455 87.5795C53.6877 87.5795 53.627 87.5708 53.5663 87.5507C52.2314 87.1184 51.249 86.2857 50.648 85.0725C49.7234 83.2081 49.8448 80.6694 50.3129 78.272H51.4802C51.0179 80.534 50.8618 82.9056 51.6824 84.5625C52.1476 85.499 52.8815 86.1185 53.9246 86.4557C54.228 86.5536 54.3927 86.8792 54.2944 87.1818Z" fill="white"/>
<path d="M53.7455 87.7236C53.6704 87.7236 53.5924 87.7121 53.5201 87.6891C52.1477 87.2453 51.1364 86.3866 50.518 85.1389C49.7119 83.5136 49.5963 81.194 50.1713 78.2461C50.1858 78.1798 50.2436 78.1309 50.3129 78.1309H51.4802C51.5236 78.1309 51.564 78.151 51.5929 78.1827C51.6218 78.2173 51.6305 78.2605 51.6218 78.3037C51.0641 81.0355 51.1277 83.1189 51.8125 84.502C52.2603 85.4011 52.9654 85.9976 53.9709 86.3232C54.1529 86.3837 54.3031 86.5105 54.3898 86.6805C54.4765 86.8505 54.491 87.0465 54.4332 87.2309C54.3378 87.5248 54.0575 87.7294 53.7455 87.7294V87.7236ZM50.4343 78.4161C49.8968 81.2458 50.0124 83.4618 50.781 85.0092C51.3646 86.1849 52.3181 86.9946 53.6155 87.4153C53.838 87.4874 54.0922 87.3577 54.1616 87.1387C54.1962 87.0292 54.1876 86.911 54.1356 86.8073C54.0835 86.7036 53.994 86.6286 53.8842 86.5941C52.8007 86.2454 52.0408 85.5999 51.5582 84.6288C50.859 83.2168 50.7752 81.1306 51.3097 78.419H50.4371L50.4343 78.4161Z" fill="#263238"/>
<path d="M58.695 85.7934C58.5303 86.0066 58.4234 86.2832 58.4754 86.5455C58.5563 86.9489 59.0013 87.2025 59.4116 87.1736C59.8219 87.1448 60.1859 86.8912 60.4633 86.5887C60.758 86.2659 61.7549 84.1566 60.8303 84.5168C60.157 84.779 59.1429 85.2084 58.695 85.7934Z" fill="#263238"/>
<path d="M59.351 87.3204C58.9205 87.3204 58.4293 87.0495 58.3339 86.5741C58.279 86.2974 58.3686 85.9805 58.5795 85.7038C59.0303 85.1131 59.9924 84.6866 60.7783 84.3812C61.0875 84.2602 61.2291 84.3812 61.2869 84.4648C61.5903 84.9056 60.813 86.4185 60.5703 86.6836C60.3247 86.9516 59.926 87.2801 59.4232 87.3146C59.4001 87.3146 59.377 87.3146 59.351 87.3146V87.3204ZM58.8107 85.8825C58.6489 86.0929 58.5795 86.3263 58.62 86.5193C58.6864 86.8536 59.0794 87.0611 59.4059 87.0322C59.8133 87.0034 60.1513 86.7239 60.3594 86.4934C60.6165 86.2139 61.2146 84.8711 61.0499 84.6319C61.0355 84.6117 60.969 84.6204 60.8853 84.6521C60.4432 84.825 59.273 85.2803 58.8107 85.8825Z" fill="#263238"/>
<path d="M60.6221 86.4211C60.365 86.6113 60.0038 86.5536 59.816 86.3001C59.6282 86.0436 59.6802 85.6892 59.9316 85.499C59.9807 85.4586 61.9195 83.8133 61.07 78.272H62.2373C63.1417 84.4904 60.7348 86.3404 60.6221 86.4211Z" fill="white"/>
<path d="M60.2812 86.6775C60.2465 86.6775 60.209 86.6775 60.1743 86.6689C59.9836 86.6401 59.816 86.5392 59.7005 86.3836C59.4635 86.0609 59.5271 85.6229 59.8449 85.3808C59.8594 85.3693 61.7635 83.7354 60.9284 78.2893C60.9227 78.2489 60.9342 78.2057 60.9602 78.174C60.9891 78.1423 61.0267 78.125 61.07 78.125H62.2373C62.3096 78.125 62.3702 78.1769 62.3789 78.2489C63.3006 84.5769 60.8244 86.4499 60.706 86.5363C60.5817 86.6285 60.4344 86.6775 60.2812 86.6775ZM61.2376 78.416C62.0322 83.891 60.1079 85.5422 60.0241 85.6113C59.8305 85.7583 59.7929 86.0234 59.9345 86.2165C60.0038 86.3087 60.105 86.3692 60.2177 86.3865C60.3332 86.4038 60.4459 86.375 60.5384 86.3058C60.5615 86.2885 62.9597 84.4933 62.1131 78.4189H61.2376V78.416Z" fill="#263238"/>
<g opacity="0.2">
<path d="M65.8086 35.4865C65.8086 35.4865 69.4464 33.602 72.7865 35.4865C72.7865 35.4865 72.8414 38.2672 71.5816 39.4112C71.1338 39.8175 69.0794 39.8867 68.3051 39.8175C65.1498 39.5322 65.8086 35.4865 65.8086 35.4865Z" fill="white"/>
</g>
<g opacity="0.2">
<path d="M63.5261 35.4865C63.5261 35.4865 59.8883 33.602 56.5482 35.4865C56.5482 35.4865 56.4933 38.2672 57.7531 39.4112C58.2009 39.8175 60.2553 39.8867 61.0296 39.8175C64.1848 39.5322 63.5261 35.4865 63.5261 35.4865Z" fill="white"/>
</g>
<path d="M68.9464 39.9846C68.669 39.9846 68.4379 39.976 68.2905 39.9616C67.4555 39.8866 66.8025 39.5495 66.346 38.9616C65.3231 37.6476 65.6496 35.5498 65.6641 35.4634L65.6756 35.3914L65.7392 35.3568C65.7768 35.3366 69.4838 33.4578 72.8557 35.3568L72.928 35.3971V35.4778C72.9309 35.5931 72.9713 38.3363 71.6769 39.512C71.2724 39.878 69.8623 39.976 68.9435 39.976L68.9464 39.9846ZM65.9415 35.5844C65.8952 35.9619 65.7334 37.7053 66.5771 38.7887C66.9816 39.3103 67.5682 39.6071 68.3194 39.6763C69.1776 39.7541 71.1048 39.6532 71.4862 39.3074C72.5668 38.3277 72.6419 36.034 72.6448 35.5729C69.6745 33.9506 66.4442 35.3481 65.9443 35.5844H65.9415Z" fill="#263238"/>
<path d="M60.3882 39.9849C59.4693 39.9849 58.0593 39.8869 57.6577 39.521C56.3633 38.3453 56.4037 35.602 56.4037 35.4868V35.4061L56.4759 35.3657C59.845 33.4668 63.5549 35.3427 63.5925 35.3657L63.6561 35.4003L63.6676 35.4724C63.6821 35.5617 64.0086 37.6566 62.9857 38.9706C62.5292 39.5584 61.8733 39.8927 61.0412 39.9705C60.8938 39.9849 60.6627 39.9936 60.3853 39.9936L60.3882 39.9849ZM56.6898 35.5732C56.6926 36.0343 56.7678 38.328 57.8484 39.3077C58.2269 39.6506 60.157 39.7544 61.0152 39.6766C61.7664 39.6074 62.3529 39.3106 62.7575 38.789C63.6012 37.7056 63.4394 35.9593 63.3931 35.5847C62.8933 35.3484 59.66 33.9538 56.6926 35.5732H56.6898Z" fill="#263238"/>
<path d="M65.7539 35.6218C64.3872 35.0656 63.6417 35.5814 63.6099 35.6045L63.4395 35.3711C63.4741 35.3451 64.3352 34.7342 65.8608 35.3538L65.751 35.6218H65.7539Z" fill="#263238"/>
<path d="M72.8435 35.3539L72.7217 35.6152L74.2414 36.3197L74.3632 36.0584L72.8435 35.3539Z" fill="#263238"/>
<path d="M14.6145 123.991L25.3081 113.917H110.178L116.607 123.991H14.6145Z" fill="white"/>
<path d="M116.607 124.136H14.6145C14.5538 124.136 14.5018 124.101 14.4816 124.043C14.4614 123.986 14.4729 123.925 14.5163 123.885L25.2099 113.811C25.2359 113.785 25.2734 113.771 25.3081 113.771H110.181C110.23 113.771 110.276 113.796 110.302 113.837L116.731 123.911C116.76 123.954 116.76 124.012 116.737 124.058C116.711 124.104 116.662 124.133 116.61 124.133L116.607 124.136ZM14.9757 123.847H116.341L110.097 114.062H25.3659L14.9786 123.847H14.9757Z" fill="#263238"/>
<path d="M116.607 123.991H14.6145V126.703H116.607V123.991Z" fill="#263238"/>
<path d="M116.607 126.847H14.6144C14.5335 126.847 14.47 126.783 14.47 126.703V123.991C14.47 123.911 14.5335 123.847 14.6144 123.847H116.607C116.688 123.847 116.751 123.911 116.751 123.991V126.703C116.751 126.783 116.688 126.847 116.607 126.847ZM14.7589 126.559H116.462V124.135H14.7589V126.559Z" fill="#263238"/>
<path d="M50.8879 121.502V119.413H67.6435V121.502H64.4131H50.8879Z" fill="white"/>
<path d="M67.7878 121.646H50.7405V119.269H67.7878V121.646ZM51.0323 121.358H67.5018V119.557H51.0323V121.358Z" fill="#263238"/>
<path d="M50.8877 119.412L60.7867 112.791L73.9941 113.099L67.6432 119.412H50.8877Z" fill="white"/>
<path d="M67.6435 119.557H50.8851C50.8215 119.557 50.7666 119.516 50.7464 119.456C50.7291 119.395 50.7522 119.329 50.8042 119.294L60.7032 112.672C60.7263 112.655 60.7581 112.649 60.787 112.649L73.9973 112.958C74.0551 112.958 74.1071 112.995 74.1273 113.047C74.1475 113.099 74.136 113.162 74.0955 113.203L67.7447 119.513C67.7187 119.539 67.6811 119.557 67.6435 119.557ZM51.3619 119.268H67.5857L73.6563 113.237L60.8304 112.938L51.3619 119.268Z" fill="#263238"/>
<path d="M67.6436 121.501L73.9944 115.156V113.099L67.6436 119.412V121.501Z" fill="white"/>
<path d="M67.6435 121.646C67.6262 121.646 67.6059 121.643 67.5886 121.634C67.5337 121.611 67.499 121.559 67.499 121.502V119.412C67.499 119.375 67.5135 119.337 67.5424 119.312L73.8932 113.001C73.9337 112.961 73.9972 112.949 74.0493 112.969C74.1042 112.992 74.1388 113.044 74.1388 113.102V115.156C74.1388 115.194 74.1244 115.231 74.0955 115.257L67.7446 121.605C67.7157 121.634 67.6811 121.649 67.6435 121.649V121.646ZM67.788 119.473V121.156L73.8499 115.099V113.45L67.788 119.476V119.473Z" fill="#263238"/>
<path d="M67.0019 122.093C66.9759 122.093 66.947 122.09 66.921 122.081C66.453 121.943 65.5659 121.395 65.5659 120.312C65.5659 119.228 66.5945 118.715 67.1377 118.609C67.2938 118.574 67.4469 118.678 67.4787 118.836C67.5105 118.992 67.4093 119.145 67.2533 119.176C67.2042 119.185 66.1467 119.416 66.1467 120.315C66.1467 121.214 67.0482 121.522 67.0886 121.534C67.2418 121.58 67.3284 121.741 67.2822 121.894C67.2447 122.018 67.1291 122.098 67.0048 122.098L67.0019 122.093Z" fill="#263238"/>
<path d="M65.6641 122.093C65.638 122.093 65.6092 122.09 65.5831 122.081C65.1151 121.943 64.228 121.395 64.228 120.312C64.228 119.228 65.2538 118.715 65.797 118.609C65.953 118.574 66.1061 118.678 66.1379 118.836C66.1697 118.992 66.0686 119.145 65.9125 119.176C65.8634 119.185 64.8059 119.416 64.8059 120.315C64.8059 121.214 65.7074 121.522 65.7478 121.534C65.901 121.58 65.9877 121.741 65.9414 121.894C65.9039 122.018 65.7883 122.098 65.6641 122.098V122.093Z" fill="#263238"/>
<path d="M64.3264 122.093C64.3004 122.093 64.2715 122.09 64.2455 122.081C63.7774 121.943 62.8904 121.395 62.8904 120.312C62.8904 119.228 63.919 118.715 64.4622 118.609C64.6182 118.574 64.7714 118.678 64.8032 118.836C64.8349 118.992 64.7338 119.145 64.5778 119.176C64.5287 119.185 63.4711 119.416 63.4711 120.315C63.4711 121.214 64.3726 121.522 64.4131 121.534C64.5662 121.58 64.6529 121.741 64.6067 121.894C64.5691 122.018 64.4535 122.098 64.3293 122.098L64.3264 122.093Z" fill="#263238"/>
<path d="M62.9885 122.093C62.9625 122.093 62.9336 122.09 62.9076 122.081C62.4395 121.943 61.5525 121.395 61.5525 120.312C61.5525 119.228 62.5782 118.715 63.1214 118.609C63.2775 118.574 63.4306 118.678 63.4624 118.836C63.4942 118.992 63.393 119.145 63.237 119.176C63.1879 119.188 62.1304 119.416 62.1304 120.315C62.1304 121.214 63.0319 121.522 63.0723 121.534C63.2254 121.58 63.3121 121.741 63.2659 121.894C63.2283 122.018 63.1128 122.098 62.9885 122.098V122.093Z" fill="#263238"/>
<path d="M61.6509 122.093C61.6249 122.093 61.596 122.09 61.57 122.081C61.1019 121.943 60.2148 121.395 60.2148 120.312C60.2148 119.228 61.2435 118.715 61.7867 118.609C61.9427 118.574 62.0958 118.678 62.1276 118.836C62.1594 118.995 62.0583 119.145 61.9022 119.176C61.8531 119.185 60.7956 119.416 60.7956 120.315C60.7956 121.214 61.6971 121.522 61.7375 121.534C61.8907 121.58 61.9774 121.741 61.9311 121.894C61.8936 122.018 61.778 122.098 61.6538 122.098L61.6509 122.093Z" fill="#263238"/>
<path d="M60.313 122.093C60.287 122.093 60.2581 122.09 60.2321 122.081C59.764 121.943 58.877 121.395 58.877 120.312C58.877 119.228 59.9056 118.715 60.4488 118.609C60.6048 118.574 60.7579 118.678 60.7897 118.836C60.8215 118.992 60.7204 119.145 60.5644 119.176C60.5152 119.185 59.4577 119.416 59.4577 120.315C59.4577 121.214 60.3592 121.522 60.3997 121.534C60.5528 121.58 60.6395 121.741 60.5932 121.894C60.5557 122.018 60.4401 122.098 60.3159 122.098L60.313 122.093Z" fill="#263238"/>
<path d="M58.9753 122.093C58.9493 122.093 58.9204 122.09 58.8944 122.081C58.4263 121.943 57.5393 121.395 57.5393 120.312C57.5393 119.228 58.565 118.715 59.1082 118.609C59.2643 118.574 59.4174 118.678 59.4492 118.836C59.481 118.992 59.3798 119.145 59.2238 119.176C59.1747 119.185 58.1172 119.416 58.1172 120.315C58.1172 121.214 59.0187 121.522 59.0591 121.534C59.2123 121.58 59.2989 121.741 59.2527 121.894C59.2151 122.018 59.0996 122.098 58.9753 122.098V122.093Z" fill="#263238"/>
<path d="M57.6374 122.093C57.6114 122.093 57.5825 122.09 57.5565 122.081C57.0885 121.943 56.2014 121.395 56.2014 120.312C56.2014 119.228 57.23 118.715 57.7732 118.609C57.9293 118.574 58.0824 118.678 58.1142 118.836C58.146 118.992 58.0448 119.145 57.8888 119.176C57.8397 119.185 56.7822 119.416 56.7822 120.315C56.7822 121.214 57.6837 121.522 57.7241 121.534C57.8773 121.58 57.9639 121.741 57.9177 121.894C57.8801 122.018 57.7646 122.098 57.6403 122.098L57.6374 122.093Z" fill="#263238"/>
<path d="M56.1321 122.093C56.1061 122.093 56.0772 122.09 56.0512 122.081C55.5831 121.943 54.696 121.395 54.696 120.312C54.696 119.228 55.7218 118.715 56.265 118.609C56.421 118.574 56.5741 118.678 56.6059 118.836C56.6377 118.992 56.5366 119.145 56.3806 119.176C56.3314 119.185 55.2739 119.416 55.2739 120.315C55.2739 121.214 56.1754 121.522 56.2159 121.534C56.369 121.58 56.4557 121.741 56.4094 121.894C56.3719 122.018 56.2563 122.098 56.1321 122.098V122.093Z" fill="#263238"/>
<path d="M54.6267 122.093C54.6007 122.093 54.5718 122.09 54.5458 122.081C54.0777 121.943 53.1907 121.395 53.1907 120.312C53.1907 119.228 54.2164 118.715 54.7596 118.609C54.9156 118.574 55.0688 118.678 55.1006 118.836C55.1323 118.992 55.0312 119.145 54.8752 119.176C54.8261 119.188 53.7686 119.416 53.7686 120.315C53.7686 121.214 54.67 121.522 54.7105 121.534C54.8636 121.58 54.9503 121.741 54.9041 121.894C54.8665 122.018 54.7509 122.098 54.6267 122.098V122.093Z" fill="#263238"/>
<path d="M52.9565 122.093C52.9305 122.093 52.9016 122.09 52.8756 122.081C52.4075 121.943 51.5205 121.395 51.5205 120.312C51.5205 119.228 52.5462 118.715 53.0894 118.609C53.2455 118.574 53.3986 118.678 53.4304 118.836C53.4622 118.992 53.361 119.145 53.205 119.176C53.1559 119.188 52.0984 119.416 52.0984 120.315C52.0984 121.214 52.9999 121.522 53.0403 121.534C53.1935 121.58 53.2801 121.741 53.2339 121.894C53.1964 122.018 53.0808 122.098 52.9565 122.098V122.093Z" fill="#263238"/>
<path d="M61.642 117.13C61.6073 117.13 61.5755 117.113 61.5553 117.087C61.5322 117.058 61.5293 117.018 61.5438 116.983L62.3615 114.963C61.5669 115.695 60.6683 116.445 59.579 116.779C59.5385 116.79 59.4952 116.779 59.4663 116.747C59.4374 116.715 59.4316 116.669 59.449 116.632C59.8824 115.655 60.6394 114.834 61.5784 114.321C61.6304 114.292 61.6969 114.312 61.7258 114.364C61.7547 114.416 61.7345 114.482 61.6825 114.511C60.859 114.961 60.1829 115.661 59.7552 116.494C60.8561 116.081 61.7634 115.231 62.5724 114.476C62.6099 114.442 62.6648 114.439 62.7082 114.465C62.7515 114.494 62.766 114.548 62.7486 114.595L61.8154 116.9C62.4279 116.813 63.0087 116.517 63.4392 116.073C63.445 116.038 63.4565 116.001 63.4681 115.966C63.5403 115.762 63.6877 115.603 63.8755 115.537C63.9188 115.522 63.968 115.537 63.9969 115.571C64.0257 115.606 64.0286 115.655 64.0055 115.695C63.9015 115.868 63.7801 116.027 63.6443 116.174C63.6386 116.246 63.6472 116.318 63.6732 116.381C64.4216 116.231 64.9099 115.482 65.3144 114.788C65.3375 114.747 65.3809 114.727 65.4271 114.736C65.4704 114.744 65.508 114.779 65.5167 114.822C65.5889 115.205 65.6207 115.594 65.612 115.983C66.2621 116.061 66.9209 115.969 67.5248 115.715C67.5797 115.692 67.6433 115.715 67.6664 115.773C67.6895 115.828 67.6664 115.891 67.6086 115.914C66.9382 116.194 66.2043 116.289 65.4849 116.185C65.43 116.177 65.3895 116.13 65.3924 116.073C65.404 115.767 65.3924 115.459 65.3491 115.154C64.933 115.834 64.4158 116.494 63.6299 116.609C63.5866 116.617 63.5461 116.594 63.523 116.56C63.4854 116.502 63.4594 116.439 63.445 116.372C62.9538 116.81 62.3181 117.09 61.6565 117.139C61.6565 117.139 61.6507 117.139 61.6478 117.139L61.642 117.13Z" fill="#263238"/>
<path d="M33.2283 36.039C36.6258 32.6506 36.6258 27.157 33.2283 23.7686C29.8308 20.3803 24.3223 20.3803 20.9247 23.7686C17.5272 27.157 17.5272 32.6506 20.9247 36.039C24.3223 39.4273 29.8308 39.4273 33.2283 36.039Z" fill="white"/>
<path d="M27.0763 38.7231C22.1991 38.7231 18.2319 34.7667 18.2319 29.9025C18.2319 25.0384 22.1991 21.082 27.0763 21.082C31.9536 21.082 35.9207 25.0384 35.9207 29.9025C35.9207 34.7667 31.9536 38.7231 27.0763 38.7231ZM27.0763 21.3673C22.358 21.3673 18.5209 25.194 18.5209 29.8997C18.5209 34.6053 22.358 38.432 27.0763 38.432C31.7947 38.432 35.6318 34.6053 35.6318 29.8997C35.6318 25.194 31.7947 21.3673 27.0763 21.3673Z" fill="#263238"/>
<path d="M34.3028 28.574C34.3028 29.7324 33.5689 30.8158 32.4103 31.2048L28.5269 32.5102L23.797 34.1037C22.3494 34.5907 20.7631 33.8098 20.2748 32.3632C20.1766 32.0722 20.1304 31.7754 20.1304 31.4844C20.1304 30.3288 20.8643 29.2425 22.02 28.8506L26.3165 27.4069L30.6333 25.9546C32.0838 25.4647 33.6671 26.2485 34.1554 27.6922C34.2537 27.9832 34.3028 28.2829 34.3028 28.574Z" fill="white"/>
<path d="M34.3027 28.574C34.3027 29.7324 33.5688 30.8158 32.4101 31.2048L28.5268 32.5102C28.3592 29.8217 27.0012 28.1043 26.3164 27.4069L30.6331 25.9546C32.0836 25.4647 33.667 26.2485 34.1553 27.6922C34.2535 27.9832 34.3027 28.2829 34.3027 28.574Z" fill="#253E96"/>
<path d="M22.9128 34.3918C22.4678 34.3918 22.0257 34.2881 21.6126 34.0864C20.9104 33.7406 20.3875 33.1441 20.139 32.4093C20.0378 32.1096 19.9858 31.7984 19.9858 31.4843C19.9858 30.2308 20.7833 29.1186 21.9737 28.7151L30.587 25.8191C31.3238 25.5713 32.1184 25.6232 32.8176 25.969C33.5197 26.3148 34.0427 26.9113 34.2912 27.6461C34.3952 27.9515 34.4472 28.2627 34.4472 28.5739C34.4472 29.8303 33.6468 30.9426 32.4564 31.3403L23.8432 34.2391C23.5398 34.3429 23.2248 34.3918 22.9128 34.3918ZM31.5232 25.9517C31.24 25.9517 30.9568 25.9978 30.6823 26.09L22.0691 28.986C20.9971 29.3491 20.2777 30.3519 20.2777 31.4843C20.2777 31.7667 20.3239 32.0491 20.4135 32.3171C20.636 32.9799 21.1098 33.5158 21.7426 33.8299C22.3754 34.1411 23.089 34.1901 23.7536 33.9683L32.3669 31.0694C33.4388 30.7092 34.1612 29.7064 34.1612 28.5739C34.1612 28.2944 34.1149 28.012 34.0225 27.7383C33.7971 27.0755 33.3261 26.5395 32.6934 26.2283C32.3235 26.0468 31.9248 25.9546 31.5232 25.9546V25.9517Z" fill="#263238"/>
<path d="M28.5269 32.6545C28.446 32.6545 28.3824 32.5882 28.3853 32.5075C28.3853 32.4816 28.3969 29.77 26.2154 27.5051C26.1605 27.4474 26.1605 27.3552 26.2183 27.3005C26.2761 27.2457 26.3685 27.2457 26.4234 27.3034C28.6916 29.6547 28.6771 32.3922 28.6742 32.5075C28.6742 32.5853 28.6078 32.6487 28.5298 32.6487L28.5269 32.6545Z" fill="#263238"/>
<path d="M33.6498 28.6804C33.5689 28.6804 33.5053 28.617 33.5053 28.5363C33.5053 28.1819 33.4244 27.8678 33.2597 27.5969C33.2192 27.5277 33.2395 27.4413 33.3088 27.3981C33.3753 27.3577 33.4648 27.3779 33.5082 27.447C33.6989 27.7611 33.7971 28.1271 33.7942 28.5334C33.7942 28.6141 33.7307 28.6775 33.6498 28.6775V28.6804Z" fill="white"/>
<path d="M27.4232 27.9744C27.3625 27.9744 27.3047 27.9369 27.2874 27.8764C27.2614 27.8015 27.3047 27.7208 27.3798 27.6949L30.8384 26.5566C31.5232 26.3319 32.2744 26.4154 32.8494 26.7843C32.9159 26.8275 32.9361 26.9168 32.8928 26.9831C32.8494 27.0494 32.7599 27.0696 32.6934 27.0263C32.1907 26.7065 31.5319 26.6316 30.928 26.8304L27.4694 27.9686C27.455 27.9744 27.4405 27.9773 27.4232 27.9773V27.9744Z" fill="white"/>
<path d="M86.1927 18.1319C90.6176 16.2642 92.6864 11.1728 90.8137 6.75987C88.9409 2.34698 83.8357 0.283701 79.4108 2.15141C74.986 4.01912 72.9171 9.11056 74.7899 13.5235C76.6626 17.9363 81.7679 19.9996 86.1927 18.1319Z" fill="white"/>
<path d="M82.8012 18.9579C77.9239 18.9579 73.9568 15.0015 73.9568 10.1374C73.9568 5.27331 77.9239 1.31689 82.8012 1.31689C87.6785 1.31689 91.6456 5.27331 91.6456 10.1374C91.6456 15.0015 87.6785 18.9579 82.8012 18.9579ZM82.8012 1.60505C78.0828 1.60505 74.2457 5.43179 74.2457 10.1374C74.2457 14.843 78.0857 18.6698 82.8012 18.6698C87.5167 18.6698 91.3567 14.843 91.3567 10.1374C91.3567 5.43179 87.5167 1.60505 82.8012 1.60505Z" fill="#263238"/>
<path d="M85.7975 13.774L78.21 11.2411C76.904 10.806 76.1932 9.38251 76.6295 8.08004C77.0658 6.77756 78.4932 6.06581 79.7992 6.50381L87.3867 9.03672C88.6927 9.47184 89.4035 10.8953 88.9672 12.1978C88.5309 13.5003 87.1035 14.2092 85.7975 13.774Z" fill="#253E96"/>
<path d="M80.2412 11.1807C80.2239 11.1807 80.2037 11.1778 80.1863 11.1692C80.1141 11.1375 80.0794 11.0539 80.1083 10.9819L81.3768 7.95332C81.4086 7.8784 81.4923 7.84382 81.5646 7.87552C81.6368 7.90722 81.6715 7.99079 81.6426 8.06282L80.3742 11.0914C80.351 11.1461 80.2961 11.1807 80.2412 11.1807Z" fill="#263238"/>
<path d="M84.4221 12.5695C84.4048 12.5695 84.3846 12.5666 84.3672 12.558C84.295 12.5263 84.2603 12.4427 84.2892 12.3707L85.5548 9.35079C85.5866 9.27586 85.6704 9.24128 85.7426 9.27298C85.8148 9.30468 85.8495 9.38825 85.8206 9.46028L84.5551 12.4802C84.5319 12.5349 84.477 12.5695 84.4221 12.5695Z" fill="#263238"/>
<path d="M81.2901 11.218C81.4321 11.218 81.5473 11.1032 81.5473 10.9615C81.5473 10.8199 81.4321 10.7051 81.2901 10.7051C81.1481 10.7051 81.033 10.8199 81.033 10.9615C81.033 11.1032 81.1481 11.218 81.2901 11.218Z" fill="#263238"/>
<path d="M83.8183 11.7164C83.8183 11.8576 83.7027 11.9729 83.5611 11.9729C83.4195 11.9729 83.304 11.8576 83.304 11.7164C83.304 11.5752 83.4195 11.46 83.5611 11.46C83.7027 11.46 83.8183 11.5752 83.8183 11.7164Z" fill="#263238"/>
<path d="M82.284 8.93577C82.426 8.93577 82.5412 8.82095 82.5412 8.67931C82.5412 8.53767 82.426 8.42285 82.284 8.42285C82.142 8.42285 82.0269 8.53767 82.0269 8.67931C82.0269 8.82095 82.142 8.93577 82.284 8.93577Z" fill="#263238"/>
<path d="M84.7775 9.41125C84.7775 9.55244 84.6619 9.66771 84.5203 9.66771C84.3788 9.66771 84.2632 9.55244 84.2632 9.41125C84.2632 9.27005 84.3788 9.15479 84.5203 9.15479C84.6619 9.15479 84.7775 9.27005 84.7775 9.41125Z" fill="#263238"/>
<path d="M86.592 14.0478C86.3146 14.0478 86.0315 14.0046 85.7541 13.9124L78.1666 11.3795C76.7797 10.9184 76.0313 9.41711 76.4936 8.03395C76.719 7.36831 77.19 6.82657 77.8256 6.5096C78.4613 6.19262 79.1779 6.14364 79.8482 6.36552L87.4357 8.89843C88.8226 9.35948 89.571 10.8608 89.1087 12.2439C88.7388 13.3476 87.7015 14.0478 86.592 14.0478ZM85.8437 13.6357C87.0803 14.0478 88.4181 13.3822 88.8313 12.1489C89.2445 10.9184 88.577 9.58136 87.3404 9.1693L79.7528 6.63639C79.1576 6.43756 78.5191 6.48366 77.9528 6.76606C77.3864 7.04845 76.9646 7.52968 76.7652 8.12328C76.352 9.35372 77.0195 10.6908 78.2561 11.1028L85.8437 13.6357Z" fill="#263238"/>
<path d="M49.9546 18.3441C54.7594 18.3441 58.6545 14.4595 58.6545 9.66765C58.6545 4.87579 54.7594 0.991211 49.9546 0.991211C45.1497 0.991211 41.2546 4.87579 41.2546 9.66765C41.2546 14.4595 45.1497 18.3441 49.9546 18.3441Z" fill="white"/>
<path d="M49.9545 18.4911C45.0772 18.4911 41.1101 14.5347 41.1101 9.67057C41.1101 4.80646 45.0772 0.847168 49.9545 0.847168C54.8318 0.847168 58.7989 4.80358 58.7989 9.66769C58.7989 14.5318 54.8318 18.4882 49.9545 18.4882V18.4911ZM49.9545 1.13533C45.2361 1.13533 41.399 4.96207 41.399 9.66769C41.399 14.3733 45.2361 18.2 49.9545 18.2C54.6729 18.2 58.51 14.3733 58.51 9.66769C58.51 4.96207 54.6729 1.13533 49.9545 1.13533Z" fill="#263238"/>
<path d="M54.9388 9.89238V13.4483C54.9388 14.3502 54.3638 15.0821 53.6531 15.0821H46.2562C45.5454 15.0821 44.9705 14.3502 44.9705 13.4483V9.89238C44.9705 8.99045 45.5454 8.25852 46.2562 8.25852H47.4727V6.19531H52.3933V8.25852H53.6531C54.3638 8.25852 54.9388 8.99045 54.9388 9.89238Z" fill="white"/>
<path d="M53.653 15.2262H46.2562C45.4674 15.2262 44.8259 14.428 44.8259 13.4483V9.89242C44.8259 8.91268 45.4674 8.11448 46.2562 8.11448H47.3281V6.19535C47.3281 6.11466 47.3917 6.05127 47.4726 6.05127H52.3932C52.4741 6.05127 52.5377 6.11466 52.5377 6.19535V8.11448H53.653C54.4418 8.11448 55.0832 8.91268 55.0832 9.89242V13.4483C55.0832 14.428 54.4418 15.2262 53.653 15.2262ZM46.2562 8.40264C45.6263 8.40264 45.1149 9.07117 45.1149 9.89242V13.4483C45.1149 14.2695 45.6263 14.9381 46.2562 14.9381H53.653C54.2829 14.9381 54.7943 14.2695 54.7943 13.4483V9.89242C54.7943 9.07117 54.2829 8.40264 53.653 8.40264H52.3932C52.3123 8.40264 52.2488 8.33924 52.2488 8.25856V6.33943H47.6171V8.25856C47.6171 8.33924 47.5535 8.40264 47.4726 8.40264H46.2562Z" fill="#263238"/>
<path d="M54.9389 10.3018H44.9734V12.5062H54.9389V10.3018Z" fill="#253E96"/>
<path d="M55.0833 12.6503H44.8289V10.1577H55.0833V12.6503ZM45.1178 12.3621H54.7943V10.4459H45.1178V12.3621Z" fill="#263238"/>
<path d="M48.1516 3.78076H51.8038C52.6619 3.78076 53.3583 4.47522 53.3583 5.33105V6.94186H46.5942V5.33105C46.5942 4.47522 47.2906 3.78076 48.1487 3.78076H48.1516Z" fill="#253E96"/>
<path d="M53.5056 7.08597H46.4526V5.33109C46.4526 4.39746 47.2154 3.63672 48.1516 3.63672H51.8038C52.7399 3.63672 53.5027 4.39746 53.5027 5.33109V7.08597H53.5056ZM46.7416 6.79781H53.2167V5.33109C53.2167 4.55594 52.5839 3.92488 51.8067 3.92488H48.1545C47.3772 3.92488 46.7445 4.55594 46.7445 5.33109V6.79781H46.7416Z" fill="#263238"/>
<path d="M47.7787 7.08614C47.6978 7.08614 47.6343 7.02275 47.6343 6.94206V3.87894C47.6343 3.79826 47.6978 3.73486 47.7787 3.73486C47.8596 3.73486 47.9232 3.79826 47.9232 3.87894V6.94206C47.9232 7.02275 47.8596 7.08614 47.7787 7.08614Z" fill="#263238"/>
<path d="M49.3766 7.08597C49.2957 7.08597 49.2322 7.02258 49.2322 6.94189V3.7808C49.2322 3.70011 49.2957 3.63672 49.3766 3.63672C49.4575 3.63672 49.5211 3.70011 49.5211 3.7808V6.94189C49.5211 7.02258 49.4575 7.08597 49.3766 7.08597Z" fill="#263238"/>
<path d="M50.9716 7.08597C50.8907 7.08597 50.8271 7.02258 50.8271 6.94189V3.7808C50.8271 3.70011 50.8907 3.63672 50.9716 3.63672C51.0525 3.63672 51.1161 3.70011 51.1161 3.7808V6.94189C51.1161 7.02258 51.0525 7.08597 50.9716 7.08597Z" fill="#263238"/>
<path d="M52.5695 7.08602C52.4886 7.08602 52.425 7.02263 52.425 6.94194V3.95951C52.425 3.87882 52.4886 3.81543 52.5695 3.81543C52.6504 3.81543 52.714 3.87882 52.714 3.95951V6.94194C52.714 7.02263 52.6504 7.08602 52.5695 7.08602Z" fill="#263238"/>
<path d="M27.6687 57.103C28.446 52.3743 25.2323 47.9125 20.4908 47.1373C15.7492 46.362 11.2753 49.567 10.498 54.2958C9.72071 59.0245 12.9344 63.4863 17.6759 64.2616C22.4175 65.0368 26.8914 61.8318 27.6687 57.103Z" fill="white"/>
<path d="M19.0815 64.5185C14.2042 64.5185 10.2371 60.5621 10.2371 55.698C10.2371 50.8339 14.2042 46.8774 19.0815 46.8774C23.9587 46.8774 27.9259 50.8339 27.9259 55.698C27.9259 60.5621 23.9587 64.5185 19.0815 64.5185ZM19.0815 47.1627C14.3631 47.1627 10.526 50.9895 10.526 55.6951C10.526 60.4007 14.3631 64.2274 19.0815 64.2274C23.7998 64.2274 27.6369 60.4007 27.6369 55.6951C27.6369 50.9895 23.7998 47.1627 19.0815 47.1627Z" fill="#263238"/>
<path d="M23.4964 57.9385C24.444 55.9402 23.1411 53.3434 20.5863 52.1385C18.0314 50.9335 15.1922 51.5767 14.2446 53.5751C13.297 55.5734 14.5999 58.1702 17.1547 59.3751C19.7095 60.58 22.5488 59.9369 23.4964 57.9385Z" fill="#253E96"/>
<path d="M19.7779 60.1245C18.9053 60.1245 17.9807 59.9257 17.0937 59.505C15.8281 58.9085 14.8226 57.9604 14.2592 56.8366C13.69 55.7013 13.638 54.5198 14.1176 53.5113C15.0971 51.4452 18.0299 50.768 20.6505 52.0042C23.2741 53.2404 24.609 55.9289 23.6295 57.9979C22.9823 59.3638 21.4798 60.1216 19.7808 60.1216L19.7779 60.1245ZM17.9576 51.6728C16.3685 51.6728 14.9729 52.3702 14.3748 53.6352C13.9356 54.5602 13.9847 55.6523 14.5135 56.707C15.048 57.7731 16.0073 58.6751 17.215 59.2427C19.6941 60.4127 22.4535 59.7989 23.3637 57.874C24.2767 55.9491 23.0025 53.4335 20.5234 52.2664C19.671 51.8659 18.7869 51.6728 17.9576 51.6728Z" fill="#263238"/>
<path d="M23.8123 57.2558C24.7012 55.3812 23.3507 52.8847 20.7959 51.6798C18.2411 50.4749 15.4494 51.0177 14.5605 52.8923C13.6715 54.767 15.022 57.2634 17.5768 58.4684C20.1316 59.6733 22.9233 59.1304 23.8123 57.2558Z" fill="#253E96"/>
<path d="M20.3239 59.2543C19.3993 59.2543 18.4313 59.0324 17.5154 58.6002C14.8919 57.364 13.5078 54.7763 14.4295 52.8313C15.3513 50.8862 18.2349 50.3128 20.8584 51.549C23.482 52.7852 24.8631 55.3728 23.9443 57.3179C23.4935 58.2659 22.5718 58.92 21.3496 59.1592C21.0173 59.2226 20.6764 59.2543 20.3268 59.2543H20.3239ZM18.0442 51.1801C16.533 51.1801 15.2357 51.8054 14.6925 52.9523C13.8401 54.7533 15.1606 57.168 17.6397 58.338C18.8474 58.9085 20.1448 59.0987 21.2918 58.8739C22.4245 58.6549 23.2711 58.0556 23.6814 57.1911C24.5337 55.3901 23.2133 52.9753 20.7342 51.8054C19.8356 51.3818 18.9052 51.1801 18.0442 51.1801Z" fill="#263238"/>
<path d="M17.5038 57.0842C17.4749 57.0842 17.446 57.0756 17.42 57.0583C17.3535 57.0122 17.3391 56.9229 17.3853 56.8566L20.5434 52.4247C20.5896 52.3584 20.6792 52.344 20.7457 52.3901C20.8121 52.4362 20.8266 52.5256 20.7803 52.5918L17.6222 57.0237C17.5934 57.064 17.55 57.0842 17.5038 57.0842Z" fill="#263238"/>
<path d="M20.006 52.2171C19.9887 52.2171 19.9742 52.2171 19.9569 52.2084C19.9511 52.2084 19.4281 52.024 18.7405 51.9375C18.6625 51.926 18.6047 51.854 18.6162 51.7762C18.6278 51.6984 18.6971 51.6436 18.778 51.6523C19.4946 51.7445 20.0291 51.9289 20.0522 51.9375C20.1274 51.9635 20.1678 52.047 20.1418 52.122C20.1216 52.1825 20.0638 52.2171 20.006 52.2171Z" fill="white"/>
<path d="M15.9553 56.1071C15.9149 56.1071 15.8773 56.0927 15.8484 56.061C15.8311 56.0437 14.1639 54.1822 15.8109 52.41C16.1605 52.0325 16.6401 51.7847 17.2295 51.6723C17.3076 51.6579 17.3827 51.7098 17.4 51.7876C17.4145 51.8654 17.3625 51.9403 17.2844 51.9576C16.7557 52.0585 16.331 52.2775 16.0218 52.6088C14.5511 54.1879 15.9987 55.8016 16.0593 55.8679C16.1142 55.9255 16.1085 56.0177 16.0507 56.0725C16.0218 56.0984 15.9871 56.11 15.9524 56.11L15.9553 56.1071Z" fill="white"/>
<path d="M119.307 57.1079C120.084 52.3792 116.87 47.9173 112.129 47.1421C107.387 46.3669 102.913 49.5719 102.136 54.3006C101.359 59.0294 104.572 63.4912 109.314 64.2664C114.055 65.0416 118.529 61.8367 119.307 57.1079Z" fill="white"/>
<path d="M110.713 64.5185C105.835 64.5185 101.868 60.5621 101.868 55.698C101.868 50.8339 105.835 46.8774 110.713 46.8774C115.59 46.8774 119.557 50.8339 119.557 55.698C119.557 60.5621 115.59 64.5185 110.713 64.5185ZM110.713 47.1627C105.994 47.1627 102.157 50.9895 102.157 55.6951C102.157 60.4007 105.994 64.2274 110.713 64.2274C115.431 64.2274 119.268 60.4007 119.268 55.6951C119.268 50.9895 115.428 47.1627 110.713 47.1627Z" fill="#263238"/>
<path d="M115.714 56.5739C115.648 56.669 115.581 56.767 115.512 56.8621C114.209 58.6631 112.201 60.343 110.713 60.6744V60.6514C109.265 60.3286 107.323 58.7294 106.02 56.9831C105.948 56.888 105.879 56.79 105.812 56.695C104.558 54.9026 104.03 53.0209 105.425 52.2429C108.263 50.6638 110.713 54.0497 110.713 54.0497C110.713 54.0497 113.169 50.6897 116 52.266C117.358 53.0209 116.893 54.8248 115.714 56.5739Z" fill="#253E96"/>
<path d="M110.568 60.8531V60.7638C109.167 60.3949 107.268 58.8965 105.905 57.0696C105.832 56.9745 105.76 56.8737 105.694 56.7786C104.72 55.3868 104.298 54.1246 104.503 53.2256C104.613 52.7443 104.902 52.3697 105.356 52.1162C106.566 51.4419 107.901 51.5514 109.216 52.4331C109.958 52.9317 110.493 53.5368 110.715 53.8134C110.941 53.5397 111.473 52.9403 112.218 52.4447C113.533 51.5715 114.865 51.4649 116.075 52.1392C116.523 52.387 116.809 52.7559 116.922 53.2285C117.13 54.0929 116.746 55.309 115.838 56.6518L115.775 56.7411C115.729 56.8103 115.679 56.8765 115.63 56.9428C114.241 58.8619 112.186 60.49 110.747 60.8099L110.571 60.8502L110.568 60.8531ZM106.968 51.9721C106.497 51.9721 106.003 52.0873 105.497 52.3669C105.119 52.5772 104.879 52.8884 104.786 53.289C104.599 54.1073 105.006 55.2859 105.931 56.6114C105.997 56.7036 106.064 56.8016 106.136 56.8938C107.5 58.7207 109.395 60.2076 110.744 60.5073H110.762C112.137 60.1615 114.067 58.6084 115.393 56.7757C115.443 56.7094 115.486 56.6431 115.532 56.5768L115.593 56.4904C116.454 55.2139 116.824 54.0785 116.636 53.2947C116.54 52.9028 116.304 52.5974 115.928 52.3899C113.244 50.8944 110.851 54.1016 110.828 54.1333L110.71 54.2946L110.594 54.1333C110.574 54.1073 108.999 51.9721 106.965 51.9721H106.968Z" fill="#263238"/>
<path d="M115.714 56.5742C115.648 56.6693 115.581 56.7673 115.512 56.8624H114.795L113.975 57.943L113.417 54.7386L112.556 56.9171H110.508L109.453 58.672L108.644 55.1421L107.601 56.9834H106.02C105.948 56.8883 105.879 56.7903 105.812 56.6952H107.433L108.759 54.3525L109.574 57.9113L110.346 56.629H112.36L113.527 53.6782L114.145 57.2399L114.651 56.5742H115.714Z" fill="white"/>
<path d="M102.348 38.6766C107.153 38.6766 111.048 34.792 111.048 30.0002C111.048 25.2083 107.153 21.3237 102.348 21.3237C97.543 21.3237 93.6479 25.2083 93.6479 30.0002C93.6479 34.792 97.543 38.6766 102.348 38.6766Z" fill="white"/>
<path d="M102.348 38.8237C97.4705 38.8237 93.5034 34.8672 93.5034 30.0031C93.5034 25.139 97.4705 21.1826 102.348 21.1826C107.225 21.1826 111.192 25.139 111.192 30.0031C111.192 34.8672 107.225 38.8237 102.348 38.8237ZM102.348 21.4679C97.6295 21.4679 93.7924 25.2946 93.7924 30.0003C93.7924 34.7059 97.6324 38.5326 102.348 38.5326C107.063 38.5326 110.903 34.7059 110.903 30.0003C110.903 25.2946 107.063 21.4679 102.348 21.4679Z" fill="#263238"/>
<path d="M101.692 25.9858C101.776 26.1731 101.256 26.5909 100.525 26.9136C99.7966 27.2392 99.1378 27.3487 99.054 27.1614C98.9702 26.9741 99.4903 26.5563 100.221 26.2336C100.952 25.9108 101.608 25.7985 101.692 25.9858Z" fill="white"/>
<path d="M99.3112 27.4007C99.1291 27.4007 98.9818 27.3546 98.924 27.2249C98.8517 27.0606 98.9558 26.8704 99.2447 26.6399C99.473 26.4584 99.7995 26.2682 100.164 26.1039C100.528 25.9397 100.886 25.8244 101.175 25.7754C101.539 25.7149 101.753 25.7639 101.825 25.9282C101.897 26.0924 101.793 26.2826 101.504 26.5131C101.276 26.6947 100.949 26.8849 100.585 27.0491C100.478 27.0952 99.7764 27.4035 99.3112 27.4035V27.4007ZM99.1956 27.101C99.3198 27.1442 99.8052 27.0808 100.467 26.784C101.129 26.4872 101.498 26.1702 101.55 26.0492C101.426 26.006 100.944 26.0694 100.279 26.3662C99.6174 26.663 99.2476 26.9799 99.1956 27.101Z" fill="#263238"/>
<path d="M105.61 34.0341L103.004 35.2933L100.672 30.4984L99.0598 27.1817L101.66 25.9253L103.235 29.1584L105.61 34.0341Z" fill="white"/>
<path d="M103.004 35.4376C102.949 35.4376 102.9 35.4087 102.874 35.3569L98.9298 27.2452C98.9125 27.2106 98.9096 27.1703 98.924 27.1357C98.9356 27.1011 98.9616 27.0694 98.9963 27.0522L101.6 25.7929C101.672 25.7583 101.759 25.7871 101.793 25.8592L105.74 33.9708C105.757 34.0054 105.76 34.0458 105.746 34.0803C105.734 34.1149 105.705 34.1466 105.674 34.1639L103.07 35.4231C103.05 35.4318 103.03 35.4376 103.007 35.4376H103.004ZM99.2534 27.2481L103.073 35.1004L105.419 33.9679L101.597 26.1156L99.2534 27.2481Z" fill="#263238"/>
<path d="M99.5393 28.1729L100.669 27.6514L99.5393 28.1729Z" fill="#253E96"/>
<path d="M99.6203 28.2908L99.548 28.1669H99.5394L99.4036 28.1208C99.4228 28.0709 99.8254 27.8692 100.611 27.5157C100.684 27.484 100.77 27.5157 100.802 27.5877C100.834 27.6598 100.802 27.7462 100.73 27.7779C100.334 27.9566 99.6838 28.2505 99.6203 28.288V28.2908Z" fill="#263238"/>
<path d="M100.033 29.2164L101.163 28.6948L100.033 29.2164Z" fill="#253E96"/>
<path d="M100.111 29.3343L100.039 29.2104H100.031L99.8948 29.1643C99.9121 29.1143 100.315 28.9126 101.103 28.5591C101.175 28.5275 101.261 28.5591 101.293 28.6312C101.325 28.7032 101.293 28.7897 101.221 28.8214C100.825 29 100.175 29.294 100.111 29.3314V29.3343Z" fill="#263238"/>
<path d="M104.003 34.8091L105.344 36.5697L104.674 34.4863L104.003 34.8091Z" fill="white"/>
<path d="M105.344 36.714C105.301 36.714 105.257 36.6938 105.229 36.6564L103.888 34.8986C103.862 34.864 103.853 34.8208 103.862 34.7776C103.871 34.7344 103.899 34.6998 103.94 34.6825L104.61 34.3598C104.648 34.3425 104.691 34.3396 104.729 34.3598C104.766 34.3771 104.798 34.4088 104.81 34.4491L105.48 36.5325C105.503 36.5988 105.471 36.6708 105.411 36.7054C105.39 36.7169 105.367 36.7227 105.344 36.7227V36.714ZM104.226 34.864L104.951 35.815L104.59 34.6912L104.229 34.8669L104.226 34.864Z" fill="#263238"/>
<path d="M105.61 34.0338C105 34.6447 104.223 35.0568 103.377 35.221L103.007 35.2931L100.675 30.4981L103.238 29.1582L105.613 34.0338H105.61Z" fill="#253E96"/>
<path d="M102.923 35.4546L100.481 30.4349L103.299 28.9624L105.783 34.0657L105.711 34.1377C105.078 34.7717 104.281 35.1953 103.4 35.3653L102.92 35.4575L102.923 35.4546ZM100.863 30.5617L103.085 35.1319L103.345 35.0829C104.134 34.9302 104.853 34.5584 105.431 34.0081L103.166 29.3572L100.86 30.5617H100.863Z" fill="#263238"/>
<path d="M101.163 31.5531C101.108 31.5531 101.056 31.5214 101.033 31.4695C100.998 31.3975 101.033 31.311 101.102 31.2793L102.163 30.7894C102.235 30.7549 102.322 30.7894 102.354 30.8586C102.388 30.9306 102.354 31.0171 102.284 31.0488L101.224 31.5387C101.204 31.5473 101.183 31.5531 101.163 31.5531Z" fill="#263238"/>
<path d="M101.747 32.5242L102.79 32.0459L101.747 32.5242Z" fill="#253E96"/>
<path d="M101.825 32.6422L101.753 32.5183H101.744L101.608 32.4722C101.627 32.4222 102.001 32.2359 102.729 31.9132C102.801 31.8815 102.888 31.9132 102.92 31.9852C102.952 32.0572 102.92 32.1437 102.848 32.1754C102.394 32.3771 101.88 32.6076 101.825 32.6393V32.6422Z" fill="#263238"/>
<path d="M99.9614 26.7467L99.1379 24.8997L99.7823 24.5337L100.672 26.4038L99.9614 26.7467Z" fill="white"/>
<path d="M99.9613 26.8909C99.944 26.8909 99.9266 26.888 99.9122 26.8822C99.8746 26.8678 99.8457 26.8419 99.8284 26.8044L99.0049 24.9573C98.976 24.891 99.002 24.8104 99.0656 24.7729L99.7099 24.4069C99.7446 24.3868 99.7879 24.3839 99.8255 24.3954C99.8631 24.4069 99.8948 24.4358 99.9122 24.4703L100.802 26.3405C100.837 26.4125 100.805 26.4961 100.736 26.5307L100.025 26.8736C100.005 26.8822 99.9844 26.888 99.9613 26.888V26.8909ZM99.3227 24.9602L100.034 26.5508L100.481 26.3347L99.7215 24.7354L99.3256 24.9602H99.3227Z" fill="#263238"/>
<path d="M101.371 24.3091L101.178 23.874L97.7104 25.4214L97.904 25.8566C97.9849 26.0381 98.8286 25.8393 99.785 25.4099C100.741 24.9834 101.452 24.4878 101.371 24.3063V24.3091Z" fill="white"/>
<path d="M98.1179 26.0668C97.9475 26.0668 97.8203 26.0235 97.7741 25.9169L97.5805 25.4818C97.5661 25.4472 97.5632 25.4069 97.5776 25.3723C97.5921 25.3377 97.6181 25.3089 97.6527 25.2916L101.12 23.7442C101.192 23.7125 101.279 23.7442 101.311 23.8162L101.504 24.2514C101.695 24.6778 100.282 25.3492 99.8458 25.5452C99.5193 25.6922 98.6265 26.0668 98.1179 26.0668ZM98.0255 25.7757C98.1555 25.8132 98.7709 25.7066 99.7273 25.2801C100.681 24.8536 101.169 24.4675 101.23 24.3436L101.106 24.0641L97.9012 25.4933L98.0255 25.7728V25.7757Z" fill="#263238"/>
<path d="M101.178 23.8738C101.097 23.6923 100.253 23.8911 99.2966 24.3205C98.3403 24.7469 97.6295 25.2426 97.7104 25.4241C97.7913 25.6056 98.635 25.4068 99.5914 24.9775C100.548 24.551 101.259 24.0554 101.178 23.8738Z" fill="white"/>
<path d="M97.9242 25.6315C97.7538 25.6315 97.6266 25.5883 97.5804 25.4817C97.5053 25.3117 97.644 25.1157 98.034 24.8449C98.3403 24.6316 98.7679 24.3982 99.2389 24.1879C99.6752 23.9919 101.12 23.3868 101.311 23.8161C101.501 24.2426 100.088 24.914 99.6521 25.11C99.3256 25.2569 98.4328 25.6315 97.9242 25.6315ZM97.8809 25.3463C98.0831 25.3549 98.6668 25.231 99.5336 24.8449C100.4 24.4587 100.88 24.1043 101.007 23.9487C100.802 23.94 100.221 24.064 99.3545 24.4501C98.4877 24.8362 98.008 25.1907 97.8809 25.3463Z" fill="#263238"/>
</g>
<defs>
<clipPath id="clip0_270_2187">
<rect width="127" height="126" fill="white" transform="translate(0 0.847168)"/>
</clipPath>
</defs>
</svg>
