<svg width="21" height="21" viewBox="0 0 21 21" fill="none" xmlns="http://www.w3.org/2000/svg">
<g clip-path="url(#clip0_185_1781)">
<path d="M0.242188 2.81233C0.402872 2.4487 0.69033 2.34488 1.0743 2.34592C4.08766 2.35479 7.10101 2.35114 10.1144 2.35114C10.1984 2.35114 10.2824 2.35114 10.3596 2.35114C10.8395 0.883591 11.7989 0.0285203 13.3682 0.0916464C14.8019 0.149555 15.6601 1.00202 16.0863 2.35062C16.1567 2.35062 16.2339 2.35062 16.3117 2.35062C17.3984 2.35062 18.4856 2.34905 19.5723 2.35166C19.8932 2.35219 20.1212 2.51704 20.2109 2.7972C20.2928 3.05388 20.2104 3.33873 19.9714 3.48011C19.8452 3.55471 19.6798 3.59384 19.5311 3.5954C18.4574 3.60479 17.3833 3.60062 16.3096 3.60062C16.2381 3.60062 16.1672 3.60062 16.0832 3.60062C16.0644 3.65018 16.043 3.69609 16.0294 3.74357C15.6663 5.01809 14.5395 5.88411 13.2347 5.89037C11.9372 5.89663 10.7915 5.03322 10.4316 3.76078C10.3867 3.60166 10.3022 3.6001 10.1791 3.6001C7.12658 3.60166 4.07409 3.59749 1.02161 3.60636C0.642334 3.6074 0.384091 3.4775 0.242188 3.12587V2.81337L0.242188 2.81233ZM13.2242 1.32287C12.3034 1.32391 11.5652 2.0642 11.5673 2.98449C11.5699 3.89121 12.3087 4.63359 13.2159 4.64037C14.1242 4.64716 14.8843 3.89277 14.8864 2.98292C14.888 2.06786 14.1409 1.32182 13.2242 1.32287Z" fill="#253E96"/>
<path d="M0.242221 17.0278C0.382037 16.6735 0.640802 16.5457 1.0206 16.5468C4.06735 16.5556 7.11409 16.5509 10.1603 16.5551C10.3189 16.5551 10.3935 16.5202 10.4405 16.3527C10.7796 15.134 11.9388 14.268 13.2175 14.2622C14.4962 14.2565 15.6664 15.1314 16.0175 16.3553C16.0352 16.4174 16.0529 16.479 16.0738 16.5515C16.1578 16.5515 16.2355 16.5515 16.3133 16.5515C17.4135 16.5515 18.5138 16.5494 19.6136 16.5536C19.9297 16.5546 20.1807 16.7721 20.2334 17.07C20.2824 17.3476 20.1212 17.6476 19.8515 17.7462C19.7445 17.7853 19.623 17.7983 19.5077 17.7989C18.4403 17.8025 17.3723 17.8009 16.3049 17.8009H16.0827C16.018 17.9815 15.9684 18.163 15.8907 18.331C15.4519 19.2768 14.7231 19.8544 13.6917 20.0417C13.6604 20.0474 13.6312 20.0625 13.6004 20.0735H12.8194C12.784 20.061 12.7495 20.0432 12.713 20.0364C12.149 19.9311 11.6566 19.6848 11.2376 19.2935C10.8036 18.8882 10.526 18.3905 10.3805 17.8015H10.1238C7.10731 17.8015 4.0903 17.7973 1.07382 17.8067C0.68932 17.8077 0.406036 17.6982 0.241699 17.3398V17.0273L0.242221 17.0278ZM13.2159 18.8292C14.1357 18.8334 14.8849 18.0931 14.8864 17.178C14.8885 16.2677 14.1336 15.5107 13.2248 15.5122C12.3186 15.5138 11.5741 16.2536 11.5679 17.1593C11.5616 18.0806 12.2962 18.825 13.2159 18.8292Z" fill="#253E96"/>
<path d="M0.242188 9.9201C0.394003 9.56325 0.664245 9.44013 1.0477 9.44587C2.09528 9.46204 3.1439 9.45161 4.192 9.45161H4.40172C4.82848 7.82285 6.20316 7.1629 7.26796 7.16603C8.33536 7.16916 9.67666 7.82233 10.1154 9.45161H10.3429C13.3896 9.45161 16.4358 9.45161 19.4826 9.45161C19.5608 9.45161 19.6401 9.44743 19.7163 9.45995C20.0304 9.51004 20.2589 9.79854 20.2401 10.1142C20.2218 10.422 19.973 10.6745 19.661 10.699C19.5895 10.7047 19.5181 10.7016 19.4461 10.7016C16.4124 10.7016 13.3792 10.7016 10.3455 10.7016H10.1039C9.91769 11.4534 9.51806 12.0518 8.88524 12.4848C8.3938 12.8213 7.84549 12.9809 7.2497 12.9846C6.13847 12.9914 4.80761 12.2714 4.40277 10.7016H3.17729C2.46777 10.7016 1.75773 10.688 1.04874 10.7073C0.664245 10.7178 0.395568 10.5884 0.242188 10.2331V9.92062L0.242188 9.9201ZM7.2617 11.7335C8.18042 11.7304 8.91863 10.987 8.9155 10.0672C8.91289 9.15789 8.17624 8.42333 7.26379 8.41916C6.3482 8.41498 5.59695 9.16102 5.59695 10.0745C5.59695 10.9885 6.34768 11.7361 7.2617 11.733V11.7335Z" fill="#253E96"/>
</g>
<defs>
<clipPath id="clip0_185_1781">
<rect width="20" height="19.9849" fill="white" transform="translate(0.242188 0.088623)"/>
</clipPath>
</defs>
</svg>
